G04*
G04 #@! TF.GenerationSoftware,Altium Limited,Altium Designer,22.1.2 (22)*
G04*
G04 Layer_Physical_Order=6*
G04 Layer_Color=16711680*
%FSLAX23Y23*%
%MOIN*%
G70*
G04*
G04 #@! TF.SameCoordinates,EFA1FED7-213C-4DAE-99C9-92C2F6BD185D*
G04*
G04*
G04 #@! TF.FilePolarity,Positive*
G04*
G01*
G75*
%ADD15C,0.010*%
%ADD70R,0.061X0.061*%
%ADD135C,0.061*%
%ADD138C,0.045*%
%ADD147R,0.097X0.097*%
%ADD148C,0.097*%
%ADD149R,0.103X0.103*%
%ADD150C,0.103*%
%ADD151R,0.083X0.083*%
%ADD152C,0.083*%
%ADD153C,0.012*%
%ADD154R,0.083X0.083*%
%ADD155C,0.050*%
D15*
X4850Y765D02*
X5225D01*
X3480Y5598D02*
Y5940D01*
Y5598D02*
X3484Y5594D01*
X3207Y6213D02*
Y6792D01*
Y6213D02*
X3480Y5940D01*
D70*
X5043Y3963D02*
D03*
X5038Y3463D02*
D03*
X2813Y2903D02*
D03*
D135*
X5357Y3727D02*
D03*
X5043D02*
D03*
X5357Y3963D02*
D03*
X5352Y3227D02*
D03*
X5038D02*
D03*
X5352Y3463D02*
D03*
X3127Y2667D02*
D03*
X2813D02*
D03*
X3127Y2903D02*
D03*
D138*
X780Y6825D02*
D03*
Y6625D02*
D03*
X777Y7565D02*
D03*
Y7365D02*
D03*
X780Y6725D02*
D03*
X777Y7465D02*
D03*
D147*
X460Y8390D02*
D03*
X450Y4250D02*
D03*
X455Y6100D02*
D03*
X450Y5182D02*
D03*
Y3330D02*
D03*
Y2395D02*
D03*
X445Y1445D02*
D03*
D148*
X460Y8190D02*
D03*
Y7990D02*
D03*
X450Y3850D02*
D03*
X455Y5700D02*
D03*
X450Y4782D02*
D03*
X445Y1045D02*
D03*
X450Y1995D02*
D03*
Y2930D02*
D03*
Y3650D02*
D03*
Y4050D02*
D03*
X455Y5500D02*
D03*
Y5900D02*
D03*
X450Y4582D02*
D03*
Y4982D02*
D03*
Y3130D02*
D03*
Y2730D02*
D03*
Y2195D02*
D03*
Y1795D02*
D03*
X445Y1245D02*
D03*
Y845D02*
D03*
D149*
X740Y7940D02*
D03*
X285Y6840D02*
D03*
D150*
X740Y8096D02*
D03*
X285Y6684D02*
D03*
D151*
X462Y7305D02*
D03*
D152*
Y7505D02*
D03*
X195Y502D02*
D03*
X1455Y495D02*
D03*
X2085Y510D02*
D03*
X815Y495D02*
D03*
D153*
X2039Y1356D02*
D03*
Y1428D02*
D03*
X2075Y1320D02*
D03*
Y1392D02*
D03*
Y1464D02*
D03*
X2111Y1356D02*
D03*
Y1428D02*
D03*
X2147Y1320D02*
D03*
Y1392D02*
D03*
Y1464D02*
D03*
X2183Y1356D02*
D03*
Y1428D02*
D03*
D154*
X395Y502D02*
D03*
X1655Y495D02*
D03*
X2285Y510D02*
D03*
X1015Y495D02*
D03*
D155*
X1770Y2790D02*
D03*
X2910Y4860D02*
D03*
X1310Y7325D02*
D03*
X4195Y6215D02*
D03*
X4870Y6880D02*
D03*
X4955Y6660D02*
D03*
X4820Y7070D02*
D03*
X4595Y2866D02*
D03*
X4280Y2715D02*
D03*
X4005Y2600D02*
D03*
X4185Y2225D02*
D03*
X4135Y1860D02*
D03*
X4740Y2275D02*
D03*
X5225Y765D02*
D03*
X4850D02*
D03*
X4725Y740D02*
D03*
X4060Y700D02*
D03*
X1995Y7010D02*
D03*
X4725Y7100D02*
D03*
X3355Y8055D02*
D03*
X2260Y7155D02*
D03*
X3484Y5594D02*
D03*
X3207Y6792D02*
D03*
X1335Y7210D02*
D03*
X2395Y7190D02*
D03*
X3095Y7705D02*
D03*
X3051Y7573D02*
D03*
X5575Y6975D02*
D03*
X5115Y6980D02*
D03*
X4735Y5785D02*
D03*
X4885Y5640D02*
D03*
X4990Y5940D02*
D03*
X5355Y4680D02*
D03*
X670Y6210D02*
D03*
X4915Y2255D02*
D03*
X725Y655D02*
D03*
X4105Y305D02*
D03*
X4794Y1228D02*
D03*
X5168Y896D02*
D03*
X4360Y1115D02*
D03*
X4750Y2150D02*
D03*
X4045Y2205D02*
D03*
X4425Y665D02*
D03*
X4075Y800D02*
D03*
X4555Y230D02*
D03*
X5440Y7035D02*
D03*
X5610Y7780D02*
D03*
X5005Y7235D02*
D03*
X4970Y7600D02*
D03*
X5230Y6870D02*
D03*
X4745Y6485D02*
D03*
X4660Y6438D02*
D03*
X4735Y6585D02*
D03*
X4683Y6382D02*
D03*
X2630Y7350D02*
D03*
X4095Y6040D02*
D03*
X4325Y5920D02*
D03*
X4767Y1766D02*
D03*
X4690Y6725D02*
D03*
X5710Y6395D02*
D03*
X4755Y6780D02*
D03*
X5644Y6315D02*
D03*
X5345Y6320D02*
D03*
X4950Y6355D02*
D03*
X5050Y6310D02*
D03*
X4980Y6860D02*
D03*
X4735Y5965D02*
D03*
X4375Y6225D02*
D03*
X4690Y5905D02*
D03*
X4525Y6025D02*
D03*
X4760Y6180D02*
D03*
X4670Y6280D02*
D03*
X4495Y6160D02*
D03*
X4760Y6310D02*
D03*
X4465Y6875D02*
D03*
X4520Y6755D02*
D03*
X4575Y6230D02*
D03*
X4955Y6440D02*
D03*
X5120Y6305D02*
D03*
X3675Y6054D02*
D03*
X4055Y6375D02*
D03*
X3995Y6315D02*
D03*
X4005Y6460D02*
D03*
X4090Y6465D02*
D03*
X4165Y6370D02*
D03*
X4040Y6230D02*
D03*
X3910Y6590D02*
D03*
X3655Y6710D02*
D03*
X2490Y5425D02*
D03*
X2485Y5525D02*
D03*
X3045Y5715D02*
D03*
X2455Y5705D02*
D03*
X2540Y5790D02*
D03*
X2795Y4925D02*
D03*
X4710Y3360D02*
D03*
X4925Y3480D02*
D03*
X4950Y4105D02*
D03*
X4710Y3740D02*
D03*
X4155Y3725D02*
D03*
X4150Y3805D02*
D03*
X2730Y4510D02*
D03*
X4110Y4060D02*
D03*
X4035Y4095D02*
D03*
X4130Y3970D02*
D03*
X4128Y4173D02*
D03*
X3585Y4445D02*
D03*
X3670Y4440D02*
D03*
X3790Y4575D02*
D03*
X3375Y4530D02*
D03*
X3390Y4800D02*
D03*
X4165Y4940D02*
D03*
X3780Y4660D02*
D03*
X3575D02*
D03*
X3835Y4515D02*
D03*
X3595Y3490D02*
D03*
X3495Y3500D02*
D03*
X3140Y3550D02*
D03*
X3345Y3413D02*
D03*
X4044Y3231D02*
D03*
X4560Y2305D02*
D03*
X4335Y1830D02*
D03*
X3245Y3665D02*
D03*
X2855Y4100D02*
D03*
X2745Y4050D02*
D03*
X2850Y3960D02*
D03*
X2990Y3895D02*
D03*
X3140Y4205D02*
D03*
X3105Y3095D02*
D03*
X3740Y2670D02*
D03*
X4135Y3900D02*
D03*
X4195Y4025D02*
D03*
X4190Y4125D02*
D03*
Y4215D02*
D03*
X4265Y4095D02*
D03*
X3105Y3765D02*
D03*
X2980Y3035D02*
D03*
X3465Y3620D02*
D03*
X3850Y3450D02*
D03*
X3765Y3420D02*
D03*
X3930Y3660D02*
D03*
X2375Y1935D02*
D03*
X2310Y1870D02*
D03*
X2925Y2070D02*
D03*
X3990Y3755D02*
D03*
X4095Y3520D02*
D03*
X4070Y3390D02*
D03*
X2060Y2810D02*
D03*
X2070Y3430D02*
D03*
X2030Y4140D02*
D03*
X2040Y4735D02*
D03*
X1965Y6065D02*
D03*
X2060Y5400D02*
D03*
X2975Y6277D02*
D03*
X2590Y6260D02*
D03*
X3440Y5370D02*
D03*
X2990Y5295D02*
D03*
X2546Y3056D02*
D03*
X3454Y2975D02*
D03*
X2805Y3465D02*
D03*
X2425Y3450D02*
D03*
X2345Y4385D02*
D03*
X2531Y4896D02*
D03*
X2390Y5125D02*
D03*
X2210Y5675D02*
D03*
X1750Y6075D02*
D03*
X1700Y5590D02*
D03*
X1725Y4880D02*
D03*
X1710Y4260D02*
D03*
X1728Y3590D02*
D03*
X1735Y2350D02*
D03*
X2345Y2425D02*
D03*
X2460Y2555D02*
D03*
X3050Y1500D02*
D03*
X2188Y2197D02*
D03*
X2380Y950D02*
D03*
X1590Y995D02*
D03*
X1270Y1150D02*
D03*
X1210Y745D02*
D03*
X1480Y755D02*
D03*
X3590Y3565D02*
D03*
X2362Y5227D02*
D03*
X4155Y4660D02*
D03*
Y4535D02*
D03*
Y4450D02*
D03*
Y4355D02*
D03*
X3200Y3935D02*
D03*
X4120Y4275D02*
D03*
X4715Y3975D02*
D03*
X4710Y3895D02*
D03*
Y3815D02*
D03*
X2600Y4965D02*
D03*
X4252Y4930D02*
D03*
X3005Y4125D02*
D03*
X3980Y5200D02*
D03*
M02*
