G04*
G04 #@! TF.GenerationSoftware,Altium Limited,Altium Designer,22.1.2 (22)*
G04*
G04 Layer_Color=32768*
%FSLAX23Y23*%
%MOIN*%
G70*
G04*
G04 #@! TF.SameCoordinates,EFA1FED7-213C-4DAE-99C9-92C2F6BD185D*
G04*
G04*
G04 #@! TF.FilePolarity,Positive*
G04*
G01*
G75*
%ADD171C,0.001*%
%ADD172C,0.003*%
D171*
X5358Y7350D02*
X5368D01*
X5363Y7340D02*
X5368Y7350D01*
X5358D02*
X5363Y7340D01*
X5358Y7270D02*
X5368D01*
X5363Y7280D02*
X5368Y7270D01*
X5358D02*
X5363Y7280D01*
Y7340D02*
Y7390D01*
Y7230D02*
Y7280D01*
X5190Y7340D02*
X5378D01*
X5190Y7280D02*
X5378D01*
X5458Y7590D02*
X5468D01*
X5463Y7600D02*
X5468Y7590D01*
X5458D02*
X5463Y7600D01*
X5458Y7290D02*
X5468D01*
X5463Y7280D02*
X5468Y7290D01*
X5458D02*
X5463Y7280D01*
Y7600D01*
X5190D02*
X5478D01*
X5190Y7280D02*
X5478D01*
X5303Y7761D02*
Y7771D01*
X5313Y7766D01*
X5303Y7761D02*
X5313Y7766D01*
X5077Y7761D02*
Y7771D01*
X5067Y7766D02*
X5077Y7771D01*
X5067Y7766D02*
X5077Y7761D01*
X5067Y7766D02*
X5313D01*
Y7616D02*
Y7781D01*
X5067Y7616D02*
Y7781D01*
X5263Y7661D02*
Y7671D01*
X5253Y7666D02*
X5263Y7671D01*
X5253Y7666D02*
X5263Y7661D01*
X5117D02*
Y7671D01*
X5127Y7666D01*
X5117Y7661D02*
X5127Y7666D01*
X5253D02*
X5303D01*
X5077D02*
X5127D01*
X5253Y7616D02*
Y7681D01*
X5127Y7616D02*
Y7681D01*
X4177Y7327D02*
X4187D01*
X4182Y7317D02*
X4187Y7327D01*
X4177D02*
X4182Y7317D01*
X4177Y7247D02*
X4187D01*
X4182Y7257D02*
X4187Y7247D01*
X4177D02*
X4182Y7257D01*
Y7317D02*
Y7367D01*
Y7207D02*
Y7257D01*
X4009Y7317D02*
X4197D01*
X4009Y7257D02*
X4197D01*
X4277Y7567D02*
X4287D01*
X4282Y7577D02*
X4287Y7567D01*
X4277D02*
X4282Y7577D01*
X4277Y7267D02*
X4287D01*
X4282Y7257D02*
X4287Y7267D01*
X4277D02*
X4282Y7257D01*
Y7577D01*
X4009D02*
X4297D01*
X4009Y7257D02*
X4297D01*
X4122Y7738D02*
Y7748D01*
X4132Y7743D01*
X4122Y7738D02*
X4132Y7743D01*
X3896Y7738D02*
Y7748D01*
X3886Y7743D02*
X3896Y7748D01*
X3886Y7743D02*
X3896Y7738D01*
X3886Y7743D02*
X4132D01*
Y7593D02*
Y7758D01*
X3886Y7593D02*
Y7758D01*
X4082Y7638D02*
Y7648D01*
X4072Y7643D02*
X4082Y7648D01*
X4072Y7643D02*
X4082Y7638D01*
X3936D02*
Y7648D01*
X3946Y7643D01*
X3936Y7638D02*
X3946Y7643D01*
X4072D02*
X4122D01*
X3896D02*
X3946D01*
X4072Y7593D02*
Y7658D01*
X3946Y7593D02*
Y7658D01*
X4201Y5643D02*
X4266D01*
X4201Y5517D02*
X4266D01*
X4251Y5643D02*
Y5693D01*
Y5467D02*
Y5517D01*
X4246Y5653D02*
X4251Y5643D01*
X4256Y5653D01*
X4246D02*
X4256D01*
X4246Y5507D02*
X4251Y5517D01*
X4256Y5507D01*
X4246D02*
X4256D01*
X4201Y5703D02*
X4366D01*
X4201Y5457D02*
X4366D01*
X4351D02*
Y5703D01*
X4346Y5693D02*
X4351Y5703D01*
X4356Y5693D01*
X4346D02*
X4356D01*
X4346Y5467D02*
X4351Y5457D01*
X4356Y5467D01*
X4346D02*
X4356D01*
X3865Y5292D02*
Y5580D01*
X4185Y5292D02*
Y5580D01*
X3865Y5307D02*
X4185D01*
X3865D02*
X3875Y5312D01*
X3865Y5307D02*
X3875Y5302D01*
Y5312D01*
X4175D02*
X4185Y5307D01*
X4175Y5302D02*
X4185Y5307D01*
X4175Y5302D02*
Y5312D01*
X3865Y5392D02*
Y5580D01*
X3925Y5392D02*
Y5580D01*
X3815Y5407D02*
X3865D01*
X3925D02*
X3975D01*
X3855Y5412D02*
X3865Y5407D01*
X3855Y5402D02*
X3865Y5407D01*
X3855Y5402D02*
Y5412D01*
X3925Y5407D02*
X3935Y5412D01*
X3925Y5407D02*
X3935Y5402D01*
Y5412D01*
X4661Y7601D02*
Y7666D01*
X4787Y7601D02*
Y7666D01*
X4611Y7651D02*
X4661D01*
X4787D02*
X4837D01*
X4651Y7646D02*
X4661Y7651D01*
X4651Y7656D02*
X4661Y7651D01*
X4651Y7646D02*
Y7656D01*
X4787Y7651D02*
X4797Y7646D01*
X4787Y7651D02*
X4797Y7656D01*
Y7646D02*
Y7656D01*
X4601Y7601D02*
Y7766D01*
X4847Y7601D02*
Y7766D01*
X4601Y7751D02*
X4847D01*
X4601D02*
X4611Y7746D01*
X4601Y7751D02*
X4611Y7756D01*
Y7746D02*
Y7756D01*
X4837Y7746D02*
X4847Y7751D01*
X4837Y7756D02*
X4847Y7751D01*
X4837Y7746D02*
Y7756D01*
X4724Y7265D02*
X5012D01*
X4724Y7585D02*
X5012D01*
X4997Y7265D02*
Y7585D01*
X4992Y7275D02*
X4997Y7265D01*
X5002Y7275D01*
X4992D02*
X5002D01*
X4992Y7575D02*
X4997Y7585D01*
X5002Y7575D01*
X4992D02*
X5002D01*
X4724Y7265D02*
X4912D01*
X4724Y7325D02*
X4912D01*
X4897Y7215D02*
Y7265D01*
Y7325D02*
Y7375D01*
X4892Y7255D02*
X4897Y7265D01*
X4902Y7255D01*
X4892D02*
X4902D01*
X4892Y7335D02*
X4897Y7325D01*
X4902Y7335D01*
X4892D02*
X4902D01*
X832Y5880D02*
X842D01*
X832D02*
X837Y5890D01*
X842Y5880D01*
X832Y5960D02*
X842D01*
X832D02*
X837Y5950D01*
X842Y5960D01*
X837Y5840D02*
Y5890D01*
Y5950D02*
Y6000D01*
X822Y5890D02*
X965D01*
X822Y5950D02*
X965D01*
X733Y5740D02*
X743D01*
X733D02*
X738Y5730D01*
X743Y5740D01*
X733Y5940D02*
X743D01*
X733D02*
X738Y5950D01*
X743Y5940D01*
X738Y5730D02*
Y5950D01*
X723Y5730D02*
X965D01*
X723Y5950D02*
X965D01*
X897Y5559D02*
Y5569D01*
X887Y5564D02*
X897Y5559D01*
X887Y5564D02*
X897Y5569D01*
X1033Y5559D02*
Y5569D01*
Y5559D02*
X1043Y5564D01*
X1033Y5569D02*
X1043Y5564D01*
X887D02*
X1043D01*
X887Y5549D02*
Y5714D01*
X1043Y5549D02*
Y5714D01*
X912Y5659D02*
Y5669D01*
Y5659D02*
X922Y5664D01*
X912Y5669D02*
X922Y5664D01*
X1018Y5659D02*
Y5669D01*
X1008Y5664D02*
X1018Y5659D01*
X1008Y5664D02*
X1018Y5669D01*
X872Y5664D02*
X922D01*
X1008D02*
X1058D01*
X922Y5649D02*
Y5714D01*
X1008Y5649D02*
Y5714D01*
X645Y6825D02*
X748D01*
X645Y6625D02*
X748D01*
X655D02*
Y6825D01*
X660Y6815D01*
X650D02*
X660D01*
X650D02*
X655Y6825D01*
Y6625D02*
X660Y6635D01*
X650D02*
X660D01*
X650D02*
X655Y6625D01*
X800Y6463D02*
Y6715D01*
X780Y6463D02*
Y6593D01*
Y6473D02*
X800D01*
X790Y6478D02*
X800Y6473D01*
X790Y6468D02*
Y6478D01*
Y6468D02*
X800Y6473D01*
X780D02*
X790Y6478D01*
Y6468D02*
Y6478D01*
X780Y6473D02*
X790Y6468D01*
X642Y7565D02*
X745D01*
X642Y7365D02*
X745D01*
X652D02*
Y7565D01*
X657Y7555D01*
X647D02*
X657D01*
X647D02*
X652Y7565D01*
Y7365D02*
X657Y7375D01*
X647D02*
X657D01*
X647D02*
X652Y7365D01*
X797Y7203D02*
Y7455D01*
X777Y7203D02*
Y7332D01*
Y7213D02*
X797D01*
X787Y7218D02*
X797Y7213D01*
X787Y7208D02*
Y7218D01*
Y7208D02*
X797Y7213D01*
X777D02*
X787Y7218D01*
Y7208D02*
Y7218D01*
X777Y7213D02*
X787Y7208D01*
X4946Y7902D02*
X5011D01*
X4946Y7988D02*
X5011D01*
X4961Y7852D02*
Y7902D01*
Y7988D02*
Y8038D01*
Y7902D02*
X4966Y7892D01*
X4956D02*
X4961Y7902D01*
X4956Y7892D02*
X4966D01*
X4961Y7988D02*
X4966Y7998D01*
X4956D02*
X4961Y7988D01*
X4956Y7998D02*
X4966D01*
X4846Y7867D02*
X5011D01*
X4846Y8023D02*
X5011D01*
X4861Y7867D02*
Y8023D01*
Y7867D02*
X4866Y7878D01*
X4856D02*
X4861Y7867D01*
X4856Y7878D02*
X4866D01*
X4861Y8023D02*
X4866Y8012D01*
X4856D02*
X4861Y8023D01*
X4856Y8012D02*
X4866D01*
X5247Y7945D02*
Y8188D01*
X5027Y7945D02*
Y8188D01*
Y8172D02*
X5247D01*
X5237Y8167D02*
X5247Y8172D01*
X5237Y8177D02*
X5247Y8172D01*
X5237Y8167D02*
Y8177D01*
X5027Y8172D02*
X5037Y8167D01*
X5027Y8172D02*
X5037Y8177D01*
Y8167D02*
Y8177D01*
X5247Y7945D02*
Y8087D01*
X5187Y7945D02*
Y8087D01*
X5247Y8073D02*
X5297D01*
X5137D02*
X5187D01*
X5247D02*
X5257Y8068D01*
X5247Y8073D02*
X5257Y8078D01*
Y8068D02*
Y8078D01*
X5177Y8068D02*
X5187Y8073D01*
X5177Y8078D02*
X5187Y8073D01*
X5177Y8068D02*
Y8078D01*
X1103Y3684D02*
Y3749D01*
X1017Y3684D02*
Y3749D01*
X1103Y3699D02*
X1153D01*
X967D02*
X1017D01*
X1103D02*
X1113Y3704D01*
X1103Y3699D02*
X1113Y3694D01*
Y3704D01*
X1007D02*
X1017Y3699D01*
X1007Y3694D02*
X1017Y3699D01*
X1007Y3694D02*
Y3704D01*
X1138Y3584D02*
Y3749D01*
X983Y3584D02*
Y3749D01*
Y3599D02*
X1138D01*
X1128Y3604D02*
X1138Y3599D01*
X1128Y3594D02*
X1138Y3599D01*
X1128Y3594D02*
Y3604D01*
X983Y3599D02*
X993Y3604D01*
X983Y3599D02*
X993Y3594D01*
Y3604D01*
X817Y3985D02*
X1060D01*
X817Y3765D02*
X1060D01*
X832D02*
Y3985D01*
X837Y3975D01*
X827D02*
X832Y3985D01*
X827Y3975D02*
X837D01*
X832Y3765D02*
X837Y3775D01*
X827D02*
X832Y3765D01*
X827Y3775D02*
X837D01*
X918Y3985D02*
X1060D01*
X918Y3925D02*
X1060D01*
X933Y3985D02*
Y4035D01*
Y3875D02*
Y3925D01*
Y3985D02*
X938Y3995D01*
X928D02*
X933Y3985D01*
X928Y3995D02*
X938D01*
X933Y3925D02*
X938Y3915D01*
X928D02*
X933Y3925D01*
X928Y3915D02*
X938D01*
X1120Y3028D02*
Y3093D01*
X1034Y3028D02*
Y3093D01*
X1120Y3043D02*
X1170D01*
X984D02*
X1034D01*
X1120D02*
X1130Y3048D01*
X1120Y3043D02*
X1130Y3038D01*
Y3048D01*
X1024D02*
X1034Y3043D01*
X1024Y3038D02*
X1034Y3043D01*
X1024Y3038D02*
Y3048D01*
X1155Y2928D02*
Y3093D01*
X1000Y2928D02*
Y3093D01*
Y2943D02*
X1155D01*
X1145Y2948D02*
X1155Y2943D01*
X1145Y2938D02*
X1155Y2943D01*
X1145Y2938D02*
Y2948D01*
X1000Y2943D02*
X1010Y2948D01*
X1000Y2943D02*
X1010Y2938D01*
Y2948D01*
X835Y3329D02*
X1077D01*
X835Y3109D02*
X1077D01*
X850D02*
Y3329D01*
X855Y3319D01*
X845D02*
X850Y3329D01*
X845Y3319D02*
X855D01*
X850Y3109D02*
X855Y3119D01*
X845D02*
X850Y3109D01*
X845Y3119D02*
X855D01*
X935Y3329D02*
X1077D01*
X935Y3269D02*
X1077D01*
X950Y3329D02*
Y3379D01*
Y3219D02*
Y3269D01*
Y3329D02*
X955Y3339D01*
X945D02*
X950Y3329D01*
X945Y3339D02*
X955D01*
X950Y3269D02*
X955Y3259D01*
X945D02*
X950Y3269D01*
X945Y3259D02*
X955D01*
X1098Y2435D02*
Y2500D01*
X1012Y2435D02*
Y2500D01*
X1098Y2450D02*
X1148D01*
X962D02*
X1012D01*
X1098D02*
X1108Y2455D01*
X1098Y2450D02*
X1108Y2445D01*
Y2455D01*
X1002D02*
X1012Y2450D01*
X1002Y2445D02*
X1012Y2450D01*
X1002Y2445D02*
Y2455D01*
X1133Y2335D02*
Y2500D01*
X978Y2335D02*
Y2500D01*
Y2350D02*
X1133D01*
X1122Y2355D02*
X1133Y2350D01*
X1122Y2345D02*
X1133Y2350D01*
X1122Y2345D02*
Y2355D01*
X978Y2350D02*
X988Y2355D01*
X978Y2350D02*
X988Y2345D01*
Y2355D01*
X812Y2736D02*
X1055D01*
X812Y2516D02*
X1055D01*
X827D02*
Y2736D01*
X832Y2726D01*
X822D02*
X827Y2736D01*
X822Y2726D02*
X832D01*
X827Y2516D02*
X832Y2526D01*
X822D02*
X827Y2516D01*
X822Y2526D02*
X832D01*
X913Y2736D02*
X1055D01*
X913Y2676D02*
X1055D01*
X928Y2736D02*
Y2786D01*
Y2626D02*
Y2676D01*
Y2736D02*
X933Y2746D01*
X923D02*
X928Y2736D01*
X923Y2746D02*
X933D01*
X928Y2676D02*
X933Y2666D01*
X923D02*
X928Y2676D01*
X923Y2666D02*
X933D01*
X1100Y4997D02*
Y5062D01*
X1014Y4997D02*
Y5062D01*
X1100Y5012D02*
X1150D01*
X964D02*
X1014D01*
X1100D02*
X1110Y5017D01*
X1100Y5012D02*
X1110Y5007D01*
Y5017D01*
X1004D02*
X1014Y5012D01*
X1004Y5007D02*
X1014Y5012D01*
X1004Y5007D02*
Y5017D01*
X1135Y4897D02*
Y5062D01*
X980Y4897D02*
Y5062D01*
Y4912D02*
X1135D01*
X1125Y4917D02*
X1135Y4912D01*
X1125Y4907D02*
X1135Y4912D01*
X1125Y4907D02*
Y4917D01*
X980Y4912D02*
X990Y4917D01*
X980Y4912D02*
X990Y4907D01*
Y4917D01*
X815Y5298D02*
X1057D01*
X815Y5078D02*
X1057D01*
X830D02*
Y5298D01*
X835Y5288D01*
X825D02*
X830Y5298D01*
X825Y5288D02*
X835D01*
X830Y5078D02*
X835Y5088D01*
X825D02*
X830Y5078D01*
X825Y5088D02*
X835D01*
X915Y5298D02*
X1057D01*
X915Y5238D02*
X1057D01*
X930Y5298D02*
Y5348D01*
Y5188D02*
Y5238D01*
Y5298D02*
X935Y5308D01*
X925D02*
X930Y5298D01*
X925Y5308D02*
X935D01*
X930Y5238D02*
X935Y5228D01*
X925D02*
X930Y5238D01*
X925Y5228D02*
X935D01*
X1095Y4314D02*
Y4379D01*
X1009Y4314D02*
Y4379D01*
X1095Y4329D02*
X1145D01*
X959D02*
X1009D01*
X1095D02*
X1105Y4334D01*
X1095Y4329D02*
X1105Y4324D01*
Y4334D01*
X999D02*
X1009Y4329D01*
X999Y4324D02*
X1009Y4329D01*
X999Y4324D02*
Y4334D01*
X1130Y4214D02*
Y4379D01*
X975Y4214D02*
Y4379D01*
Y4229D02*
X1130D01*
X1120Y4234D02*
X1130Y4229D01*
X1120Y4224D02*
X1130Y4229D01*
X1120Y4224D02*
Y4234D01*
X975Y4229D02*
X985Y4234D01*
X975Y4229D02*
X985Y4224D01*
Y4234D01*
X810Y4615D02*
X1052D01*
X810Y4395D02*
X1052D01*
X825D02*
Y4615D01*
X830Y4605D01*
X820D02*
X825Y4615D01*
X820Y4605D02*
X830D01*
X825Y4395D02*
X830Y4405D01*
X820D02*
X825Y4395D01*
X820Y4405D02*
X830D01*
X910Y4615D02*
X1052D01*
X910Y4555D02*
X1052D01*
X925Y4615D02*
Y4665D01*
Y4505D02*
Y4555D01*
Y4615D02*
X930Y4625D01*
X920D02*
X925Y4615D01*
X920Y4625D02*
X930D01*
X925Y4555D02*
X930Y4545D01*
X920D02*
X925Y4555D01*
X920Y4545D02*
X930D01*
X4271Y5588D02*
X4275Y5592D01*
X4283D01*
X4287Y5588D01*
Y5572D01*
X4283Y5568D01*
X4275D01*
X4271Y5572D01*
Y5588D01*
X4296Y5568D02*
Y5572D01*
X4300D01*
Y5568D01*
X4296D01*
X4316D02*
X4325D01*
X4321D01*
Y5592D01*
X4316Y5588D01*
X4354Y5568D02*
X4337D01*
X4354Y5584D01*
Y5588D01*
X4350Y5592D01*
X4341D01*
X4337Y5588D01*
X4379Y5592D02*
X4371Y5588D01*
X4362Y5580D01*
Y5572D01*
X4366Y5568D01*
X4375D01*
X4379Y5572D01*
Y5576D01*
X4375Y5580D01*
X4362D01*
X4387Y5568D02*
X4396D01*
X4391D01*
Y5584D01*
X4387D01*
X4408Y5568D02*
Y5584D01*
X4421D01*
X4425Y5580D01*
Y5568D01*
X4433D02*
X4450Y5584D01*
X4458Y5588D02*
X4462Y5592D01*
X4470D01*
X4475Y5588D01*
Y5584D01*
X4470Y5580D01*
X4466D01*
X4470D01*
X4475Y5576D01*
Y5572D01*
X4470Y5568D01*
X4462D01*
X4458Y5572D01*
X4483Y5568D02*
Y5572D01*
X4487D01*
Y5568D01*
X4483D01*
X4520D02*
X4504D01*
X4520Y5584D01*
Y5588D01*
X4516Y5592D01*
X4508D01*
X4504Y5588D01*
X4529Y5568D02*
Y5584D01*
X4533D01*
X4537Y5580D01*
Y5568D01*
Y5580D01*
X4541Y5584D01*
X4545Y5580D01*
Y5568D01*
X4554D02*
Y5584D01*
X4558D01*
X4562Y5580D01*
Y5568D01*
Y5580D01*
X4566Y5584D01*
X4570Y5580D01*
Y5568D01*
X4371Y5588D02*
X4375Y5592D01*
X4383D01*
X4387Y5588D01*
Y5572D01*
X4383Y5568D01*
X4375D01*
X4371Y5572D01*
Y5588D01*
X4396Y5568D02*
Y5572D01*
X4400D01*
Y5568D01*
X4396D01*
X4433D02*
X4416D01*
X4433Y5584D01*
Y5588D01*
X4429Y5592D01*
X4421D01*
X4416Y5588D01*
X4454Y5568D02*
Y5592D01*
X4441Y5580D01*
X4458D01*
X4483Y5592D02*
X4475Y5588D01*
X4466Y5580D01*
Y5572D01*
X4471Y5568D01*
X4479D01*
X4483Y5572D01*
Y5576D01*
X4479Y5580D01*
X4466D01*
X4491Y5568D02*
X4500D01*
X4496D01*
Y5584D01*
X4491D01*
X4512Y5568D02*
Y5584D01*
X4525D01*
X4529Y5580D01*
Y5568D01*
X4537D02*
X4554Y5584D01*
X4579Y5592D02*
X4570Y5588D01*
X4562Y5580D01*
Y5572D01*
X4566Y5568D01*
X4575D01*
X4579Y5572D01*
Y5576D01*
X4575Y5580D01*
X4562D01*
X4587Y5568D02*
Y5572D01*
X4591D01*
Y5568D01*
X4587D01*
X4625D02*
X4608D01*
X4625Y5584D01*
Y5588D01*
X4620Y5592D01*
X4612D01*
X4608Y5588D01*
X4645Y5568D02*
Y5592D01*
X4633Y5580D01*
X4650D01*
X4658Y5588D02*
X4662Y5592D01*
X4670D01*
X4675Y5588D01*
Y5584D01*
X4670Y5580D01*
X4675Y5576D01*
Y5572D01*
X4670Y5568D01*
X4662D01*
X4658Y5572D01*
Y5576D01*
X4662Y5580D01*
X4658Y5584D01*
Y5588D01*
X4662Y5580D02*
X4670D01*
X4683Y5568D02*
Y5584D01*
X4687D01*
X4691Y5580D01*
Y5568D01*
Y5580D01*
X4695Y5584D01*
X4700Y5580D01*
Y5568D01*
X4708D02*
Y5584D01*
X4712D01*
X4716Y5580D01*
Y5568D01*
Y5580D01*
X4720Y5584D01*
X4725Y5580D01*
Y5568D01*
X3937Y5283D02*
X3941Y5287D01*
X3950D01*
X3954Y5283D01*
Y5266D01*
X3950Y5262D01*
X3941D01*
X3937Y5266D01*
Y5283D01*
X3962Y5262D02*
Y5266D01*
X3966D01*
Y5262D01*
X3962D01*
X3983Y5283D02*
X3987Y5287D01*
X3995D01*
X4000Y5283D01*
Y5279D01*
X3995Y5274D01*
X3991D01*
X3995D01*
X4000Y5270D01*
Y5266D01*
X3995Y5262D01*
X3987D01*
X3983Y5266D01*
X4025Y5262D02*
X4008D01*
X4025Y5279D01*
Y5283D01*
X4020Y5287D01*
X4012D01*
X4008Y5283D01*
X4033Y5262D02*
X4041D01*
X4037D01*
Y5279D01*
X4033D01*
X4054Y5262D02*
Y5279D01*
X4066D01*
X4070Y5274D01*
Y5262D01*
X4079D02*
X4095Y5279D01*
X4104Y5283D02*
X4108Y5287D01*
X4116D01*
X4120Y5283D01*
Y5279D01*
X4116Y5274D01*
X4120Y5270D01*
Y5266D01*
X4116Y5262D01*
X4108D01*
X4104Y5266D01*
Y5270D01*
X4108Y5274D01*
X4104Y5279D01*
Y5283D01*
X4108Y5274D02*
X4116D01*
X4129Y5262D02*
Y5266D01*
X4133D01*
Y5262D01*
X4129D01*
X4149D02*
X4158D01*
X4154D01*
Y5287D01*
X4149Y5283D01*
X4187Y5262D02*
X4170D01*
X4187Y5279D01*
Y5283D01*
X4183Y5287D01*
X4174D01*
X4170Y5283D01*
X4195D02*
X4199Y5287D01*
X4208D01*
X4212Y5283D01*
Y5279D01*
X4208Y5274D01*
X4212Y5270D01*
Y5266D01*
X4208Y5262D01*
X4199D01*
X4195Y5266D01*
Y5270D01*
X4199Y5274D01*
X4195Y5279D01*
Y5283D01*
X4199Y5274D02*
X4208D01*
X4220Y5262D02*
Y5279D01*
X4224D01*
X4229Y5274D01*
Y5262D01*
Y5274D01*
X4233Y5279D01*
X4237Y5274D01*
Y5262D01*
X4245D02*
Y5279D01*
X4249D01*
X4254Y5274D01*
Y5262D01*
Y5274D01*
X4258Y5279D01*
X4262Y5274D01*
Y5262D01*
X3807Y5383D02*
X3811Y5387D01*
X3820D01*
X3824Y5383D01*
Y5366D01*
X3820Y5362D01*
X3811D01*
X3807Y5366D01*
Y5383D01*
X3832Y5362D02*
Y5366D01*
X3836D01*
Y5362D01*
X3832D01*
X3853Y5383D02*
X3857Y5387D01*
X3865D01*
X3870Y5383D01*
Y5366D01*
X3865Y5362D01*
X3857D01*
X3853Y5366D01*
Y5383D01*
X3895Y5387D02*
X3886Y5383D01*
X3878Y5374D01*
Y5366D01*
X3882Y5362D01*
X3890D01*
X3895Y5366D01*
Y5370D01*
X3890Y5374D01*
X3878D01*
X3903Y5362D02*
X3911D01*
X3907D01*
Y5379D01*
X3903D01*
X3924Y5362D02*
Y5379D01*
X3936D01*
X3940Y5374D01*
Y5362D01*
X3949D02*
X3965Y5379D01*
X3974Y5362D02*
X3982D01*
X3978D01*
Y5387D01*
X3974Y5383D01*
X3995Y5362D02*
Y5366D01*
X3999D01*
Y5362D01*
X3995D01*
X4032Y5387D02*
X4015D01*
Y5374D01*
X4024Y5379D01*
X4028D01*
X4032Y5374D01*
Y5366D01*
X4028Y5362D01*
X4019D01*
X4015Y5366D01*
X4057Y5362D02*
X4040D01*
X4057Y5379D01*
Y5383D01*
X4053Y5387D01*
X4044D01*
X4040Y5383D01*
X4078Y5362D02*
Y5387D01*
X4065Y5374D01*
X4082D01*
X4090Y5362D02*
Y5379D01*
X4094D01*
X4099Y5374D01*
Y5362D01*
Y5374D01*
X4103Y5379D01*
X4107Y5374D01*
Y5362D01*
X4115D02*
Y5379D01*
X4119D01*
X4124Y5374D01*
Y5362D01*
Y5374D01*
X4128Y5379D01*
X4132Y5374D01*
Y5362D01*
X813Y6008D02*
X817Y6003D01*
Y5995D01*
X813Y5991D01*
X797D01*
X793Y5995D01*
Y6003D01*
X797Y6008D01*
X813D01*
X793Y5983D02*
X797D01*
Y5978D01*
X793D01*
Y5983D01*
X813Y5962D02*
X817Y5958D01*
Y5949D01*
X813Y5945D01*
X797D01*
X793Y5949D01*
Y5958D01*
X797Y5962D01*
X813D01*
X817Y5920D02*
X813Y5928D01*
X805Y5937D01*
X797D01*
X793Y5933D01*
Y5924D01*
X797Y5920D01*
X801D01*
X805Y5924D01*
Y5937D01*
X793Y5912D02*
Y5903D01*
Y5908D01*
X809D01*
Y5912D01*
X793Y5891D02*
X809D01*
Y5878D01*
X805Y5874D01*
X793D01*
Y5866D02*
X809Y5849D01*
X793Y5841D02*
Y5833D01*
Y5837D01*
X817D01*
X813Y5841D01*
X793Y5820D02*
X797D01*
Y5816D01*
X793D01*
Y5820D01*
X817Y5783D02*
Y5799D01*
X805D01*
X809Y5791D01*
Y5787D01*
X805Y5783D01*
X797D01*
X793Y5787D01*
Y5795D01*
X797Y5799D01*
X793Y5758D02*
Y5774D01*
X809Y5758D01*
X813D01*
X817Y5762D01*
Y5770D01*
X813Y5774D01*
X793Y5737D02*
X817D01*
X805Y5749D01*
Y5733D01*
X793Y5724D02*
X809D01*
Y5720D01*
X805Y5716D01*
X793D01*
X805D01*
X809Y5712D01*
X805Y5708D01*
X793D01*
Y5699D02*
X809D01*
Y5695D01*
X805Y5691D01*
X793D01*
X805D01*
X809Y5687D01*
X805Y5683D01*
X793D01*
X713Y5927D02*
X717Y5923D01*
Y5915D01*
X713Y5911D01*
X697D01*
X692Y5915D01*
Y5923D01*
X697Y5927D01*
X713D01*
X692Y5903D02*
X697D01*
Y5898D01*
X692D01*
Y5903D01*
Y5865D02*
Y5882D01*
X709Y5865D01*
X713D01*
X717Y5869D01*
Y5878D01*
X713Y5882D01*
X692Y5840D02*
Y5857D01*
X709Y5840D01*
X713D01*
X717Y5844D01*
Y5853D01*
X713Y5857D01*
X692Y5832D02*
Y5823D01*
Y5828D01*
X709D01*
Y5832D01*
X692Y5811D02*
X709D01*
Y5798D01*
X705Y5794D01*
X692D01*
Y5786D02*
X709Y5769D01*
X717Y5744D02*
Y5761D01*
X705D01*
X709Y5753D01*
Y5748D01*
X705Y5744D01*
X697D01*
X692Y5748D01*
Y5757D01*
X697Y5761D01*
X692Y5736D02*
X697D01*
Y5732D01*
X692D01*
Y5736D01*
X717Y5698D02*
Y5715D01*
X705D01*
X709Y5707D01*
Y5703D01*
X705Y5698D01*
X697D01*
X692Y5703D01*
Y5711D01*
X697Y5715D01*
X713Y5690D02*
X717Y5686D01*
Y5678D01*
X713Y5673D01*
X709D01*
X705Y5678D01*
X701Y5673D01*
X697D01*
X692Y5678D01*
Y5686D01*
X697Y5690D01*
X701D01*
X705Y5686D01*
X709Y5690D01*
X713D01*
X705Y5686D02*
Y5678D01*
X713Y5665D02*
X717Y5661D01*
Y5653D01*
X713Y5648D01*
X709D01*
X705Y5653D01*
X701Y5648D01*
X697D01*
X692Y5653D01*
Y5661D01*
X697Y5665D01*
X701D01*
X705Y5661D01*
X709Y5665D01*
X713D01*
X705Y5661D02*
Y5653D01*
X692Y5640D02*
X709D01*
Y5636D01*
X705Y5632D01*
X692D01*
X705D01*
X709Y5628D01*
X705Y5623D01*
X692D01*
Y5615D02*
X709D01*
Y5611D01*
X705Y5607D01*
X692D01*
X705D01*
X709Y5603D01*
X705Y5598D01*
X692D01*
X973Y5544D02*
X977Y5540D01*
Y5532D01*
X973Y5527D01*
X957D01*
X952Y5532D01*
Y5540D01*
X957Y5544D01*
X973D01*
X952Y5519D02*
X957D01*
Y5515D01*
X952D01*
Y5519D01*
Y5498D02*
Y5490D01*
Y5494D01*
X977D01*
X973Y5498D01*
X977Y5461D02*
Y5477D01*
X965D01*
X969Y5469D01*
Y5465D01*
X965Y5461D01*
X957D01*
X952Y5465D01*
Y5473D01*
X957Y5477D01*
X977Y5436D02*
Y5452D01*
X965D01*
X969Y5444D01*
Y5440D01*
X965Y5436D01*
X957D01*
X952Y5440D01*
Y5448D01*
X957Y5452D01*
X952Y5427D02*
Y5419D01*
Y5423D01*
X969D01*
Y5427D01*
X952Y5407D02*
X969D01*
Y5394D01*
X965Y5390D01*
X952D01*
Y5382D02*
X969Y5365D01*
X973Y5357D02*
X977Y5352D01*
Y5344D01*
X973Y5340D01*
X969D01*
X965Y5344D01*
Y5348D01*
Y5344D01*
X961Y5340D01*
X957D01*
X952Y5344D01*
Y5352D01*
X957Y5357D01*
X952Y5332D02*
X957D01*
Y5327D01*
X952D01*
Y5332D01*
X957Y5311D02*
X952Y5307D01*
Y5298D01*
X957Y5294D01*
X973D01*
X977Y5298D01*
Y5307D01*
X973Y5311D01*
X969D01*
X965Y5307D01*
Y5294D01*
X973Y5286D02*
X977Y5282D01*
Y5273D01*
X973Y5269D01*
X969D01*
X965Y5273D01*
Y5277D01*
Y5273D01*
X961Y5269D01*
X957D01*
X952Y5273D01*
Y5282D01*
X957Y5286D01*
X977Y5261D02*
Y5244D01*
X973D01*
X957Y5261D01*
X952D01*
Y5236D02*
X969D01*
Y5232D01*
X965Y5227D01*
X952D01*
X965D01*
X969Y5223D01*
X965Y5219D01*
X952D01*
Y5211D02*
X969D01*
Y5207D01*
X965Y5202D01*
X952D01*
X965D01*
X969Y5198D01*
X965Y5194D01*
X952D01*
X973Y5644D02*
X977Y5640D01*
Y5632D01*
X973Y5627D01*
X957D01*
X952Y5632D01*
Y5640D01*
X957Y5644D01*
X973D01*
X952Y5619D02*
X957D01*
Y5615D01*
X952D01*
Y5619D01*
X973Y5598D02*
X977Y5594D01*
Y5586D01*
X973Y5582D01*
X957D01*
X952Y5586D01*
Y5594D01*
X957Y5598D01*
X973D01*
Y5573D02*
X977Y5569D01*
Y5561D01*
X973Y5557D01*
X969D01*
X965Y5561D01*
X961Y5557D01*
X957D01*
X952Y5561D01*
Y5569D01*
X957Y5573D01*
X961D01*
X965Y5569D01*
X969Y5573D01*
X973D01*
X965Y5569D02*
Y5561D01*
X977Y5532D02*
X973Y5540D01*
X965Y5548D01*
X957D01*
X952Y5544D01*
Y5536D01*
X957Y5532D01*
X961D01*
X965Y5536D01*
Y5548D01*
X952Y5523D02*
Y5515D01*
Y5519D01*
X969D01*
Y5523D01*
X952Y5502D02*
X969D01*
Y5490D01*
X965Y5486D01*
X952D01*
Y5477D02*
X969Y5461D01*
X952Y5436D02*
Y5452D01*
X969Y5436D01*
X973D01*
X977Y5440D01*
Y5448D01*
X973Y5452D01*
X952Y5427D02*
X957D01*
Y5423D01*
X952D01*
Y5427D01*
Y5407D02*
Y5398D01*
Y5402D01*
X977D01*
X973Y5407D01*
Y5386D02*
X977Y5382D01*
Y5373D01*
X973Y5369D01*
X969D01*
X965Y5373D01*
X961Y5369D01*
X957D01*
X952Y5373D01*
Y5382D01*
X957Y5386D01*
X961D01*
X965Y5382D01*
X969Y5386D01*
X973D01*
X965Y5382D02*
Y5373D01*
X952Y5348D02*
X977D01*
X965Y5361D01*
Y5344D01*
X952Y5336D02*
X969D01*
Y5332D01*
X965Y5327D01*
X952D01*
X965D01*
X969Y5323D01*
X965Y5319D01*
X952D01*
Y5311D02*
X969D01*
Y5307D01*
X965Y5302D01*
X952D01*
X965D01*
X969Y5298D01*
X965Y5294D01*
X952D01*
X4941Y7937D02*
X4937Y7933D01*
X4929D01*
X4924Y7937D01*
Y7953D01*
X4929Y7957D01*
X4937D01*
X4941Y7953D01*
Y7937D01*
X4916Y7957D02*
Y7953D01*
X4912D01*
Y7957D01*
X4916D01*
X4895Y7937D02*
X4891Y7933D01*
X4883D01*
X4879Y7937D01*
Y7953D01*
X4883Y7957D01*
X4891D01*
X4895Y7953D01*
Y7937D01*
X4870D02*
X4866Y7933D01*
X4858D01*
X4854Y7937D01*
Y7941D01*
X4858Y7945D01*
X4854Y7949D01*
Y7953D01*
X4858Y7957D01*
X4866D01*
X4870Y7953D01*
Y7949D01*
X4866Y7945D01*
X4870Y7941D01*
Y7937D01*
X4866Y7945D02*
X4858D01*
X4829Y7933D02*
X4837Y7937D01*
X4845Y7945D01*
Y7953D01*
X4841Y7957D01*
X4833D01*
X4829Y7953D01*
Y7949D01*
X4833Y7945D01*
X4845D01*
X4820Y7957D02*
X4812D01*
X4816D01*
Y7941D01*
X4820D01*
X4799Y7957D02*
Y7941D01*
X4787D01*
X4783Y7945D01*
Y7957D01*
X4774D02*
X4758Y7941D01*
X4733Y7957D02*
X4749D01*
X4733Y7941D01*
Y7937D01*
X4737Y7933D01*
X4745D01*
X4749Y7937D01*
X4724Y7957D02*
Y7953D01*
X4720D01*
Y7957D01*
X4724D01*
X4704D02*
X4695D01*
X4699D01*
Y7933D01*
X4704Y7937D01*
X4683D02*
X4679Y7933D01*
X4670D01*
X4666Y7937D01*
Y7941D01*
X4670Y7945D01*
X4666Y7949D01*
Y7953D01*
X4670Y7957D01*
X4679D01*
X4683Y7953D01*
Y7949D01*
X4679Y7945D01*
X4683Y7941D01*
Y7937D01*
X4679Y7945D02*
X4670D01*
X4645Y7957D02*
Y7933D01*
X4658Y7945D01*
X4641D01*
X4633Y7957D02*
Y7941D01*
X4629D01*
X4624Y7945D01*
Y7957D01*
Y7945D01*
X4620Y7941D01*
X4616Y7945D01*
Y7957D01*
X4608D02*
Y7941D01*
X4604D01*
X4599Y7945D01*
Y7957D01*
Y7945D01*
X4595Y7941D01*
X4591Y7945D01*
Y7957D01*
X4841Y7937D02*
X4837Y7933D01*
X4829D01*
X4824Y7937D01*
Y7953D01*
X4829Y7957D01*
X4837D01*
X4841Y7953D01*
Y7937D01*
X4816Y7957D02*
Y7953D01*
X4812D01*
Y7957D01*
X4816D01*
X4795D02*
X4787D01*
X4791D01*
Y7933D01*
X4795Y7937D01*
X4758Y7933D02*
X4774D01*
Y7945D01*
X4766Y7941D01*
X4762D01*
X4758Y7945D01*
Y7953D01*
X4762Y7957D01*
X4770D01*
X4774Y7953D01*
X4733Y7933D02*
X4749D01*
Y7945D01*
X4741Y7941D01*
X4737D01*
X4733Y7945D01*
Y7953D01*
X4737Y7957D01*
X4745D01*
X4749Y7953D01*
X4724Y7957D02*
X4716D01*
X4720D01*
Y7941D01*
X4724D01*
X4704Y7957D02*
Y7941D01*
X4691D01*
X4687Y7945D01*
Y7957D01*
X4679D02*
X4662Y7941D01*
X4654Y7937D02*
X4649Y7933D01*
X4641D01*
X4637Y7937D01*
Y7941D01*
X4641Y7945D01*
X4645D01*
X4641D01*
X4637Y7949D01*
Y7953D01*
X4641Y7957D01*
X4649D01*
X4654Y7953D01*
X4629Y7957D02*
Y7953D01*
X4624D01*
Y7957D01*
X4629D01*
X4608Y7953D02*
X4604Y7957D01*
X4595D01*
X4591Y7953D01*
Y7937D01*
X4595Y7933D01*
X4604D01*
X4608Y7937D01*
Y7941D01*
X4604Y7945D01*
X4591D01*
X4583Y7937D02*
X4579Y7933D01*
X4570D01*
X4566Y7937D01*
Y7941D01*
X4570Y7945D01*
X4574D01*
X4570D01*
X4566Y7949D01*
Y7953D01*
X4570Y7957D01*
X4579D01*
X4583Y7953D01*
X4558Y7933D02*
X4541D01*
Y7937D01*
X4558Y7953D01*
Y7957D01*
X4533D02*
Y7941D01*
X4529D01*
X4524Y7945D01*
Y7957D01*
Y7945D01*
X4520Y7941D01*
X4516Y7945D01*
Y7957D01*
X4508D02*
Y7941D01*
X4504D01*
X4499Y7945D01*
Y7957D01*
Y7945D01*
X4495Y7941D01*
X4491Y7945D01*
Y7957D01*
X5225Y8197D02*
X5220Y8193D01*
X5212D01*
X5208Y8197D01*
Y8213D01*
X5212Y8217D01*
X5220D01*
X5225Y8213D01*
Y8197D01*
X5200Y8217D02*
Y8213D01*
X5195D01*
Y8217D01*
X5200D01*
X5162D02*
X5179D01*
X5162Y8201D01*
Y8197D01*
X5166Y8193D01*
X5175D01*
X5179Y8197D01*
X5137Y8217D02*
X5154D01*
X5137Y8201D01*
Y8197D01*
X5141Y8193D01*
X5150D01*
X5154Y8197D01*
X5129Y8217D02*
X5120D01*
X5125D01*
Y8201D01*
X5129D01*
X5108Y8217D02*
Y8201D01*
X5095D01*
X5091Y8205D01*
Y8217D01*
X5083D02*
X5066Y8201D01*
X5041Y8193D02*
X5058D01*
Y8205D01*
X5050Y8201D01*
X5045D01*
X5041Y8205D01*
Y8213D01*
X5045Y8217D01*
X5054D01*
X5058Y8213D01*
X5033Y8217D02*
Y8213D01*
X5029D01*
Y8217D01*
X5033D01*
X4995Y8193D02*
X5012D01*
Y8205D01*
X5004Y8201D01*
X5000D01*
X4995Y8205D01*
Y8213D01*
X5000Y8217D01*
X5008D01*
X5012Y8213D01*
X4987Y8197D02*
X4983Y8193D01*
X4975D01*
X4970Y8197D01*
Y8201D01*
X4975Y8205D01*
X4970Y8209D01*
Y8213D01*
X4975Y8217D01*
X4983D01*
X4987Y8213D01*
Y8209D01*
X4983Y8205D01*
X4987Y8201D01*
Y8197D01*
X4983Y8205D02*
X4975D01*
X4962Y8197D02*
X4958Y8193D01*
X4950D01*
X4945Y8197D01*
Y8201D01*
X4950Y8205D01*
X4945Y8209D01*
Y8213D01*
X4950Y8217D01*
X4958D01*
X4962Y8213D01*
Y8209D01*
X4958Y8205D01*
X4962Y8201D01*
Y8197D01*
X4958Y8205D02*
X4950D01*
X4937Y8217D02*
Y8201D01*
X4933D01*
X4929Y8205D01*
Y8217D01*
Y8205D01*
X4925Y8201D01*
X4920Y8205D01*
Y8217D01*
X4912D02*
Y8201D01*
X4908D01*
X4904Y8205D01*
Y8217D01*
Y8205D01*
X4900Y8201D01*
X4895Y8205D01*
Y8217D01*
X5305Y8097D02*
X5300Y8093D01*
X5292D01*
X5288Y8097D01*
Y8113D01*
X5292Y8118D01*
X5300D01*
X5305Y8113D01*
Y8097D01*
X5280Y8118D02*
Y8113D01*
X5275D01*
Y8118D01*
X5280D01*
X5259Y8097D02*
X5255Y8093D01*
X5246D01*
X5242Y8097D01*
Y8113D01*
X5246Y8118D01*
X5255D01*
X5259Y8113D01*
Y8097D01*
X5217Y8093D02*
X5225Y8097D01*
X5234Y8105D01*
Y8113D01*
X5230Y8118D01*
X5221D01*
X5217Y8113D01*
Y8109D01*
X5221Y8105D01*
X5234D01*
X5209Y8118D02*
X5200D01*
X5205D01*
Y8101D01*
X5209D01*
X5188Y8118D02*
Y8101D01*
X5175D01*
X5171Y8105D01*
Y8118D01*
X5163D02*
X5146Y8101D01*
X5138Y8118D02*
X5130D01*
X5134D01*
Y8093D01*
X5138Y8097D01*
X5117Y8118D02*
Y8113D01*
X5113D01*
Y8118D01*
X5117D01*
X5080Y8093D02*
X5096D01*
Y8105D01*
X5088Y8101D01*
X5084D01*
X5080Y8105D01*
Y8113D01*
X5084Y8118D01*
X5092D01*
X5096Y8113D01*
X5055Y8118D02*
X5071D01*
X5055Y8101D01*
Y8097D01*
X5059Y8093D01*
X5067D01*
X5071Y8097D01*
X5034Y8118D02*
Y8093D01*
X5046Y8105D01*
X5030D01*
X5021Y8118D02*
Y8101D01*
X5017D01*
X5013Y8105D01*
Y8118D01*
Y8105D01*
X5009Y8101D01*
X5005Y8105D01*
Y8118D01*
X4996D02*
Y8101D01*
X4992D01*
X4988Y8105D01*
Y8118D01*
Y8105D01*
X4984Y8101D01*
X4980Y8105D01*
Y8118D01*
X1068Y3679D02*
X1072Y3675D01*
Y3667D01*
X1068Y3662D01*
X1052D01*
X1048Y3667D01*
Y3675D01*
X1052Y3679D01*
X1068D01*
X1048Y3654D02*
X1052D01*
Y3650D01*
X1048D01*
Y3654D01*
X1068Y3633D02*
X1072Y3629D01*
Y3621D01*
X1068Y3617D01*
X1052D01*
X1048Y3621D01*
Y3629D01*
X1052Y3633D01*
X1068D01*
Y3608D02*
X1072Y3604D01*
Y3596D01*
X1068Y3592D01*
X1064D01*
X1060Y3596D01*
X1056Y3592D01*
X1052D01*
X1048Y3596D01*
Y3604D01*
X1052Y3608D01*
X1056D01*
X1060Y3604D01*
X1064Y3608D01*
X1068D01*
X1060Y3604D02*
Y3596D01*
X1072Y3567D02*
X1068Y3575D01*
X1060Y3583D01*
X1052D01*
X1048Y3579D01*
Y3571D01*
X1052Y3567D01*
X1056D01*
X1060Y3571D01*
Y3583D01*
X1048Y3558D02*
Y3550D01*
Y3554D01*
X1064D01*
Y3558D01*
X1048Y3537D02*
X1064D01*
Y3525D01*
X1060Y3521D01*
X1048D01*
Y3512D02*
X1064Y3496D01*
X1048Y3471D02*
Y3487D01*
X1064Y3471D01*
X1068D01*
X1072Y3475D01*
Y3483D01*
X1068Y3487D01*
X1048Y3462D02*
X1052D01*
Y3458D01*
X1048D01*
Y3462D01*
Y3442D02*
Y3433D01*
Y3437D01*
X1072D01*
X1068Y3442D01*
Y3421D02*
X1072Y3417D01*
Y3408D01*
X1068Y3404D01*
X1064D01*
X1060Y3408D01*
X1056Y3404D01*
X1052D01*
X1048Y3408D01*
Y3417D01*
X1052Y3421D01*
X1056D01*
X1060Y3417D01*
X1064Y3421D01*
X1068D01*
X1060Y3417D02*
Y3408D01*
X1048Y3383D02*
X1072D01*
X1060Y3396D01*
Y3379D01*
X1048Y3371D02*
X1064D01*
Y3367D01*
X1060Y3362D01*
X1048D01*
X1060D01*
X1064Y3358D01*
X1060Y3354D01*
X1048D01*
Y3346D02*
X1064D01*
Y3342D01*
X1060Y3337D01*
X1048D01*
X1060D01*
X1064Y3333D01*
X1060Y3329D01*
X1048D01*
X1068Y3579D02*
X1072Y3575D01*
Y3567D01*
X1068Y3562D01*
X1052D01*
X1048Y3567D01*
Y3575D01*
X1052Y3579D01*
X1068D01*
X1048Y3554D02*
X1052D01*
Y3550D01*
X1048D01*
Y3554D01*
Y3533D02*
Y3525D01*
Y3529D01*
X1072D01*
X1068Y3533D01*
X1072Y3496D02*
Y3512D01*
X1060D01*
X1064Y3504D01*
Y3500D01*
X1060Y3496D01*
X1052D01*
X1048Y3500D01*
Y3508D01*
X1052Y3512D01*
X1072Y3471D02*
Y3487D01*
X1060D01*
X1064Y3479D01*
Y3475D01*
X1060Y3471D01*
X1052D01*
X1048Y3475D01*
Y3483D01*
X1052Y3487D01*
X1048Y3462D02*
Y3454D01*
Y3458D01*
X1064D01*
Y3462D01*
X1048Y3442D02*
X1064D01*
Y3429D01*
X1060Y3425D01*
X1048D01*
Y3417D02*
X1064Y3400D01*
X1068Y3392D02*
X1072Y3387D01*
Y3379D01*
X1068Y3375D01*
X1064D01*
X1060Y3379D01*
Y3383D01*
Y3379D01*
X1056Y3375D01*
X1052D01*
X1048Y3379D01*
Y3387D01*
X1052Y3392D01*
X1048Y3367D02*
X1052D01*
Y3362D01*
X1048D01*
Y3367D01*
X1052Y3346D02*
X1048Y3342D01*
Y3333D01*
X1052Y3329D01*
X1068D01*
X1072Y3333D01*
Y3342D01*
X1068Y3346D01*
X1064D01*
X1060Y3342D01*
Y3329D01*
X1068Y3321D02*
X1072Y3317D01*
Y3308D01*
X1068Y3304D01*
X1064D01*
X1060Y3308D01*
Y3312D01*
Y3308D01*
X1056Y3304D01*
X1052D01*
X1048Y3308D01*
Y3317D01*
X1052Y3321D01*
X1072Y3296D02*
Y3279D01*
X1068D01*
X1052Y3296D01*
X1048D01*
Y3271D02*
X1064D01*
Y3267D01*
X1060Y3262D01*
X1048D01*
X1060D01*
X1064Y3258D01*
X1060Y3254D01*
X1048D01*
Y3246D02*
X1064D01*
Y3242D01*
X1060Y3237D01*
X1048D01*
X1060D01*
X1064Y3233D01*
X1060Y3229D01*
X1048D01*
X808Y3963D02*
X812Y3958D01*
Y3950D01*
X808Y3946D01*
X792D01*
X788Y3950D01*
Y3958D01*
X792Y3963D01*
X808D01*
X788Y3938D02*
X792D01*
Y3933D01*
X788D01*
Y3938D01*
Y3900D02*
Y3917D01*
X804Y3900D01*
X808D01*
X812Y3904D01*
Y3913D01*
X808Y3917D01*
X788Y3875D02*
Y3892D01*
X804Y3875D01*
X808D01*
X812Y3879D01*
Y3888D01*
X808Y3892D01*
X788Y3867D02*
Y3858D01*
Y3863D01*
X804D01*
Y3867D01*
X788Y3846D02*
X804D01*
Y3833D01*
X800Y3829D01*
X788D01*
Y3821D02*
X804Y3804D01*
X812Y3779D02*
Y3796D01*
X800D01*
X804Y3788D01*
Y3783D01*
X800Y3779D01*
X792D01*
X788Y3783D01*
Y3792D01*
X792Y3796D01*
X788Y3771D02*
X792D01*
Y3767D01*
X788D01*
Y3771D01*
X812Y3733D02*
Y3750D01*
X800D01*
X804Y3742D01*
Y3738D01*
X800Y3733D01*
X792D01*
X788Y3738D01*
Y3746D01*
X792Y3750D01*
X808Y3725D02*
X812Y3721D01*
Y3713D01*
X808Y3708D01*
X804D01*
X800Y3713D01*
X796Y3708D01*
X792D01*
X788Y3713D01*
Y3721D01*
X792Y3725D01*
X796D01*
X800Y3721D01*
X804Y3725D01*
X808D01*
X800Y3721D02*
Y3713D01*
X808Y3700D02*
X812Y3696D01*
Y3688D01*
X808Y3683D01*
X804D01*
X800Y3688D01*
X796Y3683D01*
X792D01*
X788Y3688D01*
Y3696D01*
X792Y3700D01*
X796D01*
X800Y3696D01*
X804Y3700D01*
X808D01*
X800Y3696D02*
Y3688D01*
X788Y3675D02*
X804D01*
Y3671D01*
X800Y3667D01*
X788D01*
X800D01*
X804Y3663D01*
X800Y3658D01*
X788D01*
Y3650D02*
X804D01*
Y3646D01*
X800Y3642D01*
X788D01*
X800D01*
X804Y3638D01*
X800Y3633D01*
X788D01*
X908Y4043D02*
X912Y4038D01*
Y4030D01*
X908Y4026D01*
X892D01*
X887Y4030D01*
Y4038D01*
X892Y4043D01*
X908D01*
X887Y4018D02*
X892D01*
Y4013D01*
X887D01*
Y4018D01*
X908Y3997D02*
X912Y3993D01*
Y3984D01*
X908Y3980D01*
X892D01*
X887Y3984D01*
Y3993D01*
X892Y3997D01*
X908D01*
X912Y3955D02*
X908Y3963D01*
X900Y3972D01*
X892D01*
X887Y3968D01*
Y3959D01*
X892Y3955D01*
X896D01*
X900Y3959D01*
Y3972D01*
X887Y3947D02*
Y3938D01*
Y3943D01*
X904D01*
Y3947D01*
X887Y3926D02*
X904D01*
Y3913D01*
X900Y3909D01*
X887D01*
Y3901D02*
X904Y3884D01*
X887Y3876D02*
Y3868D01*
Y3872D01*
X912D01*
X908Y3876D01*
X887Y3855D02*
X892D01*
Y3851D01*
X887D01*
Y3855D01*
X912Y3818D02*
Y3834D01*
X900D01*
X904Y3826D01*
Y3822D01*
X900Y3818D01*
X892D01*
X887Y3822D01*
Y3830D01*
X892Y3834D01*
X887Y3793D02*
Y3809D01*
X904Y3793D01*
X908D01*
X912Y3797D01*
Y3805D01*
X908Y3809D01*
X887Y3772D02*
X912D01*
X900Y3784D01*
Y3768D01*
X887Y3759D02*
X904D01*
Y3755D01*
X900Y3751D01*
X887D01*
X900D01*
X904Y3747D01*
X900Y3743D01*
X887D01*
Y3734D02*
X904D01*
Y3730D01*
X900Y3726D01*
X887D01*
X900D01*
X904Y3722D01*
X900Y3718D01*
X887D01*
X1085Y3023D02*
X1090Y3019D01*
Y3010D01*
X1085Y3006D01*
X1069D01*
X1065Y3010D01*
Y3019D01*
X1069Y3023D01*
X1085D01*
X1065Y2998D02*
X1069D01*
Y2994D01*
X1065D01*
Y2998D01*
X1085Y2977D02*
X1090Y2973D01*
Y2965D01*
X1085Y2961D01*
X1069D01*
X1065Y2965D01*
Y2973D01*
X1069Y2977D01*
X1085D01*
Y2952D02*
X1090Y2948D01*
Y2940D01*
X1085Y2936D01*
X1081D01*
X1077Y2940D01*
X1073Y2936D01*
X1069D01*
X1065Y2940D01*
Y2948D01*
X1069Y2952D01*
X1073D01*
X1077Y2948D01*
X1081Y2952D01*
X1085D01*
X1077Y2948D02*
Y2940D01*
X1090Y2911D02*
X1085Y2919D01*
X1077Y2927D01*
X1069D01*
X1065Y2923D01*
Y2915D01*
X1069Y2911D01*
X1073D01*
X1077Y2915D01*
Y2927D01*
X1065Y2902D02*
Y2894D01*
Y2898D01*
X1081D01*
Y2902D01*
X1065Y2881D02*
X1081D01*
Y2869D01*
X1077Y2865D01*
X1065D01*
Y2856D02*
X1081Y2840D01*
X1065Y2815D02*
Y2831D01*
X1081Y2815D01*
X1085D01*
X1090Y2819D01*
Y2827D01*
X1085Y2831D01*
X1065Y2806D02*
X1069D01*
Y2802D01*
X1065D01*
Y2806D01*
Y2786D02*
Y2777D01*
Y2781D01*
X1090D01*
X1085Y2786D01*
Y2765D02*
X1090Y2761D01*
Y2752D01*
X1085Y2748D01*
X1081D01*
X1077Y2752D01*
X1073Y2748D01*
X1069D01*
X1065Y2752D01*
Y2761D01*
X1069Y2765D01*
X1073D01*
X1077Y2761D01*
X1081Y2765D01*
X1085D01*
X1077Y2761D02*
Y2752D01*
X1065Y2727D02*
X1090D01*
X1077Y2740D01*
Y2723D01*
X1065Y2715D02*
X1081D01*
Y2711D01*
X1077Y2706D01*
X1065D01*
X1077D01*
X1081Y2702D01*
X1077Y2698D01*
X1065D01*
Y2690D02*
X1081D01*
Y2686D01*
X1077Y2681D01*
X1065D01*
X1077D01*
X1081Y2677D01*
X1077Y2673D01*
X1065D01*
X1085Y2923D02*
X1090Y2919D01*
Y2910D01*
X1085Y2906D01*
X1069D01*
X1065Y2910D01*
Y2919D01*
X1069Y2923D01*
X1085D01*
X1065Y2898D02*
X1069D01*
Y2894D01*
X1065D01*
Y2898D01*
Y2877D02*
Y2869D01*
Y2873D01*
X1090D01*
X1085Y2877D01*
X1090Y2840D02*
Y2856D01*
X1077D01*
X1081Y2848D01*
Y2844D01*
X1077Y2840D01*
X1069D01*
X1065Y2844D01*
Y2852D01*
X1069Y2856D01*
X1090Y2815D02*
Y2831D01*
X1077D01*
X1081Y2823D01*
Y2819D01*
X1077Y2815D01*
X1069D01*
X1065Y2819D01*
Y2827D01*
X1069Y2831D01*
X1065Y2806D02*
Y2798D01*
Y2802D01*
X1081D01*
Y2806D01*
X1065Y2786D02*
X1081D01*
Y2773D01*
X1077Y2769D01*
X1065D01*
Y2761D02*
X1081Y2744D01*
X1085Y2736D02*
X1090Y2731D01*
Y2723D01*
X1085Y2719D01*
X1081D01*
X1077Y2723D01*
Y2727D01*
Y2723D01*
X1073Y2719D01*
X1069D01*
X1065Y2723D01*
Y2731D01*
X1069Y2736D01*
X1065Y2711D02*
X1069D01*
Y2706D01*
X1065D01*
Y2711D01*
X1069Y2690D02*
X1065Y2686D01*
Y2677D01*
X1069Y2673D01*
X1085D01*
X1090Y2677D01*
Y2686D01*
X1085Y2690D01*
X1081D01*
X1077Y2686D01*
Y2673D01*
X1085Y2665D02*
X1090Y2661D01*
Y2652D01*
X1085Y2648D01*
X1081D01*
X1077Y2652D01*
Y2656D01*
Y2652D01*
X1073Y2648D01*
X1069D01*
X1065Y2652D01*
Y2661D01*
X1069Y2665D01*
X1090Y2640D02*
Y2623D01*
X1085D01*
X1069Y2640D01*
X1065D01*
Y2615D02*
X1081D01*
Y2611D01*
X1077Y2606D01*
X1065D01*
X1077D01*
X1081Y2602D01*
X1077Y2598D01*
X1065D01*
Y2590D02*
X1081D01*
Y2586D01*
X1077Y2581D01*
X1065D01*
X1077D01*
X1081Y2577D01*
X1077Y2573D01*
X1065D01*
X825Y3306D02*
X830Y3302D01*
Y3294D01*
X825Y3290D01*
X809D01*
X805Y3294D01*
Y3302D01*
X809Y3306D01*
X825D01*
X805Y3281D02*
X809D01*
Y3277D01*
X805D01*
Y3281D01*
Y3244D02*
Y3261D01*
X821Y3244D01*
X825D01*
X830Y3248D01*
Y3257D01*
X825Y3261D01*
X805Y3219D02*
Y3236D01*
X821Y3219D01*
X825D01*
X830Y3223D01*
Y3232D01*
X825Y3236D01*
X805Y3211D02*
Y3202D01*
Y3207D01*
X821D01*
Y3211D01*
X805Y3190D02*
X821D01*
Y3177D01*
X817Y3173D01*
X805D01*
Y3165D02*
X821Y3148D01*
X830Y3123D02*
Y3140D01*
X817D01*
X821Y3132D01*
Y3127D01*
X817Y3123D01*
X809D01*
X805Y3127D01*
Y3136D01*
X809Y3140D01*
X805Y3115D02*
X809D01*
Y3111D01*
X805D01*
Y3115D01*
X830Y3077D02*
Y3094D01*
X817D01*
X821Y3086D01*
Y3082D01*
X817Y3077D01*
X809D01*
X805Y3082D01*
Y3090D01*
X809Y3094D01*
X825Y3069D02*
X830Y3065D01*
Y3057D01*
X825Y3052D01*
X821D01*
X817Y3057D01*
X813Y3052D01*
X809D01*
X805Y3057D01*
Y3065D01*
X809Y3069D01*
X813D01*
X817Y3065D01*
X821Y3069D01*
X825D01*
X817Y3065D02*
Y3057D01*
X825Y3044D02*
X830Y3040D01*
Y3032D01*
X825Y3027D01*
X821D01*
X817Y3032D01*
X813Y3027D01*
X809D01*
X805Y3032D01*
Y3040D01*
X809Y3044D01*
X813D01*
X817Y3040D01*
X821Y3044D01*
X825D01*
X817Y3040D02*
Y3032D01*
X805Y3019D02*
X821D01*
Y3015D01*
X817Y3011D01*
X805D01*
X817D01*
X821Y3007D01*
X817Y3002D01*
X805D01*
Y2994D02*
X821D01*
Y2990D01*
X817Y2986D01*
X805D01*
X817D01*
X821Y2982D01*
X817Y2977D01*
X805D01*
X925Y3386D02*
X930Y3382D01*
Y3374D01*
X925Y3370D01*
X909D01*
X905Y3374D01*
Y3382D01*
X909Y3386D01*
X925D01*
X905Y3361D02*
X909D01*
Y3357D01*
X905D01*
Y3361D01*
X925Y3341D02*
X930Y3337D01*
Y3328D01*
X925Y3324D01*
X909D01*
X905Y3328D01*
Y3337D01*
X909Y3341D01*
X925D01*
X930Y3299D02*
X925Y3307D01*
X917Y3316D01*
X909D01*
X905Y3312D01*
Y3303D01*
X909Y3299D01*
X913D01*
X917Y3303D01*
Y3316D01*
X905Y3291D02*
Y3282D01*
Y3287D01*
X921D01*
Y3291D01*
X905Y3270D02*
X921D01*
Y3257D01*
X917Y3253D01*
X905D01*
Y3245D02*
X921Y3228D01*
X905Y3220D02*
Y3212D01*
Y3216D01*
X930D01*
X925Y3220D01*
X905Y3199D02*
X909D01*
Y3195D01*
X905D01*
Y3199D01*
X930Y3162D02*
Y3178D01*
X917D01*
X921Y3170D01*
Y3166D01*
X917Y3162D01*
X909D01*
X905Y3166D01*
Y3174D01*
X909Y3178D01*
X905Y3137D02*
Y3153D01*
X921Y3137D01*
X925D01*
X930Y3141D01*
Y3149D01*
X925Y3153D01*
X905Y3116D02*
X930D01*
X917Y3128D01*
Y3112D01*
X905Y3103D02*
X921D01*
Y3099D01*
X917Y3095D01*
X905D01*
X917D01*
X921Y3091D01*
X917Y3087D01*
X905D01*
Y3078D02*
X921D01*
Y3074D01*
X917Y3070D01*
X905D01*
X917D01*
X921Y3066D01*
X917Y3062D01*
X905D01*
X1063Y2430D02*
X1067Y2426D01*
Y2417D01*
X1063Y2413D01*
X1047D01*
X1043Y2417D01*
Y2426D01*
X1047Y2430D01*
X1063D01*
X1043Y2405D02*
X1047D01*
Y2401D01*
X1043D01*
Y2405D01*
X1063Y2384D02*
X1067Y2380D01*
Y2372D01*
X1063Y2367D01*
X1047D01*
X1043Y2372D01*
Y2380D01*
X1047Y2384D01*
X1063D01*
Y2359D02*
X1067Y2355D01*
Y2347D01*
X1063Y2343D01*
X1059D01*
X1055Y2347D01*
X1051Y2343D01*
X1047D01*
X1043Y2347D01*
Y2355D01*
X1047Y2359D01*
X1051D01*
X1055Y2355D01*
X1059Y2359D01*
X1063D01*
X1055Y2355D02*
Y2347D01*
X1067Y2318D02*
X1063Y2326D01*
X1055Y2334D01*
X1047D01*
X1043Y2330D01*
Y2322D01*
X1047Y2318D01*
X1051D01*
X1055Y2322D01*
Y2334D01*
X1043Y2309D02*
Y2301D01*
Y2305D01*
X1059D01*
Y2309D01*
X1043Y2288D02*
X1059D01*
Y2276D01*
X1055Y2272D01*
X1043D01*
Y2263D02*
X1059Y2247D01*
X1043Y2222D02*
Y2238D01*
X1059Y2222D01*
X1063D01*
X1067Y2226D01*
Y2234D01*
X1063Y2238D01*
X1043Y2213D02*
X1047D01*
Y2209D01*
X1043D01*
Y2213D01*
Y2193D02*
Y2184D01*
Y2188D01*
X1067D01*
X1063Y2193D01*
Y2172D02*
X1067Y2168D01*
Y2159D01*
X1063Y2155D01*
X1059D01*
X1055Y2159D01*
X1051Y2155D01*
X1047D01*
X1043Y2159D01*
Y2168D01*
X1047Y2172D01*
X1051D01*
X1055Y2168D01*
X1059Y2172D01*
X1063D01*
X1055Y2168D02*
Y2159D01*
X1043Y2134D02*
X1067D01*
X1055Y2147D01*
Y2130D01*
X1043Y2122D02*
X1059D01*
Y2118D01*
X1055Y2113D01*
X1043D01*
X1055D01*
X1059Y2109D01*
X1055Y2105D01*
X1043D01*
Y2097D02*
X1059D01*
Y2093D01*
X1055Y2088D01*
X1043D01*
X1055D01*
X1059Y2084D01*
X1055Y2080D01*
X1043D01*
X1063Y2330D02*
X1067Y2326D01*
Y2317D01*
X1063Y2313D01*
X1047D01*
X1043Y2317D01*
Y2326D01*
X1047Y2330D01*
X1063D01*
X1043Y2305D02*
X1047D01*
Y2301D01*
X1043D01*
Y2305D01*
Y2284D02*
Y2276D01*
Y2280D01*
X1067D01*
X1063Y2284D01*
X1067Y2247D02*
Y2263D01*
X1055D01*
X1059Y2255D01*
Y2251D01*
X1055Y2247D01*
X1047D01*
X1043Y2251D01*
Y2259D01*
X1047Y2263D01*
X1067Y2222D02*
Y2238D01*
X1055D01*
X1059Y2230D01*
Y2226D01*
X1055Y2222D01*
X1047D01*
X1043Y2226D01*
Y2234D01*
X1047Y2238D01*
X1043Y2213D02*
Y2205D01*
Y2209D01*
X1059D01*
Y2213D01*
X1043Y2193D02*
X1059D01*
Y2180D01*
X1055Y2176D01*
X1043D01*
Y2168D02*
X1059Y2151D01*
X1063Y2143D02*
X1067Y2138D01*
Y2130D01*
X1063Y2126D01*
X1059D01*
X1055Y2130D01*
Y2134D01*
Y2130D01*
X1051Y2126D01*
X1047D01*
X1043Y2130D01*
Y2138D01*
X1047Y2143D01*
X1043Y2118D02*
X1047D01*
Y2113D01*
X1043D01*
Y2118D01*
X1047Y2097D02*
X1043Y2093D01*
Y2084D01*
X1047Y2080D01*
X1063D01*
X1067Y2084D01*
Y2093D01*
X1063Y2097D01*
X1059D01*
X1055Y2093D01*
Y2080D01*
X1063Y2072D02*
X1067Y2068D01*
Y2059D01*
X1063Y2055D01*
X1059D01*
X1055Y2059D01*
Y2063D01*
Y2059D01*
X1051Y2055D01*
X1047D01*
X1043Y2059D01*
Y2068D01*
X1047Y2072D01*
X1067Y2047D02*
Y2030D01*
X1063D01*
X1047Y2047D01*
X1043D01*
Y2022D02*
X1059D01*
Y2018D01*
X1055Y2013D01*
X1043D01*
X1055D01*
X1059Y2009D01*
X1055Y2005D01*
X1043D01*
Y1997D02*
X1059D01*
Y1993D01*
X1055Y1988D01*
X1043D01*
X1055D01*
X1059Y1984D01*
X1055Y1980D01*
X1043D01*
X803Y2713D02*
X807Y2709D01*
Y2701D01*
X803Y2697D01*
X787D01*
X783Y2701D01*
Y2709D01*
X787Y2713D01*
X803D01*
X783Y2688D02*
X787D01*
Y2684D01*
X783D01*
Y2688D01*
Y2651D02*
Y2668D01*
X799Y2651D01*
X803D01*
X807Y2655D01*
Y2663D01*
X803Y2668D01*
X783Y2626D02*
Y2643D01*
X799Y2626D01*
X803D01*
X807Y2630D01*
Y2639D01*
X803Y2643D01*
X783Y2618D02*
Y2609D01*
Y2614D01*
X799D01*
Y2618D01*
X783Y2597D02*
X799D01*
Y2584D01*
X795Y2580D01*
X783D01*
Y2572D02*
X799Y2555D01*
X807Y2530D02*
Y2547D01*
X795D01*
X799Y2539D01*
Y2534D01*
X795Y2530D01*
X787D01*
X783Y2534D01*
Y2543D01*
X787Y2547D01*
X783Y2522D02*
X787D01*
Y2518D01*
X783D01*
Y2522D01*
X807Y2484D02*
Y2501D01*
X795D01*
X799Y2493D01*
Y2489D01*
X795Y2484D01*
X787D01*
X783Y2489D01*
Y2497D01*
X787Y2501D01*
X803Y2476D02*
X807Y2472D01*
Y2464D01*
X803Y2459D01*
X799D01*
X795Y2464D01*
X791Y2459D01*
X787D01*
X783Y2464D01*
Y2472D01*
X787Y2476D01*
X791D01*
X795Y2472D01*
X799Y2476D01*
X803D01*
X795Y2472D02*
Y2464D01*
X803Y2451D02*
X807Y2447D01*
Y2439D01*
X803Y2434D01*
X799D01*
X795Y2439D01*
X791Y2434D01*
X787D01*
X783Y2439D01*
Y2447D01*
X787Y2451D01*
X791D01*
X795Y2447D01*
X799Y2451D01*
X803D01*
X795Y2447D02*
Y2439D01*
X783Y2426D02*
X799D01*
Y2422D01*
X795Y2418D01*
X783D01*
X795D01*
X799Y2414D01*
X795Y2409D01*
X783D01*
Y2401D02*
X799D01*
Y2397D01*
X795Y2393D01*
X783D01*
X795D01*
X799Y2389D01*
X795Y2384D01*
X783D01*
X903Y2793D02*
X907Y2789D01*
Y2781D01*
X903Y2777D01*
X887D01*
X882Y2781D01*
Y2789D01*
X887Y2793D01*
X903D01*
X882Y2768D02*
X887D01*
Y2764D01*
X882D01*
Y2768D01*
X903Y2748D02*
X907Y2743D01*
Y2735D01*
X903Y2731D01*
X887D01*
X882Y2735D01*
Y2743D01*
X887Y2748D01*
X903D01*
X907Y2706D02*
X903Y2714D01*
X895Y2723D01*
X887D01*
X882Y2719D01*
Y2710D01*
X887Y2706D01*
X891D01*
X895Y2710D01*
Y2723D01*
X882Y2698D02*
Y2689D01*
Y2694D01*
X899D01*
Y2698D01*
X882Y2677D02*
X899D01*
Y2664D01*
X895Y2660D01*
X882D01*
Y2652D02*
X899Y2635D01*
X882Y2627D02*
Y2619D01*
Y2623D01*
X907D01*
X903Y2627D01*
X882Y2606D02*
X887D01*
Y2602D01*
X882D01*
Y2606D01*
X907Y2569D02*
Y2585D01*
X895D01*
X899Y2577D01*
Y2573D01*
X895Y2569D01*
X887D01*
X882Y2573D01*
Y2581D01*
X887Y2585D01*
X882Y2544D02*
Y2560D01*
X899Y2544D01*
X903D01*
X907Y2548D01*
Y2556D01*
X903Y2560D01*
X882Y2523D02*
X907D01*
X895Y2535D01*
Y2519D01*
X882Y2510D02*
X899D01*
Y2506D01*
X895Y2502D01*
X882D01*
X895D01*
X899Y2498D01*
X895Y2494D01*
X882D01*
Y2485D02*
X899D01*
Y2481D01*
X895Y2477D01*
X882D01*
X895D01*
X899Y2473D01*
X895Y2469D01*
X882D01*
X1065Y4992D02*
X1070Y4988D01*
Y4980D01*
X1065Y4976D01*
X1049D01*
X1045Y4980D01*
Y4988D01*
X1049Y4992D01*
X1065D01*
X1045Y4967D02*
X1049D01*
Y4963D01*
X1045D01*
Y4967D01*
X1065Y4947D02*
X1070Y4943D01*
Y4934D01*
X1065Y4930D01*
X1049D01*
X1045Y4934D01*
Y4943D01*
X1049Y4947D01*
X1065D01*
Y4922D02*
X1070Y4918D01*
Y4909D01*
X1065Y4905D01*
X1061D01*
X1057Y4909D01*
X1053Y4905D01*
X1049D01*
X1045Y4909D01*
Y4918D01*
X1049Y4922D01*
X1053D01*
X1057Y4918D01*
X1061Y4922D01*
X1065D01*
X1057Y4918D02*
Y4909D01*
X1070Y4880D02*
X1065Y4888D01*
X1057Y4897D01*
X1049D01*
X1045Y4893D01*
Y4884D01*
X1049Y4880D01*
X1053D01*
X1057Y4884D01*
Y4897D01*
X1045Y4872D02*
Y4863D01*
Y4868D01*
X1061D01*
Y4872D01*
X1045Y4851D02*
X1061D01*
Y4838D01*
X1057Y4834D01*
X1045D01*
Y4826D02*
X1061Y4809D01*
X1045Y4784D02*
Y4801D01*
X1061Y4784D01*
X1065D01*
X1070Y4788D01*
Y4797D01*
X1065Y4801D01*
X1045Y4776D02*
X1049D01*
Y4772D01*
X1045D01*
Y4776D01*
Y4755D02*
Y4747D01*
Y4751D01*
X1070D01*
X1065Y4755D01*
Y4734D02*
X1070Y4730D01*
Y4722D01*
X1065Y4718D01*
X1061D01*
X1057Y4722D01*
X1053Y4718D01*
X1049D01*
X1045Y4722D01*
Y4730D01*
X1049Y4734D01*
X1053D01*
X1057Y4730D01*
X1061Y4734D01*
X1065D01*
X1057Y4730D02*
Y4722D01*
X1045Y4697D02*
X1070D01*
X1057Y4709D01*
Y4693D01*
X1045Y4684D02*
X1061D01*
Y4680D01*
X1057Y4676D01*
X1045D01*
X1057D01*
X1061Y4672D01*
X1057Y4668D01*
X1045D01*
Y4659D02*
X1061D01*
Y4655D01*
X1057Y4651D01*
X1045D01*
X1057D01*
X1061Y4647D01*
X1057Y4643D01*
X1045D01*
X1065Y4892D02*
X1070Y4888D01*
Y4880D01*
X1065Y4876D01*
X1049D01*
X1045Y4880D01*
Y4888D01*
X1049Y4892D01*
X1065D01*
X1045Y4867D02*
X1049D01*
Y4863D01*
X1045D01*
Y4867D01*
Y4847D02*
Y4838D01*
Y4843D01*
X1070D01*
X1065Y4847D01*
X1070Y4809D02*
Y4826D01*
X1057D01*
X1061Y4818D01*
Y4813D01*
X1057Y4809D01*
X1049D01*
X1045Y4813D01*
Y4822D01*
X1049Y4826D01*
X1070Y4784D02*
Y4801D01*
X1057D01*
X1061Y4793D01*
Y4788D01*
X1057Y4784D01*
X1049D01*
X1045Y4788D01*
Y4797D01*
X1049Y4801D01*
X1045Y4776D02*
Y4768D01*
Y4772D01*
X1061D01*
Y4776D01*
X1045Y4755D02*
X1061D01*
Y4743D01*
X1057Y4738D01*
X1045D01*
Y4730D02*
X1061Y4713D01*
X1065Y4705D02*
X1070Y4701D01*
Y4693D01*
X1065Y4688D01*
X1061D01*
X1057Y4693D01*
Y4697D01*
Y4693D01*
X1053Y4688D01*
X1049D01*
X1045Y4693D01*
Y4701D01*
X1049Y4705D01*
X1045Y4680D02*
X1049D01*
Y4676D01*
X1045D01*
Y4680D01*
X1049Y4659D02*
X1045Y4655D01*
Y4647D01*
X1049Y4643D01*
X1065D01*
X1070Y4647D01*
Y4655D01*
X1065Y4659D01*
X1061D01*
X1057Y4655D01*
Y4643D01*
X1065Y4634D02*
X1070Y4630D01*
Y4622D01*
X1065Y4618D01*
X1061D01*
X1057Y4622D01*
Y4626D01*
Y4622D01*
X1053Y4618D01*
X1049D01*
X1045Y4622D01*
Y4630D01*
X1049Y4634D01*
X1070Y4609D02*
Y4593D01*
X1065D01*
X1049Y4609D01*
X1045D01*
Y4584D02*
X1061D01*
Y4580D01*
X1057Y4576D01*
X1045D01*
X1057D01*
X1061Y4572D01*
X1057Y4568D01*
X1045D01*
Y4559D02*
X1061D01*
Y4555D01*
X1057Y4551D01*
X1045D01*
X1057D01*
X1061Y4547D01*
X1057Y4543D01*
X1045D01*
X805Y5276D02*
X810Y5272D01*
Y5263D01*
X805Y5259D01*
X789D01*
X785Y5263D01*
Y5272D01*
X789Y5276D01*
X805D01*
X785Y5251D02*
X789D01*
Y5247D01*
X785D01*
Y5251D01*
Y5214D02*
Y5230D01*
X801Y5214D01*
X805D01*
X810Y5218D01*
Y5226D01*
X805Y5230D01*
X785Y5189D02*
Y5205D01*
X801Y5189D01*
X805D01*
X810Y5193D01*
Y5201D01*
X805Y5205D01*
X785Y5180D02*
Y5172D01*
Y5176D01*
X801D01*
Y5180D01*
X785Y5159D02*
X801D01*
Y5147D01*
X797Y5143D01*
X785D01*
Y5134D02*
X801Y5118D01*
X810Y5093D02*
Y5109D01*
X797D01*
X801Y5101D01*
Y5097D01*
X797Y5093D01*
X789D01*
X785Y5097D01*
Y5105D01*
X789Y5109D01*
X785Y5084D02*
X789D01*
Y5080D01*
X785D01*
Y5084D01*
X810Y5047D02*
Y5064D01*
X797D01*
X801Y5055D01*
Y5051D01*
X797Y5047D01*
X789D01*
X785Y5051D01*
Y5059D01*
X789Y5064D01*
X805Y5039D02*
X810Y5034D01*
Y5026D01*
X805Y5022D01*
X801D01*
X797Y5026D01*
X793Y5022D01*
X789D01*
X785Y5026D01*
Y5034D01*
X789Y5039D01*
X793D01*
X797Y5034D01*
X801Y5039D01*
X805D01*
X797Y5034D02*
Y5026D01*
X805Y5014D02*
X810Y5009D01*
Y5001D01*
X805Y4997D01*
X801D01*
X797Y5001D01*
X793Y4997D01*
X789D01*
X785Y5001D01*
Y5009D01*
X789Y5014D01*
X793D01*
X797Y5009D01*
X801Y5014D01*
X805D01*
X797Y5009D02*
Y5001D01*
X785Y4989D02*
X801D01*
Y4984D01*
X797Y4980D01*
X785D01*
X797D01*
X801Y4976D01*
X797Y4972D01*
X785D01*
Y4964D02*
X801D01*
Y4959D01*
X797Y4955D01*
X785D01*
X797D01*
X801Y4951D01*
X797Y4947D01*
X785D01*
X905Y5356D02*
X910Y5352D01*
Y5343D01*
X905Y5339D01*
X889D01*
X885Y5343D01*
Y5352D01*
X889Y5356D01*
X905D01*
X885Y5331D02*
X889D01*
Y5327D01*
X885D01*
Y5331D01*
X905Y5310D02*
X910Y5306D01*
Y5298D01*
X905Y5294D01*
X889D01*
X885Y5298D01*
Y5306D01*
X889Y5310D01*
X905D01*
X910Y5269D02*
X905Y5277D01*
X897Y5285D01*
X889D01*
X885Y5281D01*
Y5273D01*
X889Y5269D01*
X893D01*
X897Y5273D01*
Y5285D01*
X885Y5260D02*
Y5252D01*
Y5256D01*
X901D01*
Y5260D01*
X885Y5239D02*
X901D01*
Y5227D01*
X897Y5223D01*
X885D01*
Y5214D02*
X901Y5198D01*
X885Y5189D02*
Y5181D01*
Y5185D01*
X910D01*
X905Y5189D01*
X885Y5169D02*
X889D01*
Y5164D01*
X885D01*
Y5169D01*
X910Y5131D02*
Y5148D01*
X897D01*
X901Y5139D01*
Y5135D01*
X897Y5131D01*
X889D01*
X885Y5135D01*
Y5144D01*
X889Y5148D01*
X885Y5106D02*
Y5123D01*
X901Y5106D01*
X905D01*
X910Y5110D01*
Y5119D01*
X905Y5123D01*
X885Y5085D02*
X910D01*
X897Y5098D01*
Y5081D01*
X885Y5073D02*
X901D01*
Y5069D01*
X897Y5064D01*
X885D01*
X897D01*
X901Y5060D01*
X897Y5056D01*
X885D01*
Y5048D02*
X901D01*
Y5044D01*
X897Y5039D01*
X885D01*
X897D01*
X901Y5035D01*
X897Y5031D01*
X885D01*
X1060Y4309D02*
X1065Y4305D01*
Y4297D01*
X1060Y4292D01*
X1044D01*
X1040Y4297D01*
Y4305D01*
X1044Y4309D01*
X1060D01*
X1040Y4284D02*
X1044D01*
Y4280D01*
X1040D01*
Y4284D01*
X1060Y4263D02*
X1065Y4259D01*
Y4251D01*
X1060Y4247D01*
X1044D01*
X1040Y4251D01*
Y4259D01*
X1044Y4263D01*
X1060D01*
Y4238D02*
X1065Y4234D01*
Y4226D01*
X1060Y4222D01*
X1056D01*
X1052Y4226D01*
X1048Y4222D01*
X1044D01*
X1040Y4226D01*
Y4234D01*
X1044Y4238D01*
X1048D01*
X1052Y4234D01*
X1056Y4238D01*
X1060D01*
X1052Y4234D02*
Y4226D01*
X1065Y4197D02*
X1060Y4205D01*
X1052Y4213D01*
X1044D01*
X1040Y4209D01*
Y4201D01*
X1044Y4197D01*
X1048D01*
X1052Y4201D01*
Y4213D01*
X1040Y4188D02*
Y4180D01*
Y4184D01*
X1056D01*
Y4188D01*
X1040Y4167D02*
X1056D01*
Y4155D01*
X1052Y4151D01*
X1040D01*
Y4142D02*
X1056Y4126D01*
X1040Y4101D02*
Y4117D01*
X1056Y4101D01*
X1060D01*
X1065Y4105D01*
Y4113D01*
X1060Y4117D01*
X1040Y4092D02*
X1044D01*
Y4088D01*
X1040D01*
Y4092D01*
Y4072D02*
Y4063D01*
Y4067D01*
X1065D01*
X1060Y4072D01*
Y4051D02*
X1065Y4047D01*
Y4038D01*
X1060Y4034D01*
X1056D01*
X1052Y4038D01*
X1048Y4034D01*
X1044D01*
X1040Y4038D01*
Y4047D01*
X1044Y4051D01*
X1048D01*
X1052Y4047D01*
X1056Y4051D01*
X1060D01*
X1052Y4047D02*
Y4038D01*
X1040Y4013D02*
X1065D01*
X1052Y4026D01*
Y4009D01*
X1040Y4001D02*
X1056D01*
Y3997D01*
X1052Y3992D01*
X1040D01*
X1052D01*
X1056Y3988D01*
X1052Y3984D01*
X1040D01*
Y3976D02*
X1056D01*
Y3972D01*
X1052Y3967D01*
X1040D01*
X1052D01*
X1056Y3963D01*
X1052Y3959D01*
X1040D01*
X1060Y4209D02*
X1065Y4205D01*
Y4197D01*
X1060Y4192D01*
X1044D01*
X1040Y4197D01*
Y4205D01*
X1044Y4209D01*
X1060D01*
X1040Y4184D02*
X1044D01*
Y4180D01*
X1040D01*
Y4184D01*
Y4163D02*
Y4155D01*
Y4159D01*
X1065D01*
X1060Y4163D01*
X1065Y4126D02*
Y4142D01*
X1052D01*
X1056Y4134D01*
Y4130D01*
X1052Y4126D01*
X1044D01*
X1040Y4130D01*
Y4138D01*
X1044Y4142D01*
X1065Y4101D02*
Y4117D01*
X1052D01*
X1056Y4109D01*
Y4105D01*
X1052Y4101D01*
X1044D01*
X1040Y4105D01*
Y4113D01*
X1044Y4117D01*
X1040Y4092D02*
Y4084D01*
Y4088D01*
X1056D01*
Y4092D01*
X1040Y4072D02*
X1056D01*
Y4059D01*
X1052Y4055D01*
X1040D01*
Y4047D02*
X1056Y4030D01*
X1060Y4022D02*
X1065Y4017D01*
Y4009D01*
X1060Y4005D01*
X1056D01*
X1052Y4009D01*
Y4013D01*
Y4009D01*
X1048Y4005D01*
X1044D01*
X1040Y4009D01*
Y4017D01*
X1044Y4022D01*
X1040Y3997D02*
X1044D01*
Y3992D01*
X1040D01*
Y3997D01*
X1044Y3976D02*
X1040Y3972D01*
Y3963D01*
X1044Y3959D01*
X1060D01*
X1065Y3963D01*
Y3972D01*
X1060Y3976D01*
X1056D01*
X1052Y3972D01*
Y3959D01*
X1060Y3951D02*
X1065Y3947D01*
Y3938D01*
X1060Y3934D01*
X1056D01*
X1052Y3938D01*
Y3942D01*
Y3938D01*
X1048Y3934D01*
X1044D01*
X1040Y3938D01*
Y3947D01*
X1044Y3951D01*
X1065Y3926D02*
Y3909D01*
X1060D01*
X1044Y3926D01*
X1040D01*
Y3901D02*
X1056D01*
Y3897D01*
X1052Y3892D01*
X1040D01*
X1052D01*
X1056Y3888D01*
X1052Y3884D01*
X1040D01*
Y3876D02*
X1056D01*
Y3872D01*
X1052Y3867D01*
X1040D01*
X1052D01*
X1056Y3863D01*
X1052Y3859D01*
X1040D01*
X800Y4593D02*
X805Y4588D01*
Y4580D01*
X800Y4576D01*
X784D01*
X780Y4580D01*
Y4588D01*
X784Y4593D01*
X800D01*
X780Y4568D02*
X784D01*
Y4563D01*
X780D01*
Y4568D01*
Y4530D02*
Y4547D01*
X796Y4530D01*
X800D01*
X805Y4534D01*
Y4543D01*
X800Y4547D01*
X780Y4505D02*
Y4522D01*
X796Y4505D01*
X800D01*
X805Y4509D01*
Y4518D01*
X800Y4522D01*
X780Y4497D02*
Y4488D01*
Y4493D01*
X796D01*
Y4497D01*
X780Y4476D02*
X796D01*
Y4463D01*
X792Y4459D01*
X780D01*
Y4451D02*
X796Y4434D01*
X805Y4409D02*
Y4426D01*
X792D01*
X796Y4418D01*
Y4413D01*
X792Y4409D01*
X784D01*
X780Y4413D01*
Y4422D01*
X784Y4426D01*
X780Y4401D02*
X784D01*
Y4397D01*
X780D01*
Y4401D01*
X805Y4363D02*
Y4380D01*
X792D01*
X796Y4372D01*
Y4368D01*
X792Y4363D01*
X784D01*
X780Y4368D01*
Y4376D01*
X784Y4380D01*
X800Y4355D02*
X805Y4351D01*
Y4343D01*
X800Y4338D01*
X796D01*
X792Y4343D01*
X788Y4338D01*
X784D01*
X780Y4343D01*
Y4351D01*
X784Y4355D01*
X788D01*
X792Y4351D01*
X796Y4355D01*
X800D01*
X792Y4351D02*
Y4343D01*
X800Y4330D02*
X805Y4326D01*
Y4318D01*
X800Y4313D01*
X796D01*
X792Y4318D01*
X788Y4313D01*
X784D01*
X780Y4318D01*
Y4326D01*
X784Y4330D01*
X788D01*
X792Y4326D01*
X796Y4330D01*
X800D01*
X792Y4326D02*
Y4318D01*
X780Y4305D02*
X796D01*
Y4301D01*
X792Y4297D01*
X780D01*
X792D01*
X796Y4293D01*
X792Y4288D01*
X780D01*
Y4280D02*
X796D01*
Y4276D01*
X792Y4272D01*
X780D01*
X792D01*
X796Y4268D01*
X792Y4263D01*
X780D01*
X900Y4673D02*
X905Y4668D01*
Y4660D01*
X900Y4656D01*
X884D01*
X880Y4660D01*
Y4668D01*
X884Y4673D01*
X900D01*
X880Y4648D02*
X884D01*
Y4643D01*
X880D01*
Y4648D01*
X900Y4627D02*
X905Y4623D01*
Y4614D01*
X900Y4610D01*
X884D01*
X880Y4614D01*
Y4623D01*
X884Y4627D01*
X900D01*
X905Y4585D02*
X900Y4593D01*
X892Y4602D01*
X884D01*
X880Y4598D01*
Y4589D01*
X884Y4585D01*
X888D01*
X892Y4589D01*
Y4602D01*
X880Y4577D02*
Y4568D01*
Y4573D01*
X896D01*
Y4577D01*
X880Y4556D02*
X896D01*
Y4543D01*
X892Y4539D01*
X880D01*
Y4531D02*
X896Y4514D01*
X880Y4506D02*
Y4498D01*
Y4502D01*
X905D01*
X900Y4506D01*
X880Y4485D02*
X884D01*
Y4481D01*
X880D01*
Y4485D01*
X905Y4448D02*
Y4464D01*
X892D01*
X896Y4456D01*
Y4452D01*
X892Y4448D01*
X884D01*
X880Y4452D01*
Y4460D01*
X884Y4464D01*
X880Y4423D02*
Y4439D01*
X896Y4423D01*
X900D01*
X905Y4427D01*
Y4435D01*
X900Y4439D01*
X880Y4402D02*
X905D01*
X892Y4414D01*
Y4398D01*
X880Y4389D02*
X896D01*
Y4385D01*
X892Y4381D01*
X880D01*
X892D01*
X896Y4377D01*
X892Y4373D01*
X880D01*
Y4364D02*
X896D01*
Y4360D01*
X892Y4356D01*
X880D01*
X892D01*
X896Y4352D01*
X892Y4348D01*
X880D01*
D172*
X312Y7802D02*
X345D01*
X362Y7786D01*
X345Y7769D01*
X312D01*
X337D01*
Y7802D01*
X312Y7753D02*
Y7736D01*
Y7744D01*
X362D01*
Y7753D01*
X354Y7703D02*
X345D01*
Y7711D01*
Y7694D01*
Y7703D01*
X320D01*
X312Y7694D01*
Y7586D02*
Y7619D01*
X345Y7586D01*
X354D01*
X362Y7594D01*
Y7611D01*
X354Y7619D01*
X312Y7519D02*
X362D01*
Y7494D01*
X354Y7486D01*
X337D01*
X329Y7494D01*
Y7519D01*
X345Y7461D02*
Y7444D01*
X337Y7436D01*
X312D01*
Y7461D01*
X320Y7469D01*
X329Y7461D01*
Y7436D01*
X362Y7386D02*
X312D01*
Y7411D01*
X320Y7419D01*
X337D01*
X345Y7411D01*
Y7386D01*
X312Y7369D02*
Y7344D01*
X320Y7336D01*
X329Y7344D01*
Y7361D01*
X337Y7369D01*
X345Y7361D01*
Y7336D01*
X354Y7311D02*
X345D01*
Y7319D01*
Y7303D01*
Y7311D01*
X320D01*
X312Y7303D01*
X345Y7278D02*
X320D01*
X312Y7269D01*
Y7244D01*
X304D01*
X295Y7253D01*
Y7261D01*
X312Y7244D02*
X345D01*
X312Y7228D02*
Y7211D01*
Y7219D01*
X362D01*
Y7228D01*
X312Y7161D02*
Y7178D01*
X320Y7186D01*
X337D01*
X345Y7178D01*
Y7161D01*
X337Y7153D01*
X329D01*
Y7186D01*
X345Y7136D02*
Y7128D01*
X337D01*
Y7136D01*
X345D01*
X320D02*
Y7128D01*
X312D01*
Y7136D01*
X320D01*
X362Y7019D02*
Y7036D01*
X354Y7044D01*
X320D01*
X312Y7036D01*
Y7019D01*
X320Y7011D01*
X354D01*
X362Y7019D01*
Y6994D02*
X312Y6961D01*
X362D02*
X312Y6994D01*
X320Y6944D02*
X312Y6936D01*
Y6919D01*
X320Y6911D01*
X354D01*
X362Y6919D01*
Y6936D01*
X354Y6944D01*
X345D01*
X337Y6936D01*
Y6911D01*
X354Y6894D02*
X362Y6886D01*
Y6869D01*
X354Y6861D01*
X320D01*
X312Y6869D01*
Y6886D01*
X320Y6894D01*
X354D01*
X362Y6844D02*
X354D01*
X337Y6828D01*
X354Y6811D01*
X362D01*
X337Y6828D02*
X312D01*
X362Y6761D02*
X354Y6778D01*
X337Y6794D01*
X320D01*
X312Y6786D01*
Y6770D01*
X320Y6761D01*
X329D01*
X337Y6770D01*
Y6794D01*
X354Y6745D02*
X362Y6736D01*
Y6720D01*
X354Y6711D01*
X320D01*
X312Y6720D01*
Y6736D01*
X320Y6745D01*
X354D01*
X362Y6695D02*
X312D01*
Y6670D01*
X320Y6661D01*
X354D01*
X362Y6670D01*
Y6695D01*
X354Y6645D02*
X362Y6636D01*
Y6620D01*
X354Y6611D01*
X345D01*
X337Y6620D01*
Y6628D01*
Y6620D01*
X329Y6611D01*
X320D01*
X312Y6620D01*
Y6636D01*
X320Y6645D01*
X354Y6595D02*
X362Y6586D01*
Y6570D01*
X354Y6561D01*
X320D01*
X312Y6570D01*
Y6586D01*
X320Y6595D01*
X354D01*
X312Y6545D02*
X362D01*
Y6520D01*
X354Y6511D01*
X337D01*
X329Y6520D01*
Y6545D01*
X632Y4213D02*
X666D01*
X682Y4196D01*
X666Y4179D01*
X632D01*
X657D01*
Y4213D01*
X632Y4163D02*
Y4146D01*
Y4154D01*
X682D01*
Y4163D01*
X674Y4113D02*
X666D01*
Y4121D01*
Y4104D01*
Y4113D01*
X641D01*
X632Y4104D01*
Y4029D02*
Y4013D01*
Y4021D01*
X682D01*
X674Y4029D01*
X632Y3938D02*
X682D01*
Y3913D01*
X674Y3904D01*
X657D01*
X649Y3913D01*
Y3938D01*
X666Y3879D02*
Y3863D01*
X657Y3854D01*
X632D01*
Y3879D01*
X641Y3888D01*
X649Y3879D01*
Y3854D01*
X682Y3804D02*
X632D01*
Y3829D01*
X641Y3838D01*
X657D01*
X666Y3829D01*
Y3804D01*
X632Y3788D02*
Y3763D01*
X641Y3754D01*
X649Y3763D01*
Y3779D01*
X657Y3788D01*
X666Y3779D01*
Y3754D01*
X674Y3729D02*
X666D01*
Y3738D01*
Y3721D01*
Y3729D01*
X641D01*
X632Y3721D01*
X666Y3696D02*
X641D01*
X632Y3688D01*
Y3663D01*
X624D01*
X616Y3671D01*
Y3679D01*
X632Y3663D02*
X666D01*
X632Y3646D02*
Y3629D01*
Y3638D01*
X682D01*
Y3646D01*
X632Y3579D02*
Y3596D01*
X641Y3604D01*
X657D01*
X666Y3596D01*
Y3579D01*
X657Y3571D01*
X649D01*
Y3604D01*
X666Y3554D02*
Y3546D01*
X657D01*
Y3554D01*
X666D01*
X641D02*
Y3546D01*
X632D01*
Y3554D01*
X641D01*
X682Y3438D02*
Y3454D01*
X674Y3463D01*
X641D01*
X632Y3454D01*
Y3438D01*
X641Y3429D01*
X674D01*
X682Y3438D01*
Y3413D02*
X632Y3379D01*
X682D02*
X632Y3413D01*
X682Y3329D02*
X674Y3346D01*
X657Y3363D01*
X641D01*
X632Y3354D01*
Y3338D01*
X641Y3329D01*
X649D01*
X657Y3338D01*
Y3363D01*
X674Y3313D02*
X682Y3304D01*
Y3288D01*
X674Y3279D01*
X641D01*
X632Y3288D01*
Y3304D01*
X641Y3313D01*
X674D01*
X682Y3263D02*
X674D01*
X657Y3246D01*
X674Y3229D01*
X682D01*
X657Y3246D02*
X632D01*
X641Y3213D02*
X632Y3204D01*
Y3188D01*
X641Y3180D01*
X674D01*
X682Y3188D01*
Y3204D01*
X674Y3213D01*
X666D01*
X657Y3204D01*
Y3180D01*
X674Y3163D02*
X682Y3155D01*
Y3138D01*
X674Y3130D01*
X641D01*
X632Y3138D01*
Y3155D01*
X641Y3163D01*
X674D01*
X682Y3113D02*
X632D01*
Y3088D01*
X641Y3080D01*
X674D01*
X682Y3088D01*
Y3113D01*
X674Y3063D02*
X682Y3055D01*
Y3038D01*
X674Y3030D01*
X666D01*
X657Y3038D01*
Y3046D01*
Y3038D01*
X649Y3030D01*
X641D01*
X632Y3038D01*
Y3055D01*
X641Y3063D01*
X674Y3013D02*
X682Y3005D01*
Y2988D01*
X674Y2980D01*
X641D01*
X632Y2988D01*
Y3005D01*
X641Y3013D01*
X674D01*
X632Y2963D02*
X682D01*
Y2938D01*
X674Y2930D01*
X657D01*
X649Y2938D01*
Y2963D01*
X650Y3556D02*
X683D01*
X700Y3540D01*
X683Y3523D01*
X650D01*
X675D01*
Y3556D01*
X650Y3507D02*
Y3490D01*
Y3498D01*
X700D01*
Y3507D01*
X691Y3457D02*
X683D01*
Y3465D01*
Y3448D01*
Y3457D01*
X658D01*
X650Y3448D01*
Y3373D02*
Y3357D01*
Y3365D01*
X700D01*
X691Y3373D01*
X650Y3282D02*
X700D01*
Y3257D01*
X691Y3248D01*
X675D01*
X666Y3257D01*
Y3282D01*
X683Y3223D02*
Y3207D01*
X675Y3198D01*
X650D01*
Y3223D01*
X658Y3232D01*
X666Y3223D01*
Y3198D01*
X700Y3148D02*
X650D01*
Y3173D01*
X658Y3182D01*
X675D01*
X683Y3173D01*
Y3148D01*
X650Y3132D02*
Y3107D01*
X658Y3098D01*
X666Y3107D01*
Y3123D01*
X675Y3132D01*
X683Y3123D01*
Y3098D01*
X691Y3073D02*
X683D01*
Y3082D01*
Y3065D01*
Y3073D01*
X658D01*
X650Y3065D01*
X683Y3040D02*
X658D01*
X650Y3032D01*
Y3007D01*
X641D01*
X633Y3015D01*
Y3023D01*
X650Y3007D02*
X683D01*
X650Y2990D02*
Y2973D01*
Y2982D01*
X700D01*
Y2990D01*
X650Y2923D02*
Y2940D01*
X658Y2948D01*
X675D01*
X683Y2940D01*
Y2923D01*
X675Y2915D01*
X666D01*
Y2948D01*
X683Y2898D02*
Y2890D01*
X675D01*
Y2898D01*
X683D01*
X658D02*
Y2890D01*
X650D01*
Y2898D01*
X658D01*
X700Y2782D02*
Y2798D01*
X691Y2807D01*
X658D01*
X650Y2798D01*
Y2782D01*
X658Y2773D01*
X691D01*
X700Y2782D01*
Y2757D02*
X650Y2723D01*
X700D02*
X650Y2757D01*
X700Y2673D02*
X691Y2690D01*
X675Y2707D01*
X658D01*
X650Y2698D01*
Y2682D01*
X658Y2673D01*
X666D01*
X675Y2682D01*
Y2707D01*
X691Y2657D02*
X700Y2648D01*
Y2632D01*
X691Y2623D01*
X658D01*
X650Y2632D01*
Y2648D01*
X658Y2657D01*
X691D01*
X700Y2607D02*
X691D01*
X675Y2590D01*
X691Y2573D01*
X700D01*
X675Y2590D02*
X650D01*
X658Y2557D02*
X650Y2548D01*
Y2532D01*
X658Y2523D01*
X691D01*
X700Y2532D01*
Y2548D01*
X691Y2557D01*
X683D01*
X675Y2548D01*
Y2523D01*
X691Y2507D02*
X700Y2498D01*
Y2482D01*
X691Y2474D01*
X658D01*
X650Y2482D01*
Y2498D01*
X658Y2507D01*
X691D01*
X700Y2457D02*
X650D01*
Y2432D01*
X658Y2424D01*
X691D01*
X700Y2432D01*
Y2457D01*
X691Y2407D02*
X700Y2399D01*
Y2382D01*
X691Y2374D01*
X683D01*
X675Y2382D01*
Y2390D01*
Y2382D01*
X666Y2374D01*
X658D01*
X650Y2382D01*
Y2399D01*
X658Y2407D01*
X691Y2357D02*
X700Y2349D01*
Y2332D01*
X691Y2324D01*
X658D01*
X650Y2332D01*
Y2349D01*
X658Y2357D01*
X691D01*
X650Y2307D02*
X700D01*
Y2282D01*
X691Y2274D01*
X675D01*
X666Y2282D01*
Y2307D01*
X5475Y8448D02*
Y8414D01*
X5458Y8398D01*
X5441Y8414D01*
Y8448D01*
Y8423D01*
X5475D01*
X5425Y8448D02*
X5408D01*
X5416D01*
Y8398D01*
X5425D01*
X5375Y8406D02*
Y8414D01*
X5383D01*
X5366D01*
X5375D01*
Y8439D01*
X5366Y8448D01*
X5258D02*
X5291D01*
X5258Y8414D01*
Y8406D01*
X5266Y8398D01*
X5283D01*
X5291Y8406D01*
X5191Y8448D02*
Y8398D01*
X5166D01*
X5158Y8406D01*
Y8423D01*
X5166Y8431D01*
X5191D01*
X5133Y8414D02*
X5116D01*
X5108Y8423D01*
Y8448D01*
X5133D01*
X5141Y8439D01*
X5133Y8431D01*
X5108D01*
X5058Y8398D02*
Y8448D01*
X5083D01*
X5091Y8439D01*
Y8423D01*
X5083Y8414D01*
X5058D01*
X5041Y8448D02*
X5016D01*
X5008Y8439D01*
X5016Y8431D01*
X5033D01*
X5041Y8423D01*
X5033Y8414D01*
X5008D01*
X4983Y8406D02*
Y8414D01*
X4991D01*
X4975D01*
X4983D01*
Y8439D01*
X4975Y8448D01*
X4950Y8414D02*
Y8439D01*
X4941Y8448D01*
X4916D01*
Y8456D01*
X4925Y8464D01*
X4933D01*
X4916Y8448D02*
Y8414D01*
X4900Y8448D02*
X4883D01*
X4891D01*
Y8398D01*
X4900D01*
X4833Y8448D02*
X4850D01*
X4858Y8439D01*
Y8423D01*
X4850Y8414D01*
X4833D01*
X4825Y8423D01*
Y8431D01*
X4858D01*
X4808Y8414D02*
X4800D01*
Y8423D01*
X4808D01*
Y8414D01*
Y8439D02*
X4800D01*
Y8448D01*
X4808D01*
Y8439D01*
X4691Y8398D02*
X4708D01*
X4716Y8406D01*
Y8439D01*
X4708Y8448D01*
X4691D01*
X4683Y8439D01*
Y8406D01*
X4691Y8398D01*
X4666D02*
X4633Y8448D01*
Y8398D02*
X4666Y8448D01*
X4616Y8439D02*
X4608Y8448D01*
X4591D01*
X4583Y8439D01*
Y8406D01*
X4591Y8398D01*
X4608D01*
X4616Y8406D01*
Y8414D01*
X4608Y8423D01*
X4583D01*
X4566Y8406D02*
X4558Y8398D01*
X4541D01*
X4533Y8406D01*
Y8439D01*
X4541Y8448D01*
X4558D01*
X4566Y8439D01*
Y8406D01*
X4516Y8398D02*
Y8406D01*
X4500Y8423D01*
X4483Y8406D01*
Y8398D01*
X4500Y8423D02*
Y8448D01*
X4433Y8398D02*
X4450Y8406D01*
X4466Y8423D01*
Y8439D01*
X4458Y8448D01*
X4442D01*
X4433Y8439D01*
Y8431D01*
X4442Y8423D01*
X4466D01*
X4417Y8406D02*
X4408Y8398D01*
X4392D01*
X4383Y8406D01*
Y8439D01*
X4392Y8448D01*
X4408D01*
X4417Y8439D01*
Y8406D01*
X4367Y8398D02*
Y8448D01*
X4342D01*
X4333Y8439D01*
Y8406D01*
X4342Y8398D01*
X4367D01*
X4317Y8406D02*
X4308Y8398D01*
X4292D01*
X4283Y8406D01*
Y8414D01*
X4292Y8423D01*
X4300D01*
X4292D01*
X4283Y8431D01*
Y8439D01*
X4292Y8448D01*
X4308D01*
X4317Y8439D01*
X4267Y8406D02*
X4258Y8398D01*
X4242D01*
X4233Y8406D01*
Y8439D01*
X4242Y8448D01*
X4258D01*
X4267Y8439D01*
Y8406D01*
X4217Y8448D02*
Y8398D01*
X4192D01*
X4183Y8406D01*
Y8423D01*
X4192Y8431D01*
X4217D01*
X3662Y5232D02*
Y5182D01*
X3687D01*
X3695Y5190D01*
Y5224D01*
X3687Y5232D01*
X3662D01*
X3737Y5182D02*
X3720D01*
X3712Y5190D01*
Y5207D01*
X3720Y5215D01*
X3737D01*
X3745Y5207D01*
Y5199D01*
X3712D01*
X3770Y5182D02*
Y5224D01*
Y5207D01*
X3762D01*
X3779D01*
X3770D01*
Y5224D01*
X3779Y5232D01*
X3812Y5215D02*
X3829D01*
X3837Y5207D01*
Y5182D01*
X3812D01*
X3804Y5190D01*
X3812Y5199D01*
X3837D01*
X3854Y5215D02*
Y5190D01*
X3862Y5182D01*
X3887D01*
Y5215D01*
X3904Y5182D02*
X3920D01*
X3912D01*
Y5232D01*
X3904D01*
X3954Y5224D02*
Y5215D01*
X3945D01*
X3962D01*
X3954D01*
Y5190D01*
X3962Y5182D01*
X4037D02*
Y5232D01*
X4062D01*
X4070Y5224D01*
Y5207D01*
X4062Y5199D01*
X4037D01*
X4095Y5215D02*
X4112D01*
X4120Y5207D01*
Y5182D01*
X4095D01*
X4087Y5190D01*
X4095Y5199D01*
X4120D01*
X4170Y5232D02*
Y5182D01*
X4145D01*
X4137Y5190D01*
Y5207D01*
X4145Y5215D01*
X4170D01*
X4187Y5182D02*
X4212D01*
X4220Y5190D01*
X4212Y5199D01*
X4195D01*
X4187Y5207D01*
X4195Y5215D01*
X4220D01*
X4245Y5224D02*
Y5215D01*
X4237D01*
X4254D01*
X4245D01*
Y5190D01*
X4254Y5182D01*
X4279Y5215D02*
Y5190D01*
X4287Y5182D01*
X4312D01*
Y5174D01*
X4304Y5165D01*
X4295D01*
X4312Y5182D02*
Y5215D01*
X4329Y5182D02*
X4345D01*
X4337D01*
Y5232D01*
X4329D01*
X4395Y5182D02*
X4378D01*
X4370Y5190D01*
Y5207D01*
X4378Y5215D01*
X4395D01*
X4403Y5207D01*
Y5199D01*
X4370D01*
X4420Y5215D02*
X4428D01*
Y5207D01*
X4420D01*
Y5215D01*
Y5190D02*
X4428D01*
Y5182D01*
X4420D01*
Y5190D01*
X4512Y5182D02*
Y5232D01*
X4537D01*
X4545Y5224D01*
Y5207D01*
X4537Y5199D01*
X4512D01*
X4528D02*
X4545Y5182D01*
X4562Y5232D02*
X4595Y5182D01*
Y5232D02*
X4562Y5182D01*
X4612Y5224D02*
X4620Y5232D01*
X4637D01*
X4645Y5224D01*
Y5215D01*
X4637Y5207D01*
X4645Y5199D01*
Y5190D01*
X4637Y5182D01*
X4620D01*
X4612Y5190D01*
Y5199D01*
X4620Y5207D01*
X4612Y5215D01*
Y5224D01*
X4620Y5207D02*
X4637D01*
X4695Y5232D02*
X4678Y5224D01*
X4662Y5207D01*
Y5190D01*
X4670Y5182D01*
X4687D01*
X4695Y5190D01*
Y5199D01*
X4687Y5207D01*
X4662D01*
X4712Y5232D02*
Y5224D01*
X4728Y5207D01*
X4745Y5224D01*
Y5232D01*
X4728Y5207D02*
Y5182D01*
X4762D02*
X4778D01*
X4770D01*
Y5232D01*
X4762Y5224D01*
X4837Y5182D02*
X4803D01*
X4837Y5215D01*
Y5224D01*
X4828Y5232D01*
X4812D01*
X4803Y5224D01*
X4887Y5232D02*
X4870Y5224D01*
X4853Y5207D01*
Y5190D01*
X4862Y5182D01*
X4878D01*
X4887Y5190D01*
Y5199D01*
X4878Y5207D01*
X4853D01*
X4903Y5232D02*
Y5182D01*
X4928D01*
X4937Y5190D01*
Y5224D01*
X4928Y5232D01*
X4903D01*
X4953Y5224D02*
X4962Y5232D01*
X4978D01*
X4987Y5224D01*
Y5190D01*
X4978Y5182D01*
X4962D01*
X4953Y5190D01*
Y5224D01*
X5003Y5232D02*
X5037D01*
X5020D01*
Y5182D01*
X3687Y5107D02*
Y5140D01*
X3704Y5157D01*
X3720Y5140D01*
Y5107D01*
Y5132D01*
X3687D01*
X3737Y5107D02*
X3754D01*
X3745D01*
Y5157D01*
X3737D01*
X3787Y5149D02*
Y5140D01*
X3779D01*
X3795D01*
X3787D01*
Y5115D01*
X3795Y5107D01*
X3870D02*
X3887D01*
X3879D01*
Y5157D01*
X3870Y5149D01*
X3962Y5107D02*
Y5157D01*
X3987D01*
X3995Y5149D01*
Y5132D01*
X3987Y5124D01*
X3962D01*
X4020Y5140D02*
X4037D01*
X4045Y5132D01*
Y5107D01*
X4020D01*
X4012Y5115D01*
X4020Y5124D01*
X4045D01*
X4095Y5157D02*
Y5107D01*
X4070D01*
X4062Y5115D01*
Y5132D01*
X4070Y5140D01*
X4095D01*
X4112Y5107D02*
X4137D01*
X4145Y5115D01*
X4137Y5124D01*
X4120D01*
X4112Y5132D01*
X4120Y5140D01*
X4145D01*
X4170Y5149D02*
Y5140D01*
X4162D01*
X4179D01*
X4170D01*
Y5115D01*
X4179Y5107D01*
X4204Y5140D02*
Y5115D01*
X4212Y5107D01*
X4237D01*
Y5099D01*
X4229Y5090D01*
X4220D01*
X4237Y5107D02*
Y5140D01*
X4254Y5107D02*
X4270D01*
X4262D01*
Y5157D01*
X4254D01*
X4320Y5107D02*
X4304D01*
X4295Y5115D01*
Y5132D01*
X4304Y5140D01*
X4320D01*
X4329Y5132D01*
Y5124D01*
X4295D01*
X4345Y5140D02*
X4354D01*
Y5132D01*
X4345D01*
Y5140D01*
Y5115D02*
X4354D01*
Y5107D01*
X4345D01*
Y5115D01*
X4462Y5157D02*
X4445D01*
X4437Y5149D01*
Y5115D01*
X4445Y5107D01*
X4462D01*
X4470Y5115D01*
Y5149D01*
X4462Y5157D01*
X4487D02*
X4520Y5107D01*
Y5157D02*
X4487Y5107D01*
X4570Y5157D02*
X4553Y5149D01*
X4537Y5132D01*
Y5115D01*
X4545Y5107D01*
X4562D01*
X4570Y5115D01*
Y5124D01*
X4562Y5132D01*
X4537D01*
X4587Y5149D02*
X4595Y5157D01*
X4612D01*
X4620Y5149D01*
Y5115D01*
X4612Y5107D01*
X4595D01*
X4587Y5115D01*
Y5149D01*
X4637Y5157D02*
Y5149D01*
X4653Y5132D01*
X4670Y5149D01*
Y5157D01*
X4653Y5132D02*
Y5107D01*
X4687Y5115D02*
X4695Y5107D01*
X4712D01*
X4720Y5115D01*
Y5149D01*
X4712Y5157D01*
X4695D01*
X4687Y5149D01*
Y5140D01*
X4695Y5132D01*
X4720D01*
X4737Y5149D02*
X4745Y5157D01*
X4762D01*
X4770Y5149D01*
Y5115D01*
X4762Y5107D01*
X4745D01*
X4737Y5115D01*
Y5149D01*
X4787Y5157D02*
Y5107D01*
X4812D01*
X4820Y5115D01*
Y5149D01*
X4812Y5157D01*
X4787D01*
X4837Y5149D02*
X4845Y5157D01*
X4862D01*
X4870Y5149D01*
Y5140D01*
X4862Y5132D01*
X4853D01*
X4862D01*
X4870Y5124D01*
Y5115D01*
X4862Y5107D01*
X4845D01*
X4837Y5115D01*
X4887Y5149D02*
X4895Y5157D01*
X4912D01*
X4920Y5149D01*
Y5115D01*
X4912Y5107D01*
X4895D01*
X4887Y5115D01*
Y5149D01*
X4937Y5107D02*
Y5157D01*
X4962D01*
X4970Y5149D01*
Y5132D01*
X4962Y5124D01*
X4937D01*
X3687Y5032D02*
Y5065D01*
X3704Y5082D01*
X3720Y5065D01*
Y5032D01*
Y5057D01*
X3687D01*
X3737Y5032D02*
X3754D01*
X3745D01*
Y5082D01*
X3737D01*
X3787Y5074D02*
Y5065D01*
X3779D01*
X3795D01*
X3787D01*
Y5040D01*
X3795Y5032D01*
X3904D02*
X3870D01*
X3904Y5065D01*
Y5074D01*
X3895Y5082D01*
X3879D01*
X3870Y5074D01*
X3970Y5032D02*
Y5082D01*
X3995D01*
X4004Y5074D01*
Y5057D01*
X3995Y5049D01*
X3970D01*
X4029Y5065D02*
X4045D01*
X4054Y5057D01*
Y5032D01*
X4029D01*
X4020Y5040D01*
X4029Y5049D01*
X4054D01*
X4104Y5082D02*
Y5032D01*
X4079D01*
X4070Y5040D01*
Y5057D01*
X4079Y5065D01*
X4104D01*
X4120Y5032D02*
X4145D01*
X4154Y5040D01*
X4145Y5049D01*
X4129D01*
X4120Y5057D01*
X4129Y5065D01*
X4154D01*
X4179Y5074D02*
Y5065D01*
X4170D01*
X4187D01*
X4179D01*
Y5040D01*
X4187Y5032D01*
X4212Y5065D02*
Y5040D01*
X4220Y5032D01*
X4245D01*
Y5024D01*
X4237Y5015D01*
X4229D01*
X4245Y5032D02*
Y5065D01*
X4262Y5032D02*
X4279D01*
X4270D01*
Y5082D01*
X4262D01*
X4329Y5032D02*
X4312D01*
X4304Y5040D01*
Y5057D01*
X4312Y5065D01*
X4329D01*
X4337Y5057D01*
Y5049D01*
X4304D01*
X4354Y5065D02*
X4362D01*
Y5057D01*
X4354D01*
Y5065D01*
Y5040D02*
X4362D01*
Y5032D01*
X4354D01*
Y5040D01*
X4470Y5082D02*
X4453D01*
X4445Y5074D01*
Y5040D01*
X4453Y5032D01*
X4470D01*
X4478Y5040D01*
Y5074D01*
X4470Y5082D01*
X4495D02*
X4528Y5032D01*
Y5082D02*
X4495Y5032D01*
X4545Y5040D02*
X4553Y5032D01*
X4570D01*
X4578Y5040D01*
Y5074D01*
X4570Y5082D01*
X4553D01*
X4545Y5074D01*
Y5065D01*
X4553Y5057D01*
X4578D01*
X4595Y5074D02*
X4603Y5082D01*
X4620D01*
X4628Y5074D01*
Y5040D01*
X4620Y5032D01*
X4603D01*
X4595Y5040D01*
Y5074D01*
X4645Y5082D02*
Y5074D01*
X4662Y5057D01*
X4678Y5074D01*
Y5082D01*
X4662Y5057D02*
Y5032D01*
X4728Y5082D02*
X4712Y5074D01*
X4695Y5057D01*
Y5040D01*
X4703Y5032D01*
X4720D01*
X4728Y5040D01*
Y5049D01*
X4720Y5057D01*
X4695D01*
X4745Y5074D02*
X4753Y5082D01*
X4770D01*
X4778Y5074D01*
Y5040D01*
X4770Y5032D01*
X4753D01*
X4745Y5040D01*
Y5074D01*
X4795Y5082D02*
Y5032D01*
X4820D01*
X4828Y5040D01*
Y5074D01*
X4820Y5082D01*
X4795D01*
X4845Y5074D02*
X4853Y5082D01*
X4870D01*
X4878Y5074D01*
Y5065D01*
X4870Y5057D01*
X4862D01*
X4870D01*
X4878Y5049D01*
Y5040D01*
X4870Y5032D01*
X4853D01*
X4845Y5040D01*
X4895Y5074D02*
X4903Y5082D01*
X4920D01*
X4928Y5074D01*
Y5040D01*
X4920Y5032D01*
X4903D01*
X4895Y5040D01*
Y5074D01*
X4945Y5032D02*
Y5082D01*
X4970D01*
X4978Y5074D01*
Y5057D01*
X4970Y5049D01*
X4945D01*
X463Y6177D02*
X496D01*
X512Y6161D01*
X496Y6144D01*
X463D01*
X487D01*
Y6177D01*
X463Y6128D02*
Y6111D01*
Y6119D01*
X512D01*
Y6128D01*
X504Y6078D02*
X496D01*
Y6086D01*
Y6069D01*
Y6078D01*
X471D01*
X463Y6069D01*
Y5961D02*
Y5994D01*
X496Y5961D01*
X504D01*
X512Y5969D01*
Y5986D01*
X504Y5994D01*
X463Y5894D02*
X512D01*
Y5869D01*
X504Y5861D01*
X487D01*
X479Y5869D01*
Y5894D01*
X496Y5836D02*
Y5819D01*
X487Y5811D01*
X463D01*
Y5836D01*
X471Y5844D01*
X479Y5836D01*
Y5811D01*
X512Y5761D02*
X463D01*
Y5786D01*
X471Y5794D01*
X487D01*
X496Y5786D01*
Y5761D01*
X463Y5744D02*
Y5719D01*
X471Y5711D01*
X479Y5719D01*
Y5736D01*
X487Y5744D01*
X496Y5736D01*
Y5711D01*
X504Y5686D02*
X496D01*
Y5694D01*
Y5678D01*
Y5686D01*
X471D01*
X463Y5678D01*
X496Y5653D02*
X471D01*
X463Y5644D01*
Y5619D01*
X454D01*
X446Y5628D01*
Y5636D01*
X463Y5619D02*
X496D01*
X463Y5603D02*
Y5586D01*
Y5594D01*
X512D01*
Y5603D01*
X463Y5536D02*
Y5553D01*
X471Y5561D01*
X487D01*
X496Y5553D01*
Y5536D01*
X487Y5528D01*
X479D01*
Y5561D01*
X496Y5511D02*
Y5503D01*
X487D01*
Y5511D01*
X496D01*
X471D02*
Y5503D01*
X463D01*
Y5511D01*
X471D01*
X512Y5394D02*
Y5411D01*
X504Y5419D01*
X471D01*
X463Y5411D01*
Y5394D01*
X471Y5386D01*
X504D01*
X512Y5394D01*
Y5369D02*
X463Y5336D01*
X512D02*
X463Y5369D01*
X471Y5319D02*
X463Y5311D01*
Y5294D01*
X471Y5286D01*
X504D01*
X512Y5294D01*
Y5311D01*
X504Y5319D01*
X496D01*
X487Y5311D01*
Y5286D01*
X504Y5269D02*
X512Y5261D01*
Y5244D01*
X504Y5236D01*
X471D01*
X463Y5244D01*
Y5261D01*
X471Y5269D01*
X504D01*
X512Y5219D02*
X504D01*
X487Y5203D01*
X504Y5186D01*
X512D01*
X487Y5203D02*
X463D01*
X512Y5136D02*
X504Y5153D01*
X487Y5169D01*
X471D01*
X463Y5161D01*
Y5145D01*
X471Y5136D01*
X479D01*
X487Y5145D01*
Y5169D01*
X504Y5120D02*
X512Y5111D01*
Y5095D01*
X504Y5086D01*
X471D01*
X463Y5095D01*
Y5111D01*
X471Y5120D01*
X504D01*
X512Y5070D02*
X463D01*
Y5045D01*
X471Y5036D01*
X504D01*
X512Y5045D01*
Y5070D01*
X504Y5020D02*
X512Y5011D01*
Y4995D01*
X504Y4986D01*
X496D01*
X487Y4995D01*
Y5003D01*
Y4995D01*
X479Y4986D01*
X471D01*
X463Y4995D01*
Y5011D01*
X471Y5020D01*
X504Y4970D02*
X512Y4961D01*
Y4945D01*
X504Y4936D01*
X471D01*
X463Y4945D01*
Y4961D01*
X471Y4970D01*
X504D01*
X463Y4920D02*
X512D01*
Y4895D01*
X504Y4886D01*
X487D01*
X479Y4895D01*
Y4920D01*
X538Y6177D02*
X571D01*
X587Y6161D01*
X571Y6144D01*
X538D01*
X562D01*
Y6177D01*
X538Y6128D02*
Y6111D01*
Y6119D01*
X587D01*
Y6128D01*
X579Y6078D02*
X571D01*
Y6086D01*
Y6069D01*
Y6078D01*
X546D01*
X538Y6069D01*
Y5994D02*
Y5978D01*
Y5986D01*
X587D01*
X579Y5994D01*
X538Y5903D02*
X587D01*
Y5878D01*
X579Y5869D01*
X562D01*
X554Y5878D01*
Y5903D01*
X571Y5844D02*
Y5828D01*
X562Y5819D01*
X538D01*
Y5844D01*
X546Y5853D01*
X554Y5844D01*
Y5819D01*
X587Y5769D02*
X538D01*
Y5794D01*
X546Y5803D01*
X562D01*
X571Y5794D01*
Y5769D01*
X538Y5753D02*
Y5728D01*
X546Y5719D01*
X554Y5728D01*
Y5744D01*
X562Y5753D01*
X571Y5744D01*
Y5719D01*
X579Y5694D02*
X571D01*
Y5703D01*
Y5686D01*
Y5694D01*
X546D01*
X538Y5686D01*
X571Y5661D02*
X546D01*
X538Y5653D01*
Y5628D01*
X529D01*
X521Y5636D01*
Y5644D01*
X538Y5628D02*
X571D01*
X538Y5611D02*
Y5594D01*
Y5603D01*
X587D01*
Y5611D01*
X538Y5544D02*
Y5561D01*
X546Y5569D01*
X562D01*
X571Y5561D01*
Y5544D01*
X562Y5536D01*
X554D01*
Y5569D01*
X571Y5519D02*
Y5511D01*
X562D01*
Y5519D01*
X571D01*
X546D02*
Y5511D01*
X538D01*
Y5519D01*
X546D01*
X587Y5403D02*
Y5419D01*
X579Y5428D01*
X546D01*
X538Y5419D01*
Y5403D01*
X546Y5394D01*
X579D01*
X587Y5403D01*
Y5378D02*
X538Y5344D01*
X587D02*
X538Y5378D01*
X587Y5294D02*
X579Y5311D01*
X562Y5328D01*
X546D01*
X538Y5319D01*
Y5303D01*
X546Y5294D01*
X554D01*
X562Y5303D01*
Y5328D01*
X579Y5278D02*
X587Y5269D01*
Y5253D01*
X579Y5244D01*
X546D01*
X538Y5253D01*
Y5269D01*
X546Y5278D01*
X579D01*
X587Y5228D02*
X579D01*
X562Y5211D01*
X579Y5194D01*
X587D01*
X562Y5211D02*
X538D01*
X546Y5178D02*
X538Y5169D01*
Y5153D01*
X546Y5145D01*
X579D01*
X587Y5153D01*
Y5169D01*
X579Y5178D01*
X571D01*
X562Y5169D01*
Y5145D01*
X579Y5128D02*
X587Y5120D01*
Y5103D01*
X579Y5095D01*
X546D01*
X538Y5103D01*
Y5120D01*
X546Y5128D01*
X579D01*
X587Y5078D02*
X538D01*
Y5053D01*
X546Y5045D01*
X579D01*
X587Y5053D01*
Y5078D01*
X579Y5028D02*
X587Y5020D01*
Y5003D01*
X579Y4995D01*
X571D01*
X562Y5003D01*
Y5011D01*
Y5003D01*
X554Y4995D01*
X546D01*
X538Y5003D01*
Y5020D01*
X546Y5028D01*
X579Y4978D02*
X587Y4970D01*
Y4953D01*
X579Y4945D01*
X546D01*
X538Y4953D01*
Y4970D01*
X546Y4978D01*
X579D01*
X538Y4928D02*
X587D01*
Y4903D01*
X579Y4895D01*
X562D01*
X554Y4903D01*
Y4928D01*
X662Y6190D02*
X613D01*
Y6165D01*
X621Y6157D01*
X654D01*
X662Y6165D01*
Y6190D01*
X613Y6115D02*
Y6132D01*
X621Y6140D01*
X637D01*
X646Y6132D01*
Y6115D01*
X637Y6107D01*
X629D01*
Y6140D01*
X613Y6082D02*
X654D01*
X637D01*
Y6090D01*
Y6073D01*
Y6082D01*
X654D01*
X662Y6073D01*
X646Y6040D02*
Y6023D01*
X637Y6015D01*
X613D01*
Y6040D01*
X621Y6048D01*
X629Y6040D01*
Y6015D01*
X646Y5998D02*
X621D01*
X613Y5990D01*
Y5965D01*
X646D01*
X613Y5948D02*
Y5932D01*
Y5940D01*
X662D01*
Y5948D01*
X654Y5898D02*
X646D01*
Y5907D01*
Y5890D01*
Y5898D01*
X621D01*
X613Y5890D01*
Y5815D02*
X662D01*
Y5790D01*
X654Y5782D01*
X637D01*
X629Y5790D01*
Y5815D01*
X646Y5757D02*
Y5740D01*
X637Y5732D01*
X613D01*
Y5757D01*
X621Y5765D01*
X629Y5757D01*
Y5732D01*
X662Y5682D02*
X613D01*
Y5707D01*
X621Y5715D01*
X637D01*
X646Y5707D01*
Y5682D01*
X613Y5665D02*
Y5640D01*
X621Y5632D01*
X629Y5640D01*
Y5657D01*
X637Y5665D01*
X646Y5657D01*
Y5632D01*
X654Y5607D02*
X646D01*
Y5615D01*
Y5599D01*
Y5607D01*
X621D01*
X613Y5599D01*
X646Y5574D02*
X621D01*
X613Y5565D01*
Y5540D01*
X604D01*
X596Y5549D01*
Y5557D01*
X613Y5540D02*
X646D01*
X613Y5524D02*
Y5507D01*
Y5515D01*
X662D01*
Y5524D01*
X613Y5457D02*
Y5474D01*
X621Y5482D01*
X637D01*
X646Y5474D01*
Y5457D01*
X637Y5449D01*
X629D01*
Y5482D01*
X646Y5432D02*
Y5424D01*
X637D01*
Y5432D01*
X646D01*
X621D02*
Y5424D01*
X613D01*
Y5432D01*
X621D01*
X613Y5340D02*
X662D01*
Y5315D01*
X654Y5307D01*
X637D01*
X629Y5315D01*
Y5340D01*
Y5324D02*
X613Y5307D01*
X662Y5290D02*
X613Y5257D01*
X662D02*
X613Y5290D01*
X654Y5240D02*
X662Y5232D01*
Y5215D01*
X654Y5207D01*
X646D01*
X637Y5215D01*
X629Y5207D01*
X621D01*
X613Y5215D01*
Y5232D01*
X621Y5240D01*
X629D01*
X637Y5232D01*
X646Y5240D01*
X654D01*
X637Y5232D02*
Y5215D01*
X662Y5157D02*
X654Y5174D01*
X637Y5190D01*
X621D01*
X613Y5182D01*
Y5165D01*
X621Y5157D01*
X629D01*
X637Y5165D01*
Y5190D01*
X662Y5140D02*
X654D01*
X637Y5124D01*
X654Y5107D01*
X662D01*
X637Y5124D02*
X613D01*
X654Y5090D02*
X662Y5082D01*
Y5065D01*
X654Y5057D01*
X646D01*
X637Y5065D01*
X629Y5057D01*
X621D01*
X613Y5065D01*
Y5082D01*
X621Y5090D01*
X629D01*
X637Y5082D01*
X646Y5090D01*
X654D01*
X637Y5082D02*
Y5065D01*
X662Y5007D02*
X654Y5024D01*
X637Y5040D01*
X621D01*
X613Y5032D01*
Y5015D01*
X621Y5007D01*
X629D01*
X637Y5015D01*
Y5040D01*
X662Y4990D02*
X613D01*
Y4965D01*
X621Y4957D01*
X654D01*
X662Y4965D01*
Y4990D01*
X654Y4940D02*
X662Y4932D01*
Y4915D01*
X654Y4907D01*
X621D01*
X613Y4915D01*
Y4932D01*
X621Y4940D01*
X654D01*
X662Y4890D02*
Y4857D01*
Y4874D01*
X613D01*
X545Y7088D02*
X495D01*
Y7063D01*
X503Y7054D01*
X537D01*
X545Y7063D01*
Y7088D01*
X495Y7013D02*
Y7029D01*
X503Y7038D01*
X520D01*
X528Y7029D01*
Y7013D01*
X520Y7004D01*
X512D01*
Y7038D01*
X495Y6979D02*
X537D01*
X520D01*
Y6988D01*
Y6971D01*
Y6979D01*
X537D01*
X545Y6971D01*
X528Y6938D02*
Y6921D01*
X520Y6913D01*
X495D01*
Y6938D01*
X503Y6946D01*
X512Y6938D01*
Y6913D01*
X528Y6896D02*
X503D01*
X495Y6888D01*
Y6863D01*
X528D01*
X495Y6846D02*
Y6829D01*
Y6838D01*
X545D01*
Y6846D01*
X537Y6796D02*
X528D01*
Y6804D01*
Y6788D01*
Y6796D01*
X503D01*
X495Y6788D01*
Y6713D02*
X545D01*
Y6688D01*
X537Y6679D01*
X520D01*
X512Y6688D01*
Y6713D01*
X528Y6654D02*
Y6638D01*
X520Y6629D01*
X495D01*
Y6654D01*
X503Y6663D01*
X512Y6654D01*
Y6629D01*
X545Y6579D02*
X495D01*
Y6604D01*
X503Y6613D01*
X520D01*
X528Y6604D01*
Y6579D01*
X495Y6563D02*
Y6538D01*
X503Y6529D01*
X512Y6538D01*
Y6554D01*
X520Y6563D01*
X528Y6554D01*
Y6529D01*
X537Y6504D02*
X528D01*
Y6513D01*
Y6496D01*
Y6504D01*
X503D01*
X495Y6496D01*
X528Y6471D02*
X503D01*
X495Y6463D01*
Y6438D01*
X487D01*
X478Y6446D01*
Y6454D01*
X495Y6438D02*
X528D01*
X495Y6421D02*
Y6404D01*
Y6413D01*
X545D01*
Y6421D01*
X495Y6354D02*
Y6371D01*
X503Y6379D01*
X520D01*
X528Y6371D01*
Y6354D01*
X520Y6346D01*
X512D01*
Y6379D01*
X528Y6329D02*
Y6321D01*
X520D01*
Y6329D01*
X528D01*
X503D02*
Y6321D01*
X495D01*
Y6329D01*
X503D01*
X545Y6204D02*
Y6238D01*
X495D01*
Y6204D01*
X520Y6238D02*
Y6221D01*
X545Y6188D02*
X495Y6154D01*
X545D02*
X495Y6188D01*
Y6113D02*
X545D01*
X520Y6138D01*
Y6104D01*
X545Y6055D02*
Y6088D01*
X520D01*
X528Y6071D01*
Y6063D01*
X520Y6055D01*
X503D01*
X495Y6063D01*
Y6079D01*
X503Y6088D01*
X545Y6038D02*
X537D01*
X520Y6021D01*
X537Y6005D01*
X545D01*
X520Y6021D02*
X495D01*
Y5963D02*
X545D01*
X520Y5988D01*
Y5955D01*
X545Y5905D02*
Y5938D01*
X520D01*
X528Y5921D01*
Y5913D01*
X520Y5905D01*
X503D01*
X495Y5913D01*
Y5930D01*
X503Y5938D01*
X545Y5888D02*
X495D01*
Y5863D01*
X503Y5855D01*
X537D01*
X545Y5863D01*
Y5888D01*
X537Y5838D02*
X545Y5830D01*
Y5813D01*
X537Y5805D01*
X528D01*
X520Y5813D01*
Y5821D01*
Y5813D01*
X512Y5805D01*
X503D01*
X495Y5813D01*
Y5830D01*
X503Y5838D01*
X545Y5755D02*
Y5788D01*
X520D01*
X528Y5771D01*
Y5763D01*
X520Y5755D01*
X503D01*
X495Y5763D01*
Y5780D01*
X503Y5788D01*
X495Y5738D02*
X545D01*
Y5713D01*
X537Y5705D01*
X520D01*
X512Y5713D01*
Y5738D01*
X435Y7050D02*
X485D01*
Y7025D01*
X477Y7017D01*
X460D01*
X452Y7025D01*
Y7050D01*
X435Y7000D02*
Y6983D01*
Y6992D01*
X468D01*
Y7000D01*
X435Y6958D02*
X468D01*
Y6933D01*
X460Y6925D01*
X435D01*
Y6858D02*
Y6842D01*
Y6850D01*
X485D01*
X477Y6858D01*
X435Y6767D02*
X485D01*
Y6742D01*
X477Y6733D01*
X460D01*
X452Y6742D01*
Y6767D01*
X468Y6708D02*
Y6692D01*
X460Y6683D01*
X435D01*
Y6708D01*
X443Y6717D01*
X452Y6708D01*
Y6683D01*
X485Y6633D02*
X435D01*
Y6658D01*
X443Y6667D01*
X460D01*
X468Y6658D01*
Y6633D01*
X435Y6617D02*
Y6592D01*
X443Y6583D01*
X452Y6592D01*
Y6608D01*
X460Y6617D01*
X468Y6608D01*
Y6583D01*
X477Y6558D02*
X468D01*
Y6567D01*
Y6550D01*
Y6558D01*
X443D01*
X435Y6550D01*
X468Y6525D02*
X443D01*
X435Y6517D01*
Y6492D01*
X427D01*
X418Y6500D01*
Y6509D01*
X435Y6492D02*
X468D01*
X435Y6475D02*
Y6459D01*
Y6467D01*
X485D01*
Y6475D01*
X435Y6409D02*
Y6425D01*
X443Y6434D01*
X460D01*
X468Y6425D01*
Y6409D01*
X460Y6400D01*
X452D01*
Y6434D01*
X468Y6384D02*
Y6375D01*
X460D01*
Y6384D01*
X468D01*
X443D02*
Y6375D01*
X435D01*
Y6384D01*
X443D01*
X485Y6259D02*
Y6292D01*
X435D01*
Y6259D01*
X460Y6292D02*
Y6275D01*
X485Y6242D02*
X435Y6209D01*
X485D02*
X435Y6242D01*
Y6167D02*
X485D01*
X460Y6192D01*
Y6159D01*
X485Y6109D02*
Y6142D01*
X460D01*
X468Y6125D01*
Y6117D01*
X460Y6109D01*
X443D01*
X435Y6117D01*
Y6134D01*
X443Y6142D01*
X485Y6092D02*
X477D01*
X460Y6075D01*
X477Y6059D01*
X485D01*
X460Y6075D02*
X435D01*
Y6017D02*
X485D01*
X460Y6042D01*
Y6009D01*
X485Y5959D02*
Y5992D01*
X460D01*
X468Y5975D01*
Y5967D01*
X460Y5959D01*
X443D01*
X435Y5967D01*
Y5984D01*
X443Y5992D01*
X485Y5942D02*
X435D01*
Y5917D01*
X443Y5909D01*
X477D01*
X485Y5917D01*
Y5942D01*
X477Y5892D02*
X485Y5884D01*
Y5867D01*
X477Y5859D01*
X443D01*
X435Y5867D01*
Y5884D01*
X443Y5892D01*
X477D01*
X485Y5842D02*
Y5809D01*
Y5825D01*
X435D01*
X375Y7062D02*
X408D01*
X425Y7046D01*
X408Y7029D01*
X375D01*
X400D01*
Y7062D01*
X375Y7013D02*
Y6996D01*
Y7004D01*
X425D01*
Y7013D01*
X417Y6963D02*
X408D01*
Y6971D01*
Y6954D01*
Y6963D01*
X383D01*
X375Y6954D01*
Y6879D02*
Y6863D01*
Y6871D01*
X425D01*
X417Y6879D01*
X375Y6788D02*
X425D01*
Y6763D01*
X417Y6754D01*
X400D01*
X392Y6763D01*
Y6788D01*
X408Y6729D02*
Y6713D01*
X400Y6704D01*
X375D01*
Y6729D01*
X383Y6738D01*
X392Y6729D01*
Y6704D01*
X425Y6654D02*
X375D01*
Y6679D01*
X383Y6688D01*
X400D01*
X408Y6679D01*
Y6654D01*
X375Y6638D02*
Y6613D01*
X383Y6604D01*
X392Y6613D01*
Y6629D01*
X400Y6638D01*
X408Y6629D01*
Y6604D01*
X417Y6579D02*
X408D01*
Y6588D01*
Y6571D01*
Y6579D01*
X383D01*
X375Y6571D01*
X408Y6546D02*
X383D01*
X375Y6538D01*
Y6513D01*
X367D01*
X358Y6521D01*
Y6529D01*
X375Y6513D02*
X408D01*
X375Y6496D02*
Y6479D01*
Y6488D01*
X425D01*
Y6496D01*
X375Y6429D02*
Y6446D01*
X383Y6454D01*
X400D01*
X408Y6446D01*
Y6429D01*
X400Y6421D01*
X392D01*
Y6454D01*
X408Y6404D02*
Y6396D01*
X400D01*
Y6404D01*
X408D01*
X383D02*
Y6396D01*
X375D01*
Y6404D01*
X383D01*
X425Y6288D02*
Y6304D01*
X417Y6313D01*
X383D01*
X375Y6304D01*
Y6288D01*
X383Y6279D01*
X417D01*
X425Y6288D01*
Y6263D02*
X375Y6229D01*
X425D02*
X375Y6263D01*
X425Y6179D02*
X417Y6196D01*
X400Y6213D01*
X383D01*
X375Y6204D01*
Y6188D01*
X383Y6179D01*
X392D01*
X400Y6188D01*
Y6213D01*
X417Y6163D02*
X425Y6154D01*
Y6138D01*
X417Y6129D01*
X383D01*
X375Y6138D01*
Y6154D01*
X383Y6163D01*
X417D01*
X425Y6113D02*
X417D01*
X400Y6096D01*
X417Y6079D01*
X425D01*
X400Y6096D02*
X375D01*
X383Y6063D02*
X375Y6054D01*
Y6038D01*
X383Y6030D01*
X417D01*
X425Y6038D01*
Y6054D01*
X417Y6063D01*
X408D01*
X400Y6054D01*
Y6030D01*
X417Y6013D02*
X425Y6005D01*
Y5988D01*
X417Y5980D01*
X383D01*
X375Y5988D01*
Y6005D01*
X383Y6013D01*
X417D01*
X425Y5963D02*
X375D01*
Y5938D01*
X383Y5930D01*
X417D01*
X425Y5938D01*
Y5963D01*
X417Y5913D02*
X425Y5905D01*
Y5888D01*
X417Y5880D01*
X408D01*
X400Y5888D01*
Y5896D01*
Y5888D01*
X392Y5880D01*
X383D01*
X375Y5888D01*
Y5905D01*
X383Y5913D01*
X417Y5863D02*
X425Y5855D01*
Y5838D01*
X417Y5830D01*
X383D01*
X375Y5838D01*
Y5855D01*
X383Y5863D01*
X417D01*
X375Y5813D02*
X425D01*
Y5788D01*
X417Y5780D01*
X400D01*
X392Y5788D01*
Y5813D01*
X315Y7062D02*
X348D01*
X365Y7046D01*
X348Y7029D01*
X315D01*
X340D01*
Y7062D01*
X315Y7013D02*
Y6996D01*
Y7004D01*
X365D01*
Y7013D01*
X357Y6963D02*
X348D01*
Y6971D01*
Y6954D01*
Y6963D01*
X323D01*
X315Y6954D01*
Y6846D02*
Y6879D01*
X348Y6846D01*
X357D01*
X365Y6854D01*
Y6871D01*
X357Y6879D01*
X315Y6779D02*
X365D01*
Y6754D01*
X357Y6746D01*
X340D01*
X332Y6754D01*
Y6779D01*
X348Y6721D02*
Y6704D01*
X340Y6696D01*
X315D01*
Y6721D01*
X323Y6729D01*
X332Y6721D01*
Y6696D01*
X365Y6646D02*
X315D01*
Y6671D01*
X323Y6679D01*
X340D01*
X348Y6671D01*
Y6646D01*
X315Y6629D02*
Y6604D01*
X323Y6596D01*
X332Y6604D01*
Y6621D01*
X340Y6629D01*
X348Y6621D01*
Y6596D01*
X357Y6571D02*
X348D01*
Y6579D01*
Y6563D01*
Y6571D01*
X323D01*
X315Y6563D01*
X348Y6538D02*
X323D01*
X315Y6529D01*
Y6504D01*
X307D01*
X298Y6513D01*
Y6521D01*
X315Y6504D02*
X348D01*
X315Y6488D02*
Y6471D01*
Y6479D01*
X365D01*
Y6488D01*
X315Y6421D02*
Y6438D01*
X323Y6446D01*
X340D01*
X348Y6438D01*
Y6421D01*
X340Y6413D01*
X332D01*
Y6446D01*
X348Y6396D02*
Y6388D01*
X340D01*
Y6396D01*
X348D01*
X323D02*
Y6388D01*
X315D01*
Y6396D01*
X323D01*
X365Y6279D02*
Y6296D01*
X357Y6304D01*
X323D01*
X315Y6296D01*
Y6279D01*
X323Y6271D01*
X357D01*
X365Y6279D01*
Y6254D02*
X315Y6221D01*
X365D02*
X315Y6254D01*
X323Y6204D02*
X315Y6196D01*
Y6179D01*
X323Y6171D01*
X357D01*
X365Y6179D01*
Y6196D01*
X357Y6204D01*
X348D01*
X340Y6196D01*
Y6171D01*
X357Y6154D02*
X365Y6146D01*
Y6129D01*
X357Y6121D01*
X323D01*
X315Y6129D01*
Y6146D01*
X323Y6154D01*
X357D01*
X365Y6104D02*
X357D01*
X340Y6088D01*
X357Y6071D01*
X365D01*
X340Y6088D02*
X315D01*
X365Y6021D02*
X357Y6038D01*
X340Y6054D01*
X323D01*
X315Y6046D01*
Y6030D01*
X323Y6021D01*
X332D01*
X340Y6030D01*
Y6054D01*
X357Y6005D02*
X365Y5996D01*
Y5980D01*
X357Y5971D01*
X323D01*
X315Y5980D01*
Y5996D01*
X323Y6005D01*
X357D01*
X365Y5955D02*
X315D01*
Y5930D01*
X323Y5921D01*
X357D01*
X365Y5930D01*
Y5955D01*
X357Y5905D02*
X365Y5896D01*
Y5880D01*
X357Y5871D01*
X348D01*
X340Y5880D01*
Y5888D01*
Y5880D01*
X332Y5871D01*
X323D01*
X315Y5880D01*
Y5896D01*
X323Y5905D01*
X357Y5855D02*
X365Y5846D01*
Y5830D01*
X357Y5821D01*
X323D01*
X315Y5830D01*
Y5846D01*
X323Y5855D01*
X357D01*
X315Y5805D02*
X365D01*
Y5780D01*
X357Y5771D01*
X340D01*
X332Y5780D01*
Y5805D01*
X542Y7827D02*
X492D01*
Y7803D01*
X500Y7794D01*
X534D01*
X542Y7803D01*
Y7827D01*
X492Y7753D02*
Y7769D01*
X500Y7778D01*
X517D01*
X525Y7769D01*
Y7753D01*
X517Y7744D01*
X509D01*
Y7778D01*
X492Y7719D02*
X534D01*
X517D01*
Y7728D01*
Y7711D01*
Y7719D01*
X534D01*
X542Y7711D01*
X525Y7678D02*
Y7661D01*
X517Y7653D01*
X492D01*
Y7678D01*
X500Y7686D01*
X509Y7678D01*
Y7653D01*
X525Y7636D02*
X500D01*
X492Y7628D01*
Y7603D01*
X525D01*
X492Y7586D02*
Y7569D01*
Y7578D01*
X542D01*
Y7586D01*
X534Y7536D02*
X525D01*
Y7544D01*
Y7528D01*
Y7536D01*
X500D01*
X492Y7528D01*
Y7453D02*
X542D01*
Y7428D01*
X534Y7419D01*
X517D01*
X509Y7428D01*
Y7453D01*
X525Y7394D02*
Y7378D01*
X517Y7369D01*
X492D01*
Y7394D01*
X500Y7403D01*
X509Y7394D01*
Y7369D01*
X542Y7319D02*
X492D01*
Y7344D01*
X500Y7353D01*
X517D01*
X525Y7344D01*
Y7319D01*
X492Y7303D02*
Y7278D01*
X500Y7269D01*
X509Y7278D01*
Y7294D01*
X517Y7303D01*
X525Y7294D01*
Y7269D01*
X534Y7244D02*
X525D01*
Y7253D01*
Y7236D01*
Y7244D01*
X500D01*
X492Y7236D01*
X525Y7211D02*
X500D01*
X492Y7203D01*
Y7178D01*
X484D01*
X475Y7186D01*
Y7194D01*
X492Y7178D02*
X525D01*
X492Y7161D02*
Y7144D01*
Y7153D01*
X542D01*
Y7161D01*
X492Y7094D02*
Y7111D01*
X500Y7119D01*
X517D01*
X525Y7111D01*
Y7094D01*
X517Y7086D01*
X509D01*
Y7119D01*
X525Y7069D02*
Y7061D01*
X517D01*
Y7069D01*
X525D01*
X500D02*
Y7061D01*
X492D01*
Y7069D01*
X500D01*
X542Y6944D02*
Y6978D01*
X492D01*
Y6944D01*
X517Y6978D02*
Y6961D01*
X542Y6928D02*
X492Y6894D01*
X542D02*
X492Y6928D01*
Y6853D02*
X542D01*
X517Y6878D01*
Y6844D01*
X542Y6795D02*
Y6828D01*
X517D01*
X525Y6811D01*
Y6803D01*
X517Y6795D01*
X500D01*
X492Y6803D01*
Y6819D01*
X500Y6828D01*
X542Y6778D02*
X534D01*
X517Y6761D01*
X534Y6745D01*
X542D01*
X517Y6761D02*
X492D01*
Y6703D02*
X542D01*
X517Y6728D01*
Y6695D01*
X542Y6645D02*
Y6678D01*
X517D01*
X525Y6661D01*
Y6653D01*
X517Y6645D01*
X500D01*
X492Y6653D01*
Y6670D01*
X500Y6678D01*
X542Y6628D02*
X492D01*
Y6603D01*
X500Y6595D01*
X534D01*
X542Y6603D01*
Y6628D01*
X534Y6578D02*
X542Y6570D01*
Y6553D01*
X534Y6545D01*
X525D01*
X517Y6553D01*
Y6561D01*
Y6553D01*
X509Y6545D01*
X500D01*
X492Y6553D01*
Y6570D01*
X500Y6578D01*
X542Y6495D02*
Y6528D01*
X517D01*
X525Y6511D01*
Y6503D01*
X517Y6495D01*
X500D01*
X492Y6503D01*
Y6520D01*
X500Y6528D01*
X492Y6478D02*
X542D01*
Y6453D01*
X534Y6445D01*
X517D01*
X509Y6453D01*
Y6478D01*
X432Y7790D02*
X482D01*
Y7765D01*
X474Y7757D01*
X457D01*
X449Y7765D01*
Y7790D01*
X432Y7740D02*
Y7723D01*
Y7732D01*
X465D01*
Y7740D01*
X432Y7698D02*
X465D01*
Y7673D01*
X457Y7665D01*
X432D01*
Y7598D02*
Y7582D01*
Y7590D01*
X482D01*
X474Y7598D01*
X432Y7507D02*
X482D01*
Y7482D01*
X474Y7473D01*
X457D01*
X449Y7482D01*
Y7507D01*
X465Y7448D02*
Y7432D01*
X457Y7423D01*
X432D01*
Y7448D01*
X440Y7457D01*
X449Y7448D01*
Y7423D01*
X482Y7373D02*
X432D01*
Y7398D01*
X440Y7407D01*
X457D01*
X465Y7398D01*
Y7373D01*
X432Y7357D02*
Y7332D01*
X440Y7323D01*
X449Y7332D01*
Y7348D01*
X457Y7357D01*
X465Y7348D01*
Y7323D01*
X474Y7298D02*
X465D01*
Y7307D01*
Y7290D01*
Y7298D01*
X440D01*
X432Y7290D01*
X465Y7265D02*
X440D01*
X432Y7257D01*
Y7232D01*
X424D01*
X415Y7240D01*
Y7249D01*
X432Y7232D02*
X465D01*
X432Y7215D02*
Y7199D01*
Y7207D01*
X482D01*
Y7215D01*
X432Y7149D02*
Y7165D01*
X440Y7174D01*
X457D01*
X465Y7165D01*
Y7149D01*
X457Y7140D01*
X449D01*
Y7174D01*
X465Y7124D02*
Y7115D01*
X457D01*
Y7124D01*
X465D01*
X440D02*
Y7115D01*
X432D01*
Y7124D01*
X440D01*
X482Y6999D02*
Y7032D01*
X432D01*
Y6999D01*
X457Y7032D02*
Y7015D01*
X482Y6982D02*
X432Y6949D01*
X482D02*
X432Y6982D01*
Y6907D02*
X482D01*
X457Y6932D01*
Y6899D01*
X482Y6849D02*
Y6882D01*
X457D01*
X465Y6865D01*
Y6857D01*
X457Y6849D01*
X440D01*
X432Y6857D01*
Y6874D01*
X440Y6882D01*
X482Y6832D02*
X474D01*
X457Y6815D01*
X474Y6799D01*
X482D01*
X457Y6815D02*
X432D01*
Y6757D02*
X482D01*
X457Y6782D01*
Y6749D01*
X482Y6699D02*
Y6732D01*
X457D01*
X465Y6715D01*
Y6707D01*
X457Y6699D01*
X440D01*
X432Y6707D01*
Y6724D01*
X440Y6732D01*
X482Y6682D02*
X432D01*
Y6657D01*
X440Y6649D01*
X474D01*
X482Y6657D01*
Y6682D01*
X474Y6632D02*
X482Y6624D01*
Y6607D01*
X474Y6599D01*
X440D01*
X432Y6607D01*
Y6624D01*
X440Y6632D01*
X474D01*
X482Y6582D02*
Y6549D01*
Y6565D01*
X432D01*
X372Y7802D02*
X405D01*
X422Y7786D01*
X405Y7769D01*
X372D01*
X397D01*
Y7802D01*
X372Y7753D02*
Y7736D01*
Y7744D01*
X422D01*
Y7753D01*
X414Y7703D02*
X405D01*
Y7711D01*
Y7694D01*
Y7703D01*
X380D01*
X372Y7694D01*
Y7619D02*
Y7603D01*
Y7611D01*
X422D01*
X414Y7619D01*
X372Y7528D02*
X422D01*
Y7503D01*
X414Y7494D01*
X397D01*
X389Y7503D01*
Y7528D01*
X405Y7469D02*
Y7453D01*
X397Y7444D01*
X372D01*
Y7469D01*
X380Y7478D01*
X389Y7469D01*
Y7444D01*
X422Y7394D02*
X372D01*
Y7419D01*
X380Y7428D01*
X397D01*
X405Y7419D01*
Y7394D01*
X372Y7378D02*
Y7353D01*
X380Y7344D01*
X389Y7353D01*
Y7369D01*
X397Y7378D01*
X405Y7369D01*
Y7344D01*
X414Y7319D02*
X405D01*
Y7328D01*
Y7311D01*
Y7319D01*
X380D01*
X372Y7311D01*
X405Y7286D02*
X380D01*
X372Y7278D01*
Y7253D01*
X364D01*
X355Y7261D01*
Y7269D01*
X372Y7253D02*
X405D01*
X372Y7236D02*
Y7219D01*
Y7228D01*
X422D01*
Y7236D01*
X372Y7169D02*
Y7186D01*
X380Y7194D01*
X397D01*
X405Y7186D01*
Y7169D01*
X397Y7161D01*
X389D01*
Y7194D01*
X405Y7144D02*
Y7136D01*
X397D01*
Y7144D01*
X405D01*
X380D02*
Y7136D01*
X372D01*
Y7144D01*
X380D01*
X422Y7028D02*
Y7044D01*
X414Y7053D01*
X380D01*
X372Y7044D01*
Y7028D01*
X380Y7019D01*
X414D01*
X422Y7028D01*
Y7003D02*
X372Y6969D01*
X422D02*
X372Y7003D01*
X422Y6919D02*
X414Y6936D01*
X397Y6953D01*
X380D01*
X372Y6944D01*
Y6928D01*
X380Y6919D01*
X389D01*
X397Y6928D01*
Y6953D01*
X414Y6903D02*
X422Y6894D01*
Y6878D01*
X414Y6869D01*
X380D01*
X372Y6878D01*
Y6894D01*
X380Y6903D01*
X414D01*
X422Y6853D02*
X414D01*
X397Y6836D01*
X414Y6819D01*
X422D01*
X397Y6836D02*
X372D01*
X380Y6803D02*
X372Y6794D01*
Y6778D01*
X380Y6770D01*
X414D01*
X422Y6778D01*
Y6794D01*
X414Y6803D01*
X405D01*
X397Y6794D01*
Y6770D01*
X414Y6753D02*
X422Y6745D01*
Y6728D01*
X414Y6720D01*
X380D01*
X372Y6728D01*
Y6745D01*
X380Y6753D01*
X414D01*
X422Y6703D02*
X372D01*
Y6678D01*
X380Y6670D01*
X414D01*
X422Y6678D01*
Y6703D01*
X414Y6653D02*
X422Y6645D01*
Y6628D01*
X414Y6620D01*
X405D01*
X397Y6628D01*
Y6636D01*
Y6628D01*
X389Y6620D01*
X380D01*
X372Y6628D01*
Y6645D01*
X380Y6653D01*
X414Y6603D02*
X422Y6595D01*
Y6578D01*
X414Y6570D01*
X380D01*
X372Y6578D01*
Y6595D01*
X380Y6603D01*
X414D01*
X372Y6553D02*
X422D01*
Y6528D01*
X414Y6520D01*
X397D01*
X389Y6528D01*
Y6553D01*
X5487Y8248D02*
Y8297D01*
X5462D01*
X5454Y8289D01*
Y8256D01*
X5462Y8248D01*
X5487D01*
X5412Y8297D02*
X5429D01*
X5437Y8289D01*
Y8273D01*
X5429Y8264D01*
X5412D01*
X5404Y8273D01*
Y8281D01*
X5437D01*
X5379Y8297D02*
Y8256D01*
Y8273D01*
X5387D01*
X5370D01*
X5379D01*
Y8256D01*
X5370Y8248D01*
X5337Y8264D02*
X5320D01*
X5312Y8273D01*
Y8297D01*
X5337D01*
X5345Y8289D01*
X5337Y8281D01*
X5312D01*
X5295Y8264D02*
Y8289D01*
X5287Y8297D01*
X5262D01*
Y8264D01*
X5245Y8297D02*
X5229D01*
X5237D01*
Y8248D01*
X5245D01*
X5195Y8256D02*
Y8264D01*
X5204D01*
X5187D01*
X5195D01*
Y8289D01*
X5187Y8297D01*
X5112D02*
Y8248D01*
X5087D01*
X5079Y8256D01*
Y8273D01*
X5087Y8281D01*
X5112D01*
X5054Y8264D02*
X5037D01*
X5029Y8273D01*
Y8297D01*
X5054D01*
X5062Y8289D01*
X5054Y8281D01*
X5029D01*
X4979Y8248D02*
Y8297D01*
X5004D01*
X5012Y8289D01*
Y8273D01*
X5004Y8264D01*
X4979D01*
X4962Y8297D02*
X4937D01*
X4929Y8289D01*
X4937Y8281D01*
X4954D01*
X4962Y8273D01*
X4954Y8264D01*
X4929D01*
X4904Y8256D02*
Y8264D01*
X4912D01*
X4896D01*
X4904D01*
Y8289D01*
X4896Y8297D01*
X4871Y8264D02*
Y8289D01*
X4862Y8297D01*
X4837D01*
Y8306D01*
X4846Y8314D01*
X4854D01*
X4837Y8297D02*
Y8264D01*
X4821Y8297D02*
X4804D01*
X4812D01*
Y8248D01*
X4821D01*
X4754Y8297D02*
X4771D01*
X4779Y8289D01*
Y8273D01*
X4771Y8264D01*
X4754D01*
X4746Y8273D01*
Y8281D01*
X4779D01*
X4729Y8264D02*
X4721D01*
Y8273D01*
X4729D01*
Y8264D01*
Y8289D02*
X4721D01*
Y8297D01*
X4729D01*
Y8289D01*
X4637Y8297D02*
Y8248D01*
X4612D01*
X4604Y8256D01*
Y8273D01*
X4612Y8281D01*
X4637D01*
X4621D02*
X4604Y8297D01*
X4587Y8248D02*
X4554Y8297D01*
Y8248D02*
X4587Y8297D01*
X4537Y8256D02*
X4529Y8248D01*
X4512D01*
X4504Y8256D01*
Y8264D01*
X4512Y8273D01*
X4504Y8281D01*
Y8289D01*
X4512Y8297D01*
X4529D01*
X4537Y8289D01*
Y8281D01*
X4529Y8273D01*
X4537Y8264D01*
Y8256D01*
X4529Y8273D02*
X4512D01*
X4454Y8248D02*
X4471Y8256D01*
X4487Y8273D01*
Y8289D01*
X4479Y8297D01*
X4462D01*
X4454Y8289D01*
Y8281D01*
X4462Y8273D01*
X4487D01*
X4437Y8248D02*
Y8256D01*
X4421Y8273D01*
X4404Y8256D01*
Y8248D01*
X4421Y8273D02*
Y8297D01*
X4387Y8256D02*
X4379Y8248D01*
X4362D01*
X4354Y8256D01*
Y8264D01*
X4362Y8273D01*
X4354Y8281D01*
Y8289D01*
X4362Y8297D01*
X4379D01*
X4387Y8289D01*
Y8281D01*
X4379Y8273D01*
X4387Y8264D01*
Y8256D01*
X4379Y8273D02*
X4362D01*
X4304Y8248D02*
X4321Y8256D01*
X4337Y8273D01*
Y8289D01*
X4329Y8297D01*
X4312D01*
X4304Y8289D01*
Y8281D01*
X4312Y8273D01*
X4337D01*
X4287Y8248D02*
Y8297D01*
X4262D01*
X4254Y8289D01*
Y8256D01*
X4262Y8248D01*
X4287D01*
X4237Y8256D02*
X4229Y8248D01*
X4212D01*
X4204Y8256D01*
Y8289D01*
X4212Y8297D01*
X4229D01*
X4237Y8289D01*
Y8256D01*
X4187Y8248D02*
X4154D01*
X4171D01*
Y8297D01*
X5475Y8373D02*
Y8339D01*
X5458Y8323D01*
X5441Y8339D01*
Y8373D01*
Y8348D01*
X5475D01*
X5425Y8373D02*
X5408D01*
X5416D01*
Y8323D01*
X5425D01*
X5375Y8331D02*
Y8339D01*
X5383D01*
X5366D01*
X5375D01*
Y8364D01*
X5366Y8373D01*
X5291D02*
X5275D01*
X5283D01*
Y8323D01*
X5291Y8331D01*
X5200Y8373D02*
Y8323D01*
X5175D01*
X5166Y8331D01*
Y8348D01*
X5175Y8356D01*
X5200D01*
X5141Y8339D02*
X5125D01*
X5116Y8348D01*
Y8373D01*
X5141D01*
X5150Y8364D01*
X5141Y8356D01*
X5116D01*
X5066Y8323D02*
Y8373D01*
X5091D01*
X5100Y8364D01*
Y8348D01*
X5091Y8339D01*
X5066D01*
X5050Y8373D02*
X5025D01*
X5016Y8364D01*
X5025Y8356D01*
X5041D01*
X5050Y8348D01*
X5041Y8339D01*
X5016D01*
X4991Y8331D02*
Y8339D01*
X5000D01*
X4983D01*
X4991D01*
Y8364D01*
X4983Y8373D01*
X4958Y8339D02*
Y8364D01*
X4950Y8373D01*
X4925D01*
Y8381D01*
X4933Y8389D01*
X4941D01*
X4925Y8373D02*
Y8339D01*
X4908Y8373D02*
X4891D01*
X4900D01*
Y8323D01*
X4908D01*
X4841Y8373D02*
X4858D01*
X4866Y8364D01*
Y8348D01*
X4858Y8339D01*
X4841D01*
X4833Y8348D01*
Y8356D01*
X4866D01*
X4816Y8339D02*
X4808D01*
Y8348D01*
X4816D01*
Y8339D01*
Y8364D02*
X4808D01*
Y8373D01*
X4816D01*
Y8364D01*
X4700Y8323D02*
X4716D01*
X4725Y8331D01*
Y8364D01*
X4716Y8373D01*
X4700D01*
X4691Y8364D01*
Y8331D01*
X4700Y8323D01*
X4675D02*
X4641Y8373D01*
Y8323D02*
X4675Y8373D01*
X4591Y8323D02*
X4608Y8331D01*
X4625Y8348D01*
Y8364D01*
X4616Y8373D01*
X4600D01*
X4591Y8364D01*
Y8356D01*
X4600Y8348D01*
X4625D01*
X4575Y8331D02*
X4566Y8323D01*
X4550D01*
X4541Y8331D01*
Y8364D01*
X4550Y8373D01*
X4566D01*
X4575Y8364D01*
Y8331D01*
X4525Y8323D02*
Y8331D01*
X4508Y8348D01*
X4491Y8331D01*
Y8323D01*
X4508Y8348D02*
Y8373D01*
X4475Y8364D02*
X4466Y8373D01*
X4450D01*
X4442Y8364D01*
Y8331D01*
X4450Y8323D01*
X4466D01*
X4475Y8331D01*
Y8339D01*
X4466Y8348D01*
X4442D01*
X4425Y8331D02*
X4417Y8323D01*
X4400D01*
X4392Y8331D01*
Y8364D01*
X4400Y8373D01*
X4417D01*
X4425Y8364D01*
Y8331D01*
X4375Y8323D02*
Y8373D01*
X4350D01*
X4342Y8364D01*
Y8331D01*
X4350Y8323D01*
X4375D01*
X4325Y8331D02*
X4317Y8323D01*
X4300D01*
X4292Y8331D01*
Y8339D01*
X4300Y8348D01*
X4308D01*
X4300D01*
X4292Y8356D01*
Y8364D01*
X4300Y8373D01*
X4317D01*
X4325Y8364D01*
X4275Y8331D02*
X4267Y8323D01*
X4250D01*
X4242Y8331D01*
Y8364D01*
X4250Y8373D01*
X4267D01*
X4275Y8364D01*
Y8331D01*
X4225Y8373D02*
Y8323D01*
X4200D01*
X4192Y8331D01*
Y8348D01*
X4200Y8356D01*
X4225D01*
X757Y4225D02*
X707D01*
Y4200D01*
X716Y4192D01*
X749D01*
X757Y4200D01*
Y4225D01*
X707Y4150D02*
Y4167D01*
X716Y4175D01*
X732D01*
X741Y4167D01*
Y4150D01*
X732Y4142D01*
X724D01*
Y4175D01*
X707Y4117D02*
X749D01*
X732D01*
Y4125D01*
Y4108D01*
Y4117D01*
X749D01*
X757Y4108D01*
X741Y4075D02*
Y4058D01*
X732Y4050D01*
X707D01*
Y4075D01*
X716Y4083D01*
X724Y4075D01*
Y4050D01*
X741Y4033D02*
X716D01*
X707Y4025D01*
Y4000D01*
X741D01*
X707Y3983D02*
Y3967D01*
Y3975D01*
X757D01*
Y3983D01*
X749Y3933D02*
X741D01*
Y3942D01*
Y3925D01*
Y3933D01*
X716D01*
X707Y3925D01*
Y3850D02*
X757D01*
Y3825D01*
X749Y3817D01*
X732D01*
X724Y3825D01*
Y3850D01*
X741Y3792D02*
Y3775D01*
X732Y3767D01*
X707D01*
Y3792D01*
X716Y3800D01*
X724Y3792D01*
Y3767D01*
X757Y3717D02*
X707D01*
Y3742D01*
X716Y3750D01*
X732D01*
X741Y3742D01*
Y3717D01*
X707Y3700D02*
Y3675D01*
X716Y3667D01*
X724Y3675D01*
Y3692D01*
X732Y3700D01*
X741Y3692D01*
Y3667D01*
X749Y3642D02*
X741D01*
Y3650D01*
Y3634D01*
Y3642D01*
X716D01*
X707Y3634D01*
X741Y3609D02*
X716D01*
X707Y3600D01*
Y3575D01*
X699D01*
X691Y3584D01*
Y3592D01*
X707Y3575D02*
X741D01*
X707Y3559D02*
Y3542D01*
Y3550D01*
X757D01*
Y3559D01*
X707Y3492D02*
Y3509D01*
X716Y3517D01*
X732D01*
X741Y3509D01*
Y3492D01*
X732Y3484D01*
X724D01*
Y3517D01*
X741Y3467D02*
Y3459D01*
X732D01*
Y3467D01*
X741D01*
X716D02*
Y3459D01*
X707D01*
Y3467D01*
X716D01*
X707Y3375D02*
X757D01*
Y3350D01*
X749Y3342D01*
X732D01*
X724Y3350D01*
Y3375D01*
Y3359D02*
X707Y3342D01*
X757Y3325D02*
X707Y3292D01*
X757D02*
X707Y3325D01*
X749Y3275D02*
X757Y3267D01*
Y3250D01*
X749Y3242D01*
X741D01*
X732Y3250D01*
X724Y3242D01*
X716D01*
X707Y3250D01*
Y3267D01*
X716Y3275D01*
X724D01*
X732Y3267D01*
X741Y3275D01*
X749D01*
X732Y3267D02*
Y3250D01*
X757Y3192D02*
X749Y3209D01*
X732Y3225D01*
X716D01*
X707Y3217D01*
Y3200D01*
X716Y3192D01*
X724D01*
X732Y3200D01*
Y3225D01*
X757Y3175D02*
X749D01*
X732Y3159D01*
X749Y3142D01*
X757D01*
X732Y3159D02*
X707D01*
X749Y3125D02*
X757Y3117D01*
Y3100D01*
X749Y3092D01*
X741D01*
X732Y3100D01*
X724Y3092D01*
X716D01*
X707Y3100D01*
Y3117D01*
X716Y3125D01*
X724D01*
X732Y3117D01*
X741Y3125D01*
X749D01*
X732Y3117D02*
Y3100D01*
X757Y3042D02*
X749Y3059D01*
X732Y3075D01*
X716D01*
X707Y3067D01*
Y3050D01*
X716Y3042D01*
X724D01*
X732Y3050D01*
Y3075D01*
X757Y3025D02*
X707D01*
Y3000D01*
X716Y2992D01*
X749D01*
X757Y3000D01*
Y3025D01*
X749Y2975D02*
X757Y2967D01*
Y2950D01*
X749Y2942D01*
X716D01*
X707Y2950D01*
Y2967D01*
X716Y2975D01*
X749D01*
X757Y2925D02*
Y2892D01*
Y2909D01*
X707D01*
X558Y4213D02*
X591D01*
X607Y4196D01*
X591Y4179D01*
X558D01*
X582D01*
Y4213D01*
X558Y4163D02*
Y4146D01*
Y4154D01*
X607D01*
Y4163D01*
X599Y4113D02*
X591D01*
Y4121D01*
Y4104D01*
Y4113D01*
X566D01*
X558Y4104D01*
Y3996D02*
Y4029D01*
X591Y3996D01*
X599D01*
X607Y4004D01*
Y4021D01*
X599Y4029D01*
X558Y3929D02*
X607D01*
Y3904D01*
X599Y3896D01*
X582D01*
X574Y3904D01*
Y3929D01*
X591Y3871D02*
Y3854D01*
X582Y3846D01*
X558D01*
Y3871D01*
X566Y3879D01*
X574Y3871D01*
Y3846D01*
X607Y3796D02*
X558D01*
Y3821D01*
X566Y3829D01*
X582D01*
X591Y3821D01*
Y3796D01*
X558Y3779D02*
Y3754D01*
X566Y3746D01*
X574Y3754D01*
Y3771D01*
X582Y3779D01*
X591Y3771D01*
Y3746D01*
X599Y3721D02*
X591D01*
Y3729D01*
Y3713D01*
Y3721D01*
X566D01*
X558Y3713D01*
X591Y3688D02*
X566D01*
X558Y3679D01*
Y3654D01*
X549D01*
X541Y3663D01*
Y3671D01*
X558Y3654D02*
X591D01*
X558Y3638D02*
Y3621D01*
Y3629D01*
X607D01*
Y3638D01*
X558Y3571D02*
Y3588D01*
X566Y3596D01*
X582D01*
X591Y3588D01*
Y3571D01*
X582Y3563D01*
X574D01*
Y3596D01*
X591Y3546D02*
Y3538D01*
X582D01*
Y3546D01*
X591D01*
X566D02*
Y3538D01*
X558D01*
Y3546D01*
X566D01*
X607Y3429D02*
Y3446D01*
X599Y3454D01*
X566D01*
X558Y3446D01*
Y3429D01*
X566Y3421D01*
X599D01*
X607Y3429D01*
Y3404D02*
X558Y3371D01*
X607D02*
X558Y3404D01*
X566Y3354D02*
X558Y3346D01*
Y3329D01*
X566Y3321D01*
X599D01*
X607Y3329D01*
Y3346D01*
X599Y3354D01*
X591D01*
X582Y3346D01*
Y3321D01*
X599Y3304D02*
X607Y3296D01*
Y3279D01*
X599Y3271D01*
X566D01*
X558Y3279D01*
Y3296D01*
X566Y3304D01*
X599D01*
X607Y3254D02*
X599D01*
X582Y3238D01*
X599Y3221D01*
X607D01*
X582Y3238D02*
X558D01*
X607Y3171D02*
X599Y3188D01*
X582Y3204D01*
X566D01*
X558Y3196D01*
Y3180D01*
X566Y3171D01*
X574D01*
X582Y3180D01*
Y3204D01*
X599Y3155D02*
X607Y3146D01*
Y3130D01*
X599Y3121D01*
X566D01*
X558Y3130D01*
Y3146D01*
X566Y3155D01*
X599D01*
X607Y3105D02*
X558D01*
Y3080D01*
X566Y3071D01*
X599D01*
X607Y3080D01*
Y3105D01*
X599Y3055D02*
X607Y3046D01*
Y3030D01*
X599Y3021D01*
X591D01*
X582Y3030D01*
Y3038D01*
Y3030D01*
X574Y3021D01*
X566D01*
X558Y3030D01*
Y3046D01*
X566Y3055D01*
X599Y3005D02*
X607Y2996D01*
Y2980D01*
X599Y2971D01*
X566D01*
X558Y2980D01*
Y2996D01*
X566Y3005D01*
X599D01*
X558Y2955D02*
X607D01*
Y2930D01*
X599Y2921D01*
X582D01*
X574Y2930D01*
Y2955D01*
X775Y3569D02*
X725D01*
Y3544D01*
X733Y3536D01*
X766D01*
X775Y3544D01*
Y3569D01*
X725Y3494D02*
Y3511D01*
X733Y3519D01*
X750D01*
X758Y3511D01*
Y3494D01*
X750Y3486D01*
X741D01*
Y3519D01*
X725Y3461D02*
X766D01*
X750D01*
Y3469D01*
Y3452D01*
Y3461D01*
X766D01*
X775Y3452D01*
X758Y3419D02*
Y3402D01*
X750Y3394D01*
X725D01*
Y3419D01*
X733Y3427D01*
X741Y3419D01*
Y3394D01*
X758Y3377D02*
X733D01*
X725Y3369D01*
Y3344D01*
X758D01*
X725Y3327D02*
Y3311D01*
Y3319D01*
X775D01*
Y3327D01*
X766Y3277D02*
X758D01*
Y3286D01*
Y3269D01*
Y3277D01*
X733D01*
X725Y3269D01*
Y3194D02*
X775D01*
Y3169D01*
X766Y3161D01*
X750D01*
X741Y3169D01*
Y3194D01*
X758Y3136D02*
Y3119D01*
X750Y3111D01*
X725D01*
Y3136D01*
X733Y3144D01*
X741Y3136D01*
Y3111D01*
X775Y3061D02*
X725D01*
Y3086D01*
X733Y3094D01*
X750D01*
X758Y3086D01*
Y3061D01*
X725Y3044D02*
Y3019D01*
X733Y3011D01*
X741Y3019D01*
Y3036D01*
X750Y3044D01*
X758Y3036D01*
Y3011D01*
X766Y2986D02*
X758D01*
Y2994D01*
Y2978D01*
Y2986D01*
X733D01*
X725Y2978D01*
X758Y2953D02*
X733D01*
X725Y2944D01*
Y2919D01*
X716D01*
X708Y2928D01*
Y2936D01*
X725Y2919D02*
X758D01*
X725Y2903D02*
Y2886D01*
Y2894D01*
X775D01*
Y2903D01*
X725Y2836D02*
Y2853D01*
X733Y2861D01*
X750D01*
X758Y2853D01*
Y2836D01*
X750Y2828D01*
X741D01*
Y2861D01*
X758Y2811D02*
Y2803D01*
X750D01*
Y2811D01*
X758D01*
X733D02*
Y2803D01*
X725D01*
Y2811D01*
X733D01*
X725Y2719D02*
X775D01*
Y2694D01*
X766Y2686D01*
X750D01*
X741Y2694D01*
Y2719D01*
Y2703D02*
X725Y2686D01*
X775Y2669D02*
X725Y2636D01*
X775D02*
X725Y2669D01*
X766Y2619D02*
X775Y2611D01*
Y2594D01*
X766Y2586D01*
X758D01*
X750Y2594D01*
X741Y2586D01*
X733D01*
X725Y2594D01*
Y2611D01*
X733Y2619D01*
X741D01*
X750Y2611D01*
X758Y2619D01*
X766D01*
X750Y2611D02*
Y2594D01*
X775Y2536D02*
X766Y2553D01*
X750Y2569D01*
X733D01*
X725Y2561D01*
Y2544D01*
X733Y2536D01*
X741D01*
X750Y2544D01*
Y2569D01*
X775Y2519D02*
X766D01*
X750Y2503D01*
X766Y2486D01*
X775D01*
X750Y2503D02*
X725D01*
X766Y2469D02*
X775Y2461D01*
Y2444D01*
X766Y2436D01*
X758D01*
X750Y2444D01*
X741Y2436D01*
X733D01*
X725Y2444D01*
Y2461D01*
X733Y2469D01*
X741D01*
X750Y2461D01*
X758Y2469D01*
X766D01*
X750Y2461D02*
Y2444D01*
X775Y2386D02*
X766Y2403D01*
X750Y2419D01*
X733D01*
X725Y2411D01*
Y2394D01*
X733Y2386D01*
X741D01*
X750Y2394D01*
Y2419D01*
X775Y2369D02*
X725D01*
Y2344D01*
X733Y2336D01*
X766D01*
X775Y2344D01*
Y2369D01*
X766Y2319D02*
X775Y2311D01*
Y2294D01*
X766Y2286D01*
X733D01*
X725Y2294D01*
Y2311D01*
X733Y2319D01*
X766D01*
X775Y2269D02*
Y2236D01*
Y2253D01*
X725D01*
X575Y3556D02*
X608D01*
X625Y3540D01*
X608Y3523D01*
X575D01*
X600D01*
Y3556D01*
X575Y3507D02*
Y3490D01*
Y3498D01*
X625D01*
Y3507D01*
X616Y3457D02*
X608D01*
Y3465D01*
Y3448D01*
Y3457D01*
X583D01*
X575Y3448D01*
Y3340D02*
Y3373D01*
X608Y3340D01*
X616D01*
X625Y3348D01*
Y3365D01*
X616Y3373D01*
X575Y3273D02*
X625D01*
Y3248D01*
X616Y3240D01*
X600D01*
X591Y3248D01*
Y3273D01*
X608Y3215D02*
Y3198D01*
X600Y3190D01*
X575D01*
Y3215D01*
X583Y3223D01*
X591Y3215D01*
Y3190D01*
X625Y3140D02*
X575D01*
Y3165D01*
X583Y3173D01*
X600D01*
X608Y3165D01*
Y3140D01*
X575Y3123D02*
Y3098D01*
X583Y3090D01*
X591Y3098D01*
Y3115D01*
X600Y3123D01*
X608Y3115D01*
Y3090D01*
X616Y3065D02*
X608D01*
Y3073D01*
Y3057D01*
Y3065D01*
X583D01*
X575Y3057D01*
X608Y3032D02*
X583D01*
X575Y3023D01*
Y2998D01*
X566D01*
X558Y3007D01*
Y3015D01*
X575Y2998D02*
X608D01*
X575Y2982D02*
Y2965D01*
Y2973D01*
X625D01*
Y2982D01*
X575Y2915D02*
Y2932D01*
X583Y2940D01*
X600D01*
X608Y2932D01*
Y2915D01*
X600Y2907D01*
X591D01*
Y2940D01*
X608Y2890D02*
Y2882D01*
X600D01*
Y2890D01*
X608D01*
X583D02*
Y2882D01*
X575D01*
Y2890D01*
X583D01*
X625Y2773D02*
Y2790D01*
X616Y2798D01*
X583D01*
X575Y2790D01*
Y2773D01*
X583Y2765D01*
X616D01*
X625Y2773D01*
Y2748D02*
X575Y2715D01*
X625D02*
X575Y2748D01*
X583Y2698D02*
X575Y2690D01*
Y2673D01*
X583Y2665D01*
X616D01*
X625Y2673D01*
Y2690D01*
X616Y2698D01*
X608D01*
X600Y2690D01*
Y2665D01*
X616Y2648D02*
X625Y2640D01*
Y2623D01*
X616Y2615D01*
X583D01*
X575Y2623D01*
Y2640D01*
X583Y2648D01*
X616D01*
X625Y2598D02*
X616D01*
X600Y2582D01*
X616Y2565D01*
X625D01*
X600Y2582D02*
X575D01*
X625Y2515D02*
X616Y2532D01*
X600Y2548D01*
X583D01*
X575Y2540D01*
Y2523D01*
X583Y2515D01*
X591D01*
X600Y2523D01*
Y2548D01*
X616Y2498D02*
X625Y2490D01*
Y2474D01*
X616Y2465D01*
X583D01*
X575Y2474D01*
Y2490D01*
X583Y2498D01*
X616D01*
X625Y2449D02*
X575D01*
Y2424D01*
X583Y2415D01*
X616D01*
X625Y2424D01*
Y2449D01*
X616Y2399D02*
X625Y2390D01*
Y2374D01*
X616Y2365D01*
X608D01*
X600Y2374D01*
Y2382D01*
Y2374D01*
X591Y2365D01*
X583D01*
X575Y2374D01*
Y2390D01*
X583Y2399D01*
X616Y2349D02*
X625Y2340D01*
Y2324D01*
X616Y2315D01*
X583D01*
X575Y2324D01*
Y2340D01*
X583Y2349D01*
X616D01*
X575Y2299D02*
X625D01*
Y2274D01*
X616Y2265D01*
X600D01*
X591Y2274D01*
Y2299D01*
X752Y2976D02*
X702D01*
Y2951D01*
X711Y2943D01*
X744D01*
X752Y2951D01*
Y2976D01*
X702Y2901D02*
Y2918D01*
X711Y2926D01*
X727D01*
X736Y2918D01*
Y2901D01*
X727Y2893D01*
X719D01*
Y2926D01*
X702Y2868D02*
X744D01*
X727D01*
Y2876D01*
Y2859D01*
Y2868D01*
X744D01*
X752Y2859D01*
X736Y2826D02*
Y2809D01*
X727Y2801D01*
X702D01*
Y2826D01*
X711Y2834D01*
X719Y2826D01*
Y2801D01*
X736Y2784D02*
X711D01*
X702Y2776D01*
Y2751D01*
X736D01*
X702Y2734D02*
Y2718D01*
Y2726D01*
X752D01*
Y2734D01*
X744Y2684D02*
X736D01*
Y2693D01*
Y2676D01*
Y2684D01*
X711D01*
X702Y2676D01*
Y2601D02*
X752D01*
Y2576D01*
X744Y2568D01*
X727D01*
X719Y2576D01*
Y2601D01*
X736Y2543D02*
Y2526D01*
X727Y2518D01*
X702D01*
Y2543D01*
X711Y2551D01*
X719Y2543D01*
Y2518D01*
X752Y2468D02*
X702D01*
Y2493D01*
X711Y2501D01*
X727D01*
X736Y2493D01*
Y2468D01*
X702Y2451D02*
Y2426D01*
X711Y2418D01*
X719Y2426D01*
Y2443D01*
X727Y2451D01*
X736Y2443D01*
Y2418D01*
X744Y2393D02*
X736D01*
Y2401D01*
Y2385D01*
Y2393D01*
X711D01*
X702Y2385D01*
X736Y2360D02*
X711D01*
X702Y2351D01*
Y2326D01*
X694D01*
X686Y2335D01*
Y2343D01*
X702Y2326D02*
X736D01*
X702Y2310D02*
Y2293D01*
Y2301D01*
X752D01*
Y2310D01*
X702Y2243D02*
Y2260D01*
X711Y2268D01*
X727D01*
X736Y2260D01*
Y2243D01*
X727Y2235D01*
X719D01*
Y2268D01*
X736Y2218D02*
Y2210D01*
X727D01*
Y2218D01*
X736D01*
X711D02*
Y2210D01*
X702D01*
Y2218D01*
X711D01*
X702Y2126D02*
X752D01*
Y2101D01*
X744Y2093D01*
X727D01*
X719Y2101D01*
Y2126D01*
Y2110D02*
X702Y2093D01*
X752Y2076D02*
X702Y2043D01*
X752D02*
X702Y2076D01*
X744Y2026D02*
X752Y2018D01*
Y2001D01*
X744Y1993D01*
X736D01*
X727Y2001D01*
X719Y1993D01*
X711D01*
X702Y2001D01*
Y2018D01*
X711Y2026D01*
X719D01*
X727Y2018D01*
X736Y2026D01*
X744D01*
X727Y2018D02*
Y2001D01*
X752Y1943D02*
X744Y1960D01*
X727Y1976D01*
X711D01*
X702Y1968D01*
Y1951D01*
X711Y1943D01*
X719D01*
X727Y1951D01*
Y1976D01*
X752Y1926D02*
X744D01*
X727Y1910D01*
X744Y1893D01*
X752D01*
X727Y1910D02*
X702D01*
X744Y1876D02*
X752Y1868D01*
Y1851D01*
X744Y1843D01*
X736D01*
X727Y1851D01*
X719Y1843D01*
X711D01*
X702Y1851D01*
Y1868D01*
X711Y1876D01*
X719D01*
X727Y1868D01*
X736Y1876D01*
X744D01*
X727Y1868D02*
Y1851D01*
X752Y1793D02*
X744Y1810D01*
X727Y1826D01*
X711D01*
X702Y1818D01*
Y1801D01*
X711Y1793D01*
X719D01*
X727Y1801D01*
Y1826D01*
X752Y1776D02*
X702D01*
Y1751D01*
X711Y1743D01*
X744D01*
X752Y1751D01*
Y1776D01*
X744Y1726D02*
X752Y1718D01*
Y1701D01*
X744Y1693D01*
X711D01*
X702Y1701D01*
Y1718D01*
X711Y1726D01*
X744D01*
X752Y1676D02*
Y1643D01*
Y1660D01*
X702D01*
X627Y2963D02*
X661D01*
X677Y2947D01*
X661Y2930D01*
X627D01*
X652D01*
Y2963D01*
X627Y2913D02*
Y2897D01*
Y2905D01*
X677D01*
Y2913D01*
X669Y2864D02*
X661D01*
Y2872D01*
Y2855D01*
Y2864D01*
X636D01*
X627Y2855D01*
Y2780D02*
Y2764D01*
Y2772D01*
X677D01*
X669Y2780D01*
X627Y2689D02*
X677D01*
Y2664D01*
X669Y2655D01*
X652D01*
X644Y2664D01*
Y2689D01*
X661Y2630D02*
Y2614D01*
X652Y2605D01*
X627D01*
Y2630D01*
X636Y2639D01*
X644Y2630D01*
Y2605D01*
X677Y2555D02*
X627D01*
Y2580D01*
X636Y2589D01*
X652D01*
X661Y2580D01*
Y2555D01*
X627Y2539D02*
Y2514D01*
X636Y2505D01*
X644Y2514D01*
Y2530D01*
X652Y2539D01*
X661Y2530D01*
Y2505D01*
X669Y2480D02*
X661D01*
Y2489D01*
Y2472D01*
Y2480D01*
X636D01*
X627Y2472D01*
X661Y2447D02*
X636D01*
X627Y2439D01*
Y2414D01*
X619D01*
X611Y2422D01*
Y2430D01*
X627Y2414D02*
X661D01*
X627Y2397D02*
Y2380D01*
Y2389D01*
X677D01*
Y2397D01*
X627Y2330D02*
Y2347D01*
X636Y2355D01*
X652D01*
X661Y2347D01*
Y2330D01*
X652Y2322D01*
X644D01*
Y2355D01*
X661Y2305D02*
Y2297D01*
X652D01*
Y2305D01*
X661D01*
X636D02*
Y2297D01*
X627D01*
Y2305D01*
X636D01*
X677Y2189D02*
Y2205D01*
X669Y2214D01*
X636D01*
X627Y2205D01*
Y2189D01*
X636Y2180D01*
X669D01*
X677Y2189D01*
Y2164D02*
X627Y2130D01*
X677D02*
X627Y2164D01*
X677Y2080D02*
X669Y2097D01*
X652Y2114D01*
X636D01*
X627Y2105D01*
Y2089D01*
X636Y2080D01*
X644D01*
X652Y2089D01*
Y2114D01*
X669Y2064D02*
X677Y2055D01*
Y2039D01*
X669Y2030D01*
X636D01*
X627Y2039D01*
Y2055D01*
X636Y2064D01*
X669D01*
X677Y2014D02*
X669D01*
X652Y1997D01*
X669Y1980D01*
X677D01*
X652Y1997D02*
X627D01*
X636Y1964D02*
X627Y1955D01*
Y1939D01*
X636Y1930D01*
X669D01*
X677Y1939D01*
Y1955D01*
X669Y1964D01*
X661D01*
X652Y1955D01*
Y1930D01*
X669Y1914D02*
X677Y1905D01*
Y1889D01*
X669Y1880D01*
X636D01*
X627Y1889D01*
Y1905D01*
X636Y1914D01*
X669D01*
X677Y1864D02*
X627D01*
Y1839D01*
X636Y1831D01*
X669D01*
X677Y1839D01*
Y1864D01*
X669Y1814D02*
X677Y1806D01*
Y1789D01*
X669Y1781D01*
X661D01*
X652Y1789D01*
Y1797D01*
Y1789D01*
X644Y1781D01*
X636D01*
X627Y1789D01*
Y1806D01*
X636Y1814D01*
X669Y1764D02*
X677Y1756D01*
Y1739D01*
X669Y1731D01*
X636D01*
X627Y1739D01*
Y1756D01*
X636Y1764D01*
X669D01*
X627Y1714D02*
X677D01*
Y1689D01*
X669Y1681D01*
X652D01*
X644Y1689D01*
Y1714D01*
X553Y2963D02*
X586D01*
X602Y2947D01*
X586Y2930D01*
X553D01*
X577D01*
Y2963D01*
X553Y2913D02*
Y2897D01*
Y2905D01*
X602D01*
Y2913D01*
X594Y2864D02*
X586D01*
Y2872D01*
Y2855D01*
Y2864D01*
X561D01*
X553Y2855D01*
Y2747D02*
Y2780D01*
X586Y2747D01*
X594D01*
X602Y2755D01*
Y2772D01*
X594Y2780D01*
X553Y2680D02*
X602D01*
Y2655D01*
X594Y2647D01*
X577D01*
X569Y2655D01*
Y2680D01*
X586Y2622D02*
Y2605D01*
X577Y2597D01*
X553D01*
Y2622D01*
X561Y2630D01*
X569Y2622D01*
Y2597D01*
X602Y2547D02*
X553D01*
Y2572D01*
X561Y2580D01*
X577D01*
X586Y2572D01*
Y2547D01*
X553Y2530D02*
Y2505D01*
X561Y2497D01*
X569Y2505D01*
Y2522D01*
X577Y2530D01*
X586Y2522D01*
Y2497D01*
X594Y2472D02*
X586D01*
Y2480D01*
Y2464D01*
Y2472D01*
X561D01*
X553Y2464D01*
X586Y2439D02*
X561D01*
X553Y2430D01*
Y2405D01*
X544D01*
X536Y2414D01*
Y2422D01*
X553Y2405D02*
X586D01*
X553Y2389D02*
Y2372D01*
Y2380D01*
X602D01*
Y2389D01*
X553Y2322D02*
Y2339D01*
X561Y2347D01*
X577D01*
X586Y2339D01*
Y2322D01*
X577Y2314D01*
X569D01*
Y2347D01*
X586Y2297D02*
Y2289D01*
X577D01*
Y2297D01*
X586D01*
X561D02*
Y2289D01*
X553D01*
Y2297D01*
X561D01*
X602Y2180D02*
Y2197D01*
X594Y2205D01*
X561D01*
X553Y2197D01*
Y2180D01*
X561Y2172D01*
X594D01*
X602Y2180D01*
Y2155D02*
X553Y2122D01*
X602D02*
X553Y2155D01*
X561Y2105D02*
X553Y2097D01*
Y2080D01*
X561Y2072D01*
X594D01*
X602Y2080D01*
Y2097D01*
X594Y2105D01*
X586D01*
X577Y2097D01*
Y2072D01*
X594Y2055D02*
X602Y2047D01*
Y2030D01*
X594Y2022D01*
X561D01*
X553Y2030D01*
Y2047D01*
X561Y2055D01*
X594D01*
X602Y2005D02*
X594D01*
X577Y1989D01*
X594Y1972D01*
X602D01*
X577Y1989D02*
X553D01*
X602Y1922D02*
X594Y1939D01*
X577Y1955D01*
X561D01*
X553Y1947D01*
Y1930D01*
X561Y1922D01*
X569D01*
X577Y1930D01*
Y1955D01*
X594Y1905D02*
X602Y1897D01*
Y1880D01*
X594Y1872D01*
X561D01*
X553Y1880D01*
Y1897D01*
X561Y1905D01*
X594D01*
X602Y1856D02*
X553D01*
Y1831D01*
X561Y1822D01*
X594D01*
X602Y1831D01*
Y1856D01*
X594Y1806D02*
X602Y1797D01*
Y1781D01*
X594Y1772D01*
X586D01*
X577Y1781D01*
Y1789D01*
Y1781D01*
X569Y1772D01*
X561D01*
X553Y1781D01*
Y1797D01*
X561Y1806D01*
X594Y1756D02*
X602Y1747D01*
Y1731D01*
X594Y1722D01*
X561D01*
X553Y1731D01*
Y1747D01*
X561Y1756D01*
X594D01*
X553Y1706D02*
X602D01*
Y1681D01*
X594Y1672D01*
X577D01*
X569Y1681D01*
Y1706D01*
X755Y5538D02*
X705D01*
Y5513D01*
X713Y5505D01*
X746D01*
X755Y5513D01*
Y5538D01*
X705Y5464D02*
Y5480D01*
X713Y5489D01*
X730D01*
X738Y5480D01*
Y5464D01*
X730Y5455D01*
X721D01*
Y5489D01*
X705Y5430D02*
X746D01*
X730D01*
Y5439D01*
Y5422D01*
Y5430D01*
X746D01*
X755Y5422D01*
X738Y5389D02*
Y5372D01*
X730Y5364D01*
X705D01*
Y5389D01*
X713Y5397D01*
X721Y5389D01*
Y5364D01*
X738Y5347D02*
X713D01*
X705Y5339D01*
Y5314D01*
X738D01*
X705Y5297D02*
Y5280D01*
Y5289D01*
X755D01*
Y5297D01*
X746Y5247D02*
X738D01*
Y5255D01*
Y5239D01*
Y5247D01*
X713D01*
X705Y5239D01*
Y5164D02*
X755D01*
Y5139D01*
X746Y5130D01*
X730D01*
X721Y5139D01*
Y5164D01*
X738Y5105D02*
Y5089D01*
X730Y5080D01*
X705D01*
Y5105D01*
X713Y5114D01*
X721Y5105D01*
Y5080D01*
X755Y5030D02*
X705D01*
Y5055D01*
X713Y5064D01*
X730D01*
X738Y5055D01*
Y5030D01*
X705Y5014D02*
Y4989D01*
X713Y4980D01*
X721Y4989D01*
Y5005D01*
X730Y5014D01*
X738Y5005D01*
Y4980D01*
X746Y4955D02*
X738D01*
Y4964D01*
Y4947D01*
Y4955D01*
X713D01*
X705Y4947D01*
X738Y4922D02*
X713D01*
X705Y4914D01*
Y4889D01*
X696D01*
X688Y4897D01*
Y4905D01*
X705Y4889D02*
X738D01*
X705Y4872D02*
Y4855D01*
Y4864D01*
X755D01*
Y4872D01*
X705Y4805D02*
Y4822D01*
X713Y4830D01*
X730D01*
X738Y4822D01*
Y4805D01*
X730Y4797D01*
X721D01*
Y4830D01*
X738Y4780D02*
Y4772D01*
X730D01*
Y4780D01*
X738D01*
X713D02*
Y4772D01*
X705D01*
Y4780D01*
X713D01*
X705Y4689D02*
X755D01*
Y4664D01*
X746Y4655D01*
X730D01*
X721Y4664D01*
Y4689D01*
Y4672D02*
X705Y4655D01*
X755Y4639D02*
X705Y4605D01*
X755D02*
X705Y4639D01*
X746Y4589D02*
X755Y4580D01*
Y4564D01*
X746Y4555D01*
X738D01*
X730Y4564D01*
X721Y4555D01*
X713D01*
X705Y4564D01*
Y4580D01*
X713Y4589D01*
X721D01*
X730Y4580D01*
X738Y4589D01*
X746D01*
X730Y4580D02*
Y4564D01*
X755Y4505D02*
X746Y4522D01*
X730Y4539D01*
X713D01*
X705Y4530D01*
Y4514D01*
X713Y4505D01*
X721D01*
X730Y4514D01*
Y4539D01*
X755Y4489D02*
X746D01*
X730Y4472D01*
X746Y4456D01*
X755D01*
X730Y4472D02*
X705D01*
X746Y4439D02*
X755Y4431D01*
Y4414D01*
X746Y4406D01*
X738D01*
X730Y4414D01*
X721Y4406D01*
X713D01*
X705Y4414D01*
Y4431D01*
X713Y4439D01*
X721D01*
X730Y4431D01*
X738Y4439D01*
X746D01*
X730Y4431D02*
Y4414D01*
X755Y4356D02*
X746Y4372D01*
X730Y4389D01*
X713D01*
X705Y4381D01*
Y4364D01*
X713Y4356D01*
X721D01*
X730Y4364D01*
Y4389D01*
X755Y4339D02*
X705D01*
Y4314D01*
X713Y4306D01*
X746D01*
X755Y4314D01*
Y4339D01*
X746Y4289D02*
X755Y4281D01*
Y4264D01*
X746Y4256D01*
X713D01*
X705Y4264D01*
Y4281D01*
X713Y4289D01*
X746D01*
X755Y4239D02*
Y4206D01*
Y4222D01*
X705D01*
X630Y5526D02*
X663D01*
X680Y5509D01*
X663Y5493D01*
X630D01*
X655D01*
Y5526D01*
X630Y5476D02*
Y5459D01*
Y5468D01*
X680D01*
Y5476D01*
X671Y5426D02*
X663D01*
Y5434D01*
Y5418D01*
Y5426D01*
X638D01*
X630Y5418D01*
Y5343D02*
Y5326D01*
Y5334D01*
X680D01*
X671Y5343D01*
X630Y5251D02*
X680D01*
Y5226D01*
X671Y5218D01*
X655D01*
X646Y5226D01*
Y5251D01*
X663Y5193D02*
Y5176D01*
X655Y5168D01*
X630D01*
Y5193D01*
X638Y5201D01*
X646Y5193D01*
Y5168D01*
X680Y5118D02*
X630D01*
Y5143D01*
X638Y5151D01*
X655D01*
X663Y5143D01*
Y5118D01*
X630Y5101D02*
Y5076D01*
X638Y5068D01*
X646Y5076D01*
Y5093D01*
X655Y5101D01*
X663Y5093D01*
Y5068D01*
X671Y5043D02*
X663D01*
Y5051D01*
Y5034D01*
Y5043D01*
X638D01*
X630Y5034D01*
X663Y5009D02*
X638D01*
X630Y5001D01*
Y4976D01*
X621D01*
X613Y4984D01*
Y4993D01*
X630Y4976D02*
X663D01*
X630Y4960D02*
Y4943D01*
Y4951D01*
X680D01*
Y4960D01*
X630Y4893D02*
Y4910D01*
X638Y4918D01*
X655D01*
X663Y4910D01*
Y4893D01*
X655Y4885D01*
X646D01*
Y4918D01*
X663Y4868D02*
Y4860D01*
X655D01*
Y4868D01*
X663D01*
X638D02*
Y4860D01*
X630D01*
Y4868D01*
X638D01*
X680Y4751D02*
Y4768D01*
X671Y4776D01*
X638D01*
X630Y4768D01*
Y4751D01*
X638Y4743D01*
X671D01*
X680Y4751D01*
Y4726D02*
X630Y4693D01*
X680D02*
X630Y4726D01*
X680Y4643D02*
X671Y4660D01*
X655Y4676D01*
X638D01*
X630Y4668D01*
Y4651D01*
X638Y4643D01*
X646D01*
X655Y4651D01*
Y4676D01*
X671Y4626D02*
X680Y4618D01*
Y4601D01*
X671Y4593D01*
X638D01*
X630Y4601D01*
Y4618D01*
X638Y4626D01*
X671D01*
X680Y4576D02*
X671D01*
X655Y4560D01*
X671Y4543D01*
X680D01*
X655Y4560D02*
X630D01*
X638Y4526D02*
X630Y4518D01*
Y4501D01*
X638Y4493D01*
X671D01*
X680Y4501D01*
Y4518D01*
X671Y4526D01*
X663D01*
X655Y4518D01*
Y4493D01*
X671Y4476D02*
X680Y4468D01*
Y4451D01*
X671Y4443D01*
X638D01*
X630Y4451D01*
Y4468D01*
X638Y4476D01*
X671D01*
X680Y4426D02*
X630D01*
Y4401D01*
X638Y4393D01*
X671D01*
X680Y4401D01*
Y4426D01*
X671Y4376D02*
X680Y4368D01*
Y4351D01*
X671Y4343D01*
X663D01*
X655Y4351D01*
Y4360D01*
Y4351D01*
X646Y4343D01*
X638D01*
X630Y4351D01*
Y4368D01*
X638Y4376D01*
X671Y4326D02*
X680Y4318D01*
Y4301D01*
X671Y4293D01*
X638D01*
X630Y4301D01*
Y4318D01*
X638Y4326D01*
X671D01*
X630Y4276D02*
X680D01*
Y4251D01*
X671Y4243D01*
X655D01*
X646Y4251D01*
Y4276D01*
X555Y5526D02*
X588D01*
X605Y5509D01*
X588Y5493D01*
X555D01*
X580D01*
Y5526D01*
X555Y5476D02*
Y5459D01*
Y5468D01*
X605D01*
Y5476D01*
X596Y5426D02*
X588D01*
Y5434D01*
Y5418D01*
Y5426D01*
X563D01*
X555Y5418D01*
Y5309D02*
Y5343D01*
X588Y5309D01*
X596D01*
X605Y5318D01*
Y5334D01*
X596Y5343D01*
X555Y5243D02*
X605D01*
Y5218D01*
X596Y5209D01*
X580D01*
X571Y5218D01*
Y5243D01*
X588Y5184D02*
Y5168D01*
X580Y5159D01*
X555D01*
Y5184D01*
X563Y5193D01*
X571Y5184D01*
Y5159D01*
X605Y5109D02*
X555D01*
Y5134D01*
X563Y5143D01*
X580D01*
X588Y5134D01*
Y5109D01*
X555Y5093D02*
Y5068D01*
X563Y5059D01*
X571Y5068D01*
Y5084D01*
X580Y5093D01*
X588Y5084D01*
Y5059D01*
X596Y5034D02*
X588D01*
Y5043D01*
Y5026D01*
Y5034D01*
X563D01*
X555Y5026D01*
X588Y5001D02*
X563D01*
X555Y4993D01*
Y4968D01*
X546D01*
X538Y4976D01*
Y4984D01*
X555Y4968D02*
X588D01*
X555Y4951D02*
Y4935D01*
Y4943D01*
X605D01*
Y4951D01*
X555Y4885D02*
Y4901D01*
X563Y4910D01*
X580D01*
X588Y4901D01*
Y4885D01*
X580Y4876D01*
X571D01*
Y4910D01*
X588Y4860D02*
Y4851D01*
X580D01*
Y4860D01*
X588D01*
X563D02*
Y4851D01*
X555D01*
Y4860D01*
X563D01*
X605Y4743D02*
Y4760D01*
X596Y4768D01*
X563D01*
X555Y4760D01*
Y4743D01*
X563Y4735D01*
X596D01*
X605Y4743D01*
Y4718D02*
X555Y4685D01*
X605D02*
X555Y4718D01*
X563Y4668D02*
X555Y4660D01*
Y4643D01*
X563Y4635D01*
X596D01*
X605Y4643D01*
Y4660D01*
X596Y4668D01*
X588D01*
X580Y4660D01*
Y4635D01*
X596Y4618D02*
X605Y4610D01*
Y4593D01*
X596Y4585D01*
X563D01*
X555Y4593D01*
Y4610D01*
X563Y4618D01*
X596D01*
X605Y4568D02*
X596D01*
X580Y4551D01*
X596Y4535D01*
X605D01*
X580Y4551D02*
X555D01*
X605Y4485D02*
X596Y4501D01*
X580Y4518D01*
X563D01*
X555Y4510D01*
Y4493D01*
X563Y4485D01*
X571D01*
X580Y4493D01*
Y4518D01*
X596Y4468D02*
X605Y4460D01*
Y4443D01*
X596Y4435D01*
X563D01*
X555Y4443D01*
Y4460D01*
X563Y4468D01*
X596D01*
X605Y4418D02*
X555D01*
Y4393D01*
X563Y4385D01*
X596D01*
X605Y4393D01*
Y4418D01*
X596Y4368D02*
X605Y4360D01*
Y4343D01*
X596Y4335D01*
X588D01*
X580Y4343D01*
Y4351D01*
Y4343D01*
X571Y4335D01*
X563D01*
X555Y4343D01*
Y4360D01*
X563Y4368D01*
X596Y4318D02*
X605Y4310D01*
Y4293D01*
X596Y4285D01*
X563D01*
X555Y4293D01*
Y4310D01*
X563Y4318D01*
X596D01*
X555Y4268D02*
X605D01*
Y4243D01*
X596Y4235D01*
X580D01*
X571Y4243D01*
Y4268D01*
X750Y4855D02*
X700D01*
Y4830D01*
X708Y4822D01*
X741D01*
X750Y4830D01*
Y4855D01*
X700Y4780D02*
Y4797D01*
X708Y4805D01*
X725D01*
X733Y4797D01*
Y4780D01*
X725Y4772D01*
X716D01*
Y4805D01*
X700Y4747D02*
X741D01*
X725D01*
Y4755D01*
Y4738D01*
Y4747D01*
X741D01*
X750Y4738D01*
X733Y4705D02*
Y4688D01*
X725Y4680D01*
X700D01*
Y4705D01*
X708Y4713D01*
X716Y4705D01*
Y4680D01*
X733Y4663D02*
X708D01*
X700Y4655D01*
Y4630D01*
X733D01*
X700Y4613D02*
Y4597D01*
Y4605D01*
X750D01*
Y4613D01*
X741Y4563D02*
X733D01*
Y4572D01*
Y4555D01*
Y4563D01*
X708D01*
X700Y4555D01*
Y4480D02*
X750D01*
Y4455D01*
X741Y4447D01*
X725D01*
X716Y4455D01*
Y4480D01*
X733Y4422D02*
Y4405D01*
X725Y4397D01*
X700D01*
Y4422D01*
X708Y4430D01*
X716Y4422D01*
Y4397D01*
X750Y4347D02*
X700D01*
Y4372D01*
X708Y4380D01*
X725D01*
X733Y4372D01*
Y4347D01*
X700Y4330D02*
Y4305D01*
X708Y4297D01*
X716Y4305D01*
Y4322D01*
X725Y4330D01*
X733Y4322D01*
Y4297D01*
X741Y4272D02*
X733D01*
Y4280D01*
Y4264D01*
Y4272D01*
X708D01*
X700Y4264D01*
X733Y4239D02*
X708D01*
X700Y4230D01*
Y4205D01*
X691D01*
X683Y4214D01*
Y4222D01*
X700Y4205D02*
X733D01*
X700Y4189D02*
Y4172D01*
Y4180D01*
X750D01*
Y4189D01*
X700Y4122D02*
Y4139D01*
X708Y4147D01*
X725D01*
X733Y4139D01*
Y4122D01*
X725Y4114D01*
X716D01*
Y4147D01*
X733Y4097D02*
Y4089D01*
X725D01*
Y4097D01*
X733D01*
X708D02*
Y4089D01*
X700D01*
Y4097D01*
X708D01*
X700Y4005D02*
X750D01*
Y3980D01*
X741Y3972D01*
X725D01*
X716Y3980D01*
Y4005D01*
Y3989D02*
X700Y3972D01*
X750Y3955D02*
X700Y3922D01*
X750D02*
X700Y3955D01*
X741Y3905D02*
X750Y3897D01*
Y3880D01*
X741Y3872D01*
X733D01*
X725Y3880D01*
X716Y3872D01*
X708D01*
X700Y3880D01*
Y3897D01*
X708Y3905D01*
X716D01*
X725Y3897D01*
X733Y3905D01*
X741D01*
X725Y3897D02*
Y3880D01*
X750Y3822D02*
X741Y3839D01*
X725Y3855D01*
X708D01*
X700Y3847D01*
Y3830D01*
X708Y3822D01*
X716D01*
X725Y3830D01*
Y3855D01*
X750Y3805D02*
X741D01*
X725Y3789D01*
X741Y3772D01*
X750D01*
X725Y3789D02*
X700D01*
X741Y3755D02*
X750Y3747D01*
Y3730D01*
X741Y3722D01*
X733D01*
X725Y3730D01*
X716Y3722D01*
X708D01*
X700Y3730D01*
Y3747D01*
X708Y3755D01*
X716D01*
X725Y3747D01*
X733Y3755D01*
X741D01*
X725Y3747D02*
Y3730D01*
X750Y3672D02*
X741Y3689D01*
X725Y3705D01*
X708D01*
X700Y3697D01*
Y3680D01*
X708Y3672D01*
X716D01*
X725Y3680D01*
Y3705D01*
X750Y3655D02*
X700D01*
Y3630D01*
X708Y3622D01*
X741D01*
X750Y3630D01*
Y3655D01*
X741Y3605D02*
X750Y3597D01*
Y3580D01*
X741Y3572D01*
X708D01*
X700Y3580D01*
Y3597D01*
X708Y3605D01*
X741D01*
X750Y3555D02*
Y3522D01*
Y3539D01*
X700D01*
X625Y4843D02*
X658D01*
X675Y4826D01*
X658Y4809D01*
X625D01*
X650D01*
Y4843D01*
X625Y4793D02*
Y4776D01*
Y4784D01*
X675D01*
Y4793D01*
X666Y4743D02*
X658D01*
Y4751D01*
Y4734D01*
Y4743D01*
X633D01*
X625Y4734D01*
Y4659D02*
Y4643D01*
Y4651D01*
X675D01*
X666Y4659D01*
X625Y4568D02*
X675D01*
Y4543D01*
X666Y4534D01*
X650D01*
X641Y4543D01*
Y4568D01*
X658Y4509D02*
Y4493D01*
X650Y4484D01*
X625D01*
Y4509D01*
X633Y4518D01*
X641Y4509D01*
Y4484D01*
X675Y4434D02*
X625D01*
Y4459D01*
X633Y4468D01*
X650D01*
X658Y4459D01*
Y4434D01*
X625Y4418D02*
Y4393D01*
X633Y4384D01*
X641Y4393D01*
Y4409D01*
X650Y4418D01*
X658Y4409D01*
Y4384D01*
X666Y4359D02*
X658D01*
Y4368D01*
Y4351D01*
Y4359D01*
X633D01*
X625Y4351D01*
X658Y4326D02*
X633D01*
X625Y4318D01*
Y4293D01*
X616D01*
X608Y4301D01*
Y4309D01*
X625Y4293D02*
X658D01*
X625Y4276D02*
Y4259D01*
Y4268D01*
X675D01*
Y4276D01*
X625Y4209D02*
Y4226D01*
X633Y4234D01*
X650D01*
X658Y4226D01*
Y4209D01*
X650Y4201D01*
X641D01*
Y4234D01*
X658Y4184D02*
Y4176D01*
X650D01*
Y4184D01*
X658D01*
X633D02*
Y4176D01*
X625D01*
Y4184D01*
X633D01*
X675Y4068D02*
Y4084D01*
X666Y4093D01*
X633D01*
X625Y4084D01*
Y4068D01*
X633Y4059D01*
X666D01*
X675Y4068D01*
Y4043D02*
X625Y4009D01*
X675D02*
X625Y4043D01*
X675Y3959D02*
X666Y3976D01*
X650Y3993D01*
X633D01*
X625Y3984D01*
Y3968D01*
X633Y3959D01*
X641D01*
X650Y3968D01*
Y3993D01*
X666Y3943D02*
X675Y3934D01*
Y3918D01*
X666Y3909D01*
X633D01*
X625Y3918D01*
Y3934D01*
X633Y3943D01*
X666D01*
X675Y3893D02*
X666D01*
X650Y3876D01*
X666Y3859D01*
X675D01*
X650Y3876D02*
X625D01*
X633Y3843D02*
X625Y3834D01*
Y3818D01*
X633Y3810D01*
X666D01*
X675Y3818D01*
Y3834D01*
X666Y3843D01*
X658D01*
X650Y3834D01*
Y3810D01*
X666Y3793D02*
X675Y3785D01*
Y3768D01*
X666Y3760D01*
X633D01*
X625Y3768D01*
Y3785D01*
X633Y3793D01*
X666D01*
X675Y3743D02*
X625D01*
Y3718D01*
X633Y3710D01*
X666D01*
X675Y3718D01*
Y3743D01*
X666Y3693D02*
X675Y3685D01*
Y3668D01*
X666Y3660D01*
X658D01*
X650Y3668D01*
Y3676D01*
Y3668D01*
X641Y3660D01*
X633D01*
X625Y3668D01*
Y3685D01*
X633Y3693D01*
X666Y3643D02*
X675Y3635D01*
Y3618D01*
X666Y3610D01*
X633D01*
X625Y3618D01*
Y3635D01*
X633Y3643D01*
X666D01*
X625Y3593D02*
X675D01*
Y3568D01*
X666Y3560D01*
X650D01*
X641Y3568D01*
Y3593D01*
X550Y4843D02*
X583D01*
X600Y4826D01*
X583Y4809D01*
X550D01*
X575D01*
Y4843D01*
X550Y4793D02*
Y4776D01*
Y4784D01*
X600D01*
Y4793D01*
X591Y4743D02*
X583D01*
Y4751D01*
Y4734D01*
Y4743D01*
X558D01*
X550Y4734D01*
Y4626D02*
Y4659D01*
X583Y4626D01*
X591D01*
X600Y4634D01*
Y4651D01*
X591Y4659D01*
X550Y4559D02*
X600D01*
Y4534D01*
X591Y4526D01*
X575D01*
X566Y4534D01*
Y4559D01*
X583Y4501D02*
Y4484D01*
X575Y4476D01*
X550D01*
Y4501D01*
X558Y4509D01*
X566Y4501D01*
Y4476D01*
X600Y4426D02*
X550D01*
Y4451D01*
X558Y4459D01*
X575D01*
X583Y4451D01*
Y4426D01*
X550Y4409D02*
Y4384D01*
X558Y4376D01*
X566Y4384D01*
Y4401D01*
X575Y4409D01*
X583Y4401D01*
Y4376D01*
X591Y4351D02*
X583D01*
Y4359D01*
Y4343D01*
Y4351D01*
X558D01*
X550Y4343D01*
X583Y4318D02*
X558D01*
X550Y4309D01*
Y4284D01*
X541D01*
X533Y4293D01*
Y4301D01*
X550Y4284D02*
X583D01*
X550Y4268D02*
Y4251D01*
Y4259D01*
X600D01*
Y4268D01*
X550Y4201D02*
Y4218D01*
X558Y4226D01*
X575D01*
X583Y4218D01*
Y4201D01*
X575Y4193D01*
X566D01*
Y4226D01*
X583Y4176D02*
Y4168D01*
X575D01*
Y4176D01*
X583D01*
X558D02*
Y4168D01*
X550D01*
Y4176D01*
X558D01*
X600Y4059D02*
Y4076D01*
X591Y4084D01*
X558D01*
X550Y4076D01*
Y4059D01*
X558Y4051D01*
X591D01*
X600Y4059D01*
Y4034D02*
X550Y4001D01*
X600D02*
X550Y4034D01*
X558Y3984D02*
X550Y3976D01*
Y3959D01*
X558Y3951D01*
X591D01*
X600Y3959D01*
Y3976D01*
X591Y3984D01*
X583D01*
X575Y3976D01*
Y3951D01*
X591Y3934D02*
X600Y3926D01*
Y3909D01*
X591Y3901D01*
X558D01*
X550Y3909D01*
Y3926D01*
X558Y3934D01*
X591D01*
X600Y3884D02*
X591D01*
X575Y3868D01*
X591Y3851D01*
X600D01*
X575Y3868D02*
X550D01*
X600Y3801D02*
X591Y3818D01*
X575Y3834D01*
X558D01*
X550Y3826D01*
Y3810D01*
X558Y3801D01*
X566D01*
X575Y3810D01*
Y3834D01*
X591Y3785D02*
X600Y3776D01*
Y3760D01*
X591Y3751D01*
X558D01*
X550Y3760D01*
Y3776D01*
X558Y3785D01*
X591D01*
X600Y3735D02*
X550D01*
Y3710D01*
X558Y3701D01*
X591D01*
X600Y3710D01*
Y3735D01*
X591Y3685D02*
X600Y3676D01*
Y3660D01*
X591Y3651D01*
X583D01*
X575Y3660D01*
Y3668D01*
Y3660D01*
X566Y3651D01*
X558D01*
X550Y3660D01*
Y3676D01*
X558Y3685D01*
X591Y3635D02*
X600Y3626D01*
Y3610D01*
X591Y3601D01*
X558D01*
X550Y3610D01*
Y3626D01*
X558Y3635D01*
X591D01*
X550Y3585D02*
X600D01*
Y3560D01*
X591Y3551D01*
X575D01*
X566Y3560D01*
Y3585D01*
M02*
