G04*
G04 #@! TF.GenerationSoftware,Altium Limited,Altium Designer,22.1.2 (22)*
G04*
G04 Layer_Color=2752767*
%FSLAX23Y23*%
%MOIN*%
G70*
G04*
G04 #@! TF.SameCoordinates,EFA1FED7-213C-4DAE-99C9-92C2F6BD185D*
G04*
G04*
G04 #@! TF.FilePolarity,Positive*
G04*
G01*
G75*
%ADD176C,0.002*%
%ADD177C,0.003*%
D176*
X452Y8382D02*
Y8398D01*
X468D01*
Y8382D01*
X452D01*
Y8182D02*
Y8198D01*
X468D01*
Y8182D01*
X452D01*
Y7982D02*
Y7998D01*
X468D01*
Y7982D01*
X452D01*
X442Y3842D02*
Y3858D01*
X458D01*
Y3842D01*
X442D01*
X447Y5692D02*
Y5708D01*
X463D01*
Y5692D01*
X447D01*
X442Y4774D02*
Y4790D01*
X458D01*
Y4774D01*
X442D01*
X437Y1037D02*
Y1053D01*
X453D01*
Y1037D01*
X437D01*
X442Y1987D02*
Y2003D01*
X458D01*
Y1987D01*
X442D01*
Y2922D02*
Y2938D01*
X458D01*
Y2922D01*
X442D01*
X740Y7932D02*
X732Y7948D01*
X748D01*
X740Y7932D01*
Y8088D02*
X732Y8104D01*
X748D01*
X740Y8088D01*
X285Y6832D02*
X277Y6848D01*
X293D01*
X285Y6832D01*
X780Y6817D02*
X784Y6821D01*
X788D01*
X784Y6825D01*
X788Y6829D01*
X784D01*
X780Y6833D01*
X776Y6829D01*
X772D01*
X776Y6825D01*
X772Y6821D01*
X776D01*
X780Y6817D01*
Y6617D02*
X784Y6621D01*
X788D01*
X784Y6625D01*
X788Y6629D01*
X784D01*
X780Y6633D01*
X776Y6629D01*
X772D01*
X776Y6625D01*
X772Y6621D01*
X776D01*
X780Y6617D01*
X777Y7557D02*
X781Y7561D01*
X785D01*
X781Y7565D01*
X785Y7569D01*
X781D01*
X777Y7573D01*
X773Y7569D01*
X769D01*
X773Y7565D01*
X769Y7561D01*
X773D01*
X777Y7557D01*
Y7357D02*
X781Y7361D01*
X785D01*
X781Y7365D01*
X785Y7369D01*
X781D01*
X777Y7373D01*
X773Y7369D01*
X769D01*
X773Y7365D01*
X769Y7361D01*
X773D01*
X777Y7357D01*
X780Y6717D02*
X784Y6721D01*
X788D01*
X784Y6725D01*
X788Y6729D01*
X784D01*
X780Y6733D01*
X776Y6729D01*
X772D01*
X776Y6725D01*
X772Y6721D01*
X776D01*
X780Y6717D01*
X777Y7457D02*
X781Y7461D01*
X785D01*
X781Y7465D01*
X785Y7469D01*
X781D01*
X777Y7473D01*
X773Y7469D01*
X769D01*
X773Y7465D01*
X769Y7461D01*
X773D01*
X777Y7457D01*
X285Y6676D02*
X277Y6692D01*
X293D01*
X285Y6676D01*
X454Y7297D02*
X458Y7305D01*
X454Y7313D01*
X462Y7309D01*
X470Y7313D01*
X466Y7305D01*
X470Y7297D01*
X462Y7301D01*
X454Y7297D01*
Y7497D02*
X458Y7505D01*
X454Y7513D01*
X462Y7509D01*
X470Y7513D01*
X466Y7505D01*
X470Y7497D01*
X462Y7501D01*
X454Y7497D01*
X442Y3642D02*
Y3658D01*
X458D01*
Y3642D01*
X442D01*
Y4042D02*
Y4058D01*
X458D01*
Y4042D01*
X442D01*
Y4242D02*
Y4258D01*
X458D01*
Y4242D01*
X442D01*
X447Y5492D02*
Y5508D01*
X463D01*
Y5492D01*
X447D01*
Y5892D02*
Y5908D01*
X463D01*
Y5892D01*
X447D01*
Y6092D02*
Y6108D01*
X463D01*
Y6092D01*
X447D01*
X442Y4574D02*
Y4590D01*
X458D01*
Y4574D01*
X442D01*
Y4974D02*
Y4990D01*
X458D01*
Y4974D01*
X442D01*
Y5174D02*
Y5190D01*
X458D01*
Y5174D01*
X442D01*
X2035Y1352D02*
Y1348D01*
X2043D01*
Y1352D01*
X2047D01*
Y1360D01*
X2043D01*
Y1364D01*
X2035D01*
Y1360D01*
X2031D01*
Y1352D01*
X2035D01*
Y1424D02*
Y1420D01*
X2043D01*
Y1424D01*
X2047D01*
Y1432D01*
X2043D01*
Y1436D01*
X2035D01*
Y1432D01*
X2031D01*
Y1424D01*
X2035D01*
X2071Y1316D02*
Y1312D01*
X2079D01*
Y1316D01*
X2083D01*
Y1324D01*
X2079D01*
Y1328D01*
X2071D01*
Y1324D01*
X2067D01*
Y1316D01*
X2071D01*
Y1388D02*
Y1384D01*
X2079D01*
Y1388D01*
X2083D01*
Y1396D01*
X2079D01*
Y1400D01*
X2071D01*
Y1396D01*
X2067D01*
Y1388D01*
X2071D01*
Y1460D02*
Y1456D01*
X2079D01*
Y1460D01*
X2083D01*
Y1468D01*
X2079D01*
Y1472D01*
X2071D01*
Y1468D01*
X2067D01*
Y1460D01*
X2071D01*
X2107Y1352D02*
Y1348D01*
X2115D01*
Y1352D01*
X2119D01*
Y1360D01*
X2115D01*
Y1364D01*
X2107D01*
Y1360D01*
X2103D01*
Y1352D01*
X2107D01*
Y1424D02*
Y1420D01*
X2115D01*
Y1424D01*
X2119D01*
Y1432D01*
X2115D01*
Y1436D01*
X2107D01*
Y1432D01*
X2103D01*
Y1424D01*
X2107D01*
X2143Y1316D02*
Y1312D01*
X2151D01*
Y1316D01*
X2155D01*
Y1324D01*
X2151D01*
Y1328D01*
X2143D01*
Y1324D01*
X2139D01*
Y1316D01*
X2143D01*
Y1388D02*
Y1384D01*
X2151D01*
Y1388D01*
X2155D01*
Y1396D01*
X2151D01*
Y1400D01*
X2143D01*
Y1396D01*
X2139D01*
Y1388D01*
X2143D01*
Y1460D02*
Y1456D01*
X2151D01*
Y1460D01*
X2155D01*
Y1468D01*
X2151D01*
Y1472D01*
X2143D01*
Y1468D01*
X2139D01*
Y1460D01*
X2143D01*
X2179Y1352D02*
Y1348D01*
X2187D01*
Y1352D01*
X2191D01*
Y1360D01*
X2187D01*
Y1364D01*
X2179D01*
Y1360D01*
X2175D01*
Y1352D01*
X2179D01*
Y1424D02*
Y1420D01*
X2187D01*
Y1424D01*
X2191D01*
Y1432D01*
X2187D01*
Y1436D01*
X2179D01*
Y1432D01*
X2175D01*
Y1424D01*
X2179D01*
X187Y494D02*
X191Y502D01*
X187Y510D01*
X195Y506D01*
X203Y510D01*
X199Y502D01*
X203Y494D01*
X195Y498D01*
X187Y494D01*
X387D02*
X391Y502D01*
X387Y510D01*
X395Y506D01*
X403Y510D01*
X399Y502D01*
X403Y494D01*
X395Y498D01*
X387Y494D01*
X1447Y487D02*
X1451Y495D01*
X1447Y503D01*
X1455Y499D01*
X1463Y503D01*
X1459Y495D01*
X1463Y487D01*
X1455Y491D01*
X1447Y487D01*
X1647D02*
X1651Y495D01*
X1647Y503D01*
X1655Y499D01*
X1663Y503D01*
X1659Y495D01*
X1663Y487D01*
X1655Y491D01*
X1647Y487D01*
X2277Y502D02*
X2281Y510D01*
X2277Y518D01*
X2285Y514D01*
X2293Y518D01*
X2289Y510D01*
X2293Y502D01*
X2285Y506D01*
X2277Y502D01*
X2077D02*
X2081Y510D01*
X2077Y518D01*
X2085Y514D01*
X2093Y518D01*
X2089Y510D01*
X2093Y502D01*
X2085Y506D01*
X2077Y502D01*
X1007Y487D02*
X1011Y495D01*
X1007Y503D01*
X1015Y499D01*
X1023Y503D01*
X1019Y495D01*
X1023Y487D01*
X1015Y491D01*
X1007Y487D01*
X807D02*
X811Y495D01*
X807Y503D01*
X815Y499D01*
X823Y503D01*
X819Y495D01*
X823Y487D01*
X815Y491D01*
X807Y487D01*
X442Y3322D02*
Y3338D01*
X458D01*
Y3322D01*
X442D01*
Y3122D02*
Y3138D01*
X458D01*
Y3122D01*
X442D01*
Y2722D02*
Y2738D01*
X458D01*
Y2722D01*
X442D01*
Y2387D02*
Y2403D01*
X458D01*
Y2387D01*
X442D01*
Y2187D02*
Y2203D01*
X458D01*
Y2187D01*
X442D01*
Y1787D02*
Y1803D01*
X458D01*
Y1787D01*
X442D01*
X437Y1437D02*
Y1453D01*
X453D01*
Y1437D01*
X437D01*
Y1237D02*
Y1253D01*
X453D01*
Y1237D01*
X437D01*
Y837D02*
Y853D01*
X453D01*
Y837D01*
X437D01*
X1762Y2782D02*
X1766D01*
X1770Y2786D01*
X1774Y2782D01*
X1778D01*
Y2786D01*
X1774Y2790D01*
X1778Y2794D01*
Y2798D01*
X1774D01*
X1770Y2794D01*
X1766Y2798D01*
X1762D01*
Y2794D01*
X1766Y2790D01*
X1762Y2786D01*
Y2782D01*
X2902Y4852D02*
X2906D01*
X2910Y4856D01*
X2914Y4852D01*
X2918D01*
Y4856D01*
X2914Y4860D01*
X2918Y4864D01*
Y4868D01*
X2914D01*
X2910Y4864D01*
X2906Y4868D01*
X2902D01*
Y4864D01*
X2906Y4860D01*
X2902Y4856D01*
Y4852D01*
X1302Y7317D02*
X1306D01*
X1310Y7321D01*
X1314Y7317D01*
X1318D01*
Y7321D01*
X1314Y7325D01*
X1318Y7329D01*
Y7333D01*
X1314D01*
X1310Y7329D01*
X1306Y7333D01*
X1302D01*
Y7329D01*
X1306Y7325D01*
X1302Y7321D01*
Y7317D01*
X4187Y6207D02*
X4191D01*
X4195Y6211D01*
X4199Y6207D01*
X4203D01*
Y6211D01*
X4199Y6215D01*
X4203Y6219D01*
Y6223D01*
X4199D01*
X4195Y6219D01*
X4191Y6223D01*
X4187D01*
Y6219D01*
X4191Y6215D01*
X4187Y6211D01*
Y6207D01*
X4862Y6872D02*
X4866D01*
X4870Y6876D01*
X4874Y6872D01*
X4878D01*
Y6876D01*
X4874Y6880D01*
X4878Y6884D01*
Y6888D01*
X4874D01*
X4870Y6884D01*
X4866Y6888D01*
X4862D01*
Y6884D01*
X4866Y6880D01*
X4862Y6876D01*
Y6872D01*
X4947Y6652D02*
X4951D01*
X4955Y6656D01*
X4959Y6652D01*
X4963D01*
Y6656D01*
X4959Y6660D01*
X4963Y6664D01*
Y6668D01*
X4959D01*
X4955Y6664D01*
X4951Y6668D01*
X4947D01*
Y6664D01*
X4951Y6660D01*
X4947Y6656D01*
Y6652D01*
X4812Y7062D02*
X4816D01*
X4820Y7066D01*
X4824Y7062D01*
X4828D01*
Y7066D01*
X4824Y7070D01*
X4828Y7074D01*
Y7078D01*
X4824D01*
X4820Y7074D01*
X4816Y7078D01*
X4812D01*
Y7074D01*
X4816Y7070D01*
X4812Y7066D01*
Y7062D01*
X4587Y2858D02*
X4591D01*
X4595Y2862D01*
X4599Y2858D01*
X4603D01*
Y2862D01*
X4599Y2866D01*
X4603Y2870D01*
Y2874D01*
X4599D01*
X4595Y2870D01*
X4591Y2874D01*
X4587D01*
Y2870D01*
X4591Y2866D01*
X4587Y2862D01*
Y2858D01*
X4272Y2707D02*
X4276D01*
X4280Y2711D01*
X4284Y2707D01*
X4288D01*
Y2711D01*
X4284Y2715D01*
X4288Y2719D01*
Y2723D01*
X4284D01*
X4280Y2719D01*
X4276Y2723D01*
X4272D01*
Y2719D01*
X4276Y2715D01*
X4272Y2711D01*
Y2707D01*
X3997Y2592D02*
X4001D01*
X4005Y2596D01*
X4009Y2592D01*
X4013D01*
Y2596D01*
X4009Y2600D01*
X4013Y2604D01*
Y2608D01*
X4009D01*
X4005Y2604D01*
X4001Y2608D01*
X3997D01*
Y2604D01*
X4001Y2600D01*
X3997Y2596D01*
Y2592D01*
X4177Y2217D02*
X4181D01*
X4185Y2221D01*
X4189Y2217D01*
X4193D01*
Y2221D01*
X4189Y2225D01*
X4193Y2229D01*
Y2233D01*
X4189D01*
X4185Y2229D01*
X4181Y2233D01*
X4177D01*
Y2229D01*
X4181Y2225D01*
X4177Y2221D01*
Y2217D01*
X4127Y1852D02*
X4131D01*
X4135Y1856D01*
X4139Y1852D01*
X4143D01*
Y1856D01*
X4139Y1860D01*
X4143Y1864D01*
Y1868D01*
X4139D01*
X4135Y1864D01*
X4131Y1868D01*
X4127D01*
Y1864D01*
X4131Y1860D01*
X4127Y1856D01*
Y1852D01*
X4732Y2267D02*
X4736D01*
X4740Y2271D01*
X4744Y2267D01*
X4748D01*
Y2271D01*
X4744Y2275D01*
X4748Y2279D01*
Y2283D01*
X4744D01*
X4740Y2279D01*
X4736Y2283D01*
X4732D01*
Y2279D01*
X4736Y2275D01*
X4732Y2271D01*
Y2267D01*
X5217Y757D02*
X5221D01*
X5225Y761D01*
X5229Y757D01*
X5233D01*
Y761D01*
X5229Y765D01*
X5233Y769D01*
Y773D01*
X5229D01*
X5225Y769D01*
X5221Y773D01*
X5217D01*
Y769D01*
X5221Y765D01*
X5217Y761D01*
Y757D01*
X4842D02*
X4846D01*
X4850Y761D01*
X4854Y757D01*
X4858D01*
Y761D01*
X4854Y765D01*
X4858Y769D01*
Y773D01*
X4854D01*
X4850Y769D01*
X4846Y773D01*
X4842D01*
Y769D01*
X4846Y765D01*
X4842Y761D01*
Y757D01*
X4717Y732D02*
X4721D01*
X4725Y736D01*
X4729Y732D01*
X4733D01*
Y736D01*
X4729Y740D01*
X4733Y744D01*
Y748D01*
X4729D01*
X4725Y744D01*
X4721Y748D01*
X4717D01*
Y744D01*
X4721Y740D01*
X4717Y736D01*
Y732D01*
X4052Y692D02*
X4056D01*
X4060Y696D01*
X4064Y692D01*
X4068D01*
Y696D01*
X4064Y700D01*
X4068Y704D01*
Y708D01*
X4064D01*
X4060Y704D01*
X4056Y708D01*
X4052D01*
Y704D01*
X4056Y700D01*
X4052Y696D01*
Y692D01*
X1987Y7002D02*
X1991D01*
X1995Y7006D01*
X1999Y7002D01*
X2003D01*
Y7006D01*
X1999Y7010D01*
X2003Y7014D01*
Y7018D01*
X1999D01*
X1995Y7014D01*
X1991Y7018D01*
X1987D01*
Y7014D01*
X1991Y7010D01*
X1987Y7006D01*
Y7002D01*
X4717Y7092D02*
X4721D01*
X4725Y7096D01*
X4729Y7092D01*
X4733D01*
Y7096D01*
X4729Y7100D01*
X4733Y7104D01*
Y7108D01*
X4729D01*
X4725Y7104D01*
X4721Y7108D01*
X4717D01*
Y7104D01*
X4721Y7100D01*
X4717Y7096D01*
Y7092D01*
X3347Y8047D02*
X3351D01*
X3355Y8051D01*
X3359Y8047D01*
X3363D01*
Y8051D01*
X3359Y8055D01*
X3363Y8059D01*
Y8063D01*
X3359D01*
X3355Y8059D01*
X3351Y8063D01*
X3347D01*
Y8059D01*
X3351Y8055D01*
X3347Y8051D01*
Y8047D01*
X2252Y7147D02*
X2256D01*
X2260Y7151D01*
X2264Y7147D01*
X2268D01*
Y7151D01*
X2264Y7155D01*
X2268Y7159D01*
Y7163D01*
X2264D01*
X2260Y7159D01*
X2256Y7163D01*
X2252D01*
Y7159D01*
X2256Y7155D01*
X2252Y7151D01*
Y7147D01*
X3476Y5586D02*
X3480D01*
X3484Y5590D01*
X3488Y5586D01*
X3492D01*
Y5590D01*
X3488Y5594D01*
X3492Y5598D01*
Y5602D01*
X3488D01*
X3484Y5598D01*
X3480Y5602D01*
X3476D01*
Y5598D01*
X3480Y5594D01*
X3476Y5590D01*
Y5586D01*
X3199Y6784D02*
X3203D01*
X3207Y6788D01*
X3211Y6784D01*
X3215D01*
Y6788D01*
X3211Y6792D01*
X3215Y6796D01*
Y6800D01*
X3211D01*
X3207Y6796D01*
X3203Y6800D01*
X3199D01*
Y6796D01*
X3203Y6792D01*
X3199Y6788D01*
Y6784D01*
X1327Y7202D02*
X1331D01*
X1335Y7206D01*
X1339Y7202D01*
X1343D01*
Y7206D01*
X1339Y7210D01*
X1343Y7214D01*
Y7218D01*
X1339D01*
X1335Y7214D01*
X1331Y7218D01*
X1327D01*
Y7214D01*
X1331Y7210D01*
X1327Y7206D01*
Y7202D01*
X2387Y7182D02*
X2391D01*
X2395Y7186D01*
X2399Y7182D01*
X2403D01*
Y7186D01*
X2399Y7190D01*
X2403Y7194D01*
Y7198D01*
X2399D01*
X2395Y7194D01*
X2391Y7198D01*
X2387D01*
Y7194D01*
X2391Y7190D01*
X2387Y7186D01*
Y7182D01*
X3087Y7697D02*
X3091D01*
X3095Y7701D01*
X3099Y7697D01*
X3103D01*
Y7701D01*
X3099Y7705D01*
X3103Y7709D01*
Y7713D01*
X3099D01*
X3095Y7709D01*
X3091Y7713D01*
X3087D01*
Y7709D01*
X3091Y7705D01*
X3087Y7701D01*
Y7697D01*
X3043Y7565D02*
X3047D01*
X3051Y7569D01*
X3055Y7565D01*
X3059D01*
Y7569D01*
X3055Y7573D01*
X3059Y7577D01*
Y7581D01*
X3055D01*
X3051Y7577D01*
X3047Y7581D01*
X3043D01*
Y7577D01*
X3047Y7573D01*
X3043Y7569D01*
Y7565D01*
X5567Y6967D02*
X5571D01*
X5575Y6971D01*
X5579Y6967D01*
X5583D01*
Y6971D01*
X5579Y6975D01*
X5583Y6979D01*
Y6983D01*
X5579D01*
X5575Y6979D01*
X5571Y6983D01*
X5567D01*
Y6979D01*
X5571Y6975D01*
X5567Y6971D01*
Y6967D01*
X5107Y6972D02*
X5111D01*
X5115Y6976D01*
X5119Y6972D01*
X5123D01*
Y6976D01*
X5119Y6980D01*
X5123Y6984D01*
Y6988D01*
X5119D01*
X5115Y6984D01*
X5111Y6988D01*
X5107D01*
Y6984D01*
X5111Y6980D01*
X5107Y6976D01*
Y6972D01*
X4727Y5777D02*
X4731D01*
X4735Y5781D01*
X4739Y5777D01*
X4743D01*
Y5781D01*
X4739Y5785D01*
X4743Y5789D01*
Y5793D01*
X4739D01*
X4735Y5789D01*
X4731Y5793D01*
X4727D01*
Y5789D01*
X4731Y5785D01*
X4727Y5781D01*
Y5777D01*
X4877Y5632D02*
X4881D01*
X4885Y5636D01*
X4889Y5632D01*
X4893D01*
Y5636D01*
X4889Y5640D01*
X4893Y5644D01*
Y5648D01*
X4889D01*
X4885Y5644D01*
X4881Y5648D01*
X4877D01*
Y5644D01*
X4881Y5640D01*
X4877Y5636D01*
Y5632D01*
X4982Y5932D02*
X4986D01*
X4990Y5936D01*
X4994Y5932D01*
X4998D01*
Y5936D01*
X4994Y5940D01*
X4998Y5944D01*
Y5948D01*
X4994D01*
X4990Y5944D01*
X4986Y5948D01*
X4982D01*
Y5944D01*
X4986Y5940D01*
X4982Y5936D01*
Y5932D01*
X5347Y4672D02*
X5351D01*
X5355Y4676D01*
X5359Y4672D01*
X5363D01*
Y4676D01*
X5359Y4680D01*
X5363Y4684D01*
Y4688D01*
X5359D01*
X5355Y4684D01*
X5351Y4688D01*
X5347D01*
Y4684D01*
X5351Y4680D01*
X5347Y4676D01*
Y4672D01*
X662Y6202D02*
X666D01*
X670Y6206D01*
X674Y6202D01*
X678D01*
Y6206D01*
X674Y6210D01*
X678Y6214D01*
Y6218D01*
X674D01*
X670Y6214D01*
X666Y6218D01*
X662D01*
Y6214D01*
X666Y6210D01*
X662Y6206D01*
Y6202D01*
X4907Y2247D02*
X4911D01*
X4915Y2251D01*
X4919Y2247D01*
X4923D01*
Y2251D01*
X4919Y2255D01*
X4923Y2259D01*
Y2263D01*
X4919D01*
X4915Y2259D01*
X4911Y2263D01*
X4907D01*
Y2259D01*
X4911Y2255D01*
X4907Y2251D01*
Y2247D01*
X717Y647D02*
X721D01*
X725Y651D01*
X729Y647D01*
X733D01*
Y651D01*
X729Y655D01*
X733Y659D01*
Y663D01*
X729D01*
X725Y659D01*
X721Y663D01*
X717D01*
Y659D01*
X721Y655D01*
X717Y651D01*
Y647D01*
X4097Y297D02*
X4101D01*
X4105Y301D01*
X4109Y297D01*
X4113D01*
Y301D01*
X4109Y305D01*
X4113Y309D01*
Y313D01*
X4109D01*
X4105Y309D01*
X4101Y313D01*
X4097D01*
Y309D01*
X4101Y305D01*
X4097Y301D01*
Y297D01*
X4786Y1220D02*
X4790D01*
X4794Y1224D01*
X4798Y1220D01*
X4802D01*
Y1224D01*
X4798Y1228D01*
X4802Y1232D01*
Y1236D01*
X4798D01*
X4794Y1232D01*
X4790Y1236D01*
X4786D01*
Y1232D01*
X4790Y1228D01*
X4786Y1224D01*
Y1220D01*
X5160Y888D02*
X5164D01*
X5168Y892D01*
X5172Y888D01*
X5176D01*
Y892D01*
X5172Y896D01*
X5176Y900D01*
Y904D01*
X5172D01*
X5168Y900D01*
X5164Y904D01*
X5160D01*
Y900D01*
X5164Y896D01*
X5160Y892D01*
Y888D01*
X4352Y1107D02*
X4356D01*
X4360Y1111D01*
X4364Y1107D01*
X4368D01*
Y1111D01*
X4364Y1115D01*
X4368Y1119D01*
Y1123D01*
X4364D01*
X4360Y1119D01*
X4356Y1123D01*
X4352D01*
Y1119D01*
X4356Y1115D01*
X4352Y1111D01*
Y1107D01*
X4742Y2142D02*
X4746D01*
X4750Y2146D01*
X4754Y2142D01*
X4758D01*
Y2146D01*
X4754Y2150D01*
X4758Y2154D01*
Y2158D01*
X4754D01*
X4750Y2154D01*
X4746Y2158D01*
X4742D01*
Y2154D01*
X4746Y2150D01*
X4742Y2146D01*
Y2142D01*
X4037Y2197D02*
X4041D01*
X4045Y2201D01*
X4049Y2197D01*
X4053D01*
Y2201D01*
X4049Y2205D01*
X4053Y2209D01*
Y2213D01*
X4049D01*
X4045Y2209D01*
X4041Y2213D01*
X4037D01*
Y2209D01*
X4041Y2205D01*
X4037Y2201D01*
Y2197D01*
X4417Y657D02*
X4421D01*
X4425Y661D01*
X4429Y657D01*
X4433D01*
Y661D01*
X4429Y665D01*
X4433Y669D01*
Y673D01*
X4429D01*
X4425Y669D01*
X4421Y673D01*
X4417D01*
Y669D01*
X4421Y665D01*
X4417Y661D01*
Y657D01*
X4067Y792D02*
X4071D01*
X4075Y796D01*
X4079Y792D01*
X4083D01*
Y796D01*
X4079Y800D01*
X4083Y804D01*
Y808D01*
X4079D01*
X4075Y804D01*
X4071Y808D01*
X4067D01*
Y804D01*
X4071Y800D01*
X4067Y796D01*
Y792D01*
X4547Y222D02*
X4551D01*
X4555Y226D01*
X4559Y222D01*
X4563D01*
Y226D01*
X4559Y230D01*
X4563Y234D01*
Y238D01*
X4559D01*
X4555Y234D01*
X4551Y238D01*
X4547D01*
Y234D01*
X4551Y230D01*
X4547Y226D01*
Y222D01*
X5432Y7027D02*
X5436D01*
X5440Y7031D01*
X5444Y7027D01*
X5448D01*
Y7031D01*
X5444Y7035D01*
X5448Y7039D01*
Y7043D01*
X5444D01*
X5440Y7039D01*
X5436Y7043D01*
X5432D01*
Y7039D01*
X5436Y7035D01*
X5432Y7031D01*
Y7027D01*
X5602Y7772D02*
X5606D01*
X5610Y7776D01*
X5614Y7772D01*
X5618D01*
Y7776D01*
X5614Y7780D01*
X5618Y7784D01*
Y7788D01*
X5614D01*
X5610Y7784D01*
X5606Y7788D01*
X5602D01*
Y7784D01*
X5606Y7780D01*
X5602Y7776D01*
Y7772D01*
X4997Y7227D02*
X5001D01*
X5005Y7231D01*
X5009Y7227D01*
X5013D01*
Y7231D01*
X5009Y7235D01*
X5013Y7239D01*
Y7243D01*
X5009D01*
X5005Y7239D01*
X5001Y7243D01*
X4997D01*
Y7239D01*
X5001Y7235D01*
X4997Y7231D01*
Y7227D01*
X4962Y7592D02*
X4966D01*
X4970Y7596D01*
X4974Y7592D01*
X4978D01*
Y7596D01*
X4974Y7600D01*
X4978Y7604D01*
Y7608D01*
X4974D01*
X4970Y7604D01*
X4966Y7608D01*
X4962D01*
Y7604D01*
X4966Y7600D01*
X4962Y7596D01*
Y7592D01*
X5222Y6862D02*
X5226D01*
X5230Y6866D01*
X5234Y6862D01*
X5238D01*
Y6866D01*
X5234Y6870D01*
X5238Y6874D01*
Y6878D01*
X5234D01*
X5230Y6874D01*
X5226Y6878D01*
X5222D01*
Y6874D01*
X5226Y6870D01*
X5222Y6866D01*
Y6862D01*
X4737Y6477D02*
X4741D01*
X4745Y6481D01*
X4749Y6477D01*
X4753D01*
Y6481D01*
X4749Y6485D01*
X4753Y6489D01*
Y6493D01*
X4749D01*
X4745Y6489D01*
X4741Y6493D01*
X4737D01*
Y6489D01*
X4741Y6485D01*
X4737Y6481D01*
Y6477D01*
X4652Y6430D02*
X4656D01*
X4660Y6434D01*
X4664Y6430D01*
X4668D01*
Y6434D01*
X4664Y6438D01*
X4668Y6442D01*
Y6446D01*
X4664D01*
X4660Y6442D01*
X4656Y6446D01*
X4652D01*
Y6442D01*
X4656Y6438D01*
X4652Y6434D01*
Y6430D01*
X4727Y6577D02*
X4731D01*
X4735Y6581D01*
X4739Y6577D01*
X4743D01*
Y6581D01*
X4739Y6585D01*
X4743Y6589D01*
Y6593D01*
X4739D01*
X4735Y6589D01*
X4731Y6593D01*
X4727D01*
Y6589D01*
X4731Y6585D01*
X4727Y6581D01*
Y6577D01*
X4675Y6374D02*
X4679D01*
X4683Y6378D01*
X4687Y6374D01*
X4691D01*
Y6378D01*
X4687Y6382D01*
X4691Y6386D01*
Y6390D01*
X4687D01*
X4683Y6386D01*
X4679Y6390D01*
X4675D01*
Y6386D01*
X4679Y6382D01*
X4675Y6378D01*
Y6374D01*
X2622Y7342D02*
X2626D01*
X2630Y7346D01*
X2634Y7342D01*
X2638D01*
Y7346D01*
X2634Y7350D01*
X2638Y7354D01*
Y7358D01*
X2634D01*
X2630Y7354D01*
X2626Y7358D01*
X2622D01*
Y7354D01*
X2626Y7350D01*
X2622Y7346D01*
Y7342D01*
X4087Y6032D02*
X4091D01*
X4095Y6036D01*
X4099Y6032D01*
X4103D01*
Y6036D01*
X4099Y6040D01*
X4103Y6044D01*
Y6048D01*
X4099D01*
X4095Y6044D01*
X4091Y6048D01*
X4087D01*
Y6044D01*
X4091Y6040D01*
X4087Y6036D01*
Y6032D01*
X4317Y5912D02*
X4321D01*
X4325Y5916D01*
X4329Y5912D01*
X4333D01*
Y5916D01*
X4329Y5920D01*
X4333Y5924D01*
Y5928D01*
X4329D01*
X4325Y5924D01*
X4321Y5928D01*
X4317D01*
Y5924D01*
X4321Y5920D01*
X4317Y5916D01*
Y5912D01*
X4759Y1758D02*
X4763D01*
X4767Y1762D01*
X4771Y1758D01*
X4775D01*
Y1762D01*
X4771Y1766D01*
X4775Y1770D01*
Y1774D01*
X4771D01*
X4767Y1770D01*
X4763Y1774D01*
X4759D01*
Y1770D01*
X4763Y1766D01*
X4759Y1762D01*
Y1758D01*
X4682Y6717D02*
X4686D01*
X4690Y6721D01*
X4694Y6717D01*
X4698D01*
Y6721D01*
X4694Y6725D01*
X4698Y6729D01*
Y6733D01*
X4694D01*
X4690Y6729D01*
X4686Y6733D01*
X4682D01*
Y6729D01*
X4686Y6725D01*
X4682Y6721D01*
Y6717D01*
X5702Y6387D02*
X5706D01*
X5710Y6391D01*
X5714Y6387D01*
X5718D01*
Y6391D01*
X5714Y6395D01*
X5718Y6399D01*
Y6403D01*
X5714D01*
X5710Y6399D01*
X5706Y6403D01*
X5702D01*
Y6399D01*
X5706Y6395D01*
X5702Y6391D01*
Y6387D01*
X4747Y6772D02*
X4751D01*
X4755Y6776D01*
X4759Y6772D01*
X4763D01*
Y6776D01*
X4759Y6780D01*
X4763Y6784D01*
Y6788D01*
X4759D01*
X4755Y6784D01*
X4751Y6788D01*
X4747D01*
Y6784D01*
X4751Y6780D01*
X4747Y6776D01*
Y6772D01*
X5636Y6307D02*
X5640D01*
X5644Y6311D01*
X5648Y6307D01*
X5652D01*
Y6311D01*
X5648Y6315D01*
X5652Y6319D01*
Y6323D01*
X5648D01*
X5644Y6319D01*
X5640Y6323D01*
X5636D01*
Y6319D01*
X5640Y6315D01*
X5636Y6311D01*
Y6307D01*
X5337Y6312D02*
X5341D01*
X5345Y6316D01*
X5349Y6312D01*
X5353D01*
Y6316D01*
X5349Y6320D01*
X5353Y6324D01*
Y6328D01*
X5349D01*
X5345Y6324D01*
X5341Y6328D01*
X5337D01*
Y6324D01*
X5341Y6320D01*
X5337Y6316D01*
Y6312D01*
X4942Y6347D02*
X4946D01*
X4950Y6351D01*
X4954Y6347D01*
X4958D01*
Y6351D01*
X4954Y6355D01*
X4958Y6359D01*
Y6363D01*
X4954D01*
X4950Y6359D01*
X4946Y6363D01*
X4942D01*
Y6359D01*
X4946Y6355D01*
X4942Y6351D01*
Y6347D01*
X5042Y6302D02*
X5046D01*
X5050Y6306D01*
X5054Y6302D01*
X5058D01*
Y6306D01*
X5054Y6310D01*
X5058Y6314D01*
Y6318D01*
X5054D01*
X5050Y6314D01*
X5046Y6318D01*
X5042D01*
Y6314D01*
X5046Y6310D01*
X5042Y6306D01*
Y6302D01*
X4972Y6852D02*
X4976D01*
X4980Y6856D01*
X4984Y6852D01*
X4988D01*
Y6856D01*
X4984Y6860D01*
X4988Y6864D01*
Y6868D01*
X4984D01*
X4980Y6864D01*
X4976Y6868D01*
X4972D01*
Y6864D01*
X4976Y6860D01*
X4972Y6856D01*
Y6852D01*
X4727Y5957D02*
X4731D01*
X4735Y5961D01*
X4739Y5957D01*
X4743D01*
Y5961D01*
X4739Y5965D01*
X4743Y5969D01*
Y5973D01*
X4739D01*
X4735Y5969D01*
X4731Y5973D01*
X4727D01*
Y5969D01*
X4731Y5965D01*
X4727Y5961D01*
Y5957D01*
X4367Y6217D02*
X4371D01*
X4375Y6221D01*
X4379Y6217D01*
X4383D01*
Y6221D01*
X4379Y6225D01*
X4383Y6229D01*
Y6233D01*
X4379D01*
X4375Y6229D01*
X4371Y6233D01*
X4367D01*
Y6229D01*
X4371Y6225D01*
X4367Y6221D01*
Y6217D01*
X4682Y5897D02*
X4686D01*
X4690Y5901D01*
X4694Y5897D01*
X4698D01*
Y5901D01*
X4694Y5905D01*
X4698Y5909D01*
Y5913D01*
X4694D01*
X4690Y5909D01*
X4686Y5913D01*
X4682D01*
Y5909D01*
X4686Y5905D01*
X4682Y5901D01*
Y5897D01*
X4517Y6017D02*
X4521D01*
X4525Y6021D01*
X4529Y6017D01*
X4533D01*
Y6021D01*
X4529Y6025D01*
X4533Y6029D01*
Y6033D01*
X4529D01*
X4525Y6029D01*
X4521Y6033D01*
X4517D01*
Y6029D01*
X4521Y6025D01*
X4517Y6021D01*
Y6017D01*
X4752Y6172D02*
X4756D01*
X4760Y6176D01*
X4764Y6172D01*
X4768D01*
Y6176D01*
X4764Y6180D01*
X4768Y6184D01*
Y6188D01*
X4764D01*
X4760Y6184D01*
X4756Y6188D01*
X4752D01*
Y6184D01*
X4756Y6180D01*
X4752Y6176D01*
Y6172D01*
X4662Y6272D02*
X4666D01*
X4670Y6276D01*
X4674Y6272D01*
X4678D01*
Y6276D01*
X4674Y6280D01*
X4678Y6284D01*
Y6288D01*
X4674D01*
X4670Y6284D01*
X4666Y6288D01*
X4662D01*
Y6284D01*
X4666Y6280D01*
X4662Y6276D01*
Y6272D01*
X4487Y6152D02*
X4491D01*
X4495Y6156D01*
X4499Y6152D01*
X4503D01*
Y6156D01*
X4499Y6160D01*
X4503Y6164D01*
Y6168D01*
X4499D01*
X4495Y6164D01*
X4491Y6168D01*
X4487D01*
Y6164D01*
X4491Y6160D01*
X4487Y6156D01*
Y6152D01*
X4752Y6302D02*
X4756D01*
X4760Y6306D01*
X4764Y6302D01*
X4768D01*
Y6306D01*
X4764Y6310D01*
X4768Y6314D01*
Y6318D01*
X4764D01*
X4760Y6314D01*
X4756Y6318D01*
X4752D01*
Y6314D01*
X4756Y6310D01*
X4752Y6306D01*
Y6302D01*
X4457Y6867D02*
X4461D01*
X4465Y6871D01*
X4469Y6867D01*
X4473D01*
Y6871D01*
X4469Y6875D01*
X4473Y6879D01*
Y6883D01*
X4469D01*
X4465Y6879D01*
X4461Y6883D01*
X4457D01*
Y6879D01*
X4461Y6875D01*
X4457Y6871D01*
Y6867D01*
X4512Y6747D02*
X4516D01*
X4520Y6751D01*
X4524Y6747D01*
X4528D01*
Y6751D01*
X4524Y6755D01*
X4528Y6759D01*
Y6763D01*
X4524D01*
X4520Y6759D01*
X4516Y6763D01*
X4512D01*
Y6759D01*
X4516Y6755D01*
X4512Y6751D01*
Y6747D01*
X4567Y6222D02*
X4571D01*
X4575Y6226D01*
X4579Y6222D01*
X4583D01*
Y6226D01*
X4579Y6230D01*
X4583Y6234D01*
Y6238D01*
X4579D01*
X4575Y6234D01*
X4571Y6238D01*
X4567D01*
Y6234D01*
X4571Y6230D01*
X4567Y6226D01*
Y6222D01*
X4947Y6432D02*
X4951D01*
X4955Y6436D01*
X4959Y6432D01*
X4963D01*
Y6436D01*
X4959Y6440D01*
X4963Y6444D01*
Y6448D01*
X4959D01*
X4955Y6444D01*
X4951Y6448D01*
X4947D01*
Y6444D01*
X4951Y6440D01*
X4947Y6436D01*
Y6432D01*
X5112Y6297D02*
X5116D01*
X5120Y6301D01*
X5124Y6297D01*
X5128D01*
Y6301D01*
X5124Y6305D01*
X5128Y6309D01*
Y6313D01*
X5124D01*
X5120Y6309D01*
X5116Y6313D01*
X5112D01*
Y6309D01*
X5116Y6305D01*
X5112Y6301D01*
Y6297D01*
X3667Y6046D02*
X3671D01*
X3675Y6050D01*
X3679Y6046D01*
X3683D01*
Y6050D01*
X3679Y6054D01*
X3683Y6058D01*
Y6062D01*
X3679D01*
X3675Y6058D01*
X3671Y6062D01*
X3667D01*
Y6058D01*
X3671Y6054D01*
X3667Y6050D01*
Y6046D01*
X4047Y6367D02*
X4051D01*
X4055Y6371D01*
X4059Y6367D01*
X4063D01*
Y6371D01*
X4059Y6375D01*
X4063Y6379D01*
Y6383D01*
X4059D01*
X4055Y6379D01*
X4051Y6383D01*
X4047D01*
Y6379D01*
X4051Y6375D01*
X4047Y6371D01*
Y6367D01*
X3987Y6307D02*
X3991D01*
X3995Y6311D01*
X3999Y6307D01*
X4003D01*
Y6311D01*
X3999Y6315D01*
X4003Y6319D01*
Y6323D01*
X3999D01*
X3995Y6319D01*
X3991Y6323D01*
X3987D01*
Y6319D01*
X3991Y6315D01*
X3987Y6311D01*
Y6307D01*
X3997Y6452D02*
X4001D01*
X4005Y6456D01*
X4009Y6452D01*
X4013D01*
Y6456D01*
X4009Y6460D01*
X4013Y6464D01*
Y6468D01*
X4009D01*
X4005Y6464D01*
X4001Y6468D01*
X3997D01*
Y6464D01*
X4001Y6460D01*
X3997Y6456D01*
Y6452D01*
X4082Y6457D02*
X4086D01*
X4090Y6461D01*
X4094Y6457D01*
X4098D01*
Y6461D01*
X4094Y6465D01*
X4098Y6469D01*
Y6473D01*
X4094D01*
X4090Y6469D01*
X4086Y6473D01*
X4082D01*
Y6469D01*
X4086Y6465D01*
X4082Y6461D01*
Y6457D01*
X4157Y6362D02*
X4161D01*
X4165Y6366D01*
X4169Y6362D01*
X4173D01*
Y6366D01*
X4169Y6370D01*
X4173Y6374D01*
Y6378D01*
X4169D01*
X4165Y6374D01*
X4161Y6378D01*
X4157D01*
Y6374D01*
X4161Y6370D01*
X4157Y6366D01*
Y6362D01*
X4032Y6222D02*
X4036D01*
X4040Y6226D01*
X4044Y6222D01*
X4048D01*
Y6226D01*
X4044Y6230D01*
X4048Y6234D01*
Y6238D01*
X4044D01*
X4040Y6234D01*
X4036Y6238D01*
X4032D01*
Y6234D01*
X4036Y6230D01*
X4032Y6226D01*
Y6222D01*
X3902Y6582D02*
X3906D01*
X3910Y6586D01*
X3914Y6582D01*
X3918D01*
Y6586D01*
X3914Y6590D01*
X3918Y6594D01*
Y6598D01*
X3914D01*
X3910Y6594D01*
X3906Y6598D01*
X3902D01*
Y6594D01*
X3906Y6590D01*
X3902Y6586D01*
Y6582D01*
X3647Y6702D02*
X3651D01*
X3655Y6706D01*
X3659Y6702D01*
X3663D01*
Y6706D01*
X3659Y6710D01*
X3663Y6714D01*
Y6718D01*
X3659D01*
X3655Y6714D01*
X3651Y6718D01*
X3647D01*
Y6714D01*
X3651Y6710D01*
X3647Y6706D01*
Y6702D01*
X2482Y5417D02*
X2486D01*
X2490Y5421D01*
X2494Y5417D01*
X2498D01*
Y5421D01*
X2494Y5425D01*
X2498Y5429D01*
Y5433D01*
X2494D01*
X2490Y5429D01*
X2486Y5433D01*
X2482D01*
Y5429D01*
X2486Y5425D01*
X2482Y5421D01*
Y5417D01*
X2477Y5517D02*
X2481D01*
X2485Y5521D01*
X2489Y5517D01*
X2493D01*
Y5521D01*
X2489Y5525D01*
X2493Y5529D01*
Y5533D01*
X2489D01*
X2485Y5529D01*
X2481Y5533D01*
X2477D01*
Y5529D01*
X2481Y5525D01*
X2477Y5521D01*
Y5517D01*
X3037Y5707D02*
X3041D01*
X3045Y5711D01*
X3049Y5707D01*
X3053D01*
Y5711D01*
X3049Y5715D01*
X3053Y5719D01*
Y5723D01*
X3049D01*
X3045Y5719D01*
X3041Y5723D01*
X3037D01*
Y5719D01*
X3041Y5715D01*
X3037Y5711D01*
Y5707D01*
X2447Y5697D02*
X2451D01*
X2455Y5701D01*
X2459Y5697D01*
X2463D01*
Y5701D01*
X2459Y5705D01*
X2463Y5709D01*
Y5713D01*
X2459D01*
X2455Y5709D01*
X2451Y5713D01*
X2447D01*
Y5709D01*
X2451Y5705D01*
X2447Y5701D01*
Y5697D01*
X2532Y5782D02*
X2536D01*
X2540Y5786D01*
X2544Y5782D01*
X2548D01*
Y5786D01*
X2544Y5790D01*
X2548Y5794D01*
Y5798D01*
X2544D01*
X2540Y5794D01*
X2536Y5798D01*
X2532D01*
Y5794D01*
X2536Y5790D01*
X2532Y5786D01*
Y5782D01*
X2787Y4917D02*
X2791D01*
X2795Y4921D01*
X2799Y4917D01*
X2803D01*
Y4921D01*
X2799Y4925D01*
X2803Y4929D01*
Y4933D01*
X2799D01*
X2795Y4929D01*
X2791Y4933D01*
X2787D01*
Y4929D01*
X2791Y4925D01*
X2787Y4921D01*
Y4917D01*
X4702Y3352D02*
X4706D01*
X4710Y3356D01*
X4714Y3352D01*
X4718D01*
Y3356D01*
X4714Y3360D01*
X4718Y3364D01*
Y3368D01*
X4714D01*
X4710Y3364D01*
X4706Y3368D01*
X4702D01*
Y3364D01*
X4706Y3360D01*
X4702Y3356D01*
Y3352D01*
X4917Y3472D02*
X4921D01*
X4925Y3476D01*
X4929Y3472D01*
X4933D01*
Y3476D01*
X4929Y3480D01*
X4933Y3484D01*
Y3488D01*
X4929D01*
X4925Y3484D01*
X4921Y3488D01*
X4917D01*
Y3484D01*
X4921Y3480D01*
X4917Y3476D01*
Y3472D01*
X4942Y4097D02*
X4946D01*
X4950Y4101D01*
X4954Y4097D01*
X4958D01*
Y4101D01*
X4954Y4105D01*
X4958Y4109D01*
Y4113D01*
X4954D01*
X4950Y4109D01*
X4946Y4113D01*
X4942D01*
Y4109D01*
X4946Y4105D01*
X4942Y4101D01*
Y4097D01*
X4702Y3732D02*
X4706D01*
X4710Y3736D01*
X4714Y3732D01*
X4718D01*
Y3736D01*
X4714Y3740D01*
X4718Y3744D01*
Y3748D01*
X4714D01*
X4710Y3744D01*
X4706Y3748D01*
X4702D01*
Y3744D01*
X4706Y3740D01*
X4702Y3736D01*
Y3732D01*
X4147Y3717D02*
X4151D01*
X4155Y3721D01*
X4159Y3717D01*
X4163D01*
Y3721D01*
X4159Y3725D01*
X4163Y3729D01*
Y3733D01*
X4159D01*
X4155Y3729D01*
X4151Y3733D01*
X4147D01*
Y3729D01*
X4151Y3725D01*
X4147Y3721D01*
Y3717D01*
X4142Y3797D02*
X4146D01*
X4150Y3801D01*
X4154Y3797D01*
X4158D01*
Y3801D01*
X4154Y3805D01*
X4158Y3809D01*
Y3813D01*
X4154D01*
X4150Y3809D01*
X4146Y3813D01*
X4142D01*
Y3809D01*
X4146Y3805D01*
X4142Y3801D01*
Y3797D01*
X2722Y4502D02*
X2726D01*
X2730Y4506D01*
X2734Y4502D01*
X2738D01*
Y4506D01*
X2734Y4510D01*
X2738Y4514D01*
Y4518D01*
X2734D01*
X2730Y4514D01*
X2726Y4518D01*
X2722D01*
Y4514D01*
X2726Y4510D01*
X2722Y4506D01*
Y4502D01*
X4102Y4052D02*
X4106D01*
X4110Y4056D01*
X4114Y4052D01*
X4118D01*
Y4056D01*
X4114Y4060D01*
X4118Y4064D01*
Y4068D01*
X4114D01*
X4110Y4064D01*
X4106Y4068D01*
X4102D01*
Y4064D01*
X4106Y4060D01*
X4102Y4056D01*
Y4052D01*
X4027Y4087D02*
X4031D01*
X4035Y4091D01*
X4039Y4087D01*
X4043D01*
Y4091D01*
X4039Y4095D01*
X4043Y4099D01*
Y4103D01*
X4039D01*
X4035Y4099D01*
X4031Y4103D01*
X4027D01*
Y4099D01*
X4031Y4095D01*
X4027Y4091D01*
Y4087D01*
X4122Y3962D02*
X4126D01*
X4130Y3966D01*
X4134Y3962D01*
X4138D01*
Y3966D01*
X4134Y3970D01*
X4138Y3974D01*
Y3978D01*
X4134D01*
X4130Y3974D01*
X4126Y3978D01*
X4122D01*
Y3974D01*
X4126Y3970D01*
X4122Y3966D01*
Y3962D01*
X4120Y4165D02*
X4124D01*
X4128Y4169D01*
X4132Y4165D01*
X4136D01*
Y4169D01*
X4132Y4173D01*
X4136Y4177D01*
Y4181D01*
X4132D01*
X4128Y4177D01*
X4124Y4181D01*
X4120D01*
Y4177D01*
X4124Y4173D01*
X4120Y4169D01*
Y4165D01*
X3577Y4437D02*
X3581D01*
X3585Y4441D01*
X3589Y4437D01*
X3593D01*
Y4441D01*
X3589Y4445D01*
X3593Y4449D01*
Y4453D01*
X3589D01*
X3585Y4449D01*
X3581Y4453D01*
X3577D01*
Y4449D01*
X3581Y4445D01*
X3577Y4441D01*
Y4437D01*
X3662Y4432D02*
X3666D01*
X3670Y4436D01*
X3674Y4432D01*
X3678D01*
Y4436D01*
X3674Y4440D01*
X3678Y4444D01*
Y4448D01*
X3674D01*
X3670Y4444D01*
X3666Y4448D01*
X3662D01*
Y4444D01*
X3666Y4440D01*
X3662Y4436D01*
Y4432D01*
X3782Y4567D02*
X3786D01*
X3790Y4571D01*
X3794Y4567D01*
X3798D01*
Y4571D01*
X3794Y4575D01*
X3798Y4579D01*
Y4583D01*
X3794D01*
X3790Y4579D01*
X3786Y4583D01*
X3782D01*
Y4579D01*
X3786Y4575D01*
X3782Y4571D01*
Y4567D01*
X3367Y4522D02*
X3371D01*
X3375Y4526D01*
X3379Y4522D01*
X3383D01*
Y4526D01*
X3379Y4530D01*
X3383Y4534D01*
Y4538D01*
X3379D01*
X3375Y4534D01*
X3371Y4538D01*
X3367D01*
Y4534D01*
X3371Y4530D01*
X3367Y4526D01*
Y4522D01*
X3382Y4792D02*
X3386D01*
X3390Y4796D01*
X3394Y4792D01*
X3398D01*
Y4796D01*
X3394Y4800D01*
X3398Y4804D01*
Y4808D01*
X3394D01*
X3390Y4804D01*
X3386Y4808D01*
X3382D01*
Y4804D01*
X3386Y4800D01*
X3382Y4796D01*
Y4792D01*
X4157Y4932D02*
X4161D01*
X4165Y4936D01*
X4169Y4932D01*
X4173D01*
Y4936D01*
X4169Y4940D01*
X4173Y4944D01*
Y4948D01*
X4169D01*
X4165Y4944D01*
X4161Y4948D01*
X4157D01*
Y4944D01*
X4161Y4940D01*
X4157Y4936D01*
Y4932D01*
X3772Y4652D02*
X3776D01*
X3780Y4656D01*
X3784Y4652D01*
X3788D01*
Y4656D01*
X3784Y4660D01*
X3788Y4664D01*
Y4668D01*
X3784D01*
X3780Y4664D01*
X3776Y4668D01*
X3772D01*
Y4664D01*
X3776Y4660D01*
X3772Y4656D01*
Y4652D01*
X3567D02*
X3571D01*
X3575Y4656D01*
X3579Y4652D01*
X3583D01*
Y4656D01*
X3579Y4660D01*
X3583Y4664D01*
Y4668D01*
X3579D01*
X3575Y4664D01*
X3571Y4668D01*
X3567D01*
Y4664D01*
X3571Y4660D01*
X3567Y4656D01*
Y4652D01*
X3827Y4507D02*
X3831D01*
X3835Y4511D01*
X3839Y4507D01*
X3843D01*
Y4511D01*
X3839Y4515D01*
X3843Y4519D01*
Y4523D01*
X3839D01*
X3835Y4519D01*
X3831Y4523D01*
X3827D01*
Y4519D01*
X3831Y4515D01*
X3827Y4511D01*
Y4507D01*
X3587Y3482D02*
X3591D01*
X3595Y3486D01*
X3599Y3482D01*
X3603D01*
Y3486D01*
X3599Y3490D01*
X3603Y3494D01*
Y3498D01*
X3599D01*
X3595Y3494D01*
X3591Y3498D01*
X3587D01*
Y3494D01*
X3591Y3490D01*
X3587Y3486D01*
Y3482D01*
X3487Y3492D02*
X3491D01*
X3495Y3496D01*
X3499Y3492D01*
X3503D01*
Y3496D01*
X3499Y3500D01*
X3503Y3504D01*
Y3508D01*
X3499D01*
X3495Y3504D01*
X3491Y3508D01*
X3487D01*
Y3504D01*
X3491Y3500D01*
X3487Y3496D01*
Y3492D01*
X3132Y3542D02*
X3136D01*
X3140Y3546D01*
X3144Y3542D01*
X3148D01*
Y3546D01*
X3144Y3550D01*
X3148Y3554D01*
Y3558D01*
X3144D01*
X3140Y3554D01*
X3136Y3558D01*
X3132D01*
Y3554D01*
X3136Y3550D01*
X3132Y3546D01*
Y3542D01*
X3337Y3405D02*
X3341D01*
X3345Y3409D01*
X3349Y3405D01*
X3353D01*
Y3409D01*
X3349Y3413D01*
X3353Y3417D01*
Y3421D01*
X3349D01*
X3345Y3417D01*
X3341Y3421D01*
X3337D01*
Y3417D01*
X3341Y3413D01*
X3337Y3409D01*
Y3405D01*
X4036Y3223D02*
X4040D01*
X4044Y3227D01*
X4048Y3223D01*
X4052D01*
Y3227D01*
X4048Y3231D01*
X4052Y3235D01*
Y3239D01*
X4048D01*
X4044Y3235D01*
X4040Y3239D01*
X4036D01*
Y3235D01*
X4040Y3231D01*
X4036Y3227D01*
Y3223D01*
X4552Y2297D02*
X4556D01*
X4560Y2301D01*
X4564Y2297D01*
X4568D01*
Y2301D01*
X4564Y2305D01*
X4568Y2309D01*
Y2313D01*
X4564D01*
X4560Y2309D01*
X4556Y2313D01*
X4552D01*
Y2309D01*
X4556Y2305D01*
X4552Y2301D01*
Y2297D01*
X4327Y1822D02*
X4331D01*
X4335Y1826D01*
X4339Y1822D01*
X4343D01*
Y1826D01*
X4339Y1830D01*
X4343Y1834D01*
Y1838D01*
X4339D01*
X4335Y1834D01*
X4331Y1838D01*
X4327D01*
Y1834D01*
X4331Y1830D01*
X4327Y1826D01*
Y1822D01*
X3237Y3657D02*
X3241D01*
X3245Y3661D01*
X3249Y3657D01*
X3253D01*
Y3661D01*
X3249Y3665D01*
X3253Y3669D01*
Y3673D01*
X3249D01*
X3245Y3669D01*
X3241Y3673D01*
X3237D01*
Y3669D01*
X3241Y3665D01*
X3237Y3661D01*
Y3657D01*
X2847Y4092D02*
X2851D01*
X2855Y4096D01*
X2859Y4092D01*
X2863D01*
Y4096D01*
X2859Y4100D01*
X2863Y4104D01*
Y4108D01*
X2859D01*
X2855Y4104D01*
X2851Y4108D01*
X2847D01*
Y4104D01*
X2851Y4100D01*
X2847Y4096D01*
Y4092D01*
X2737Y4042D02*
X2741D01*
X2745Y4046D01*
X2749Y4042D01*
X2753D01*
Y4046D01*
X2749Y4050D01*
X2753Y4054D01*
Y4058D01*
X2749D01*
X2745Y4054D01*
X2741Y4058D01*
X2737D01*
Y4054D01*
X2741Y4050D01*
X2737Y4046D01*
Y4042D01*
X2842Y3952D02*
X2846D01*
X2850Y3956D01*
X2854Y3952D01*
X2858D01*
Y3956D01*
X2854Y3960D01*
X2858Y3964D01*
Y3968D01*
X2854D01*
X2850Y3964D01*
X2846Y3968D01*
X2842D01*
Y3964D01*
X2846Y3960D01*
X2842Y3956D01*
Y3952D01*
X2982Y3887D02*
X2986D01*
X2990Y3891D01*
X2994Y3887D01*
X2998D01*
Y3891D01*
X2994Y3895D01*
X2998Y3899D01*
Y3903D01*
X2994D01*
X2990Y3899D01*
X2986Y3903D01*
X2982D01*
Y3899D01*
X2986Y3895D01*
X2982Y3891D01*
Y3887D01*
X3132Y4197D02*
X3136D01*
X3140Y4201D01*
X3144Y4197D01*
X3148D01*
Y4201D01*
X3144Y4205D01*
X3148Y4209D01*
Y4213D01*
X3144D01*
X3140Y4209D01*
X3136Y4213D01*
X3132D01*
Y4209D01*
X3136Y4205D01*
X3132Y4201D01*
Y4197D01*
X3097Y3087D02*
X3101D01*
X3105Y3091D01*
X3109Y3087D01*
X3113D01*
Y3091D01*
X3109Y3095D01*
X3113Y3099D01*
Y3103D01*
X3109D01*
X3105Y3099D01*
X3101Y3103D01*
X3097D01*
Y3099D01*
X3101Y3095D01*
X3097Y3091D01*
Y3087D01*
X3732Y2662D02*
X3736D01*
X3740Y2666D01*
X3744Y2662D01*
X3748D01*
Y2666D01*
X3744Y2670D01*
X3748Y2674D01*
Y2678D01*
X3744D01*
X3740Y2674D01*
X3736Y2678D01*
X3732D01*
Y2674D01*
X3736Y2670D01*
X3732Y2666D01*
Y2662D01*
X4127Y3892D02*
X4131D01*
X4135Y3896D01*
X4139Y3892D01*
X4143D01*
Y3896D01*
X4139Y3900D01*
X4143Y3904D01*
Y3908D01*
X4139D01*
X4135Y3904D01*
X4131Y3908D01*
X4127D01*
Y3904D01*
X4131Y3900D01*
X4127Y3896D01*
Y3892D01*
X4187Y4017D02*
X4191D01*
X4195Y4021D01*
X4199Y4017D01*
X4203D01*
Y4021D01*
X4199Y4025D01*
X4203Y4029D01*
Y4033D01*
X4199D01*
X4195Y4029D01*
X4191Y4033D01*
X4187D01*
Y4029D01*
X4191Y4025D01*
X4187Y4021D01*
Y4017D01*
X4182Y4117D02*
X4186D01*
X4190Y4121D01*
X4194Y4117D01*
X4198D01*
Y4121D01*
X4194Y4125D01*
X4198Y4129D01*
Y4133D01*
X4194D01*
X4190Y4129D01*
X4186Y4133D01*
X4182D01*
Y4129D01*
X4186Y4125D01*
X4182Y4121D01*
Y4117D01*
Y4207D02*
X4186D01*
X4190Y4211D01*
X4194Y4207D01*
X4198D01*
Y4211D01*
X4194Y4215D01*
X4198Y4219D01*
Y4223D01*
X4194D01*
X4190Y4219D01*
X4186Y4223D01*
X4182D01*
Y4219D01*
X4186Y4215D01*
X4182Y4211D01*
Y4207D01*
X4257Y4087D02*
X4261D01*
X4265Y4091D01*
X4269Y4087D01*
X4273D01*
Y4091D01*
X4269Y4095D01*
X4273Y4099D01*
Y4103D01*
X4269D01*
X4265Y4099D01*
X4261Y4103D01*
X4257D01*
Y4099D01*
X4261Y4095D01*
X4257Y4091D01*
Y4087D01*
X3097Y3757D02*
X3101D01*
X3105Y3761D01*
X3109Y3757D01*
X3113D01*
Y3761D01*
X3109Y3765D01*
X3113Y3769D01*
Y3773D01*
X3109D01*
X3105Y3769D01*
X3101Y3773D01*
X3097D01*
Y3769D01*
X3101Y3765D01*
X3097Y3761D01*
Y3757D01*
X2972Y3027D02*
X2976D01*
X2980Y3031D01*
X2984Y3027D01*
X2988D01*
Y3031D01*
X2984Y3035D01*
X2988Y3039D01*
Y3043D01*
X2984D01*
X2980Y3039D01*
X2976Y3043D01*
X2972D01*
Y3039D01*
X2976Y3035D01*
X2972Y3031D01*
Y3027D01*
X3457Y3612D02*
X3461D01*
X3465Y3616D01*
X3469Y3612D01*
X3473D01*
Y3616D01*
X3469Y3620D01*
X3473Y3624D01*
Y3628D01*
X3469D01*
X3465Y3624D01*
X3461Y3628D01*
X3457D01*
Y3624D01*
X3461Y3620D01*
X3457Y3616D01*
Y3612D01*
X3842Y3442D02*
X3846D01*
X3850Y3446D01*
X3854Y3442D01*
X3858D01*
Y3446D01*
X3854Y3450D01*
X3858Y3454D01*
Y3458D01*
X3854D01*
X3850Y3454D01*
X3846Y3458D01*
X3842D01*
Y3454D01*
X3846Y3450D01*
X3842Y3446D01*
Y3442D01*
X3757Y3412D02*
X3761D01*
X3765Y3416D01*
X3769Y3412D01*
X3773D01*
Y3416D01*
X3769Y3420D01*
X3773Y3424D01*
Y3428D01*
X3769D01*
X3765Y3424D01*
X3761Y3428D01*
X3757D01*
Y3424D01*
X3761Y3420D01*
X3757Y3416D01*
Y3412D01*
X3922Y3652D02*
X3926D01*
X3930Y3656D01*
X3934Y3652D01*
X3938D01*
Y3656D01*
X3934Y3660D01*
X3938Y3664D01*
Y3668D01*
X3934D01*
X3930Y3664D01*
X3926Y3668D01*
X3922D01*
Y3664D01*
X3926Y3660D01*
X3922Y3656D01*
Y3652D01*
X2367Y1927D02*
X2371D01*
X2375Y1931D01*
X2379Y1927D01*
X2383D01*
Y1931D01*
X2379Y1935D01*
X2383Y1939D01*
Y1943D01*
X2379D01*
X2375Y1939D01*
X2371Y1943D01*
X2367D01*
Y1939D01*
X2371Y1935D01*
X2367Y1931D01*
Y1927D01*
X2302Y1862D02*
X2306D01*
X2310Y1866D01*
X2314Y1862D01*
X2318D01*
Y1866D01*
X2314Y1870D01*
X2318Y1874D01*
Y1878D01*
X2314D01*
X2310Y1874D01*
X2306Y1878D01*
X2302D01*
Y1874D01*
X2306Y1870D01*
X2302Y1866D01*
Y1862D01*
X2917Y2062D02*
X2921D01*
X2925Y2066D01*
X2929Y2062D01*
X2933D01*
Y2066D01*
X2929Y2070D01*
X2933Y2074D01*
Y2078D01*
X2929D01*
X2925Y2074D01*
X2921Y2078D01*
X2917D01*
Y2074D01*
X2921Y2070D01*
X2917Y2066D01*
Y2062D01*
X3982Y3747D02*
X3986D01*
X3990Y3751D01*
X3994Y3747D01*
X3998D01*
Y3751D01*
X3994Y3755D01*
X3998Y3759D01*
Y3763D01*
X3994D01*
X3990Y3759D01*
X3986Y3763D01*
X3982D01*
Y3759D01*
X3986Y3755D01*
X3982Y3751D01*
Y3747D01*
X4087Y3512D02*
X4091D01*
X4095Y3516D01*
X4099Y3512D01*
X4103D01*
Y3516D01*
X4099Y3520D01*
X4103Y3524D01*
Y3528D01*
X4099D01*
X4095Y3524D01*
X4091Y3528D01*
X4087D01*
Y3524D01*
X4091Y3520D01*
X4087Y3516D01*
Y3512D01*
X4062Y3382D02*
X4066D01*
X4070Y3386D01*
X4074Y3382D01*
X4078D01*
Y3386D01*
X4074Y3390D01*
X4078Y3394D01*
Y3398D01*
X4074D01*
X4070Y3394D01*
X4066Y3398D01*
X4062D01*
Y3394D01*
X4066Y3390D01*
X4062Y3386D01*
Y3382D01*
X2052Y2802D02*
X2056D01*
X2060Y2806D01*
X2064Y2802D01*
X2068D01*
Y2806D01*
X2064Y2810D01*
X2068Y2814D01*
Y2818D01*
X2064D01*
X2060Y2814D01*
X2056Y2818D01*
X2052D01*
Y2814D01*
X2056Y2810D01*
X2052Y2806D01*
Y2802D01*
X2062Y3422D02*
X2066D01*
X2070Y3426D01*
X2074Y3422D01*
X2078D01*
Y3426D01*
X2074Y3430D01*
X2078Y3434D01*
Y3438D01*
X2074D01*
X2070Y3434D01*
X2066Y3438D01*
X2062D01*
Y3434D01*
X2066Y3430D01*
X2062Y3426D01*
Y3422D01*
X2022Y4132D02*
X2026D01*
X2030Y4136D01*
X2034Y4132D01*
X2038D01*
Y4136D01*
X2034Y4140D01*
X2038Y4144D01*
Y4148D01*
X2034D01*
X2030Y4144D01*
X2026Y4148D01*
X2022D01*
Y4144D01*
X2026Y4140D01*
X2022Y4136D01*
Y4132D01*
X2032Y4727D02*
X2036D01*
X2040Y4731D01*
X2044Y4727D01*
X2048D01*
Y4731D01*
X2044Y4735D01*
X2048Y4739D01*
Y4743D01*
X2044D01*
X2040Y4739D01*
X2036Y4743D01*
X2032D01*
Y4739D01*
X2036Y4735D01*
X2032Y4731D01*
Y4727D01*
X1957Y6057D02*
X1961D01*
X1965Y6061D01*
X1969Y6057D01*
X1973D01*
Y6061D01*
X1969Y6065D01*
X1973Y6069D01*
Y6073D01*
X1969D01*
X1965Y6069D01*
X1961Y6073D01*
X1957D01*
Y6069D01*
X1961Y6065D01*
X1957Y6061D01*
Y6057D01*
X2052Y5392D02*
X2056D01*
X2060Y5396D01*
X2064Y5392D01*
X2068D01*
Y5396D01*
X2064Y5400D01*
X2068Y5404D01*
Y5408D01*
X2064D01*
X2060Y5404D01*
X2056Y5408D01*
X2052D01*
Y5404D01*
X2056Y5400D01*
X2052Y5396D01*
Y5392D01*
X2967Y6269D02*
X2971D01*
X2975Y6273D01*
X2979Y6269D01*
X2983D01*
Y6273D01*
X2979Y6277D01*
X2983Y6281D01*
Y6285D01*
X2979D01*
X2975Y6281D01*
X2971Y6285D01*
X2967D01*
Y6281D01*
X2971Y6277D01*
X2967Y6273D01*
Y6269D01*
X2582Y6252D02*
X2586D01*
X2590Y6256D01*
X2594Y6252D01*
X2598D01*
Y6256D01*
X2594Y6260D01*
X2598Y6264D01*
Y6268D01*
X2594D01*
X2590Y6264D01*
X2586Y6268D01*
X2582D01*
Y6264D01*
X2586Y6260D01*
X2582Y6256D01*
Y6252D01*
X3432Y5362D02*
X3436D01*
X3440Y5366D01*
X3444Y5362D01*
X3448D01*
Y5366D01*
X3444Y5370D01*
X3448Y5374D01*
Y5378D01*
X3444D01*
X3440Y5374D01*
X3436Y5378D01*
X3432D01*
Y5374D01*
X3436Y5370D01*
X3432Y5366D01*
Y5362D01*
X2982Y5287D02*
X2986D01*
X2990Y5291D01*
X2994Y5287D01*
X2998D01*
Y5291D01*
X2994Y5295D01*
X2998Y5299D01*
Y5303D01*
X2994D01*
X2990Y5299D01*
X2986Y5303D01*
X2982D01*
Y5299D01*
X2986Y5295D01*
X2982Y5291D01*
Y5287D01*
X2538Y3048D02*
X2542D01*
X2546Y3052D01*
X2550Y3048D01*
X2554D01*
Y3052D01*
X2550Y3056D01*
X2554Y3060D01*
Y3064D01*
X2550D01*
X2546Y3060D01*
X2542Y3064D01*
X2538D01*
Y3060D01*
X2542Y3056D01*
X2538Y3052D01*
Y3048D01*
X3446Y2967D02*
X3450D01*
X3454Y2971D01*
X3458Y2967D01*
X3462D01*
Y2971D01*
X3458Y2975D01*
X3462Y2979D01*
Y2983D01*
X3458D01*
X3454Y2979D01*
X3450Y2983D01*
X3446D01*
Y2979D01*
X3450Y2975D01*
X3446Y2971D01*
Y2967D01*
X2797Y3457D02*
X2801D01*
X2805Y3461D01*
X2809Y3457D01*
X2813D01*
Y3461D01*
X2809Y3465D01*
X2813Y3469D01*
Y3473D01*
X2809D01*
X2805Y3469D01*
X2801Y3473D01*
X2797D01*
Y3469D01*
X2801Y3465D01*
X2797Y3461D01*
Y3457D01*
X2417Y3442D02*
X2421D01*
X2425Y3446D01*
X2429Y3442D01*
X2433D01*
Y3446D01*
X2429Y3450D01*
X2433Y3454D01*
Y3458D01*
X2429D01*
X2425Y3454D01*
X2421Y3458D01*
X2417D01*
Y3454D01*
X2421Y3450D01*
X2417Y3446D01*
Y3442D01*
X2337Y4377D02*
X2341D01*
X2345Y4381D01*
X2349Y4377D01*
X2353D01*
Y4381D01*
X2349Y4385D01*
X2353Y4389D01*
Y4393D01*
X2349D01*
X2345Y4389D01*
X2341Y4393D01*
X2337D01*
Y4389D01*
X2341Y4385D01*
X2337Y4381D01*
Y4377D01*
X2523Y4888D02*
X2527D01*
X2531Y4892D01*
X2535Y4888D01*
X2539D01*
Y4892D01*
X2535Y4896D01*
X2539Y4900D01*
Y4904D01*
X2535D01*
X2531Y4900D01*
X2527Y4904D01*
X2523D01*
Y4900D01*
X2527Y4896D01*
X2523Y4892D01*
Y4888D01*
X2382Y5117D02*
X2386D01*
X2390Y5121D01*
X2394Y5117D01*
X2398D01*
Y5121D01*
X2394Y5125D01*
X2398Y5129D01*
Y5133D01*
X2394D01*
X2390Y5129D01*
X2386Y5133D01*
X2382D01*
Y5129D01*
X2386Y5125D01*
X2382Y5121D01*
Y5117D01*
X2202Y5667D02*
X2206D01*
X2210Y5671D01*
X2214Y5667D01*
X2218D01*
Y5671D01*
X2214Y5675D01*
X2218Y5679D01*
Y5683D01*
X2214D01*
X2210Y5679D01*
X2206Y5683D01*
X2202D01*
Y5679D01*
X2206Y5675D01*
X2202Y5671D01*
Y5667D01*
X1742Y6067D02*
X1746D01*
X1750Y6071D01*
X1754Y6067D01*
X1758D01*
Y6071D01*
X1754Y6075D01*
X1758Y6079D01*
Y6083D01*
X1754D01*
X1750Y6079D01*
X1746Y6083D01*
X1742D01*
Y6079D01*
X1746Y6075D01*
X1742Y6071D01*
Y6067D01*
X1692Y5582D02*
X1696D01*
X1700Y5586D01*
X1704Y5582D01*
X1708D01*
Y5586D01*
X1704Y5590D01*
X1708Y5594D01*
Y5598D01*
X1704D01*
X1700Y5594D01*
X1696Y5598D01*
X1692D01*
Y5594D01*
X1696Y5590D01*
X1692Y5586D01*
Y5582D01*
X1717Y4872D02*
X1721D01*
X1725Y4876D01*
X1729Y4872D01*
X1733D01*
Y4876D01*
X1729Y4880D01*
X1733Y4884D01*
Y4888D01*
X1729D01*
X1725Y4884D01*
X1721Y4888D01*
X1717D01*
Y4884D01*
X1721Y4880D01*
X1717Y4876D01*
Y4872D01*
X1702Y4252D02*
X1706D01*
X1710Y4256D01*
X1714Y4252D01*
X1718D01*
Y4256D01*
X1714Y4260D01*
X1718Y4264D01*
Y4268D01*
X1714D01*
X1710Y4264D01*
X1706Y4268D01*
X1702D01*
Y4264D01*
X1706Y4260D01*
X1702Y4256D01*
Y4252D01*
X1720Y3582D02*
X1724D01*
X1728Y3586D01*
X1732Y3582D01*
X1736D01*
Y3586D01*
X1732Y3590D01*
X1736Y3594D01*
Y3598D01*
X1732D01*
X1728Y3594D01*
X1724Y3598D01*
X1720D01*
Y3594D01*
X1724Y3590D01*
X1720Y3586D01*
Y3582D01*
X1727Y2342D02*
X1731D01*
X1735Y2346D01*
X1739Y2342D01*
X1743D01*
Y2346D01*
X1739Y2350D01*
X1743Y2354D01*
Y2358D01*
X1739D01*
X1735Y2354D01*
X1731Y2358D01*
X1727D01*
Y2354D01*
X1731Y2350D01*
X1727Y2346D01*
Y2342D01*
X2337Y2417D02*
X2341D01*
X2345Y2421D01*
X2349Y2417D01*
X2353D01*
Y2421D01*
X2349Y2425D01*
X2353Y2429D01*
Y2433D01*
X2349D01*
X2345Y2429D01*
X2341Y2433D01*
X2337D01*
Y2429D01*
X2341Y2425D01*
X2337Y2421D01*
Y2417D01*
X2452Y2547D02*
X2456D01*
X2460Y2551D01*
X2464Y2547D01*
X2468D01*
Y2551D01*
X2464Y2555D01*
X2468Y2559D01*
Y2563D01*
X2464D01*
X2460Y2559D01*
X2456Y2563D01*
X2452D01*
Y2559D01*
X2456Y2555D01*
X2452Y2551D01*
Y2547D01*
X3042Y1492D02*
X3046D01*
X3050Y1496D01*
X3054Y1492D01*
X3058D01*
Y1496D01*
X3054Y1500D01*
X3058Y1504D01*
Y1508D01*
X3054D01*
X3050Y1504D01*
X3046Y1508D01*
X3042D01*
Y1504D01*
X3046Y1500D01*
X3042Y1496D01*
Y1492D01*
X2180Y2189D02*
X2184D01*
X2188Y2193D01*
X2192Y2189D01*
X2196D01*
Y2193D01*
X2192Y2197D01*
X2196Y2201D01*
Y2205D01*
X2192D01*
X2188Y2201D01*
X2184Y2205D01*
X2180D01*
Y2201D01*
X2184Y2197D01*
X2180Y2193D01*
Y2189D01*
X2372Y942D02*
X2376D01*
X2380Y946D01*
X2384Y942D01*
X2388D01*
Y946D01*
X2384Y950D01*
X2388Y954D01*
Y958D01*
X2384D01*
X2380Y954D01*
X2376Y958D01*
X2372D01*
Y954D01*
X2376Y950D01*
X2372Y946D01*
Y942D01*
X1582Y987D02*
X1586D01*
X1590Y991D01*
X1594Y987D01*
X1598D01*
Y991D01*
X1594Y995D01*
X1598Y999D01*
Y1003D01*
X1594D01*
X1590Y999D01*
X1586Y1003D01*
X1582D01*
Y999D01*
X1586Y995D01*
X1582Y991D01*
Y987D01*
X1262Y1142D02*
X1266D01*
X1270Y1146D01*
X1274Y1142D01*
X1278D01*
Y1146D01*
X1274Y1150D01*
X1278Y1154D01*
Y1158D01*
X1274D01*
X1270Y1154D01*
X1266Y1158D01*
X1262D01*
Y1154D01*
X1266Y1150D01*
X1262Y1146D01*
Y1142D01*
X1202Y737D02*
X1206D01*
X1210Y741D01*
X1214Y737D01*
X1218D01*
Y741D01*
X1214Y745D01*
X1218Y749D01*
Y753D01*
X1214D01*
X1210Y749D01*
X1206Y753D01*
X1202D01*
Y749D01*
X1206Y745D01*
X1202Y741D01*
Y737D01*
X1472Y747D02*
X1476D01*
X1480Y751D01*
X1484Y747D01*
X1488D01*
Y751D01*
X1484Y755D01*
X1488Y759D01*
Y763D01*
X1484D01*
X1480Y759D01*
X1476Y763D01*
X1472D01*
Y759D01*
X1476Y755D01*
X1472Y751D01*
Y747D01*
X3582Y3557D02*
X3586D01*
X3590Y3561D01*
X3594Y3557D01*
X3598D01*
Y3561D01*
X3594Y3565D01*
X3598Y3569D01*
Y3573D01*
X3594D01*
X3590Y3569D01*
X3586Y3573D01*
X3582D01*
Y3569D01*
X3586Y3565D01*
X3582Y3561D01*
Y3557D01*
X2354Y5219D02*
X2358D01*
X2362Y5223D01*
X2366Y5219D01*
X2370D01*
Y5223D01*
X2366Y5227D01*
X2370Y5231D01*
Y5235D01*
X2366D01*
X2362Y5231D01*
X2358Y5235D01*
X2354D01*
Y5231D01*
X2358Y5227D01*
X2354Y5223D01*
Y5219D01*
X4147Y4652D02*
X4151D01*
X4155Y4656D01*
X4159Y4652D01*
X4163D01*
Y4656D01*
X4159Y4660D01*
X4163Y4664D01*
Y4668D01*
X4159D01*
X4155Y4664D01*
X4151Y4668D01*
X4147D01*
Y4664D01*
X4151Y4660D01*
X4147Y4656D01*
Y4652D01*
Y4527D02*
X4151D01*
X4155Y4531D01*
X4159Y4527D01*
X4163D01*
Y4531D01*
X4159Y4535D01*
X4163Y4539D01*
Y4543D01*
X4159D01*
X4155Y4539D01*
X4151Y4543D01*
X4147D01*
Y4539D01*
X4151Y4535D01*
X4147Y4531D01*
Y4527D01*
Y4442D02*
X4151D01*
X4155Y4446D01*
X4159Y4442D01*
X4163D01*
Y4446D01*
X4159Y4450D01*
X4163Y4454D01*
Y4458D01*
X4159D01*
X4155Y4454D01*
X4151Y4458D01*
X4147D01*
Y4454D01*
X4151Y4450D01*
X4147Y4446D01*
Y4442D01*
Y4347D02*
X4151D01*
X4155Y4351D01*
X4159Y4347D01*
X4163D01*
Y4351D01*
X4159Y4355D01*
X4163Y4359D01*
Y4363D01*
X4159D01*
X4155Y4359D01*
X4151Y4363D01*
X4147D01*
Y4359D01*
X4151Y4355D01*
X4147Y4351D01*
Y4347D01*
X3192Y3927D02*
X3196D01*
X3200Y3931D01*
X3204Y3927D01*
X3208D01*
Y3931D01*
X3204Y3935D01*
X3208Y3939D01*
Y3943D01*
X3204D01*
X3200Y3939D01*
X3196Y3943D01*
X3192D01*
Y3939D01*
X3196Y3935D01*
X3192Y3931D01*
Y3927D01*
X4112Y4267D02*
X4116D01*
X4120Y4271D01*
X4124Y4267D01*
X4128D01*
Y4271D01*
X4124Y4275D01*
X4128Y4279D01*
Y4283D01*
X4124D01*
X4120Y4279D01*
X4116Y4283D01*
X4112D01*
Y4279D01*
X4116Y4275D01*
X4112Y4271D01*
Y4267D01*
X4707Y3967D02*
X4711D01*
X4715Y3971D01*
X4719Y3967D01*
X4723D01*
Y3971D01*
X4719Y3975D01*
X4723Y3979D01*
Y3983D01*
X4719D01*
X4715Y3979D01*
X4711Y3983D01*
X4707D01*
Y3979D01*
X4711Y3975D01*
X4707Y3971D01*
Y3967D01*
X4702Y3887D02*
X4706D01*
X4710Y3891D01*
X4714Y3887D01*
X4718D01*
Y3891D01*
X4714Y3895D01*
X4718Y3899D01*
Y3903D01*
X4714D01*
X4710Y3899D01*
X4706Y3903D01*
X4702D01*
Y3899D01*
X4706Y3895D01*
X4702Y3891D01*
Y3887D01*
Y3807D02*
X4706D01*
X4710Y3811D01*
X4714Y3807D01*
X4718D01*
Y3811D01*
X4714Y3815D01*
X4718Y3819D01*
Y3823D01*
X4714D01*
X4710Y3819D01*
X4706Y3823D01*
X4702D01*
Y3819D01*
X4706Y3815D01*
X4702Y3811D01*
Y3807D01*
X2592Y4957D02*
X2596D01*
X2600Y4961D01*
X2604Y4957D01*
X2608D01*
Y4961D01*
X2604Y4965D01*
X2608Y4969D01*
Y4973D01*
X2604D01*
X2600Y4969D01*
X2596Y4973D01*
X2592D01*
Y4969D01*
X2596Y4965D01*
X2592Y4961D01*
Y4957D01*
X4244Y4922D02*
X4248D01*
X4252Y4926D01*
X4256Y4922D01*
X4260D01*
Y4926D01*
X4256Y4930D01*
X4260Y4934D01*
Y4938D01*
X4256D01*
X4252Y4934D01*
X4248Y4938D01*
X4244D01*
Y4934D01*
X4248Y4930D01*
X4244Y4926D01*
Y4922D01*
X2997Y4117D02*
X3001D01*
X3005Y4121D01*
X3009Y4117D01*
X3013D01*
Y4121D01*
X3009Y4125D01*
X3013Y4129D01*
Y4133D01*
X3009D01*
X3005Y4129D01*
X3001Y4133D01*
X2997D01*
Y4129D01*
X3001Y4125D01*
X2997Y4121D01*
Y4117D01*
X3972Y5192D02*
X3976D01*
X3980Y5196D01*
X3984Y5192D01*
X3988D01*
Y5196D01*
X3984Y5200D01*
X3988Y5204D01*
Y5208D01*
X3984D01*
X3980Y5204D01*
X3976Y5208D01*
X3972D01*
Y5204D01*
X3976Y5200D01*
X3972Y5196D01*
Y5192D01*
D177*
X5365Y3727D02*
G03*
X5365Y3727I-8J0D01*
G01*
X5051D02*
G03*
X5051Y3727I-8J0D01*
G01*
X5365Y3963D02*
G03*
X5365Y3963I-8J0D01*
G01*
X5051D02*
G03*
X5051Y3963I-8J0D01*
G01*
X5360Y3227D02*
G03*
X5360Y3227I-8J0D01*
G01*
X5046D02*
G03*
X5046Y3227I-8J0D01*
G01*
X5360Y3463D02*
G03*
X5360Y3463I-8J0D01*
G01*
X5046D02*
G03*
X5046Y3463I-8J0D01*
G01*
X3135Y2667D02*
G03*
X3135Y2667I-8J0D01*
G01*
X2821D02*
G03*
X2821Y2667I-8J0D01*
G01*
X3135Y2903D02*
G03*
X3135Y2903I-8J0D01*
G01*
X2821D02*
G03*
X2821Y2903I-8J0D01*
G01*
M02*
