G04*
G04 #@! TF.GenerationSoftware,Altium Limited,Altium Designer,22.1.2 (22)*
G04*
G04 Layer_Physical_Order=3*
G04 Layer_Color=36540*
%FSLAX23Y23*%
%MOIN*%
G70*
G04*
G04 #@! TF.SameCoordinates,EFA1FED7-213C-4DAE-99C9-92C2F6BD185D*
G04*
G04*
G04 #@! TF.FilePolarity,Positive*
G04*
G01*
G75*
%ADD15C,0.010*%
%ADD70R,0.061X0.061*%
%ADD135C,0.061*%
%ADD138C,0.045*%
%ADD147R,0.097X0.097*%
%ADD148C,0.097*%
%ADD149R,0.103X0.103*%
%ADD150C,0.103*%
%ADD151R,0.083X0.083*%
%ADD152C,0.083*%
%ADD153C,0.012*%
%ADD154R,0.083X0.083*%
%ADD155C,0.050*%
G04:AMPARAMS|DCode=166|XSize=58mil|YSize=11mil|CornerRadius=1mil|HoleSize=0mil|Usage=FLASHONLY|Rotation=270.000|XOffset=0mil|YOffset=0mil|HoleType=Round|Shape=RoundedRectangle|*
%AMROUNDEDRECTD166*
21,1,0.058,0.008,0,0,270.0*
21,1,0.055,0.011,0,0,270.0*
1,1,0.003,-0.004,-0.028*
1,1,0.003,-0.004,0.028*
1,1,0.003,0.004,0.028*
1,1,0.003,0.004,-0.028*
%
%ADD166ROUNDEDRECTD166*%
G04:AMPARAMS|DCode=167|XSize=58mil|YSize=11mil|CornerRadius=1mil|HoleSize=0mil|Usage=FLASHONLY|Rotation=180.000|XOffset=0mil|YOffset=0mil|HoleType=Round|Shape=RoundedRectangle|*
%AMROUNDEDRECTD167*
21,1,0.058,0.008,0,0,180.0*
21,1,0.055,0.011,0,0,180.0*
1,1,0.003,-0.028,0.004*
1,1,0.003,0.028,0.004*
1,1,0.003,0.028,-0.004*
1,1,0.003,-0.028,-0.004*
%
%ADD167ROUNDEDRECTD167*%
D15*
X3509Y3713D02*
Y3746D01*
X3510Y3747D01*
X3489Y3693D02*
X3509Y3713D01*
X3482Y3708D02*
X3489Y3715D01*
X3451Y3708D02*
X3482D01*
X3489Y3746D02*
X3490Y3747D01*
X3489Y3715D02*
Y3746D01*
X3473Y3655D02*
X3529Y3711D01*
X3530Y3590D02*
Y3691D01*
X3548Y3710D01*
X3465Y3620D02*
X3473Y3628D01*
X3569Y3709D02*
Y3747D01*
X3545Y3500D02*
Y3685D01*
X3569Y3709D01*
X3548Y3710D02*
Y3746D01*
X3529Y3711D02*
Y3746D01*
X3473Y3628D02*
Y3655D01*
X2910Y4860D02*
X2914D01*
X2944Y4890D01*
X4212D01*
X4790Y6035D02*
X4820Y6005D01*
X4920D01*
X4790Y6035D02*
Y6115D01*
X4920Y6660D02*
Y7150D01*
X4745Y6485D02*
X4920Y6660D01*
Y7150D02*
X5005Y7235D01*
X2980Y3305D02*
X3265Y3590D01*
X2980Y3035D02*
Y3305D01*
X4645Y7175D02*
X4860D01*
X4970Y7285D01*
X4615Y7145D02*
X4645Y7175D01*
X5370Y6945D02*
X5400Y6975D01*
X5575D01*
X5370Y6900D02*
Y6945D01*
X5115Y6980D02*
X5290D01*
X4970Y7285D02*
Y7600D01*
X5290Y6980D02*
X5370Y6900D01*
Y6405D02*
Y6900D01*
X5425Y6350D02*
X5509D01*
X5370Y6405D02*
X5425Y6350D01*
X5515Y5995D02*
Y6344D01*
X5509Y6350D02*
X5515Y6344D01*
X5485Y5965D02*
X5515Y5995D01*
X5055Y5965D02*
X5485D01*
X5040Y5950D02*
X5055Y5965D01*
X5040Y5885D02*
Y5950D01*
X4885Y5730D02*
X5040Y5885D01*
X4885Y5640D02*
Y5730D01*
X4735Y5785D02*
X4740D01*
X4885Y5640D01*
X4920Y6005D02*
X4985Y5940D01*
X4990D01*
X4767Y1766D02*
X4915Y1914D01*
Y2255D01*
X3245Y3665D02*
X3408D01*
X3046D02*
X3245D01*
X4615Y7090D02*
Y7145D01*
Y7090D02*
X4690Y7015D01*
Y6725D02*
Y7015D01*
X5313Y6295D02*
X5338Y6320D01*
X5345D01*
X5175Y6295D02*
X5313D01*
X5105Y6255D02*
X5135D01*
X5175Y6295D01*
X5090Y6270D02*
X5105Y6255D01*
X4980Y6270D02*
X5090D01*
X4950Y6300D02*
X4980Y6270D01*
X4950Y6300D02*
Y6355D01*
X4765Y6140D02*
Y6175D01*
X4760Y6180D02*
X4765Y6175D01*
Y6140D02*
X4790Y6115D01*
X4760Y6180D02*
Y6190D01*
X4670Y6280D02*
X4760Y6190D01*
X2480Y5520D02*
X2485Y5525D01*
X2445Y5520D02*
X2480D01*
X2362Y5437D02*
X2445Y5520D01*
X2362Y5227D02*
Y5437D01*
X4730Y4135D02*
X4920D01*
X4950Y4105D01*
X4864Y4120D02*
X4925Y4059D01*
Y3480D02*
Y4059D01*
X4740Y4120D02*
X4864D01*
X4649Y4029D02*
X4740Y4120D01*
X4717Y3973D02*
X4755D01*
X4715Y3975D02*
X4717Y3973D01*
X4755D02*
X4770Y3958D01*
Y3690D02*
Y3958D01*
X4631Y4036D02*
X4730Y4135D01*
X4631Y3691D02*
Y4036D01*
X3846Y3615D02*
X4597D01*
X4664Y3682D02*
Y3769D01*
X4025Y3769D02*
Y3769D01*
X3938Y3887D02*
X3942D01*
X3933Y3891D02*
X3938Y3887D01*
X3910Y3891D02*
X3933D01*
X4024Y3771D02*
X4025Y3769D01*
X4129Y3665D02*
X4626D01*
X4597Y3615D02*
X4664Y3682D01*
X4024Y3771D02*
Y3806D01*
X4620Y3680D02*
X4631Y3691D01*
X4626Y3665D02*
X4649Y3688D01*
X3942Y3887D02*
X4024Y3806D01*
X4649Y3688D02*
Y4029D01*
X4025Y3769D02*
X4129Y3665D01*
X4135Y3680D02*
X4620D01*
X4664Y3769D02*
X4710Y3815D01*
X4696Y3671D02*
Y3715D01*
X4625Y3600D02*
X4696Y3671D01*
X4710Y3729D02*
Y3740D01*
X4696Y3715D02*
X4710Y3729D01*
X4105Y3770D02*
X4150Y3725D01*
X4039Y3776D02*
X4135Y3680D01*
X4150Y3725D02*
X4155D01*
X4039Y3776D02*
Y3850D01*
X3942Y3946D02*
X4039Y3850D01*
X3938Y3946D02*
X3942D01*
X3933Y3950D02*
X3938Y3946D01*
X3910Y3950D02*
X3933D01*
X4105Y3770D02*
Y3825D01*
X3960Y3970D02*
X4105Y3825D01*
X3910Y3970D02*
X3960D01*
X3965Y3990D02*
X4150Y3805D01*
X2730Y4510D02*
X2770Y4470D01*
X3396D01*
X3470Y4396D01*
Y4351D02*
Y4396D01*
X3431Y4351D02*
Y4414D01*
X3390Y4455D02*
X3431Y4414D01*
X3030Y4455D02*
X3390D01*
X2695Y4120D02*
X3030Y4455D01*
X4072Y4052D02*
X4102D01*
X4038Y4018D02*
X4072Y4052D01*
X4102D02*
X4110Y4060D01*
X4029Y4089D02*
X4035Y4095D01*
X3911Y4089D02*
X4029D01*
X3910Y4088D02*
X3911Y4089D01*
X4169Y4015D02*
X4171Y4017D01*
X4115Y4015D02*
X4169D01*
X4103Y4003D02*
X4115Y4015D01*
X4187Y4017D02*
X4195Y4025D01*
X4171Y4017D02*
X4187D01*
X4023Y4003D02*
X4103D01*
X4035Y3970D02*
X4130D01*
X3979Y4068D02*
X4029Y4018D01*
X4038D01*
X3977Y4049D02*
X4023Y4003D01*
X3976Y4029D02*
X4035Y3970D01*
X3910Y4068D02*
X3979D01*
X3910Y4009D02*
X3974D01*
X3990Y4167D02*
X4008Y4185D01*
X4092Y4180D02*
X4120D01*
X4008Y4185D02*
X4087D01*
X3910Y4029D02*
X3976D01*
X3993Y4127D02*
X4021Y4155D01*
X4120Y4180D02*
X4128Y4173D01*
X4081Y4170D02*
X4126Y4125D01*
X4074Y4155D02*
X4149Y4080D01*
X4126Y4125D02*
X4190D01*
X3991Y4147D02*
X4014Y4170D01*
X3974Y4009D02*
X4084Y3900D01*
X4021Y4155D02*
X4074D01*
X3910Y4049D02*
X3977D01*
X4087Y4185D02*
X4092Y4180D01*
X4149Y4080D02*
X4239D01*
X4084Y3900D02*
X4135D01*
X4014Y4170D02*
X4081D01*
X3910Y4147D02*
X3991D01*
X3910Y4127D02*
X3993D01*
X3910Y4167D02*
X3990D01*
X3910Y4206D02*
X3965D01*
X3966Y4187D02*
X3995Y4215D01*
X3965Y4206D02*
X4033Y4275D01*
X3910Y4187D02*
X3966D01*
X3954Y4226D02*
X4048Y4320D01*
X3910Y4226D02*
X3954D01*
X3549Y4399D02*
X3585Y4435D01*
Y4445D01*
X3549Y4374D02*
Y4399D01*
X3585Y4395D02*
X3625D01*
X3670Y4440D01*
X3530Y4465D02*
X3585Y4520D01*
X3745D01*
X3790Y4565D01*
Y4575D01*
X3573Y4383D02*
X3585Y4395D01*
X3573Y4378D02*
Y4383D01*
X3569Y4374D02*
X3573Y4378D01*
X3569Y4351D02*
Y4374D01*
X3530Y4351D02*
Y4465D01*
X3490Y4351D02*
Y4415D01*
X3375Y4530D02*
X3490Y4415D01*
X3726Y4351D02*
Y4431D01*
X3804Y4509D01*
X3726Y4327D02*
Y4351D01*
X3804Y4509D02*
X3829D01*
X3835Y4515D01*
X4212Y4890D02*
X4252Y4930D01*
X3529Y4351D02*
X3530Y4351D01*
X3555Y3490D02*
X3595D01*
X3545Y3500D02*
X3555Y3490D01*
X3495Y3500D02*
Y3555D01*
X3530Y3590D01*
X3548Y3746D02*
X3549Y3747D01*
X3529Y3746D02*
X3529Y3747D01*
X3589Y3666D02*
X3590Y3665D01*
X3589Y3666D02*
Y3746D01*
X3470Y4350D02*
X3470Y4351D01*
X3005Y3706D02*
Y3770D01*
Y3706D02*
X3046Y3665D01*
X2695Y3995D02*
Y4120D01*
Y3995D02*
X3140Y3550D01*
X3265Y3590D02*
X3355D01*
X3345Y3413D02*
X3410Y3348D01*
Y3145D02*
Y3348D01*
Y3145D02*
X3465Y3090D01*
X3665D01*
X3806Y3231D01*
X4044D01*
X3005Y3770D02*
X3107Y3872D01*
X3306D01*
X2887Y4068D02*
X3306D01*
X2855Y4100D02*
X2887Y4068D01*
X2745Y4050D02*
X2796D01*
X2816Y4030D01*
X2989D01*
X2850Y3960D02*
X2940D01*
X3009Y4029D01*
X2993Y3892D02*
X3306D01*
X3306Y3891D01*
X2990Y3895D02*
X2993Y3892D01*
X3140Y4205D02*
X3198Y4147D01*
X3306D01*
X3105Y3095D02*
X3110D01*
X3535Y2670D01*
X3740D01*
X3192Y3852D02*
X3306D01*
X3910Y3990D02*
X3965D01*
X3995Y4215D02*
X4190D01*
X4033Y4275D02*
X4120D01*
X4254Y4095D02*
X4265D01*
X4239Y4080D02*
X4254Y4095D01*
X3105Y3765D02*
X3192Y3852D01*
X3458Y3693D02*
X3489D01*
X3355Y3590D02*
X3458Y3693D01*
X3408Y3665D02*
X3451Y3708D01*
X3850Y3450D02*
Y3491D01*
X3647Y3693D02*
X3850Y3491D01*
X3647Y3693D02*
Y3747D01*
X3628Y3682D02*
X3645Y3665D01*
Y3540D02*
X3765Y3420D01*
X3628Y3682D02*
Y3747D01*
X3645Y3540D02*
Y3665D01*
X3862Y3660D02*
X3930D01*
X3805Y3717D02*
X3862Y3660D01*
X3805Y3717D02*
Y3746D01*
X3805Y3747D02*
X3805Y3746D01*
X3707Y3712D02*
X3834Y3585D01*
X3746Y3715D02*
X3846Y3615D01*
X3687Y3710D02*
X3827Y3570D01*
X3727Y3713D02*
Y3738D01*
X3707Y3712D02*
Y3746D01*
X3687Y3710D02*
Y3746D01*
X3746Y3715D02*
Y3746D01*
X3727Y3713D02*
X3840Y3600D01*
X3827Y3570D02*
X4650D01*
X3834Y3585D02*
X4635D01*
X3840Y3600D02*
X4625D01*
X3930Y3660D02*
X3938Y3668D01*
X3805Y3747D02*
Y3770D01*
X3829Y3714D02*
X3835Y3708D01*
X3943D01*
X3990Y3755D01*
X3825Y3723D02*
Y3747D01*
Y3723D02*
X3829Y3719D01*
Y3714D02*
Y3719D01*
X4635Y3585D02*
X4755Y3705D01*
X4650Y3570D02*
X4770Y3690D01*
X3746Y3747D02*
X3746Y3746D01*
X3590Y3565D02*
Y3665D01*
X3588Y3747D02*
X3589Y3746D01*
X3009Y4029D02*
X3306D01*
X4048Y4320D02*
Y4428D01*
X4155Y4535D01*
X3255Y3990D02*
X3306D01*
X3200Y3935D02*
X3255Y3990D01*
X3687Y3747D02*
X3687Y3746D01*
X4755Y3705D02*
Y3850D01*
X4710Y3895D02*
Y3895D01*
Y3895D02*
X4755Y3850D01*
X3706Y3747D02*
X3707Y3746D01*
X3008Y4049D02*
X3306D01*
X2989Y4030D02*
X3008Y4049D01*
X3005Y4125D02*
X3042Y4088D01*
X3306D01*
X3726Y3738D02*
X3727Y3738D01*
X3726Y3747D02*
Y3770D01*
D70*
X5043Y3963D02*
D03*
X5038Y3463D02*
D03*
X2813Y2903D02*
D03*
D135*
X5357Y3727D02*
D03*
X5043D02*
D03*
X5357Y3963D02*
D03*
X5352Y3227D02*
D03*
X5038D02*
D03*
X5352Y3463D02*
D03*
X3127Y2667D02*
D03*
X2813D02*
D03*
X3127Y2903D02*
D03*
D138*
X780Y6825D02*
D03*
Y6625D02*
D03*
X777Y7565D02*
D03*
Y7365D02*
D03*
X780Y6725D02*
D03*
X777Y7465D02*
D03*
D147*
X460Y8390D02*
D03*
X450Y4250D02*
D03*
X455Y6100D02*
D03*
X450Y5182D02*
D03*
Y3330D02*
D03*
Y2395D02*
D03*
X445Y1445D02*
D03*
D148*
X460Y8190D02*
D03*
Y7990D02*
D03*
X450Y3850D02*
D03*
X455Y5700D02*
D03*
X450Y4782D02*
D03*
X445Y1045D02*
D03*
X450Y1995D02*
D03*
Y2930D02*
D03*
Y3650D02*
D03*
Y4050D02*
D03*
X455Y5500D02*
D03*
Y5900D02*
D03*
X450Y4582D02*
D03*
Y4982D02*
D03*
Y3130D02*
D03*
Y2730D02*
D03*
Y2195D02*
D03*
Y1795D02*
D03*
X445Y1245D02*
D03*
Y845D02*
D03*
D149*
X740Y7940D02*
D03*
X285Y6840D02*
D03*
D150*
X740Y8096D02*
D03*
X285Y6684D02*
D03*
D151*
X462Y7305D02*
D03*
D152*
Y7505D02*
D03*
X195Y502D02*
D03*
X1455Y495D02*
D03*
X2085Y510D02*
D03*
X815Y495D02*
D03*
D153*
X2039Y1356D02*
D03*
Y1428D02*
D03*
X2075Y1320D02*
D03*
Y1392D02*
D03*
Y1464D02*
D03*
X2111Y1356D02*
D03*
Y1428D02*
D03*
X2147Y1320D02*
D03*
Y1392D02*
D03*
Y1464D02*
D03*
X2183Y1356D02*
D03*
Y1428D02*
D03*
D154*
X395Y502D02*
D03*
X1655Y495D02*
D03*
X2285Y510D02*
D03*
X1015Y495D02*
D03*
D155*
X1770Y2790D02*
D03*
X2910Y4860D02*
D03*
X1310Y7325D02*
D03*
X4195Y6215D02*
D03*
X4870Y6880D02*
D03*
X4955Y6660D02*
D03*
X4820Y7070D02*
D03*
X4595Y2866D02*
D03*
X4280Y2715D02*
D03*
X4005Y2600D02*
D03*
X4185Y2225D02*
D03*
X4135Y1860D02*
D03*
X4740Y2275D02*
D03*
X5225Y765D02*
D03*
X4850D02*
D03*
X4725Y740D02*
D03*
X4060Y700D02*
D03*
X1995Y7010D02*
D03*
X4725Y7100D02*
D03*
X3355Y8055D02*
D03*
X2260Y7155D02*
D03*
X3484Y5594D02*
D03*
X3207Y6792D02*
D03*
X1335Y7210D02*
D03*
X2395Y7190D02*
D03*
X3095Y7705D02*
D03*
X3051Y7573D02*
D03*
X5575Y6975D02*
D03*
X5115Y6980D02*
D03*
X4735Y5785D02*
D03*
X4885Y5640D02*
D03*
X4990Y5940D02*
D03*
X5355Y4680D02*
D03*
X670Y6210D02*
D03*
X4915Y2255D02*
D03*
X725Y655D02*
D03*
X4105Y305D02*
D03*
X4794Y1228D02*
D03*
X5168Y896D02*
D03*
X4360Y1115D02*
D03*
X4750Y2150D02*
D03*
X4045Y2205D02*
D03*
X4425Y665D02*
D03*
X4075Y800D02*
D03*
X4555Y230D02*
D03*
X5440Y7035D02*
D03*
X5610Y7780D02*
D03*
X5005Y7235D02*
D03*
X4970Y7600D02*
D03*
X5230Y6870D02*
D03*
X4745Y6485D02*
D03*
X4660Y6438D02*
D03*
X4735Y6585D02*
D03*
X4683Y6382D02*
D03*
X2630Y7350D02*
D03*
X4095Y6040D02*
D03*
X4325Y5920D02*
D03*
X4767Y1766D02*
D03*
X4690Y6725D02*
D03*
X5710Y6395D02*
D03*
X4755Y6780D02*
D03*
X5644Y6315D02*
D03*
X5345Y6320D02*
D03*
X4950Y6355D02*
D03*
X5050Y6310D02*
D03*
X4980Y6860D02*
D03*
X4735Y5965D02*
D03*
X4375Y6225D02*
D03*
X4690Y5905D02*
D03*
X4525Y6025D02*
D03*
X4760Y6180D02*
D03*
X4670Y6280D02*
D03*
X4495Y6160D02*
D03*
X4760Y6310D02*
D03*
X4465Y6875D02*
D03*
X4520Y6755D02*
D03*
X4575Y6230D02*
D03*
X4955Y6440D02*
D03*
X5120Y6305D02*
D03*
X3675Y6054D02*
D03*
X4055Y6375D02*
D03*
X3995Y6315D02*
D03*
X4005Y6460D02*
D03*
X4090Y6465D02*
D03*
X4165Y6370D02*
D03*
X4040Y6230D02*
D03*
X3910Y6590D02*
D03*
X3655Y6710D02*
D03*
X2490Y5425D02*
D03*
X2485Y5525D02*
D03*
X3045Y5715D02*
D03*
X2455Y5705D02*
D03*
X2540Y5790D02*
D03*
X2795Y4925D02*
D03*
X4710Y3360D02*
D03*
X4925Y3480D02*
D03*
X4950Y4105D02*
D03*
X4710Y3740D02*
D03*
X4155Y3725D02*
D03*
X4150Y3805D02*
D03*
X2730Y4510D02*
D03*
X4110Y4060D02*
D03*
X4035Y4095D02*
D03*
X4130Y3970D02*
D03*
X4128Y4173D02*
D03*
X3585Y4445D02*
D03*
X3670Y4440D02*
D03*
X3790Y4575D02*
D03*
X3375Y4530D02*
D03*
X3390Y4800D02*
D03*
X4165Y4940D02*
D03*
X3780Y4660D02*
D03*
X3575D02*
D03*
X3835Y4515D02*
D03*
X3595Y3490D02*
D03*
X3495Y3500D02*
D03*
X3140Y3550D02*
D03*
X3345Y3413D02*
D03*
X4044Y3231D02*
D03*
X4560Y2305D02*
D03*
X4335Y1830D02*
D03*
X3245Y3665D02*
D03*
X2855Y4100D02*
D03*
X2745Y4050D02*
D03*
X2850Y3960D02*
D03*
X2990Y3895D02*
D03*
X3140Y4205D02*
D03*
X3105Y3095D02*
D03*
X3740Y2670D02*
D03*
X4135Y3900D02*
D03*
X4195Y4025D02*
D03*
X4190Y4125D02*
D03*
Y4215D02*
D03*
X4265Y4095D02*
D03*
X3105Y3765D02*
D03*
X2980Y3035D02*
D03*
X3465Y3620D02*
D03*
X3850Y3450D02*
D03*
X3765Y3420D02*
D03*
X3930Y3660D02*
D03*
X2375Y1935D02*
D03*
X2310Y1870D02*
D03*
X2925Y2070D02*
D03*
X3990Y3755D02*
D03*
X4095Y3520D02*
D03*
X4070Y3390D02*
D03*
X2060Y2810D02*
D03*
X2070Y3430D02*
D03*
X2030Y4140D02*
D03*
X2040Y4735D02*
D03*
X1965Y6065D02*
D03*
X2060Y5400D02*
D03*
X2975Y6277D02*
D03*
X2590Y6260D02*
D03*
X3440Y5370D02*
D03*
X2990Y5295D02*
D03*
X2546Y3056D02*
D03*
X3454Y2975D02*
D03*
X2805Y3465D02*
D03*
X2425Y3450D02*
D03*
X2345Y4385D02*
D03*
X2531Y4896D02*
D03*
X2390Y5125D02*
D03*
X2210Y5675D02*
D03*
X1750Y6075D02*
D03*
X1700Y5590D02*
D03*
X1725Y4880D02*
D03*
X1710Y4260D02*
D03*
X1728Y3590D02*
D03*
X1735Y2350D02*
D03*
X2345Y2425D02*
D03*
X2460Y2555D02*
D03*
X3050Y1500D02*
D03*
X2188Y2197D02*
D03*
X2380Y950D02*
D03*
X1590Y995D02*
D03*
X1270Y1150D02*
D03*
X1210Y745D02*
D03*
X1480Y755D02*
D03*
X3590Y3565D02*
D03*
X2362Y5227D02*
D03*
X4155Y4660D02*
D03*
Y4535D02*
D03*
Y4450D02*
D03*
Y4355D02*
D03*
X3200Y3935D02*
D03*
X4120Y4275D02*
D03*
X4715Y3975D02*
D03*
X4710Y3895D02*
D03*
Y3815D02*
D03*
X2600Y4965D02*
D03*
X4252Y4930D02*
D03*
X3005Y4125D02*
D03*
X3980Y5200D02*
D03*
D166*
X3510Y3747D02*
D03*
X3569D02*
D03*
X3549D02*
D03*
X3529Y4351D02*
D03*
X3549D02*
D03*
X3588Y3747D02*
D03*
X3470Y4351D02*
D03*
X3726D02*
D03*
X3687Y3747D02*
D03*
X3706D02*
D03*
X3746D02*
D03*
X3628D02*
D03*
X3647D02*
D03*
X3431Y4351D02*
D03*
X3805Y3747D02*
D03*
X3825D02*
D03*
Y4351D02*
D03*
X3766D02*
D03*
X3451D02*
D03*
X3411D02*
D03*
X3391D02*
D03*
X3372D02*
D03*
Y3747D02*
D03*
X3391D02*
D03*
X3608D02*
D03*
X3785D02*
D03*
X3844D02*
D03*
Y4351D02*
D03*
X3805D02*
D03*
X3785D02*
D03*
X3746D02*
D03*
X3706D02*
D03*
X3687D02*
D03*
X3667D02*
D03*
X3647D02*
D03*
X3628D02*
D03*
X3608D02*
D03*
X3588D02*
D03*
X3569D02*
D03*
X3510D02*
D03*
X3490D02*
D03*
X3411Y3747D02*
D03*
X3431D02*
D03*
X3451D02*
D03*
X3470D02*
D03*
X3490D02*
D03*
X3529D02*
D03*
X3667D02*
D03*
X3726D02*
D03*
X3766D02*
D03*
D167*
X3910Y3950D02*
D03*
Y3891D02*
D03*
X3306Y3852D02*
D03*
X3910Y4049D02*
D03*
X3306Y4029D02*
D03*
X3910Y4226D02*
D03*
X3306Y3891D02*
D03*
Y3990D02*
D03*
X3910Y4206D02*
D03*
Y4187D02*
D03*
Y4009D02*
D03*
Y3990D02*
D03*
Y3970D02*
D03*
X3306Y4147D02*
D03*
Y4049D02*
D03*
X3910Y4127D02*
D03*
X3306Y4068D02*
D03*
Y4088D02*
D03*
X3910Y4167D02*
D03*
Y4147D02*
D03*
Y3813D02*
D03*
Y3832D02*
D03*
Y4265D02*
D03*
Y4285D02*
D03*
X3306D02*
D03*
Y4265D02*
D03*
Y4246D02*
D03*
X3910Y3852D02*
D03*
Y3872D02*
D03*
Y3911D02*
D03*
Y3931D02*
D03*
Y4029D02*
D03*
Y4068D02*
D03*
Y4088D02*
D03*
Y4108D02*
D03*
Y4246D02*
D03*
X3306Y4226D02*
D03*
Y4206D02*
D03*
Y4187D02*
D03*
Y4167D02*
D03*
Y4127D02*
D03*
Y4108D02*
D03*
Y4009D02*
D03*
Y3970D02*
D03*
Y3950D02*
D03*
Y3931D02*
D03*
Y3911D02*
D03*
Y3872D02*
D03*
Y3832D02*
D03*
Y3813D02*
D03*
M02*
