G04*
G04 #@! TF.GenerationSoftware,Altium Limited,Altium Designer,22.1.2 (22)*
G04*
G04 Layer_Color=255*
%FSLAX23Y23*%
%MOIN*%
G70*
G04*
G04 #@! TF.SameCoordinates,EFA1FED7-213C-4DAE-99C9-92C2F6BD185D*
G04*
G04*
G04 #@! TF.FilePolarity,Positive*
G04*
G01*
G75*
%ADD70R,0.061X0.061*%
%ADD135C,0.061*%
%ADD138C,0.045*%
%ADD147R,0.097X0.097*%
%ADD148C,0.097*%
%ADD149R,0.103X0.103*%
%ADD150C,0.103*%
%ADD151R,0.083X0.083*%
%ADD152C,0.083*%
%ADD153C,0.012*%
%ADD154R,0.083X0.083*%
D70*
X5043Y3963D02*
D03*
X5038Y3463D02*
D03*
X2813Y2903D02*
D03*
D135*
X5357Y3727D02*
D03*
X5043D02*
D03*
X5357Y3963D02*
D03*
X5352Y3227D02*
D03*
X5038D02*
D03*
X5352Y3463D02*
D03*
X3127Y2667D02*
D03*
X2813D02*
D03*
X3127Y2903D02*
D03*
D138*
X780Y6825D02*
D03*
Y6625D02*
D03*
X777Y7565D02*
D03*
Y7365D02*
D03*
X780Y6725D02*
D03*
X777Y7465D02*
D03*
D147*
X460Y8390D02*
D03*
X450Y4250D02*
D03*
X455Y6100D02*
D03*
X450Y5182D02*
D03*
Y3330D02*
D03*
Y2395D02*
D03*
X445Y1445D02*
D03*
D148*
X460Y8190D02*
D03*
Y7990D02*
D03*
X450Y3850D02*
D03*
X455Y5700D02*
D03*
X450Y4782D02*
D03*
X445Y1045D02*
D03*
X450Y1995D02*
D03*
Y2930D02*
D03*
Y3650D02*
D03*
Y4050D02*
D03*
X455Y5500D02*
D03*
Y5900D02*
D03*
X450Y4582D02*
D03*
Y4982D02*
D03*
Y3130D02*
D03*
Y2730D02*
D03*
Y2195D02*
D03*
Y1795D02*
D03*
X445Y1245D02*
D03*
Y845D02*
D03*
D149*
X740Y7940D02*
D03*
X285Y6840D02*
D03*
D150*
X740Y8096D02*
D03*
X285Y6684D02*
D03*
D151*
X462Y7305D02*
D03*
D152*
Y7505D02*
D03*
X195Y502D02*
D03*
X1455Y495D02*
D03*
X2085Y510D02*
D03*
X815Y495D02*
D03*
D153*
X2039Y1356D02*
D03*
Y1428D02*
D03*
X2075Y1320D02*
D03*
Y1392D02*
D03*
Y1464D02*
D03*
X2111Y1356D02*
D03*
Y1428D02*
D03*
X2147Y1320D02*
D03*
Y1392D02*
D03*
Y1464D02*
D03*
X2183Y1356D02*
D03*
Y1428D02*
D03*
D154*
X395Y502D02*
D03*
X1655Y495D02*
D03*
X2285Y510D02*
D03*
X1015Y495D02*
D03*
M02*
