G04*
G04 #@! TF.GenerationSoftware,Altium Limited,Altium Designer,22.1.2 (22)*
G04*
G04 Layer_Color=16711935*
%FSLAX23Y23*%
%MOIN*%
G70*
G04*
G04 #@! TF.SameCoordinates,EFA1FED7-213C-4DAE-99C9-92C2F6BD185D*
G04*
G04*
G04 #@! TF.FilePolarity,Positive*
G04*
G01*
G75*
%ADD11C,0.008*%
%ADD12C,0.006*%
%ADD14C,0.005*%
%ADD15C,0.010*%
%ADD171C,0.001*%
%ADD173C,0.004*%
%ADD174C,0.000*%
D11*
X1853Y7294D02*
G03*
X1853Y7294I-4J0D01*
G01*
X1395Y7410D02*
G03*
X1395Y7410I-4J0D01*
G01*
X1256Y6347D02*
G03*
X1256Y6347I-4J0D01*
G01*
X1721Y6352D02*
G03*
X1721Y6352I-4J0D01*
G01*
X2201Y6357D02*
G03*
X2201Y6357I-4J0D01*
G01*
X2706Y6362D02*
G03*
X2706Y6362I-4J0D01*
G01*
X466Y7205D02*
G03*
X466Y7205I-4J0D01*
G01*
X3980Y3813D02*
G03*
X3980Y3813I-4J0D01*
G01*
X1820Y1038D02*
G03*
X1820Y1038I-4J0D01*
G01*
X2082Y2206D02*
G03*
X2082Y2206I-4J0D01*
G01*
X2782Y2066D02*
G03*
X2782Y2066I-4J0D01*
G01*
X2265Y791D02*
G03*
X2265Y791I-4J0D01*
G01*
X4379Y4863D02*
G03*
X4379Y4863I-4J0D01*
G01*
X499Y502D02*
G03*
X499Y502I-4J0D01*
G01*
X1759Y495D02*
G03*
X1759Y495I-4J0D01*
G01*
X2389Y510D02*
G03*
X2389Y510I-4J0D01*
G01*
X1119Y495D02*
G03*
X1119Y495I-4J0D01*
G01*
X2142Y7248D02*
G03*
X2142Y7248I-4J0D01*
G01*
X5289Y4854D02*
Y4886D01*
Y4854D02*
X5351D01*
Y4886D01*
X5289D02*
X5351D01*
X2644Y3202D02*
Y3265D01*
X2676D01*
Y3202D02*
Y3265D01*
X2644Y3202D02*
X2676D01*
X4229Y6096D02*
X4291D01*
Y6064D02*
Y6096D01*
X4229Y6064D02*
X4291D01*
X4229D02*
Y6096D01*
X1581Y4476D02*
Y4539D01*
X1549Y4476D02*
X1581D01*
X1549D02*
Y4539D01*
X1581D01*
X1606Y3839D02*
Y3901D01*
X1574Y3839D02*
X1606D01*
X1574D02*
Y3901D01*
X1606D01*
X1601Y3196D02*
Y3259D01*
X1569Y3196D02*
X1601D01*
X1569D02*
Y3259D01*
X1601D01*
X5290Y1949D02*
Y2028D01*
X5240Y1949D02*
X5290D01*
X5240D02*
Y2028D01*
X5290D01*
X4809Y2500D02*
Y2550D01*
X4731D02*
X4809D01*
X4731Y2500D02*
Y2550D01*
Y2500D02*
X4809D01*
X5062Y2545D02*
X5141D01*
Y2495D02*
Y2545D01*
X5062Y2495D02*
X5141D01*
X5062D02*
Y2545D01*
X4569Y2548D02*
X4631D01*
Y2674D01*
X4569D02*
X4631D01*
X4569Y2548D02*
Y2674D01*
X5020Y1941D02*
Y2019D01*
X4970Y1941D02*
X5020D01*
X4970D02*
Y2019D01*
X5020D01*
X4544Y1068D02*
X4606D01*
Y1194D01*
X4544D02*
X4606D01*
X4544Y1068D02*
Y1194D01*
X4784Y1025D02*
Y1075D01*
X4706D02*
X4784D01*
X4706Y1025D02*
Y1075D01*
Y1025D02*
X4784D01*
X5107D02*
Y1075D01*
Y1025D02*
X5186D01*
Y1075D01*
X5107D02*
X5186D01*
X2651Y7680D02*
X2919D01*
Y7948D01*
X2651D02*
X2919D01*
X2651Y7680D02*
Y7948D01*
X4900Y498D02*
X4950D01*
X4900Y419D02*
Y498D01*
Y419D02*
X4950D01*
Y498D01*
X4279Y534D02*
X4341D01*
X4279Y408D02*
Y534D01*
Y408D02*
X4341D01*
Y534D01*
X4579Y2053D02*
X4641D01*
X4579Y1927D02*
Y2053D01*
Y1927D02*
X4641D01*
Y2053D01*
X4650Y411D02*
X4700D01*
Y489D01*
X4650D02*
X4700D01*
X4650Y411D02*
Y489D01*
X1259Y7534D02*
X1291D01*
Y7596D01*
X1259D02*
X1291D01*
X1259Y7534D02*
Y7596D01*
X1549Y5206D02*
X1581D01*
X1549Y5144D02*
Y5206D01*
Y5144D02*
X1581D01*
Y5206D01*
X1579Y2624D02*
X1611D01*
X1579Y2561D02*
Y2624D01*
Y2561D02*
X1611D01*
Y2624D01*
X1459Y5866D02*
X1491D01*
X1459Y5804D02*
Y5866D01*
Y5804D02*
X1491D01*
Y5866D01*
X3184Y7091D02*
Y7359D01*
X2916Y7091D02*
X3184D01*
X2916D02*
Y7359D01*
X3184D01*
X4812Y6361D02*
X4899D01*
X4812D02*
Y6419D01*
X4899D01*
Y6361D02*
Y6419D01*
X3634Y4762D02*
Y4848D01*
X3576Y4762D02*
X3634D01*
X3576D02*
Y4848D01*
X3634D01*
X5408Y6517D02*
X5742D01*
Y6852D01*
X5408D02*
X5742D01*
X5408Y6517D02*
Y6852D01*
X3890Y6353D02*
X3960D01*
Y6487D01*
X3890D02*
X3960D01*
X3890Y6353D02*
Y6487D01*
X3470Y6262D02*
X3540D01*
X3470Y6128D02*
Y6262D01*
Y6128D02*
X3540D01*
Y6262D01*
X5078Y5416D02*
Y5924D01*
Y5416D02*
X5612D01*
Y5924D01*
X5078D02*
X5612D01*
X3952Y6685D02*
Y6735D01*
X3873D02*
X3952D01*
X3873Y6685D02*
Y6735D01*
Y6685D02*
X3952D01*
X3639Y6245D02*
X3671D01*
X3639Y6182D02*
Y6245D01*
Y6182D02*
X3671D01*
Y6245D01*
X4846Y6540D02*
Y6590D01*
Y6540D02*
X4924D01*
Y6590D01*
X4846D02*
X4924D01*
X5046Y3689D02*
Y4001D01*
Y3689D02*
X5354D01*
Y4001D01*
X5046D02*
X5354D01*
X5041Y3189D02*
Y3501D01*
Y3189D02*
X5349D01*
Y3501D01*
X5041D02*
X5349D01*
X3161Y5293D02*
Y5423D01*
X3099Y5293D02*
X3161D01*
X3099D02*
Y5423D01*
X3161D01*
X2816Y2629D02*
Y2941D01*
Y2629D02*
X3124D01*
Y2941D01*
X2816D02*
X3124D01*
X2753Y1463D02*
Y1530D01*
Y1463D02*
X2879D01*
Y1530D01*
X2753D02*
X2879D01*
X2760Y1618D02*
Y1685D01*
Y1618D02*
X2886D01*
Y1685D01*
X2760D02*
X2886D01*
X4208Y3384D02*
Y3491D01*
Y3384D02*
X4346D01*
Y3491D01*
X4208D02*
X4346D01*
X4549Y3424D02*
Y3456D01*
Y3424D02*
X4611D01*
Y3456D01*
X4549D02*
X4611D01*
X2641Y6036D02*
Y6174D01*
Y6036D02*
X2889D01*
Y6174D01*
X2641D02*
X2889D01*
X2452Y6076D02*
Y6134D01*
Y6076D02*
X2538D01*
Y6134D01*
X2452D02*
X2538D01*
X2467Y2253D02*
Y2320D01*
X2341D02*
X2467D01*
X2341Y2253D02*
Y2320D01*
Y2253D02*
X2467D01*
X1819Y758D02*
Y825D01*
X1693D02*
X1819D01*
X1693Y758D02*
Y825D01*
Y758D02*
X1819D01*
X3309Y3251D02*
X3341D01*
X3309Y3189D02*
Y3251D01*
Y3189D02*
X3341D01*
Y3251D01*
X3206Y3189D02*
Y3251D01*
X3174Y3189D02*
X3206D01*
X3174D02*
Y3251D01*
X3206D01*
X2960Y3169D02*
Y3302D01*
X2890Y3169D02*
X2960D01*
X2890D02*
Y3302D01*
X2960D01*
X2679Y2838D02*
Y2902D01*
X2641Y2838D02*
X2679D01*
X2641D02*
Y2902D01*
X2679D01*
X2774Y3202D02*
X2806D01*
Y3265D01*
X2774D02*
X2806D01*
X2774Y3202D02*
Y3265D01*
X3703Y4842D02*
X3760D01*
X3703Y4755D02*
Y4842D01*
Y4755D02*
X3760D01*
Y4842D01*
X3456Y3162D02*
X3514D01*
Y3248D01*
X3456D02*
X3514D01*
X3456Y3162D02*
Y3248D01*
X3581Y3167D02*
Y3253D01*
X3639D01*
Y3167D02*
Y3253D01*
X3581Y3167D02*
X3639D01*
X3154Y5801D02*
Y6049D01*
X3016Y5801D02*
X3154D01*
X3016D02*
Y6049D01*
X3154D01*
X3216Y5852D02*
Y5938D01*
X3274D01*
Y5852D02*
Y5938D01*
X3216Y5852D02*
X3274D01*
D12*
X1773Y5948D02*
G03*
X1797Y5949I12J0D01*
G01*
X1883Y5288D02*
G03*
X1907Y5289I12J0D01*
G01*
X4358Y2433D02*
G03*
X4382Y2434I12J0D01*
G01*
X4310Y923D02*
G03*
X4334Y924I12J0D01*
G01*
X1853Y3998D02*
G03*
X1877Y3999I12J0D01*
G01*
X1918Y3293D02*
G03*
X1942Y3294I12J0D01*
G01*
X1888Y2673D02*
G03*
X1912Y2674I12J0D01*
G01*
X1860Y4623D02*
G03*
X1884Y4624I12J0D01*
G01*
X1707Y5916D02*
Y5934D01*
X1663D02*
X1707D01*
X1663Y5915D02*
Y5934D01*
Y5915D02*
X1707Y5916D01*
Y5866D02*
Y5884D01*
X1663D02*
X1707D01*
X1663Y5865D02*
Y5884D01*
Y5865D02*
X1707Y5866D01*
Y5816D02*
Y5834D01*
X1663D02*
X1707D01*
X1663Y5815D02*
Y5834D01*
Y5815D02*
X1707Y5816D01*
Y5766D02*
Y5784D01*
X1663D02*
X1707D01*
X1663Y5765D02*
Y5784D01*
Y5765D02*
X1707Y5766D01*
X1863D02*
Y5784D01*
Y5766D02*
X1907D01*
Y5785D01*
X1863Y5784D02*
X1907Y5785D01*
X1863Y5816D02*
Y5834D01*
Y5816D02*
X1907D01*
Y5835D01*
X1863Y5834D02*
X1907Y5835D01*
X1863Y5866D02*
Y5884D01*
Y5866D02*
X1907D01*
Y5885D01*
X1863Y5884D02*
X1907Y5885D01*
X1863Y5916D02*
Y5934D01*
Y5916D02*
X1907D01*
Y5935D01*
X1863Y5934D02*
X1907Y5935D01*
X1707Y5752D02*
X1863D01*
Y5948D01*
X1773D02*
X1863D01*
X1707D02*
X1773D01*
X1707Y5752D02*
Y5948D01*
X1817Y5256D02*
Y5274D01*
X1773D02*
X1817D01*
X1773Y5255D02*
Y5274D01*
Y5255D02*
X1817Y5256D01*
Y5206D02*
Y5224D01*
X1773D02*
X1817D01*
X1773Y5205D02*
Y5224D01*
Y5205D02*
X1817Y5206D01*
Y5156D02*
Y5174D01*
X1773D02*
X1817D01*
X1773Y5155D02*
Y5174D01*
Y5155D02*
X1817Y5156D01*
Y5106D02*
Y5124D01*
X1773D02*
X1817D01*
X1773Y5105D02*
Y5124D01*
Y5105D02*
X1817Y5106D01*
X1973D02*
Y5124D01*
Y5106D02*
X2017D01*
Y5125D01*
X1973Y5124D02*
X2017Y5125D01*
X1973Y5156D02*
Y5174D01*
Y5156D02*
X2017D01*
Y5175D01*
X1973Y5174D02*
X2017Y5175D01*
X1973Y5206D02*
Y5224D01*
Y5206D02*
X2017D01*
Y5225D01*
X1973Y5224D02*
X2017Y5225D01*
X1973Y5256D02*
Y5274D01*
Y5256D02*
X2017D01*
Y5275D01*
X1973Y5274D02*
X2017Y5275D01*
X1817Y5092D02*
X1973D01*
Y5288D01*
X1883D02*
X1973D01*
X1817D02*
X1883D01*
X1817Y5092D02*
Y5288D01*
X4292Y2237D02*
Y2433D01*
X4358D01*
X4448D01*
Y2237D02*
Y2433D01*
X4292Y2237D02*
X4448D01*
Y2419D02*
X4492Y2420D01*
Y2401D02*
Y2420D01*
X4448Y2401D02*
X4492D01*
X4448D02*
Y2419D01*
Y2369D02*
X4492Y2370D01*
Y2351D02*
Y2370D01*
X4448Y2351D02*
X4492D01*
X4448D02*
Y2369D01*
Y2319D02*
X4492Y2320D01*
Y2301D02*
Y2320D01*
X4448Y2301D02*
X4492D01*
X4448D02*
Y2319D01*
Y2269D02*
X4492Y2270D01*
Y2251D02*
Y2270D01*
X4448Y2251D02*
X4492D01*
X4448D02*
Y2269D01*
X4248Y2250D02*
X4292Y2251D01*
X4248Y2250D02*
Y2269D01*
X4292D01*
Y2251D02*
Y2269D01*
X4248Y2300D02*
X4292Y2301D01*
X4248Y2300D02*
Y2319D01*
X4292D01*
Y2301D02*
Y2319D01*
X4248Y2350D02*
X4292Y2351D01*
X4248Y2350D02*
Y2369D01*
X4292D01*
Y2351D02*
Y2369D01*
X4248Y2400D02*
X4292Y2401D01*
X4248Y2400D02*
Y2419D01*
X4292D01*
Y2401D02*
Y2419D01*
X4244Y727D02*
Y923D01*
X4310D01*
X4400D01*
Y727D02*
Y923D01*
X4244Y727D02*
X4400D01*
Y909D02*
X4444Y910D01*
Y891D02*
Y910D01*
X4400Y891D02*
X4444D01*
X4400D02*
Y909D01*
Y859D02*
X4444Y860D01*
Y841D02*
Y860D01*
X4400Y841D02*
X4444D01*
X4400D02*
Y859D01*
Y809D02*
X4444Y810D01*
Y791D02*
Y810D01*
X4400Y791D02*
X4444D01*
X4400D02*
Y809D01*
Y759D02*
X4444Y760D01*
Y741D02*
Y760D01*
X4400Y741D02*
X4444D01*
X4400D02*
Y759D01*
X4200Y740D02*
X4244Y741D01*
X4200Y740D02*
Y759D01*
X4244D01*
Y741D02*
Y759D01*
X4200Y790D02*
X4244Y791D01*
X4200Y790D02*
Y809D01*
X4244D01*
Y791D02*
Y809D01*
X4200Y840D02*
X4244Y841D01*
X4200Y840D02*
Y859D01*
X4244D01*
Y841D02*
Y859D01*
X4200Y890D02*
X4244Y891D01*
X4200Y890D02*
Y909D01*
X4244D01*
Y891D02*
Y909D01*
X1787Y3802D02*
Y3998D01*
X1853D01*
X1943D01*
Y3802D02*
Y3998D01*
X1787Y3802D02*
X1943D01*
Y3984D02*
X1987Y3985D01*
Y3966D02*
Y3985D01*
X1943Y3966D02*
X1987D01*
X1943D02*
Y3984D01*
Y3934D02*
X1987Y3935D01*
Y3916D02*
Y3935D01*
X1943Y3916D02*
X1987D01*
X1943D02*
Y3934D01*
Y3884D02*
X1987Y3885D01*
Y3866D02*
Y3885D01*
X1943Y3866D02*
X1987D01*
X1943D02*
Y3884D01*
Y3834D02*
X1987Y3835D01*
Y3816D02*
Y3835D01*
X1943Y3816D02*
X1987D01*
X1943D02*
Y3834D01*
X1743Y3815D02*
X1787Y3816D01*
X1743Y3815D02*
Y3834D01*
X1787D01*
Y3816D02*
Y3834D01*
X1743Y3865D02*
X1787Y3866D01*
X1743Y3865D02*
Y3884D01*
X1787D01*
Y3866D02*
Y3884D01*
X1743Y3915D02*
X1787Y3916D01*
X1743Y3915D02*
Y3934D01*
X1787D01*
Y3916D02*
Y3934D01*
X1743Y3965D02*
X1787Y3966D01*
X1743Y3965D02*
Y3984D01*
X1787D01*
Y3966D02*
Y3984D01*
X1852Y3097D02*
Y3293D01*
X1918D01*
X2008D01*
Y3097D02*
Y3293D01*
X1852Y3097D02*
X2008D01*
Y3279D02*
X2052Y3280D01*
Y3261D02*
Y3280D01*
X2008Y3261D02*
X2052D01*
X2008D02*
Y3279D01*
Y3229D02*
X2052Y3230D01*
Y3211D02*
Y3230D01*
X2008Y3211D02*
X2052D01*
X2008D02*
Y3229D01*
Y3179D02*
X2052Y3180D01*
Y3161D02*
Y3180D01*
X2008Y3161D02*
X2052D01*
X2008D02*
Y3179D01*
Y3129D02*
X2052Y3130D01*
Y3111D02*
Y3130D01*
X2008Y3111D02*
X2052D01*
X2008D02*
Y3129D01*
X1808Y3110D02*
X1852Y3111D01*
X1808Y3110D02*
Y3129D01*
X1852D01*
Y3111D02*
Y3129D01*
X1808Y3160D02*
X1852Y3161D01*
X1808Y3160D02*
Y3179D01*
X1852D01*
Y3161D02*
Y3179D01*
X1808Y3210D02*
X1852Y3211D01*
X1808Y3210D02*
Y3229D01*
X1852D01*
Y3211D02*
Y3229D01*
X1808Y3260D02*
X1852Y3261D01*
X1808Y3260D02*
Y3279D01*
X1852D01*
Y3261D02*
Y3279D01*
X1822Y2477D02*
Y2673D01*
X1888D01*
X1978D01*
Y2477D02*
Y2673D01*
X1822Y2477D02*
X1978D01*
Y2659D02*
X2022Y2660D01*
Y2641D02*
Y2660D01*
X1978Y2641D02*
X2022D01*
X1978D02*
Y2659D01*
Y2609D02*
X2022Y2610D01*
Y2591D02*
Y2610D01*
X1978Y2591D02*
X2022D01*
X1978D02*
Y2609D01*
Y2559D02*
X2022Y2560D01*
Y2541D02*
Y2560D01*
X1978Y2541D02*
X2022D01*
X1978D02*
Y2559D01*
Y2509D02*
X2022Y2510D01*
Y2491D02*
Y2510D01*
X1978Y2491D02*
X2022D01*
X1978D02*
Y2509D01*
X1778Y2490D02*
X1822Y2491D01*
X1778Y2490D02*
Y2509D01*
X1822D01*
Y2491D02*
Y2509D01*
X1778Y2540D02*
X1822Y2541D01*
X1778Y2540D02*
Y2559D01*
X1822D01*
Y2541D02*
Y2559D01*
X1778Y2590D02*
X1822Y2591D01*
X1778Y2590D02*
Y2609D01*
X1822D01*
Y2591D02*
Y2609D01*
X1778Y2640D02*
X1822Y2641D01*
X1778Y2640D02*
Y2659D01*
X1822D01*
Y2641D02*
Y2659D01*
X1794Y4427D02*
Y4623D01*
X1860D01*
X1950D01*
Y4427D02*
Y4623D01*
X1794Y4427D02*
X1950D01*
Y4609D02*
X1994Y4610D01*
Y4591D02*
Y4610D01*
X1950Y4591D02*
X1994D01*
X1950D02*
Y4609D01*
Y4559D02*
X1994Y4560D01*
Y4541D02*
Y4560D01*
X1950Y4541D02*
X1994D01*
X1950D02*
Y4559D01*
Y4509D02*
X1994Y4510D01*
Y4491D02*
Y4510D01*
X1950Y4491D02*
X1994D01*
X1950D02*
Y4509D01*
Y4459D02*
X1994Y4460D01*
Y4441D02*
Y4460D01*
X1950Y4441D02*
X1994D01*
X1950D02*
Y4459D01*
X1750Y4440D02*
X1794Y4441D01*
X1750Y4440D02*
Y4459D01*
X1794D01*
Y4441D02*
Y4459D01*
X1750Y4490D02*
X1794Y4491D01*
X1750Y4490D02*
Y4509D01*
X1794D01*
Y4491D02*
Y4509D01*
X1750Y4540D02*
X1794Y4541D01*
X1750Y4540D02*
Y4559D01*
X1794D01*
Y4541D02*
Y4559D01*
X1750Y4590D02*
X1794Y4591D01*
X1750Y4590D02*
Y4609D01*
X1794D01*
Y4591D02*
Y4609D01*
D14*
X4934Y6722D02*
Y6778D01*
X4847Y6722D02*
Y6778D01*
Y6722D02*
X4934D01*
X4847Y6778D02*
X4934D01*
X4102Y1992D02*
X4168D01*
X4102Y2118D02*
X4168D01*
X4102Y1992D02*
Y2118D01*
X4168Y1992D02*
Y2118D01*
X4589Y751D02*
X4631D01*
X4589Y729D02*
X4631D01*
X4589D02*
Y751D01*
X4631Y729D02*
Y751D01*
X1666Y7268D02*
X1874D01*
X1607Y7209D02*
X1666Y7268D01*
X1607Y6942D02*
Y7209D01*
Y6942D02*
X1933D01*
Y7209D01*
X1874Y7268D02*
X1933Y7209D01*
X1366Y7436D02*
X1574D01*
X1633Y7495D01*
Y7762D01*
X1307D02*
X1633D01*
X1307Y7495D02*
Y7762D01*
Y7495D02*
X1366Y7436D01*
X1203Y6393D02*
X1467D01*
X1538Y6464D01*
Y6798D01*
X1132D02*
X1538D01*
X1132Y6464D02*
Y6798D01*
Y6464D02*
X1203Y6393D01*
X1668Y6397D02*
X1932D01*
X2003Y6468D01*
Y6803D01*
X1597D02*
X2003D01*
X1597Y6468D02*
Y6803D01*
Y6468D02*
X1668Y6397D01*
X2148Y6402D02*
X2412D01*
X2483Y6473D01*
Y6808D01*
X2077D02*
X2483D01*
X2077Y6473D02*
Y6808D01*
Y6473D02*
X2148Y6402D01*
X2653Y6407D02*
X2917D01*
X2988Y6478D01*
Y6813D01*
X2582D02*
X2988D01*
X2582Y6478D02*
Y6813D01*
Y6478D02*
X2653Y6407D01*
X4527Y412D02*
Y478D01*
X4563Y412D02*
Y478D01*
X4527Y412D02*
X4563D01*
X4527Y478D02*
X4563D01*
X5437Y7167D02*
Y7223D01*
X5524Y7167D02*
Y7223D01*
X5437D02*
X5524D01*
X5437Y7167D02*
X5524D01*
X3481Y3335D02*
X3607D01*
X3481D02*
Y3395D01*
X3607D01*
Y3335D02*
Y3395D01*
X3709Y4545D02*
Y4605D01*
X3583D02*
X3709D01*
X3583Y4545D02*
Y4605D01*
Y4545D02*
X3709D01*
X3958Y6192D02*
Y6258D01*
X3832Y6192D02*
Y6258D01*
Y6192D02*
X3958D01*
X3832Y6258D02*
X3958D01*
X3666Y6578D02*
X3751D01*
X3666Y6522D02*
X3751D01*
Y6578D01*
X3666Y6522D02*
Y6578D01*
Y6423D02*
X3751D01*
X3666Y6367D02*
X3751D01*
Y6423D01*
X3666Y6367D02*
Y6423D01*
X3932Y962D02*
X4058D01*
X3932Y1028D02*
X4058D01*
Y962D02*
Y1028D01*
X3932Y962D02*
Y1028D01*
X4002Y2422D02*
X4128D01*
X4002Y2488D02*
X4128D01*
Y2422D02*
Y2488D01*
X4002Y2422D02*
Y2488D01*
X4138Y457D02*
Y583D01*
X4072Y457D02*
Y583D01*
X4138D01*
X4072Y457D02*
X4138D01*
X69Y7166D02*
Y7645D01*
X541D01*
Y7166D02*
Y7645D01*
X69Y7166D02*
X541D01*
X803Y5787D02*
Y5873D01*
X747Y5787D02*
Y5873D01*
Y5787D02*
X803D01*
X747Y5873D02*
X803D01*
X2193Y5088D02*
Y5292D01*
X2087Y5088D02*
Y5292D01*
X2193D01*
X2087Y5088D02*
X2193D01*
X1142Y7198D02*
X1198D01*
X1142Y7112D02*
X1198D01*
Y7198D01*
X1142Y7112D02*
Y7198D01*
X1524Y7228D02*
Y7346D01*
X1406D02*
X1524D01*
X1406Y7228D02*
Y7346D01*
Y7228D02*
X1524D01*
X1997Y5753D02*
X2103D01*
X1997Y5957D02*
X2103D01*
X1997Y5753D02*
Y5957D01*
X2103Y5753D02*
Y5957D01*
X2187Y5807D02*
Y5873D01*
X2223Y5807D02*
Y5873D01*
X2187Y5807D02*
X2223D01*
X2187Y5873D02*
X2223D01*
X2257Y5147D02*
Y5214D01*
X2293Y5147D02*
Y5214D01*
X2257Y5147D02*
X2293D01*
X2257Y5214D02*
X2293D01*
X3332Y4324D02*
X3884D01*
X3332Y3773D02*
X3884D01*
X3332D02*
Y4324D01*
X3884Y3773D02*
Y4324D01*
X4599Y2159D02*
Y2191D01*
X4661Y2159D02*
Y2191D01*
X4599D02*
X4661D01*
X4599Y2159D02*
X4661D01*
X4842Y2033D02*
X4878D01*
X4842Y1967D02*
X4878D01*
Y2033D01*
X4842Y1967D02*
Y2033D01*
X4722Y1967D02*
X4758D01*
X4722Y2033D02*
X4758D01*
X4722Y1967D02*
Y2033D01*
X4758Y1967D02*
Y2033D01*
X4427Y407D02*
X4463D01*
X4427Y473D02*
X4463D01*
X4427Y407D02*
Y473D01*
X4463Y407D02*
Y473D01*
X5107Y2018D02*
X5143D01*
X5107Y1952D02*
X5143D01*
Y2018D01*
X5107Y1952D02*
Y2018D01*
X4777Y414D02*
X4813D01*
X4777Y481D02*
X4813D01*
X4777Y414D02*
Y481D01*
X4813Y414D02*
Y481D01*
X4737Y2372D02*
Y2408D01*
X4804Y2372D02*
Y2408D01*
X4737D02*
X4804D01*
X4737Y2372D02*
X4804D01*
X4709Y877D02*
Y913D01*
X4776Y877D02*
Y913D01*
X4709D02*
X4776D01*
X4709Y877D02*
X4776D01*
X4912Y2492D02*
Y2528D01*
X4978Y2492D02*
Y2528D01*
X4912D02*
X4978D01*
X4912Y2492D02*
X4978D01*
X4907Y1037D02*
Y1073D01*
X4973Y1037D02*
Y1073D01*
X4907D02*
X4973D01*
X4907Y1037D02*
X4973D01*
X4572Y2377D02*
Y2413D01*
X4639Y2377D02*
Y2413D01*
X4572D02*
X4639D01*
X4572Y2377D02*
X4639D01*
X4532Y877D02*
Y913D01*
X4598Y877D02*
Y913D01*
X4532D02*
X4598D01*
X4532Y877D02*
X4598D01*
X4184Y999D02*
Y1031D01*
X4246Y999D02*
Y1031D01*
X4184D02*
X4246D01*
X4184Y999D02*
X4246D01*
X3788Y772D02*
X3992D01*
X3788Y878D02*
X3992D01*
Y772D02*
Y878D01*
X3788Y772D02*
Y878D01*
X1521Y1077D02*
Y1786D01*
X1769D01*
X2525D01*
Y1077D02*
Y1786D01*
X1769Y1077D02*
X2525D01*
X1521D02*
X1769D01*
Y1786D01*
X2483Y1991D02*
X2719D01*
X2483D02*
Y2141D01*
X2719D01*
Y1991D02*
Y2141D01*
X1966Y716D02*
X2202D01*
X1966D02*
Y866D01*
X2202D01*
Y716D02*
Y866D01*
X2277Y2552D02*
Y2619D01*
X2313Y2552D02*
Y2619D01*
X2277Y2552D02*
X2313D01*
X2277Y2619D02*
X2313D01*
X2252Y4512D02*
Y4578D01*
X2288Y4512D02*
Y4578D01*
X2252Y4512D02*
X2288D01*
X2252Y4578D02*
X2288D01*
X2237Y3867D02*
Y3933D01*
X2273Y3867D02*
Y3933D01*
X2237Y3867D02*
X2273D01*
X2237Y3933D02*
X2273D01*
X2122Y3118D02*
X2228D01*
X2122Y3322D02*
X2228D01*
X2122Y3118D02*
Y3322D01*
X2228Y3118D02*
Y3322D01*
X3957Y2012D02*
Y2118D01*
X3753Y2012D02*
Y2118D01*
Y2012D02*
X3957D01*
X3753Y2118D02*
X3957D01*
X4359Y974D02*
Y996D01*
X4317Y974D02*
Y996D01*
Y974D02*
X4359D01*
X4317Y996D02*
X4359D01*
X4646Y609D02*
Y641D01*
X4584Y609D02*
Y641D01*
Y609D02*
X4646D01*
X4584Y641D02*
X4646D01*
X3768Y683D02*
X3972D01*
X3768Y577D02*
X3972D01*
X3768D02*
Y683D01*
X3972Y577D02*
Y683D01*
X4621Y2234D02*
Y2256D01*
X4579Y2234D02*
Y2256D01*
Y2234D02*
X4621D01*
X4579Y2256D02*
X4621D01*
X4287Y2519D02*
Y2551D01*
X4350Y2519D02*
Y2551D01*
X4287D02*
X4350D01*
X4287Y2519D02*
X4350D01*
X3754Y2242D02*
X3959D01*
X3754Y2348D02*
X3959D01*
Y2242D02*
Y2348D01*
X3754Y2242D02*
Y2348D01*
X4466Y2524D02*
Y2546D01*
X4424Y2524D02*
Y2546D01*
Y2524D02*
X4466D01*
X4424Y2546D02*
X4466D01*
X888Y2551D02*
Y2636D01*
X832Y2551D02*
Y2636D01*
Y2551D02*
X888D01*
X832Y2636D02*
X888D01*
X840Y5221D02*
X895D01*
X840Y5136D02*
X895D01*
X840D02*
Y5221D01*
X895Y5136D02*
Y5221D01*
X852Y3916D02*
X908D01*
X852Y3831D02*
X908D01*
X852D02*
Y3916D01*
X908Y3831D02*
Y3916D01*
X2057Y3793D02*
X2163D01*
X2057Y3997D02*
X2163D01*
X2057Y3793D02*
Y3997D01*
X2163Y3793D02*
Y3997D01*
X855Y3240D02*
X910D01*
X855Y3154D02*
X910D01*
X855D02*
Y3240D01*
X910Y3154D02*
Y3240D01*
X2297Y3243D02*
X2333D01*
X2297Y3177D02*
X2333D01*
Y3243D01*
X2297Y3177D02*
Y3243D01*
X2087Y2493D02*
X2193D01*
X2087Y2697D02*
X2193D01*
X2087Y2493D02*
Y2697D01*
X2193Y2493D02*
Y2697D01*
X2069Y4428D02*
X2175D01*
X2069Y4632D02*
X2175D01*
X2069Y4428D02*
Y4632D01*
X2175Y4428D02*
Y4632D01*
X845Y4543D02*
X900D01*
X845Y4457D02*
X900D01*
X845D02*
Y4543D01*
X900Y4457D02*
Y4543D01*
X534Y109D02*
Y581D01*
X56D02*
X534D01*
X56Y109D02*
Y581D01*
Y109D02*
X534D01*
X1794Y101D02*
Y574D01*
X1316D02*
X1794D01*
X1316Y101D02*
Y574D01*
Y101D02*
X1794D01*
X3301Y7488D02*
X3309D01*
X3301Y7472D02*
X3309D01*
Y7488D01*
X3301Y7472D02*
Y7488D01*
X1946Y116D02*
X2424D01*
X1946D02*
Y589D01*
X2424D01*
Y116D02*
Y589D01*
X676Y101D02*
X1154D01*
X676D02*
Y574D01*
X1154D01*
Y101D02*
Y574D01*
X2072Y7495D02*
X2472D01*
Y7847D01*
X2072D02*
X2472D01*
X2072Y7495D02*
Y7847D01*
X2022Y7092D02*
Y7179D01*
X2078Y7092D02*
Y7179D01*
X2022Y7092D02*
X2078D01*
X2022Y7179D02*
X2078D01*
D15*
X1669Y1195D02*
X1622D01*
X1599Y1219D01*
X1622Y1242D01*
X1669D01*
X1634D01*
Y1195D01*
X1669Y1265D02*
X1599D01*
X1669Y1312D01*
X1599D01*
Y1335D02*
Y1382D01*
Y1359D01*
X1669D01*
X1599Y1452D02*
Y1405D01*
X1669D01*
Y1452D01*
X1634Y1405D02*
Y1429D01*
X1669Y1475D02*
X1599D01*
X1669Y1522D01*
X1599D01*
X1669Y1545D02*
X1599D01*
X1669Y1592D01*
X1599D01*
X1669Y1615D02*
X1622D01*
X1599Y1639D01*
X1622Y1662D01*
X1669D01*
X1634D01*
Y1615D01*
D171*
X5067Y7280D02*
X5313D01*
X5067D02*
Y7600D01*
X5313D01*
Y7280D02*
Y7600D01*
X5165Y7250D02*
X5215D01*
X5190Y7220D02*
X5195Y7250D01*
X5190Y7220D02*
X5200Y7250D01*
X5190Y7220D02*
X5205Y7250D01*
X5190Y7220D02*
X5210Y7250D01*
X5190Y7220D02*
X5215Y7250D01*
X5185D02*
X5190Y7220D01*
X5180Y7250D02*
X5190Y7220D01*
X5175Y7250D02*
X5190Y7220D01*
X5170Y7250D02*
X5190Y7220D01*
X5165Y7250D02*
X5190Y7220D01*
X5165D02*
X5215D01*
X5190Y7210D02*
Y7260D01*
X3886Y7257D02*
X4132D01*
X3886D02*
Y7577D01*
X4132D01*
Y7257D02*
Y7577D01*
X3984Y7227D02*
X4034D01*
X4009Y7197D02*
X4014Y7227D01*
X4009Y7197D02*
X4019Y7227D01*
X4009Y7197D02*
X4024Y7227D01*
X4009Y7197D02*
X4029Y7227D01*
X4009Y7197D02*
X4034Y7227D01*
X4004D02*
X4009Y7197D01*
X3999Y7227D02*
X4009Y7197D01*
X3994Y7227D02*
X4009Y7197D01*
X3989Y7227D02*
X4009Y7197D01*
X3984Y7227D02*
X4009Y7197D01*
X3984D02*
X4034D01*
X4009Y7187D02*
Y7237D01*
X3795Y5580D02*
X3845D01*
X3805Y5555D02*
Y5605D01*
Y5580D02*
X3835Y5605D01*
X3805Y5580D02*
X3835Y5600D01*
X3805Y5580D02*
X3835Y5595D01*
X3805Y5580D02*
X3835Y5590D01*
X3805Y5580D02*
X3835Y5585D01*
X3805Y5580D02*
X3835Y5555D01*
X3805Y5580D02*
X3835Y5560D01*
X3805Y5580D02*
X3835Y5565D01*
X3805Y5580D02*
X3835Y5570D01*
X3805Y5580D02*
X3835Y5575D01*
Y5555D02*
Y5605D01*
X3865Y5457D02*
X4185D01*
Y5703D01*
X3865D02*
X4185D01*
X3865Y5457D02*
Y5703D01*
X4724Y7195D02*
Y7245D01*
X4699Y7205D02*
X4749D01*
X4699Y7235D02*
X4724Y7205D01*
X4704Y7235D02*
X4724Y7205D01*
X4709Y7235D02*
X4724Y7205D01*
X4714Y7235D02*
X4724Y7205D01*
X4719Y7235D02*
X4724Y7205D01*
X4749Y7235D01*
X4724Y7205D02*
X4744Y7235D01*
X4724Y7205D02*
X4739Y7235D01*
X4724Y7205D02*
X4734Y7235D01*
X4724Y7205D02*
X4729Y7235D01*
X4699D02*
X4749D01*
X4847Y7265D02*
Y7585D01*
X4601D02*
X4847D01*
X4601Y7265D02*
Y7585D01*
Y7265D02*
X4847D01*
X887Y5950D02*
X1043D01*
Y5730D02*
Y5950D01*
X887Y5730D02*
X1043D01*
X887D02*
Y5950D01*
X940Y5980D02*
X990D01*
X960D02*
X965Y6010D01*
X955Y5980D02*
X965Y6010D01*
X950Y5980D02*
X965Y6010D01*
X945Y5980D02*
X965Y6010D01*
X940Y5980D02*
X965Y6010D01*
X970Y5980D01*
X965Y6010D02*
X975Y5980D01*
X965Y6010D02*
X980Y5980D01*
X965Y6010D02*
X985Y5980D01*
X965Y6010D02*
X990Y5980D01*
X940Y6010D02*
X990D01*
X965Y5970D02*
Y6020D01*
X761Y6523D02*
Y6927D01*
X705Y6523D02*
Y6927D01*
Y6523D02*
X895D01*
Y6927D01*
X705D02*
X895D01*
X758Y7263D02*
Y7667D01*
X702Y7263D02*
Y7667D01*
Y7263D02*
X892D01*
Y7667D01*
X702D02*
X892D01*
X5267Y7945D02*
X5317D01*
X5307Y7920D02*
Y7970D01*
X5277Y7920D02*
X5307Y7945D01*
X5277Y7925D02*
X5307Y7945D01*
X5277Y7930D02*
X5307Y7945D01*
X5277Y7935D02*
X5307Y7945D01*
X5277Y7940D02*
X5307Y7945D01*
X5277Y7970D02*
X5307Y7945D01*
X5277Y7965D02*
X5307Y7945D01*
X5277Y7960D02*
X5307Y7945D01*
X5277Y7955D02*
X5307Y7945D01*
X5277Y7950D02*
X5307Y7945D01*
X5277Y7920D02*
Y7970D01*
X5027Y8023D02*
X5247D01*
X5027Y7867D02*
Y8023D01*
Y7867D02*
X5247D01*
Y8023D01*
X1060Y4005D02*
Y4055D01*
X1035Y4045D02*
X1085D01*
X1060D02*
X1085Y4015D01*
X1060Y4045D02*
X1080Y4015D01*
X1060Y4045D02*
X1075Y4015D01*
X1060Y4045D02*
X1070Y4015D01*
X1060Y4045D02*
X1065Y4015D01*
X1035D02*
X1060Y4045D01*
X1040Y4015D02*
X1060Y4045D01*
X1045Y4015D02*
X1060Y4045D01*
X1050Y4015D02*
X1060Y4045D01*
X1055Y4015D02*
X1060Y4045D01*
X1035Y4015D02*
X1085D01*
X983Y3765D02*
Y3985D01*
Y3765D02*
X1138D01*
Y3985D01*
X983D02*
X1138D01*
X1077Y3349D02*
Y3399D01*
X1052Y3389D02*
X1102D01*
X1077D02*
X1102Y3359D01*
X1077Y3389D02*
X1097Y3359D01*
X1077Y3389D02*
X1092Y3359D01*
X1077Y3389D02*
X1087Y3359D01*
X1077Y3389D02*
X1082Y3359D01*
X1052D02*
X1077Y3389D01*
X1057Y3359D02*
X1077Y3389D01*
X1062Y3359D02*
X1077Y3389D01*
X1067Y3359D02*
X1077Y3389D01*
X1072Y3359D02*
X1077Y3389D01*
X1052Y3359D02*
X1102D01*
X1000Y3109D02*
Y3329D01*
Y3109D02*
X1155D01*
Y3329D01*
X1000D02*
X1155D01*
X1055Y2756D02*
Y2806D01*
X1030Y2796D02*
X1080D01*
X1055D02*
X1080Y2766D01*
X1055Y2796D02*
X1075Y2766D01*
X1055Y2796D02*
X1070Y2766D01*
X1055Y2796D02*
X1065Y2766D01*
X1055Y2796D02*
X1060Y2766D01*
X1030D02*
X1055Y2796D01*
X1035Y2766D02*
X1055Y2796D01*
X1040Y2766D02*
X1055Y2796D01*
X1045Y2766D02*
X1055Y2796D01*
X1050Y2766D02*
X1055Y2796D01*
X1030Y2766D02*
X1080D01*
X978Y2516D02*
Y2736D01*
Y2516D02*
X1133D01*
Y2736D01*
X978D02*
X1133D01*
X1057Y5318D02*
Y5368D01*
X1032Y5358D02*
X1082D01*
X1057D02*
X1082Y5328D01*
X1057Y5358D02*
X1077Y5328D01*
X1057Y5358D02*
X1072Y5328D01*
X1057Y5358D02*
X1067Y5328D01*
X1057Y5358D02*
X1062Y5328D01*
X1032D02*
X1057Y5358D01*
X1037Y5328D02*
X1057Y5358D01*
X1042Y5328D02*
X1057Y5358D01*
X1047Y5328D02*
X1057Y5358D01*
X1052Y5328D02*
X1057Y5358D01*
X1032Y5328D02*
X1082D01*
X980Y5078D02*
Y5298D01*
Y5078D02*
X1135D01*
Y5298D01*
X980D02*
X1135D01*
X1052Y4635D02*
Y4685D01*
X1027Y4675D02*
X1077D01*
X1052D02*
X1077Y4645D01*
X1052Y4675D02*
X1072Y4645D01*
X1052Y4675D02*
X1067Y4645D01*
X1052Y4675D02*
X1062Y4645D01*
X1052Y4675D02*
X1057Y4645D01*
X1027D02*
X1052Y4675D01*
X1032Y4645D02*
X1052Y4675D01*
X1037Y4645D02*
X1052Y4675D01*
X1042Y4645D02*
X1052Y4675D01*
X1047Y4645D02*
X1052Y4675D01*
X1027Y4645D02*
X1077D01*
X975Y4395D02*
Y4615D01*
Y4395D02*
X1130D01*
Y4615D01*
X975D02*
X1130D01*
X840Y6744D02*
Y6727D01*
Y6735D01*
X815D01*
Y6719D02*
X832D01*
X840Y6710D01*
X832Y6702D01*
X815D01*
X828D01*
Y6719D01*
X840Y6694D02*
X815D01*
Y6681D01*
X820Y6677D01*
X824D01*
X828Y6681D01*
Y6694D01*
Y6681D01*
X832Y6677D01*
X836D01*
X840Y6681D01*
Y6694D01*
X838Y7484D02*
Y7467D01*
Y7475D01*
X813D01*
Y7459D02*
X829D01*
X838Y7450D01*
X829Y7442D01*
X813D01*
X825D01*
Y7459D01*
X838Y7434D02*
X813D01*
Y7421D01*
X817Y7417D01*
X821D01*
X825Y7421D01*
Y7434D01*
Y7421D01*
X829Y7417D01*
X833D01*
X838Y7421D01*
Y7434D01*
D173*
X5433Y5170D02*
G03*
X5433Y5170I-98J0D01*
G01*
X5684Y7455D02*
G03*
X5684Y7455I-79J0D01*
G01*
X1399Y3844D02*
G03*
X1399Y3844I-79J0D01*
G01*
X1414Y3225D02*
G03*
X1414Y3225I-79J0D01*
G01*
X1404Y5165D02*
G03*
X1404Y5165I-79J0D01*
G01*
X1319Y5820D02*
G03*
X1319Y5820I-79J0D01*
G01*
X1404Y4510D02*
G03*
X1404Y4510I-79J0D01*
G01*
X1419Y2600D02*
G03*
X1419Y2600I-79J0D01*
G01*
X2674Y5386D02*
G03*
X2674Y5386I-20J0D01*
G01*
X539Y7848D02*
Y8533D01*
X60Y7848D02*
X539D01*
X60D02*
Y8533D01*
X539D01*
X5093Y6816D02*
X5247D01*
Y6624D02*
Y6816D01*
X5093Y6624D02*
X5247D01*
X5093D02*
Y6816D01*
Y6766D02*
X5143Y6816D01*
X3223Y7707D02*
X3487D01*
X3223Y7853D02*
X3487D01*
X3223Y7707D02*
Y7853D01*
X3487Y7707D02*
Y7853D01*
X2034Y987D02*
X2168D01*
X2034Y916D02*
X2168D01*
X2034D02*
Y987D01*
X2168Y916D02*
Y987D01*
X3407Y6421D02*
Y6549D01*
X3343Y6421D02*
Y6549D01*
X3407D01*
X3343Y6421D02*
X3407D01*
X4306Y6596D02*
X4331Y6621D01*
X4306Y6299D02*
Y6621D01*
Y6299D02*
X4514D01*
Y6621D01*
X4306D02*
X4514D01*
X4592Y6826D02*
X4658D01*
X4592Y6956D02*
X4658D01*
X4592Y6826D02*
Y6956D01*
X4658Y6826D02*
Y6956D01*
X4868Y6206D02*
X4918Y6256D01*
X4868Y6064D02*
Y6256D01*
Y6064D02*
X5022D01*
Y6256D01*
X4868D02*
X5022D01*
X4879Y5936D02*
Y5974D01*
X4810Y5936D02*
Y5974D01*
Y5936D02*
X4879D01*
X4810Y5974D02*
X4879D01*
X4597Y6064D02*
X4703D01*
X4597D02*
Y6126D01*
X4703Y6064D02*
Y6126D01*
X4597D02*
X4703D01*
X4814Y6926D02*
Y6964D01*
X4745Y6926D02*
Y6964D01*
Y6926D02*
X4814D01*
X4745Y6964D02*
X4814D01*
X4081Y6189D02*
X4119D01*
X4081Y6120D02*
X4119D01*
Y6189D01*
X4081Y6120D02*
Y6189D01*
X3488Y6416D02*
X3552D01*
X3488Y6544D02*
X3552D01*
X3488Y6416D02*
Y6544D01*
X3552Y6416D02*
Y6544D01*
X5014Y6906D02*
Y6944D01*
X4945Y6906D02*
Y6944D01*
Y6906D02*
X5014D01*
X4945Y6944D02*
X5014D01*
X5225Y6206D02*
X5275Y6256D01*
X5225Y6064D02*
Y6256D01*
Y6064D02*
X5379D01*
Y6256D01*
X5225D02*
X5379D01*
X5093Y6501D02*
X5143Y6551D01*
X5093Y6359D02*
Y6551D01*
Y6359D02*
X5247D01*
Y6551D01*
X5093D02*
X5247D01*
X79Y6917D02*
X435D01*
X79Y6607D02*
Y6917D01*
Y6607D02*
X435D01*
Y6917D01*
X590Y7863D02*
X946D01*
Y8173D01*
X590D02*
X946D01*
X590Y7863D02*
Y8173D01*
X662Y5761D02*
Y5889D01*
X598Y5761D02*
X662D01*
X598D02*
Y5889D01*
X662D01*
X1664Y7401D02*
Y7714D01*
X1896D01*
Y7401D02*
Y7714D01*
X1664Y7401D02*
X1896D01*
X1664Y7445D02*
X1707Y7401D01*
X2619Y5036D02*
X2796D01*
X2619Y5422D02*
X2796D01*
Y5036D02*
Y5422D01*
X2619Y5036D02*
Y5422D01*
X50Y4393D02*
X529D01*
X50Y3507D02*
Y4393D01*
Y3507D02*
X529D01*
Y4393D01*
X55Y6243D02*
X534D01*
X55Y5357D02*
Y6243D01*
Y5357D02*
X534D01*
Y6243D01*
X50Y5325D02*
X529D01*
X50Y4438D02*
Y5325D01*
Y4438D02*
X529D01*
Y5325D01*
X1175Y899D02*
X1246D01*
X1175Y1033D02*
X1246D01*
X1175Y899D02*
Y1033D01*
X1246Y899D02*
Y1033D01*
X1345Y903D02*
X1416D01*
X1345Y1037D02*
X1416D01*
X1345Y903D02*
Y1037D01*
X1416Y903D02*
Y1037D01*
X1873Y1946D02*
X1973D01*
X1873D02*
Y2246D01*
X1973D01*
Y1946D02*
Y2246D01*
X4330Y3712D02*
X4555D01*
Y4838D01*
X4330D02*
X4555D01*
X4330Y3712D02*
Y4838D01*
Y3712D02*
X4555D01*
Y4838D01*
X4330D02*
X4555D01*
X2625Y2613D02*
X2695D01*
X2625Y2747D02*
X2695D01*
X2625Y2613D02*
Y2747D01*
X2695Y2613D02*
Y2747D01*
X3041Y3291D02*
X3099D01*
X3041Y3204D02*
X3099D01*
Y3291D01*
X3041Y3204D02*
Y3291D01*
X4535Y3341D02*
X4605D01*
X4535Y3299D02*
X4605D01*
X4535D02*
Y3341D01*
X4605Y3299D02*
Y3341D01*
X3471Y4563D02*
Y4627D01*
X3509Y4563D02*
Y4627D01*
X3471Y4563D02*
X3509D01*
X3471Y4627D02*
X3509D01*
X3236Y5314D02*
Y5401D01*
X3294Y5314D02*
Y5401D01*
X3236Y5314D02*
X3294D01*
X3236Y5401D02*
X3294D01*
X3096Y5556D02*
Y5643D01*
X3154Y5556D02*
Y5643D01*
X3096Y5556D02*
X3154D01*
X3096Y5643D02*
X3154D01*
X633Y5234D02*
X697D01*
X633Y5106D02*
Y5234D01*
Y5106D02*
X697D01*
Y5234D01*
X713Y3934D02*
X777D01*
X713Y3806D02*
Y3934D01*
Y3806D02*
X777D01*
Y3934D01*
X710Y3261D02*
X775D01*
X710Y3133D02*
Y3261D01*
Y3133D02*
X775D01*
Y3261D01*
X688Y2649D02*
X752D01*
X688Y2521D02*
Y2649D01*
Y2521D02*
X752D01*
Y2649D01*
X708Y4549D02*
X772D01*
X708Y4421D02*
Y4549D01*
Y4421D02*
X772D01*
Y4549D01*
X529Y2587D02*
Y3473D01*
X50Y2587D02*
X529D01*
X50D02*
Y3473D01*
X529D01*
Y1652D02*
Y2538D01*
X50Y1652D02*
X529D01*
X50D02*
Y2538D01*
X529D01*
X524Y702D02*
Y1588D01*
X45Y702D02*
X524D01*
X45D02*
Y1588D01*
X524D01*
D174*
X2803Y5924D02*
G03*
X2827Y5924I12J0D01*
G01*
X785Y6917D02*
G03*
X785Y6917I-5J0D01*
G01*
X782Y7657D02*
G03*
X782Y7657I-5J0D01*
G01*
X2874Y5911D02*
X2914D01*
Y5896D02*
Y5911D01*
X2874Y5896D02*
X2914D01*
X2874D02*
Y5911D01*
Y5924D01*
Y5885D02*
X2914D01*
Y5870D02*
Y5885D01*
X2874Y5870D02*
X2914D01*
X2874Y5860D02*
X2914D01*
Y5845D02*
Y5860D01*
X2874Y5845D02*
X2914D01*
X2874Y5834D02*
X2914D01*
Y5819D02*
Y5834D01*
X2874Y5819D02*
X2914D01*
X2716D02*
X2756D01*
X2716D02*
Y5834D01*
X2756D01*
Y5819D02*
Y5834D01*
Y5806D02*
Y5819D01*
X2716Y5845D02*
X2756D01*
X2716D02*
Y5860D01*
X2756D01*
X2716Y5870D02*
X2756D01*
X2716D02*
Y5885D01*
X2756D01*
X2716Y5896D02*
X2756D01*
X2716D02*
Y5911D01*
X2756D01*
Y5834D02*
Y5845D01*
Y5860D01*
Y5870D01*
Y5885D01*
Y5896D01*
Y5911D01*
Y5924D01*
X2803D01*
X2827D01*
X2874D01*
Y5885D02*
Y5896D01*
Y5870D02*
Y5885D01*
Y5860D02*
Y5870D01*
Y5845D02*
Y5860D01*
Y5834D02*
Y5845D01*
Y5819D02*
Y5834D01*
Y5806D02*
Y5819D01*
X2756Y5806D02*
X2874D01*
M02*
