G04*
G04 #@! TF.GenerationSoftware,Altium Limited,Altium Designer,22.1.2 (22)*
G04*
G04 Layer_Color=8388736*
%FSLAX23Y23*%
%MOIN*%
G70*
G04*
G04 #@! TF.SameCoordinates,EFA1FED7-213C-4DAE-99C9-92C2F6BD185D*
G04*
G04*
G04 #@! TF.FilePolarity,Negative*
G04*
G01*
G75*
%ADD17R,0.048X0.042*%
%ADD18R,0.047X0.038*%
%ADD24R,0.042X0.048*%
%ADD26R,0.059X0.055*%
%ADD27R,0.055X0.059*%
%ADD28R,0.075X0.059*%
%ADD31R,0.063X0.138*%
%ADD32R,0.079X0.157*%
%ADD34R,0.126X0.086*%
%ADD35R,0.059X0.061*%
%ADD36R,0.037X0.053*%
%ADD43R,0.053X0.037*%
%ADD48R,0.067X0.037*%
%ADD50R,0.125X0.130*%
%ADD51R,0.043X0.053*%
%ADD52R,0.036X0.042*%
%ADD53R,0.086X0.126*%
%ADD56R,0.045X0.067*%
%ADD59R,0.078X0.084*%
%ADD60R,0.039X0.030*%
%ADD62R,0.044X0.056*%
%ADD68R,0.086X0.086*%
%ADD70R,0.061X0.061*%
%ADD71R,0.075X0.043*%
%ADD72R,0.084X0.078*%
%ADD80C,0.040*%
%ADD81C,0.039*%
%ADD82R,0.038X0.047*%
%ADD83R,0.086X0.086*%
%ADD88R,0.126X0.071*%
%ADD89R,0.068X0.034*%
%ADD90R,0.054X0.066*%
%ADD91R,0.071X0.110*%
%ADD92R,0.047X0.063*%
%ADD93R,0.136X0.063*%
%ADD94R,0.067X0.083*%
%ADD95R,0.076X0.046*%
%ADD96R,0.029X0.032*%
%ADD97R,0.087X0.165*%
%ADD98R,0.045X0.039*%
%ADD99R,0.020X0.019*%
%ADD100R,0.073X0.051*%
G04:AMPARAMS|DCode=101|XSize=47mil|YSize=64mil|CornerRadius=9mil|HoleSize=0mil|Usage=FLASHONLY|Rotation=0.000|XOffset=0mil|YOffset=0mil|HoleType=Round|Shape=RoundedRectangle|*
%AMROUNDEDRECTD101*
21,1,0.047,0.046,0,0,0.0*
21,1,0.030,0.064,0,0,0.0*
1,1,0.018,0.015,-0.023*
1,1,0.018,-0.015,-0.023*
1,1,0.018,-0.015,0.023*
1,1,0.018,0.015,0.023*
%
%ADD101ROUNDEDRECTD101*%
%ADD102R,0.079X0.026*%
%ADD103R,0.063X0.025*%
%ADD104R,0.047X0.079*%
%ADD105R,0.079X0.059*%
%ADD106R,0.038X0.041*%
%ADD107R,0.044X0.056*%
%ADD108R,0.041X0.038*%
%ADD109R,0.046X0.076*%
%ADD110R,0.075X0.051*%
%ADD111R,0.083X0.067*%
%ADD112R,0.043X0.087*%
%ADD113O,0.075X0.022*%
%ADD114R,0.061X0.041*%
%ADD115R,0.066X0.054*%
%ADD116R,0.114X0.039*%
%ADD117R,0.086X0.029*%
%ADD118R,0.080X0.054*%
G04:AMPARAMS|DCode=119|XSize=47mil|YSize=64mil|CornerRadius=9mil|HoleSize=0mil|Usage=FLASHONLY|Rotation=270.000|XOffset=0mil|YOffset=0mil|HoleType=Round|Shape=RoundedRectangle|*
%AMROUNDEDRECTD119*
21,1,0.047,0.046,0,0,270.0*
21,1,0.030,0.064,0,0,270.0*
1,1,0.018,-0.023,-0.015*
1,1,0.018,-0.023,0.015*
1,1,0.018,0.023,0.015*
1,1,0.018,0.023,-0.015*
%
%ADD119ROUNDEDRECTD119*%
%ADD120R,0.039X0.045*%
%ADD121R,0.069X0.069*%
%ADD122R,0.115X0.058*%
%ADD123R,0.045X0.043*%
%ADD124R,0.123X0.037*%
%ADD125R,0.087X0.043*%
%ADD126R,0.058X0.115*%
%ADD127R,0.034X0.043*%
%ADD128R,0.132X0.095*%
%ADD129R,0.060X0.060*%
%ADD130R,0.143X0.058*%
%ADD131R,0.026X0.045*%
%ADD132R,0.045X0.039*%
%ADD133R,0.105X0.105*%
%ADD134C,0.105*%
%ADD135C,0.061*%
%ADD136R,0.111X0.111*%
%ADD137C,0.111*%
%ADD138C,0.045*%
%ADD139R,0.091X0.091*%
%ADD140C,0.091*%
%ADD141C,0.020*%
%ADD142R,0.091X0.091*%
%ADD143C,0.058*%
G36*
X2485Y7595D02*
X2059D01*
Y7939D01*
X2485D01*
Y7595D01*
D02*
G37*
G36*
X2428Y7280D02*
X2383D01*
Y7420D01*
X2428D01*
Y7280D01*
D02*
G37*
G36*
X2361D02*
X2316D01*
Y7420D01*
X2361D01*
Y7280D01*
D02*
G37*
G36*
X2294D02*
X2249D01*
Y7420D01*
X2294D01*
Y7280D01*
D02*
G37*
G36*
X2227D02*
X2183D01*
Y7420D01*
X2227D01*
Y7280D01*
D02*
G37*
G36*
X2161D02*
X2116D01*
Y7420D01*
X2161D01*
Y7280D01*
D02*
G37*
G36*
X2838Y6789D02*
X2881D01*
Y6730D01*
X2838D01*
Y6683D01*
X2732D01*
Y6730D01*
X2689D01*
Y6789D01*
X2732D01*
Y6864D01*
X2838D01*
Y6789D01*
D02*
G37*
G36*
X2333Y6784D02*
X2376D01*
Y6725D01*
X2333D01*
Y6678D01*
X2227D01*
Y6725D01*
X2184D01*
Y6784D01*
X2227D01*
Y6859D01*
X2333D01*
Y6784D01*
D02*
G37*
G36*
X1853Y6779D02*
X1896D01*
Y6720D01*
X1853D01*
Y6673D01*
X1747D01*
Y6720D01*
X1704D01*
Y6779D01*
X1747D01*
Y6854D01*
X1853D01*
Y6779D01*
D02*
G37*
G36*
X1388Y6775D02*
X1431D01*
Y6715D01*
X1388D01*
Y6668D01*
X1282D01*
Y6715D01*
X1239D01*
Y6775D01*
X1282D01*
Y6849D01*
X1388D01*
Y6775D01*
D02*
G37*
G36*
X2838Y6490D02*
X2881D01*
Y6431D01*
X2838D01*
Y6356D01*
X2732D01*
Y6431D01*
X2689D01*
Y6490D01*
X2732D01*
Y6537D01*
X2838D01*
Y6490D01*
D02*
G37*
G36*
X2333Y6485D02*
X2376D01*
Y6426D01*
X2333D01*
Y6351D01*
X2227D01*
Y6426D01*
X2184D01*
Y6485D01*
X2227D01*
Y6532D01*
X2333D01*
Y6485D01*
D02*
G37*
G36*
X1853Y6480D02*
X1896D01*
Y6421D01*
X1853D01*
Y6346D01*
X1747D01*
Y6421D01*
X1704D01*
Y6480D01*
X1747D01*
Y6527D01*
X1853D01*
Y6480D01*
D02*
G37*
G36*
X1388Y6475D02*
X1431D01*
Y6416D01*
X1388D01*
Y6341D01*
X1282D01*
Y6416D01*
X1239D01*
Y6475D01*
X1282D01*
Y6523D01*
X1388D01*
Y6475D01*
D02*
G37*
G36*
X4342Y3457D02*
X4385D01*
Y3418D01*
X4342D01*
Y3398D01*
X4302D01*
Y3477D01*
X4342D01*
Y3457D01*
D02*
G37*
G36*
X4251Y3398D02*
X4212D01*
Y3418D01*
X4168D01*
Y3457D01*
X4212D01*
Y3477D01*
X4251D01*
Y3398D01*
D02*
G37*
D17*
X5353Y4870D02*
D03*
X5287D02*
D03*
X4227Y6080D02*
D03*
X4293D02*
D03*
D18*
X2660Y3274D02*
D03*
Y3193D02*
D03*
X2790D02*
D03*
X3190Y3260D02*
D03*
X3325D02*
D03*
Y3180D02*
D03*
X3190D02*
D03*
X2790Y3274D02*
D03*
D24*
X1565Y4540D02*
D03*
Y4475D02*
D03*
X1590Y3903D02*
D03*
Y3837D02*
D03*
X1585Y3260D02*
D03*
Y3195D02*
D03*
X1275Y7598D02*
D03*
Y7532D02*
D03*
X1565Y5142D02*
D03*
Y5208D02*
D03*
X1595Y2560D02*
D03*
Y2625D02*
D03*
X1475Y5802D02*
D03*
Y5868D02*
D03*
D26*
X5265Y2025D02*
D03*
Y1952D02*
D03*
X4995Y2016D02*
D03*
Y1944D02*
D03*
X4925Y422D02*
D03*
Y495D02*
D03*
X4675Y486D02*
D03*
Y414D02*
D03*
D27*
X4734Y2525D02*
D03*
X4806D02*
D03*
X5065Y2520D02*
D03*
X5138D02*
D03*
X4709Y1050D02*
D03*
X4781D02*
D03*
X5183D02*
D03*
X5110D02*
D03*
D28*
X4600Y2670D02*
D03*
Y2552D02*
D03*
X4575Y1190D02*
D03*
Y1072D02*
D03*
X4310Y412D02*
D03*
Y530D02*
D03*
X4610Y1931D02*
D03*
Y2049D02*
D03*
D31*
X2785Y7920D02*
D03*
Y7707D02*
D03*
X3050Y7331D02*
D03*
Y7119D02*
D03*
D32*
X5575Y6825D02*
D03*
Y6545D02*
D03*
D34*
X5190Y7563D02*
D03*
Y7317D02*
D03*
X4724Y7302D02*
D03*
Y7548D02*
D03*
X4009Y7540D02*
D03*
Y7294D02*
D03*
D35*
X4920Y6565D02*
D03*
X4850D02*
D03*
D36*
X4885Y6390D02*
D03*
X4826D02*
D03*
X2465Y6105D02*
D03*
X2525D02*
D03*
D43*
X3605Y4835D02*
D03*
Y4775D02*
D03*
X3610Y3240D02*
D03*
X3485Y3235D02*
D03*
X3732Y4769D02*
D03*
X3245Y5865D02*
D03*
X3732Y4828D02*
D03*
X3485Y3175D02*
D03*
X3610Y3180D02*
D03*
X3245Y5925D02*
D03*
D48*
X3925Y6475D02*
D03*
Y6365D02*
D03*
X3505Y6140D02*
D03*
Y6250D02*
D03*
D50*
X5570Y5670D02*
D03*
X5120D02*
D03*
D51*
X3885Y6710D02*
D03*
X3940D02*
D03*
D52*
X3655Y6187D02*
D03*
Y6240D02*
D03*
D53*
X3902Y5580D02*
D03*
X4148D02*
D03*
D56*
X1694Y791D02*
D03*
X2342Y2286D02*
D03*
X2761Y1651D02*
D03*
X2754Y1496D02*
D03*
X2878D02*
D03*
X2885Y1651D02*
D03*
X2466Y2286D02*
D03*
X1818Y791D02*
D03*
D59*
X2858Y6105D02*
D03*
X2672D02*
D03*
D60*
X2660Y2840D02*
D03*
Y2900D02*
D03*
D62*
X2925Y3188D02*
D03*
Y3283D02*
D03*
D68*
X1052Y4578D02*
D03*
Y4432D02*
D03*
X965Y5913D02*
D03*
Y5767D02*
D03*
X1057Y5261D02*
D03*
Y5115D02*
D03*
X1055Y2699D02*
D03*
Y2553D02*
D03*
X1077Y3292D02*
D03*
Y3146D02*
D03*
X1060Y3948D02*
D03*
Y3802D02*
D03*
D70*
X5043Y3963D02*
D03*
X5038Y3463D02*
D03*
X2813Y2903D02*
D03*
D71*
X3130Y5407D02*
D03*
Y5309D02*
D03*
D72*
X3085Y5832D02*
D03*
Y6018D02*
D03*
D80*
X4324Y3440D02*
D03*
D81*
X4225Y3435D02*
D03*
D82*
X4620Y3440D02*
D03*
X4540D02*
D03*
D83*
X5210Y7945D02*
D03*
X5064D02*
D03*
D88*
X5248Y5170D02*
D03*
X5422Y5170D02*
D03*
D89*
X5063Y6795D02*
D03*
Y6745D02*
D03*
Y6695D02*
D03*
Y6645D02*
D03*
X5277D02*
D03*
Y6695D02*
D03*
Y6745D02*
D03*
Y6795D02*
D03*
X5052Y6235D02*
D03*
Y6185D02*
D03*
Y6135D02*
D03*
Y6085D02*
D03*
X4838D02*
D03*
Y6135D02*
D03*
Y6185D02*
D03*
Y6235D02*
D03*
X5409D02*
D03*
Y6185D02*
D03*
Y6135D02*
D03*
Y6085D02*
D03*
X5195D02*
D03*
Y6135D02*
D03*
Y6185D02*
D03*
Y6235D02*
D03*
X5277Y6530D02*
D03*
Y6480D02*
D03*
Y6430D02*
D03*
Y6380D02*
D03*
X5063D02*
D03*
Y6430D02*
D03*
Y6480D02*
D03*
Y6530D02*
D03*
D90*
X4856Y6750D02*
D03*
X4925D02*
D03*
X5515Y7195D02*
D03*
X5446D02*
D03*
D91*
X5605Y7384D02*
D03*
Y7526D02*
D03*
X1320Y3773D02*
D03*
Y3915D02*
D03*
X1335Y3154D02*
D03*
Y3296D02*
D03*
X1325Y5094D02*
D03*
Y5236D02*
D03*
X1240Y5749D02*
D03*
Y5891D02*
D03*
X1325Y4439D02*
D03*
Y4581D02*
D03*
X1340Y2529D02*
D03*
Y2671D02*
D03*
D92*
X3355Y7646D02*
D03*
X3446D02*
D03*
X3264D02*
D03*
X2739Y2066D02*
D03*
X2463D02*
D03*
X2221Y791D02*
D03*
X1946D02*
D03*
D93*
X3355Y7914D02*
D03*
D94*
X2042Y951D02*
D03*
X2160D02*
D03*
D95*
X4135Y2113D02*
D03*
Y1997D02*
D03*
X4105Y462D02*
D03*
Y578D02*
D03*
D96*
X4627Y740D02*
D03*
X4593D02*
D03*
X4321Y985D02*
D03*
X4428Y2535D02*
D03*
X4583Y2245D02*
D03*
X4355Y985D02*
D03*
X4617Y2245D02*
D03*
X4462Y2535D02*
D03*
D97*
X1770Y7245D02*
D03*
Y6965D02*
D03*
X1470Y7459D02*
D03*
Y7739D02*
D03*
D98*
X4545Y413D02*
D03*
Y477D02*
D03*
X4795Y415D02*
D03*
X5125Y2017D02*
D03*
X4795Y480D02*
D03*
X4445Y408D02*
D03*
X5125Y1953D02*
D03*
X4740Y1968D02*
D03*
X4860Y2032D02*
D03*
Y1968D02*
D03*
X4740Y2032D02*
D03*
X4445Y472D02*
D03*
D99*
X3305Y7489D02*
D03*
Y7471D02*
D03*
D100*
X3520Y6424D02*
D03*
Y6536D02*
D03*
X3375Y6429D02*
D03*
Y6541D02*
D03*
D101*
X3671Y6550D02*
D03*
X3745D02*
D03*
X3671Y6395D02*
D03*
X3745D02*
D03*
D102*
X4550Y6601D02*
D03*
Y6575D02*
D03*
Y6550D02*
D03*
Y6524D02*
D03*
Y6498D02*
D03*
Y6473D02*
D03*
Y6447D02*
D03*
Y6422D02*
D03*
Y6396D02*
D03*
Y6370D02*
D03*
Y6345D02*
D03*
Y6319D02*
D03*
X4270D02*
D03*
Y6345D02*
D03*
Y6370D02*
D03*
Y6396D02*
D03*
Y6422D02*
D03*
Y6447D02*
D03*
Y6473D02*
D03*
Y6498D02*
D03*
Y6524D02*
D03*
Y6550D02*
D03*
Y6575D02*
D03*
Y6601D02*
D03*
D103*
X2904Y5903D02*
D03*
Y5878D02*
D03*
Y5827D02*
D03*
X2726D02*
D03*
Y5903D02*
D03*
X2904Y5852D02*
D03*
X2726D02*
D03*
Y5878D02*
D03*
D104*
X3593Y3365D02*
D03*
X3495D02*
D03*
X3597Y4575D02*
D03*
X3695D02*
D03*
D105*
X4625Y6830D02*
D03*
Y6952D02*
D03*
D106*
X4870Y5955D02*
D03*
X4819D02*
D03*
X4805Y6945D02*
D03*
X4754D02*
D03*
X5005Y6925D02*
D03*
X4954D02*
D03*
D107*
X4714Y6095D02*
D03*
X4586D02*
D03*
D108*
X4100Y6180D02*
D03*
Y6129D02*
D03*
D109*
X3837Y6225D02*
D03*
X3953D02*
D03*
X3937Y995D02*
D03*
X4053D02*
D03*
X4007Y2455D02*
D03*
X4123D02*
D03*
D110*
X1211Y915D02*
D03*
Y1017D02*
D03*
X2660Y2629D02*
D03*
Y2731D02*
D03*
D111*
X1381Y911D02*
D03*
Y1029D02*
D03*
D112*
X1866Y1097D02*
D03*
X2366Y1766D02*
D03*
X2316D02*
D03*
X1816Y1097D02*
D03*
X1916D02*
D03*
X1966D02*
D03*
X2016D02*
D03*
X2066D02*
D03*
X2116D02*
D03*
X2166D02*
D03*
X2216D02*
D03*
X2266D02*
D03*
X2316D02*
D03*
X2366D02*
D03*
X2416D02*
D03*
X2466D02*
D03*
Y1766D02*
D03*
X2416D02*
D03*
X2266D02*
D03*
X2216D02*
D03*
X2166D02*
D03*
X2116D02*
D03*
X2066D02*
D03*
X2016D02*
D03*
X1966D02*
D03*
X1916D02*
D03*
X1866D02*
D03*
X1816D02*
D03*
D113*
X2819Y5344D02*
D03*
X2595D02*
D03*
X2819Y5395D02*
D03*
Y5370D02*
D03*
X2595Y5267D02*
D03*
Y5191D02*
D03*
Y5216D02*
D03*
Y5242D02*
D03*
X2819Y5063D02*
D03*
X2595Y5139D02*
D03*
Y5165D02*
D03*
Y5395D02*
D03*
Y5370D02*
D03*
Y5088D02*
D03*
X2819D02*
D03*
Y5139D02*
D03*
Y5165D02*
D03*
Y5191D02*
D03*
Y5216D02*
D03*
Y5242D02*
D03*
Y5267D02*
D03*
Y5293D02*
D03*
Y5114D02*
D03*
Y5319D02*
D03*
X2595Y5063D02*
D03*
Y5114D02*
D03*
Y5293D02*
D03*
Y5319D02*
D03*
D114*
X3070Y3215D02*
D03*
Y3280D02*
D03*
D115*
X1170Y7189D02*
D03*
Y7121D02*
D03*
X2050Y7170D02*
D03*
Y7101D02*
D03*
D116*
X1465Y7330D02*
D03*
Y7243D02*
D03*
D117*
X1969Y4550D02*
D03*
X1882Y5875D02*
D03*
X1992Y5215D02*
D03*
X1997Y2600D02*
D03*
X2027Y3220D02*
D03*
X1962Y3925D02*
D03*
X1775Y4550D02*
D03*
Y4500D02*
D03*
X1688Y5875D02*
D03*
Y5825D02*
D03*
X1798Y5215D02*
D03*
Y5165D02*
D03*
X1803Y2600D02*
D03*
Y2550D02*
D03*
X1833Y3220D02*
D03*
Y3170D02*
D03*
X1768Y3925D02*
D03*
Y3875D02*
D03*
X4419Y900D02*
D03*
X4467Y2410D02*
D03*
X4225Y900D02*
D03*
X4273Y2410D02*
D03*
X4419Y850D02*
D03*
X4467Y2360D02*
D03*
X4225Y800D02*
D03*
X4273Y2310D02*
D03*
X4419Y750D02*
D03*
X4467Y2260D02*
D03*
X1969Y4500D02*
D03*
X1882Y5825D02*
D03*
X1992Y5165D02*
D03*
X1997Y2550D02*
D03*
X2027Y3170D02*
D03*
X1962Y3875D02*
D03*
X1688Y5925D02*
D03*
Y5775D02*
D03*
X1882D02*
D03*
Y5925D02*
D03*
X1798Y5265D02*
D03*
Y5115D02*
D03*
X1992D02*
D03*
Y5265D02*
D03*
X4467Y2310D02*
D03*
X4273Y2260D02*
D03*
Y2360D02*
D03*
X4419Y800D02*
D03*
X4225Y750D02*
D03*
Y850D02*
D03*
X1962Y3975D02*
D03*
Y3825D02*
D03*
X1768D02*
D03*
Y3975D02*
D03*
X2027Y3270D02*
D03*
Y3120D02*
D03*
X1833D02*
D03*
Y3270D02*
D03*
X1997Y2650D02*
D03*
Y2500D02*
D03*
X1803D02*
D03*
Y2650D02*
D03*
X1969Y4600D02*
D03*
Y4450D02*
D03*
X1775D02*
D03*
Y4600D02*
D03*
D118*
X740Y4425D02*
D03*
X630Y5765D02*
D03*
X665Y5110D02*
D03*
X720Y2525D02*
D03*
X742Y3137D02*
D03*
X745Y3810D02*
D03*
X630Y5885D02*
D03*
X665Y5230D02*
D03*
X745Y3930D02*
D03*
X742Y3257D02*
D03*
X720Y2645D02*
D03*
X740Y4545D02*
D03*
D119*
X872Y4537D02*
D03*
Y4463D02*
D03*
X775Y5867D02*
D03*
Y5793D02*
D03*
X867Y5215D02*
D03*
Y5142D02*
D03*
X860Y2630D02*
D03*
Y2556D02*
D03*
X882Y3234D02*
D03*
Y3160D02*
D03*
X880Y3910D02*
D03*
Y3836D02*
D03*
D120*
X4597Y895D02*
D03*
X4710D02*
D03*
X4908Y1055D02*
D03*
X4638Y2395D02*
D03*
X4738Y2390D02*
D03*
X4913Y2510D02*
D03*
X4533Y895D02*
D03*
X4573Y2395D02*
D03*
X4972Y1055D02*
D03*
X4977Y2510D02*
D03*
X4803Y2390D02*
D03*
X4775Y895D02*
D03*
D121*
X3125Y5563D02*
D03*
X3265Y5321D02*
D03*
Y5394D02*
D03*
X3125Y5636D02*
D03*
D122*
X2122Y4622D02*
D03*
X2050Y5947D02*
D03*
X2140Y5282D02*
D03*
Y2687D02*
D03*
X2175Y3312D02*
D03*
X2110Y3987D02*
D03*
X2122Y4438D02*
D03*
X2050Y5763D02*
D03*
X2140Y5098D02*
D03*
Y2503D02*
D03*
X2175Y3128D02*
D03*
X2110Y3803D02*
D03*
D123*
X2270Y4575D02*
D03*
X2205Y5870D02*
D03*
X2275Y5211D02*
D03*
X2295Y2616D02*
D03*
X2315Y3240D02*
D03*
X2255Y3930D02*
D03*
X2205Y5810D02*
D03*
X2275Y5150D02*
D03*
X2295Y2555D02*
D03*
X2270Y4515D02*
D03*
X2255Y3870D02*
D03*
X2315Y3180D02*
D03*
D124*
X4375Y4500D02*
D03*
Y4450D02*
D03*
Y4400D02*
D03*
Y4350D02*
D03*
Y4300D02*
D03*
Y4200D02*
D03*
Y4150D02*
D03*
Y4050D02*
D03*
Y4000D02*
D03*
Y3950D02*
D03*
X4510D02*
D03*
Y3900D02*
D03*
Y3850D02*
D03*
Y3800D02*
D03*
X4375D02*
D03*
Y3850D02*
D03*
Y3900D02*
D03*
X4510Y4000D02*
D03*
Y4050D02*
D03*
Y4100D02*
D03*
X4375D02*
D03*
X4510Y4150D02*
D03*
Y4200D02*
D03*
Y4250D02*
D03*
X4375D02*
D03*
X4510Y4300D02*
D03*
Y4350D02*
D03*
Y4400D02*
D03*
Y4450D02*
D03*
Y4500D02*
D03*
Y4550D02*
D03*
X4375D02*
D03*
X4510Y4600D02*
D03*
X4375D02*
D03*
X4510Y4650D02*
D03*
X4375D02*
D03*
X4510Y4700D02*
D03*
X4375D02*
D03*
X4510Y4750D02*
D03*
X4375D02*
D03*
D125*
X2505Y1657D02*
D03*
Y1607D02*
D03*
Y1207D02*
D03*
Y1257D02*
D03*
Y1307D02*
D03*
Y1357D02*
D03*
Y1407D02*
D03*
Y1457D02*
D03*
Y1507D02*
D03*
Y1557D02*
D03*
D126*
X3982Y825D02*
D03*
X3948Y2295D02*
D03*
X3962Y630D02*
D03*
X3947Y2065D02*
D03*
X3798Y825D02*
D03*
X3763Y2065D02*
D03*
X3778Y630D02*
D03*
X3765Y2295D02*
D03*
D127*
X4186Y1015D02*
D03*
X4290Y2535D02*
D03*
X4244Y1015D02*
D03*
X4347Y2535D02*
D03*
X4586Y625D02*
D03*
X4659Y2175D02*
D03*
X4644Y625D02*
D03*
X4601Y2175D02*
D03*
D128*
X1780Y7420D02*
D03*
Y7696D02*
D03*
D129*
X2039Y1320D02*
D03*
Y1392D02*
D03*
Y1464D02*
D03*
X2111Y1320D02*
D03*
Y1392D02*
D03*
Y1464D02*
D03*
X2183Y1320D02*
D03*
Y1392D02*
D03*
Y1464D02*
D03*
D130*
X1981Y2196D02*
D03*
X1866Y2096D02*
D03*
X1981Y1996D02*
D03*
D131*
X4539Y3320D02*
D03*
X4601D02*
D03*
D132*
X3490Y4570D02*
D03*
Y4620D02*
D03*
D133*
X460Y8390D02*
D03*
X450Y4250D02*
D03*
X455Y6100D02*
D03*
X450Y5182D02*
D03*
Y3330D02*
D03*
Y2395D02*
D03*
X445Y1445D02*
D03*
D134*
X460Y8190D02*
D03*
Y7990D02*
D03*
X450Y3850D02*
D03*
X455Y5700D02*
D03*
X450Y4782D02*
D03*
X445Y1045D02*
D03*
X450Y1995D02*
D03*
Y2930D02*
D03*
Y3650D02*
D03*
Y4050D02*
D03*
X455Y5500D02*
D03*
Y5900D02*
D03*
X450Y4582D02*
D03*
Y4982D02*
D03*
Y3130D02*
D03*
Y2730D02*
D03*
Y2195D02*
D03*
Y1795D02*
D03*
X445Y1245D02*
D03*
Y845D02*
D03*
D135*
X5357Y3727D02*
D03*
X5043D02*
D03*
X5357Y3963D02*
D03*
X5352Y3227D02*
D03*
X5038D02*
D03*
X5352Y3463D02*
D03*
X3127Y2667D02*
D03*
X2813D02*
D03*
X3127Y2903D02*
D03*
D136*
X740Y7940D02*
D03*
X285Y6840D02*
D03*
D137*
X740Y8096D02*
D03*
X285Y6684D02*
D03*
D138*
X780Y6825D02*
D03*
Y6625D02*
D03*
X777Y7565D02*
D03*
Y7365D02*
D03*
X780Y6725D02*
D03*
X777Y7465D02*
D03*
D139*
X462Y7305D02*
D03*
D140*
Y7505D02*
D03*
X195Y502D02*
D03*
X1455Y495D02*
D03*
X2085Y510D02*
D03*
X815Y495D02*
D03*
D141*
X2039Y1356D02*
D03*
Y1428D02*
D03*
X2075Y1320D02*
D03*
Y1392D02*
D03*
Y1464D02*
D03*
X2111Y1356D02*
D03*
Y1428D02*
D03*
X2147Y1320D02*
D03*
Y1392D02*
D03*
Y1464D02*
D03*
X2183Y1356D02*
D03*
Y1428D02*
D03*
D142*
X395Y502D02*
D03*
X1655Y495D02*
D03*
X2285Y510D02*
D03*
X1015Y495D02*
D03*
D143*
X1770Y2790D02*
D03*
X2910Y4860D02*
D03*
X1310Y7325D02*
D03*
X4195Y6215D02*
D03*
X4870Y6880D02*
D03*
X4955Y6660D02*
D03*
X4820Y7070D02*
D03*
X4595Y2866D02*
D03*
X4280Y2715D02*
D03*
X4005Y2600D02*
D03*
X4185Y2225D02*
D03*
X4135Y1860D02*
D03*
X4740Y2275D02*
D03*
X5225Y765D02*
D03*
X4850D02*
D03*
X4725Y740D02*
D03*
X4060Y700D02*
D03*
X1995Y7010D02*
D03*
X4725Y7100D02*
D03*
X3355Y8055D02*
D03*
X2260Y7155D02*
D03*
X3484Y5594D02*
D03*
X3207Y6792D02*
D03*
X1335Y7210D02*
D03*
X2395Y7190D02*
D03*
X3095Y7705D02*
D03*
X3051Y7573D02*
D03*
X5575Y6975D02*
D03*
X5115Y6980D02*
D03*
X4735Y5785D02*
D03*
X4885Y5640D02*
D03*
X4990Y5940D02*
D03*
X5355Y4680D02*
D03*
X670Y6210D02*
D03*
X4915Y2255D02*
D03*
X725Y655D02*
D03*
X4105Y305D02*
D03*
X4794Y1228D02*
D03*
X5168Y896D02*
D03*
X4360Y1115D02*
D03*
X4750Y2150D02*
D03*
X4045Y2205D02*
D03*
X4425Y665D02*
D03*
X4075Y800D02*
D03*
X4555Y230D02*
D03*
X5440Y7035D02*
D03*
X5610Y7780D02*
D03*
X5005Y7235D02*
D03*
X4970Y7600D02*
D03*
X5230Y6870D02*
D03*
X4745Y6485D02*
D03*
X4660Y6438D02*
D03*
X4735Y6585D02*
D03*
X4683Y6382D02*
D03*
X2630Y7350D02*
D03*
X4095Y6040D02*
D03*
X4325Y5920D02*
D03*
X4767Y1766D02*
D03*
X4690Y6725D02*
D03*
X5710Y6395D02*
D03*
X4755Y6780D02*
D03*
X5644Y6315D02*
D03*
X5345Y6320D02*
D03*
X4950Y6355D02*
D03*
X5050Y6310D02*
D03*
X4980Y6860D02*
D03*
X4735Y5965D02*
D03*
X4375Y6225D02*
D03*
X4690Y5905D02*
D03*
X4525Y6025D02*
D03*
X4760Y6180D02*
D03*
X4670Y6280D02*
D03*
X4495Y6160D02*
D03*
X4760Y6310D02*
D03*
X4465Y6875D02*
D03*
X4520Y6755D02*
D03*
X4575Y6230D02*
D03*
X4955Y6440D02*
D03*
X5120Y6305D02*
D03*
X3675Y6054D02*
D03*
X4055Y6375D02*
D03*
X3995Y6315D02*
D03*
X4005Y6460D02*
D03*
X4090Y6465D02*
D03*
X4165Y6370D02*
D03*
X4040Y6230D02*
D03*
X3910Y6590D02*
D03*
X3655Y6710D02*
D03*
X2490Y5425D02*
D03*
X2485Y5525D02*
D03*
X3045Y5715D02*
D03*
X2455Y5705D02*
D03*
X2540Y5790D02*
D03*
X2795Y4925D02*
D03*
X4710Y3360D02*
D03*
X4925Y3480D02*
D03*
X4950Y4105D02*
D03*
X4710Y3740D02*
D03*
X4155Y3725D02*
D03*
X4150Y3805D02*
D03*
X2730Y4510D02*
D03*
X4110Y4060D02*
D03*
X4035Y4095D02*
D03*
X4130Y3970D02*
D03*
X4128Y4173D02*
D03*
X3585Y4445D02*
D03*
X3670Y4440D02*
D03*
X3790Y4575D02*
D03*
X3375Y4530D02*
D03*
X3390Y4800D02*
D03*
X4165Y4940D02*
D03*
X3780Y4660D02*
D03*
X3575D02*
D03*
X3835Y4515D02*
D03*
X3595Y3490D02*
D03*
X3495Y3500D02*
D03*
X3140Y3550D02*
D03*
X3345Y3413D02*
D03*
X4044Y3231D02*
D03*
X4560Y2305D02*
D03*
X4335Y1830D02*
D03*
X3245Y3665D02*
D03*
X2855Y4100D02*
D03*
X2745Y4050D02*
D03*
X2850Y3960D02*
D03*
X2990Y3895D02*
D03*
X3140Y4205D02*
D03*
X3105Y3095D02*
D03*
X3740Y2670D02*
D03*
X4135Y3900D02*
D03*
X4195Y4025D02*
D03*
X4190Y4125D02*
D03*
Y4215D02*
D03*
X4265Y4095D02*
D03*
X3105Y3765D02*
D03*
X2980Y3035D02*
D03*
X3465Y3620D02*
D03*
X3850Y3450D02*
D03*
X3765Y3420D02*
D03*
X3930Y3660D02*
D03*
X2375Y1935D02*
D03*
X2310Y1870D02*
D03*
X2925Y2070D02*
D03*
X3990Y3755D02*
D03*
X4095Y3520D02*
D03*
X4070Y3390D02*
D03*
X2060Y2810D02*
D03*
X2070Y3430D02*
D03*
X2030Y4140D02*
D03*
X2040Y4735D02*
D03*
X1965Y6065D02*
D03*
X2060Y5400D02*
D03*
X2975Y6277D02*
D03*
X2590Y6260D02*
D03*
X3440Y5370D02*
D03*
X2990Y5295D02*
D03*
X2546Y3056D02*
D03*
X3454Y2975D02*
D03*
X2805Y3465D02*
D03*
X2425Y3450D02*
D03*
X2345Y4385D02*
D03*
X2531Y4896D02*
D03*
X2390Y5125D02*
D03*
X2210Y5675D02*
D03*
X1750Y6075D02*
D03*
X1700Y5590D02*
D03*
X1725Y4880D02*
D03*
X1710Y4260D02*
D03*
X1728Y3590D02*
D03*
X1735Y2350D02*
D03*
X2345Y2425D02*
D03*
X2460Y2555D02*
D03*
X3050Y1500D02*
D03*
X2188Y2197D02*
D03*
X2380Y950D02*
D03*
X1590Y995D02*
D03*
X1270Y1150D02*
D03*
X1210Y745D02*
D03*
X1480Y755D02*
D03*
X3590Y3565D02*
D03*
X2362Y5227D02*
D03*
X4155Y4660D02*
D03*
Y4535D02*
D03*
Y4450D02*
D03*
Y4355D02*
D03*
X3200Y3935D02*
D03*
X4120Y4275D02*
D03*
X4715Y3975D02*
D03*
X4710Y3895D02*
D03*
Y3815D02*
D03*
X2600Y4965D02*
D03*
X4252Y4930D02*
D03*
X3005Y4125D02*
D03*
X3980Y5200D02*
D03*
M02*
